<svg xmlns="http://www.w3.org/2000/svg" viewBox="0 0 849.91 1434.07"><defs><style>.cls-1{fill:none;}.cls-2{fill:#ff5733;}</style></defs><g id="Layer_1" data-name="Layer 1"><path class="cls-1" d="M1010,1536c-38.64-6-72.18-9.31-103.91-19.35q-4.95-1.55-9.77-3.46c-29.43-11.71-55.11-33.13-78.58-76.79-1-1.8-2-3.64-2.94-5.52-25.2-47.6-48.15-120.41-78.24-192.51-28.18-74.89-67.25-132-107.24-182.78-41.86-54.77-84.86-102.24-108-174.78C499.88,818.51,496.47,738,512.26,659q2-9.66,4.3-19.23,1.46-5.92,3.06-11.77A435.66,435.66,0,0,1,537.38,576c22.82-54.65,55.75-98.38,96.14-117.82,57.49-36.4,127.33-25.57,216.24-12.46,63.84,11,137.75,23.31,215.92,39.46V459.79q-18.48-4.11-36.5-7.83c-46.08-9.43-90.63-17.54-131.93-24.77-26.22-4.56-50.75-8.68-73.64-12.58l-17-2.61c-86.83-13.47-157.27-23.07-215.31,9.82l-.07,0-.06,0c-26,10.55-49.71,29.86-70.29,57-19.67,25.84-36,58.34-48.57,96.44-1.2,3.62-2.37,7.32-3.49,11h0a531,531,0,0,0-16.94,76.49,524.23,524.23,0,0,0-5.48,64.6c-1.08,49.46,5.3,95.88,18.71,135.14,16.55,55.5,44,96.49,74.69,136.36,8.77,11.38,17.78,22.62,26.86,34,3.88,4.89,7.86,9.91,11.79,14.93,40.66,50.71,84.63,111.59,117,192.65,18.08,40.55,33.4,82.38,48.31,121.42,12.09,31.72,23.67,60.6,35.68,84q2.49,5,5,9.71c24.26,45.79,51.18,70.6,83.91,83.12,1.63.62,3.26,1.21,4.91,1.76,25.68,8.71,52.64,13,81.6,17.4,7.56,1.16,15.32,2.34,23.26,3.62l5.61.92,8.2,1.08c.56.08,1.79.19,2.36.27,21.64,2.53,44.86,5.25,71.35,2.88v-27.71C1045.41,1539.81,1027.22,1537.67,1010,1536Z" transform="translate(-215.77 -254.21)"/><path class="cls-1" d="M1034.17,1507.38c-36-5.2-67.13-8.2-96.34-16.82q-4.62-1.35-9.1-3c-27.93-10.29-52.44-28.66-74.71-68.69-.94-1.65-1.88-3.33-2.81-5.06-23.37-42.86-44.59-109.13-71.76-178.31-25.25-71.54-61-125.5-97.68-173.35-39.13-52.31-79.52-97.34-102.4-163.78-21.15-58.1-26-132.91-11.78-209q1.73-9.12,3.81-18.19,1.29-5.59,2.72-11.15A433.91,433.91,0,0,1,590,610.62c20.46-52,50.25-95,86.66-114.61,53.13-37.86,117.16-28.85,198.93-17.44,56.32,9.37,121.26,19.93,190.08,33.6V486.49l-9.88-2.09c-46.34-9.52-91.13-17.58-132.4-24.64-26.45-4.5-51.15-8.52-73.94-12.25l-15.81-2.32c-79.77-11.81-145.1-19.85-199.1,14.44l-.06.05-.07.05c-23,10.26-44.16,28.54-62.6,53.86-17.52,23.89-32.25,53.74-43.62,88.49-1.1,3.31-2.16,6.69-3.19,10.08h0a507.39,507.39,0,0,0-16.4,74.29,490.61,490.61,0,0,0-5.12,62.74c-.78,47.88,5.89,92.78,19.63,131,16.42,51.31,42.63,89.91,71.67,128,8.23,10.76,16.65,21.41,25.12,32.24,3.63,4.65,7.33,9.4,11,14.17,38,48.43,78.22,106,107.44,183.22,16.31,38.5,30.3,77.31,43.92,113.08,11.29,29.69,22.15,56.36,33.42,77.86q2.36,4.63,4.76,9c22.94,42.14,48.46,63.94,79.53,75.21q2.26.83,4.58,1.56c23.78,7.67,48.85,11.51,75.91,15.44,7,1,14.23,2.07,21.61,3.19l5.23.81,7.61,1c.45.06,1.74.16,2.19.23,15.16,1.61,31.12,3.3,48.58,3v-28.49C1054.63,1509.21,1044.21,1508.22,1034.17,1507.38Z" transform="translate(-215.77 -254.21)"/><path class="cls-1" d="M961.78,1593.32c-43.87-7.6-82.27-11.55-119-24.42q-5.64-2-11.09-4.42c-32.45-14.57-60.48-42.07-86.33-93-1.08-2.1-2.15-4.25-3.22-6.43-28.84-57.09-55.26-143-91.19-220.9-34-81.59-79.82-145-126.36-201.66C477.2,982.79,429,930.45,405.39,845.7,383.19,775,382.64,683,401.59,598.34q2.45-10.76,5.3-21.29,1.78-6.57,3.73-13a445.6,445.6,0,0,1,21.49-57.39c27.54-59.83,66.76-105.14,115.09-124.22,66.23-33.5,147.68-19,250.87-2.53,78.91,14.5,170.8,30.22,267.61,51.53V406.77c-30.46-7.23-60.54-13.71-89.73-19.69-45.57-9.27-89.63-17.47-131-25-25.76-4.69-50-9-73.05-13.25l-19.32-3.18c-101-16.78-181.61-29.52-247.73.56l-.06,0-.06,0c-32,11.1-60.81,32.49-85.68,63.4-24,29.71-43.66,67.54-58.44,112.34-1.41,4.24-2.79,8.58-4.11,12.94h0a573.24,573.24,0,0,0-18,80.88,588.69,588.69,0,0,0-6.2,68.3c-1.68,52.64,4.1,102.1,16.87,143.48,16.79,63.85,46.75,109.62,80.72,153.15,9.86,12.62,20.05,25,30.34,37.6,4.39,5.38,8.92,10.92,13.38,16.45,46.08,55.25,97.44,122.78,136.16,211.5,21.61,44.67,39.62,92.53,57.08,138.11,13.7,35.8,26.72,69.07,40.21,96.35q2.75,5.77,5.52,11.23c26.89,53.1,56.63,83.9,92.67,98.93q2.76,1.15,5.56,2.17c29.49,10.78,60.24,15.93,93,21.32,8.62,1.43,17.48,2.88,26.53,4.47l6.41,1.15c3.09.41,6.21.85,9.35,1.3.79.11,1.91.24,2.7.36,33.85,4.54,71.17,9.55,116.9-.4v-26.06C1025.4,1602.09,992.28,1596.87,961.78,1593.32Z" transform="translate(-215.77 -254.21)"/><path class="cls-1" d="M985.91,1564.67c-41.25-6.79-77.23-10.43-111.48-21.89q-5.29-1.76-10.43-3.93c-30.94-13.14-57.8-37.61-82.45-84.91-1-2-2.06-3.94-3.09-6-27-52.35-51.7-131.69-84.71-206.7-31.1-78.24-73.54-138.51-116.8-192.22-44.6-57.24-90.21-107.14-113.57-185.78-21.85-66.54-23.82-152.8-6.45-234.59q2.19-10.2,4.79-20.25,1.63-6.25,3.4-12.4a440.15,440.15,0,0,1,19.62-54.73c25.18-57.25,61.26-101.77,105.62-121,61.86-35,137.5-22.3,233.56-7.5,71.37,12.75,154.27,26.75,241.76,45.44v-25c-21.39-4.94-42.51-9.48-63.11-13.73-45.83-9.35-90.13-17.51-131.47-24.89-26-4.63-50.36-8.86-73.35-12.92l-18.15-2.9c-93.89-15.12-169.44-26.29-231.52,5.19l-.06,0-.06,0c-29,10.82-55.26,31.17-78,60.22-21.83,27.77-39.86,62.93-53.51,104.39-1.31,3.93-2.58,7.95-3.8,12h0a563.35,563.35,0,0,0-23.31,145.13c-1.39,51.05,4.7,99,17.79,139.31,16.67,59.67,45.38,103,77.7,144.76,9.31,12,18.91,23.82,28.6,35.81,4.14,5.14,8.39,10.42,12.58,15.69,43.37,53,91,117.18,126.59,202.07,19.84,42.61,36.51,87.46,52.69,129.77,12.9,33.76,25.2,64.83,38,90.19q2.61,5.4,5.27,10.47c25.57,49.45,53.9,77.25,88.29,91q2.59,1,5.23,2c27.59,9.74,56.44,14.45,87.3,19.36,8.09,1.29,16.39,2.61,24.89,4,2,.33,4,.68,6,1q4.35.57,8.78,1.19c.67.09,1.85.21,2.52.31,27.86,3.52,58.18,7.35,94.13,1.71v-26.9C1035.63,1570.78,1009.88,1567.23,985.91,1564.67Z" transform="translate(-215.77 -254.21)"/><path class="cls-1" d="M952.88,579.1c-56.24-5.89-104.85-11-145.39,31.78l-.08.08-.09.08c-22.13,18.21-43.13,56.16-57.63,104.1h0a425.63,425.63,0,0,0-14.26,65.5c-8.71,62.3-1.92,121,19.63,169.68,15.93,34.6,37.15,63.64,59.62,94.38,36,49.31,73.31,100.29,95.11,181.73,19.3,63.32,36,111.2,54.48,138.85,17.67,27.53,37.56,37.33,62,43.59a361.78,361.78,0,0,0,39.41,6.48V596.12C1023.73,589.08,985.23,583.55,952.88,579.1Z" transform="translate(-215.77 -254.21)"/><path class="cls-1" d="M1025.81,1410.67c-23.4-6-44.39-15.24-63.09-44.36-18.89-28.22-35.49-76.32-54.72-139.4-35.41-132.23-113.21-185.85-154.64-275.83C733.25,905.62,724.14,848,733.59,780.4a426.81,426.81,0,0,1,14.32-65.79c13.39-44.28,33.74-84.85,58.23-105,40-42.21,86.64-38.66,147-32.34,33.75,4.64,71.91,10.17,112.55,17v-26c-22.11-4-43.5-7.53-63.82-10.77-27.16-4.32-52.34-8-74.84-11.26l-12.3-1.45c-58.6-6.86-108.59-10.2-150.46,28.31l-.08.07-.08.07c-14.09,9.43-27.5,24.59-39.51,44.32-11.06,18.08-20.84,39.94-28.81,64.64q-1.15,3.57-2.26,7.23h0a445.94,445.94,0,0,0-14.79,67.7,399.9,399.9,0,0,0-4,57.19c.12,43.12,7.67,83.46,22.38,118.5,16,38.78,38.52,70.2,62.64,102.77,6.59,8.89,13.25,17.79,19.89,26.87q4.3,5.88,8.6,11.9c29.81,41.61,59,89.22,78.73,154.93,11,32.33,21,62.09,30.75,88.06,8.89,23.57,17.58,43.66,26.62,59.38q2,3.48,4,6.68c19,31.18,40.29,44,66.38,51.5,1.2.33,2.41.64,3.62.94,18.05,4.55,37.45,7.09,58.81,9.56l8.56,1v-29.14A363.8,363.8,0,0,1,1025.81,1410.67Z" transform="translate(-215.77 -254.21)"/><path class="cls-1" d="M1001.23,1438.33c-2.62-.62-5.22-1.29-7.78-2-24.91-7.43-47.07-19.72-67-52.47q-1.28-2-2.53-4.14c-19.74-33.38-37.48-86.59-58.81-149.92-19.4-64.85-48.39-112.5-78.55-154.48-33.66-47.39-68.84-87.55-91.24-141.79-20.45-49.67-28.14-113-17.1-183.45q1.25-8,2.81-16.13,1-4.93,2-9.89A432.26,432.26,0,0,1,695.28,680C711,633.08,734.52,591.72,763,571.74c44.38-40.76,96.81-35.39,164.3-27.37,41.27,6.15,88.33,13.32,138.39,22.31v-26c-31.38-6-61.64-11.17-90-15.8-26.93-4.38-52-8.19-74.54-11.59l-13.47-1.74C822,503.06,766.94,498.15,721,535.26l-.07.06-.08.06c-17.07,9.71-33,25.91-47.2,47.5-13.22,20-24.64,44.54-33.75,72.59-.88,2.69-1.74,5.43-2.57,8.18h0A466.66,466.66,0,0,0,622,733.55a428.68,428.68,0,0,0-4.39,59.05c-.19,44.7,7.07,86.56,21.46,122.66,16.17,43,39.89,76.77,65.65,111.16,7.13,9.52,14.38,19,21.63,28.67,3.12,4.16,6.27,8.39,9.39,12.65,32.53,43.88,65.41,94.82,88.31,164.36,12.77,34.39,24.07,67.17,35.14,96.4,9.68,25.61,19.1,47.9,28.88,65.54,1.42,2.58,2.83,5.06,4.26,7.44,20.31,34.83,43,50.64,70.77,59.4,1.3.4,2.62.79,3.94,1.15,20,5.59,41.24,8.56,64.51,11.52q8.92,1.14,18.34,2.34l4.43.58,6.46.75c.22,0,1.62.11,1.85.14l3,.24v-29.43C1041.93,1445.49,1020.89,1443,1001.23,1438.33Z" transform="translate(-215.77 -254.21)"/><path class="cls-1" d="M1058.3,1478.73c-33.41-4.39-62.09-7.08-88.77-14.29q-4.28-1.14-8.44-2.5c-26.42-8.85-49.76-24.18-70.84-60.57-.89-1.5-1.78-3-2.66-4.61-21.56-38.11-41-97.85-65.29-164.11-22.32-68.19-54.68-119-88.11-163.92C697.79,1018.89,660,976.29,637.37,916c-20.81-53.88-27.06-123-14.44-196.24q1.47-8.57,3.3-17.15,1.14-5.28,2.39-10.53a432,432,0,0,1,14-46.74c18.1-49.47,44.74-91.62,77.18-111.42,48.75-39.3,107-32.11,181.61-22.4,48.8,7.73,104.79,16.59,164.24,27.87V513.45c-40.64-8.12-79.85-15.06-116.12-21.12-26.7-4.44-51.55-8.35-74.25-11.92l-14.64-2C788,468.22,727.75,461.74,677.79,497.44l-.07.06-.08.06c-20,10-38.6,27.22-54.89,50.67-15.37,22-28.45,49.15-38.69,80.55-1,3-1.95,6.05-2.88,9.13h0A487,487,0,0,0,565.32,710a460,460,0,0,0-4.76,60.9c-.49,46.29,6.48,89.67,20.54,126.82,16.3,47.14,41.27,83.35,68.66,119.57,7.68,10.13,15.52,20.2,23.38,30.45,3.38,4.4,6.8,8.89,10.19,13.41,35.24,46.16,71.82,100.41,97.88,173.79,14.53,36.44,27.18,72.24,39.52,104.74,10.49,27.65,20.63,52.13,31.16,71.7q2.24,4.24,4.51,8.2c21.62,38.49,45.73,57.29,75.14,67.31,1.41.47,2.83.92,4.27,1.35,21.86,6.63,45,10,70.2,13.48,6.49.89,13.16,1.8,20,2.77l4.83.69c2.32.28,4.67.56,7,.86.33,0,1.68.13,2,.18,8.3.78,16.86,1.58,25.8,2v-29Z" transform="translate(-215.77 -254.21)"/><path class="cls-1" d="M720.19,283l-21.66-3.77c-115.06-20.09-205.95-36-280.15-8.69l-.05,0-.05,0c-37.91,11.65-71.92,35.13-101.08,69.76C288.93,374,265.94,417.09,248.88,468.6c-1.62,4.85-3.21,9.84-4.72,14.83h0c-14.81,49-23.8,103.37-26,157.28-2.28,55.82,2.92,108.31,15,151.8,22.05,93.43,69.9,150.6,120.56,211.13,4.91,5.86,10,11.93,15,18,51.5,59.8,110.25,134,155.29,230.36,25.15,48.78,45.85,102.67,65.86,154.79,15.31,39.87,29.77,77.53,44.74,108.67,32.64,71.34,68.75,112.66,113.66,130.07,33.31,12.86,67.84,18.88,104.39,25.24,12,2.09,24.33,4.24,37,6.69,4.46.63,9,1.3,13.54,2,45.37,6.7,96.43,14.23,162.45-6.76v-24.12c-61.7,17-109.14,7.84-152.17,2.1-49.09-9.2-92.35-13.79-134.19-29.5q-6.3-2.37-12.4-5.36c-35.47-17.43-65.85-51-94.08-109.24-1.17-2.4-2.34-4.86-3.51-7.35C636.86,1432.6,607,1333.65,565.2,1249.88c-39.88-88.28-92.39-158-145.48-220.52C366.91,964.74,313.47,907.53,289.4,810.58,266.51,731.4,268.81,628,290.93,537.65q2.91-11.85,6.28-23.36,2.12-7.21,4.41-14.27a457.35,457.35,0,0,1,25.22-62.71c32.26-65,77.77-111.91,134.05-130.62,75-30.61,168-12.49,285.5,7.4,94,18,203.89,37.23,319.29,63.91V353.29c-96.2-22.72-189-40.38-273-56.37C767.36,292.11,743.47,287.56,720.19,283Z" transform="translate(-215.77 -254.21)"/><path class="cls-1" d="M818.79,329.49c-25.52-4.75-49.56-9.19-72.75-13.57l-20.48-3.48c-108-18.44-193.78-32.74-263.95-4.06l-.05,0-.05,0c-34.93,11.38-66.37,33.81-93.38,66.58-26.13,31.65-47.46,72.14-63.39,120.3-1.51,4.54-3,9.21-4.41,13.88h0a593.57,593.57,0,0,0-18.54,83.08,625.38,625.38,0,0,0-6.57,70.15c-2,54.22,3.51,105.2,16,147.63,16.91,68,48.12,116.2,83.73,161.55,10.4,13.24,21.18,26.23,32.07,39.4,4.66,5.62,9.46,11.42,14.19,17.2C470,1085.73,525,1156.57,566.9,1249.13c23.38,46.72,42.73,97.6,61.46,146.45,14.51,37.83,28.25,73.3,42.48,102.51q2.86,6.17,5.77,12c28.21,56.75,59.35,90.55,97.06,106.84q2.91,1.26,5.88,2.37c31.4,11.82,64,17.4,98.69,23.28,9.15,1.56,18.55,3.15,28.16,4.9l6.81,1.25,9.93,1.41c.89.14,2,.28,2.86.41,39.68,5.61,83.91,11.86,139.68-3.26v-25.16c-50.85,11.56-91.2,4.46-128-.15-46.48-8.4-87.32-12.67-126.62-27q-6-2.16-11.75-4.89c-34-16-63.17-46.55-90.21-101.12q-1.68-3.39-3.36-6.9c-30.65-61.83-58.81-154.24-97.66-235.09-37-84.93-86.11-151.51-135.92-211.09C422.05,973.76,371.23,919,347.39,828.14c-22.54-75-21.66-172.69-1.13-260.14q2.69-11.31,5.79-22.33,1.95-6.9,4.07-13.65a450.2,450.2,0,0,1,23.36-60c29.89-62.43,72.26-108.53,124.57-127.42,70.6-32.06,157.85-15.76,268.18,2.44,86.44,16.25,187.34,33.71,293.45,57.68V380.2c-39.56-9.49-78.59-17.87-116.34-25.56C904,345.46,860.2,337.21,818.79,329.49Z" transform="translate(-215.77 -254.21)"/><path class="cls-2" d="M903.23,1679.4c-4.57-.67-9.08-1.34-13.54-2-12.68-2.45-25.05-4.6-37-6.69-36.55-6.36-71.08-12.38-104.39-25.24-44.91-17.41-81-58.73-113.66-130.07-15-31.14-29.43-68.8-44.74-108.67-20-52.12-40.71-106-65.86-154.79-45-96.4-103.79-170.56-155.29-230.36-5-6-10.08-12.1-15-18C303.09,943.12,255.24,886,233.19,792.52c-12.12-43.49-17.32-96-15-151.8,2.21-53.91,11.2-108.29,26-157.28h0c1.51-5,3.1-10,4.72-14.83,17.06-51.51,40.05-94.65,68.32-128.24,29.16-34.63,63.17-58.11,101.08-69.76l.05,0,.05,0c74.2-27.27,165.09-11.4,280.15,8.69L720.19,283c23.28,4.54,47.17,9.09,72.45,13.9,84,16,176.84,33.65,273,56.37v-1.9C941,322,822.07,301,720.55,281.19c-124.62-21.58-223.48-41.52-302.82-12.37C339.56,292.86,280.92,366,247.12,468q-2.46,7.35-4.75,14.9c-29.6,97.94-36.27,219.3-11,310.1,24.32,103.05,80.36,162.69,135.91,229.78,56.36,65.44,112.23,138.32,155,230C567,1339.44,598.67,1444.92,633,1516.24c33.85,74,70.37,113.82,114.66,131s90,22,141.76,32c49.11,6.91,103.55,18.32,176.3-4.68v-1.95C999.66,1693.63,948.6,1686.1,903.23,1679.4Z" transform="translate(-215.77 -254.21)"/><path class="cls-2" d="M926,1650.54c-.9-.13-2-.27-2.86-.41l-9.93-1.41-6.81-1.25c-9.61-1.75-19-3.34-28.16-4.9-34.66-5.88-67.29-11.46-98.69-23.28q-3-1.11-5.88-2.37c-37.71-16.29-68.85-50.09-97.06-106.84q-2.9-5.82-5.77-12c-14.23-29.21-28-64.68-42.48-102.51-18.73-48.85-38.08-99.73-61.46-146.45C525,1156.57,470,1085.73,421.17,1028.2c-4.73-5.78-9.53-11.58-14.19-17.2-10.89-13.17-21.67-26.16-32.07-39.4-35.61-45.35-66.82-93.51-83.73-161.55-12.45-42.43-17.94-93.41-16-147.63a625.38,625.38,0,0,1,6.57-70.15,593.57,593.57,0,0,1,18.54-83.08h0c1.41-4.67,2.9-9.34,4.41-13.88C320.67,447.14,342,406.65,368.13,375c27-32.77,58.45-55.2,93.38-66.58l.05,0,.05,0c70.17-28.68,155.94-14.38,263.95,4.06L746,315.92c23.19,4.38,47.23,8.82,72.75,13.57,41.41,7.72,85.23,16,130.55,25.15,37.75,7.69,76.78,16.07,116.34,25.56V378c-115.4-26.68-225.31-45.88-319.29-63.91-117.48-19.89-210.53-38-285.5-7.4-56.28,18.71-101.79,65.59-134,130.62A457.35,457.35,0,0,0,301.62,500q-2.3,7.05-4.41,14.27-3.36,11.51-6.28,23.36C268.81,628,266.51,731.4,289.4,810.58c24.07,96.95,77.51,154.16,130.32,218.78,53.09,62.51,105.6,132.24,145.48,220.52,41.77,83.77,71.66,182.72,104.13,249.29,1.17,2.49,2.34,4.95,3.51,7.35,28.23,58.21,58.61,91.81,94.08,109.24q6.11,3,12.4,5.36c41.84,15.71,85.1,20.3,134.19,29.5,43,5.74,90.47,14.91,152.17-2.1v-1.24C1009.91,1662.4,965.68,1656.15,926,1650.54Z" transform="translate(-215.77 -254.21)"/><path class="cls-2" d="M948.78,1621.68c-.79-.12-1.91-.25-2.7-.36-3.14-.45-6.26-.89-9.35-1.3l-6.41-1.15c-9.05-1.59-17.91-3-26.53-4.47-32.75-5.39-63.5-10.54-93-21.32q-2.81-1-5.56-2.17c-36-15-65.78-45.83-92.67-98.93q-2.77-5.45-5.52-11.23c-13.49-27.28-26.51-60.55-40.21-96.35-17.46-45.58-35.47-93.44-57.08-138.11C571,1157.57,519.68,1090,473.6,1034.79c-4.46-5.53-9-11.07-13.38-16.45-10.29-12.58-20.48-25-30.34-37.6-34-43.53-63.93-89.3-80.72-153.15-12.77-41.38-18.55-90.84-16.87-143.48a588.69,588.69,0,0,1,6.2-68.3,573.24,573.24,0,0,1,18-80.88h0c1.32-4.36,2.7-8.7,4.11-12.94,14.78-44.8,34.47-82.63,58.44-112.34,24.87-30.91,53.73-52.3,85.68-63.4l.06,0,.06,0c66.12-30.08,146.78-17.34,247.73-.56l19.32,3.18C795,353,819.19,357.37,845,362.06c41.37,7.55,85.43,15.75,131,25,29.19,6,59.27,12.46,89.73,19.69v-2.1c-106.11-24-207-41.43-293.45-57.68-110.33-18.2-197.58-34.5-268.18-2.44-52.31,18.89-94.68,65-124.57,127.42a450.2,450.2,0,0,0-23.36,60q-2.12,6.75-4.07,13.65-3.1,11-5.79,22.33c-20.53,87.45-21.41,185.18,1.13,260.14,23.84,90.85,74.66,145.62,124.74,207.78,49.81,59.58,99,126.16,135.92,211.09,38.85,80.85,67,173.26,97.66,235.09q1.68,3.51,3.36,6.9c27,54.57,56.25,85.12,90.21,101.12q5.78,2.73,11.75,4.89c39.3,14.29,80.14,18.56,126.62,27,36.83,4.61,77.18,11.71,128,.15v-.84C1020,1631.23,982.63,1626.22,948.78,1621.68Z" transform="translate(-215.77 -254.21)"/><path class="cls-2" d="M547.2,382.41c-48.33,19.08-87.55,64.39-115.09,124.22A445.6,445.6,0,0,0,410.62,564q-2,6.47-3.73,13-2.86,10.51-5.3,21.29C382.64,683,383.19,775,405.39,845.7,429,930.45,477.2,982.79,524.54,1042.48c46.54,56.65,92.33,120.07,126.36,201.66,35.93,77.93,62.35,163.81,91.19,220.9,1.07,2.18,2.14,4.33,3.22,6.43,25.85,50.94,53.88,78.44,86.33,93q5.46,2.46,11.09,4.42c36.78,12.87,75.18,16.82,119,24.42,30.5,3.55,63.62,8.77,103.9,1.9v-.7c-36,5.64-66.27,1.81-94.13-1.71-.67-.1-1.85-.22-2.52-.31q-4.42-.62-8.78-1.19c-2-.35-4-.7-6-1-8.5-1.44-16.8-2.76-24.89-4-30.86-4.91-59.71-9.62-87.3-19.36q-2.64-.93-5.23-2c-34.39-13.78-62.72-41.58-88.29-91q-2.65-5.07-5.27-10.47c-12.75-25.36-25-56.43-38-90.19-16.18-42.31-32.85-87.16-52.69-129.77-35.55-84.89-83.22-149.09-126.59-202.07-4.19-5.27-8.44-10.55-12.58-15.69-9.69-12-19.29-23.82-28.6-35.81-32.32-41.71-61-85.09-77.7-144.76C394.06,804.8,388,756.86,389.36,705.81a563.35,563.35,0,0,1,23.31-145.13h0c1.22-4,2.49-8,3.8-12,13.65-41.46,31.68-76.62,53.51-104.39,22.72-29.05,49-49.4,78-60.22l.06,0,.06,0c62.08-31.48,137.63-20.31,231.52-5.19l18.15,2.9c23,4.06,47.36,8.29,73.35,12.92,41.34,7.38,85.64,15.54,131.47,24.89,20.6,4.25,41.72,8.79,63.11,13.73v-1.84c-96.81-21.31-188.7-37-267.61-51.53C694.88,363.39,613.43,348.91,547.2,382.41Z" transform="translate(-215.77 -254.21)"/><path class="cls-2" d="M590.36,420.28c-44.36,19.25-80.44,63.77-105.62,121A440.15,440.15,0,0,0,465.12,596q-1.77,6.15-3.4,12.4-2.6,10-4.79,20.25c-17.37,81.79-15.4,168.05,6.45,234.59,23.36,78.64,69,128.54,113.57,185.78,43.26,53.71,85.7,114,116.8,192.22,33,75,57.7,154.35,84.71,206.7,1,2,2,4,3.09,6,24.65,47.3,51.51,71.77,82.45,84.91q5.14,2.18,10.43,3.93c34.25,11.46,70.23,15.1,111.48,21.89,24,2.56,49.72,6.11,79.77,2.95v-.79c-26.49,2.37-49.71-.35-71.35-2.88-.57-.08-1.8-.19-2.36-.27l-8.2-1.08-5.61-.92c-7.94-1.28-15.7-2.46-23.26-3.62-29-4.42-55.92-8.69-81.6-17.4-1.65-.55-3.28-1.14-4.91-1.76-32.73-12.52-59.65-37.33-83.91-83.12q-2.52-4.69-5-9.71c-12-23.43-23.59-52.31-35.68-84-14.91-39-30.23-80.87-48.31-121.42-32.38-81.06-76.35-141.94-117-192.65-3.93-5-7.91-10-11.79-14.93-9.08-11.41-18.09-22.65-26.86-34-30.68-39.87-58.14-80.86-74.69-136.36-13.41-39.26-19.79-85.68-18.71-135.14a524.23,524.23,0,0,1,5.48-64.6,531,531,0,0,1,16.94-76.49h0c1.12-3.72,2.29-7.42,3.49-11,12.52-38.1,28.9-70.6,48.57-96.44,20.58-27.18,44.29-46.49,70.29-57l.06,0,.07,0c58-32.89,128.48-23.29,215.31-9.82l17,2.61c22.89,3.9,47.42,8,73.64,12.58,41.3,7.23,85.85,15.34,131.93,24.77q18,3.74,36.5,7.83v-1.57c-87.49-18.69-170.39-32.69-241.76-45.44C727.86,398,652.22,385.32,590.36,420.28Z" transform="translate(-215.77 -254.21)"/><path class="cls-2" d="M633.52,458.14C593.13,477.58,560.2,521.31,537.38,576A435.66,435.66,0,0,0,519.62,628q-1.61,5.85-3.06,11.77-2.34,9.56-4.3,19.23c-15.79,78.94-12.38,159.48,9.12,221.8,23.12,72.54,66.12,120,108,174.78,40,50.78,79.06,107.89,107.24,182.78,30.09,72.1,53,144.91,78.24,192.51,1,1.88,2,3.72,2.94,5.52,23.47,43.66,49.15,65.08,78.58,76.79q4.82,1.92,9.77,3.46c31.73,10,65.27,13.36,103.91,19.35,17.18,1.65,35.37,3.79,55.64,3.1v-1c-17.46.31-33.42-1.38-48.58-3-.45-.07-1.74-.17-2.19-.23l-7.61-1-5.23-.81c-7.38-1.12-14.59-2.16-21.61-3.19-27.06-3.93-52.13-7.77-75.91-15.44q-2.31-.73-4.58-1.56c-31.07-11.27-56.59-33.07-79.53-75.21q-2.4-4.32-4.76-9c-11.27-21.5-22.13-48.17-33.42-77.86-13.62-35.77-27.61-74.58-43.92-113.08-29.22-77.22-69.49-134.79-107.44-183.22-3.66-4.77-7.36-9.52-11-14.17-8.47-10.83-16.89-21.48-25.12-32.24-29-38-55.25-76.65-71.67-128-13.74-38.21-20.41-83.11-19.63-131a490.61,490.61,0,0,1,5.12-62.74A507.39,507.39,0,0,1,525,612.17h0c1-3.39,2.09-6.77,3.19-10.08,11.37-34.75,26.1-64.6,43.62-88.49,18.44-25.32,39.57-43.6,62.6-53.86l.07-.05.06-.05c54-34.29,119.33-26.25,199.1-14.44l15.81,2.32c22.79,3.73,47.49,7.75,73.94,12.25,41.27,7.06,86.06,15.12,132.4,24.64l9.88,2.09v-1.35C987.51,469,913.6,456.72,849.76,445.68,760.85,432.57,691,421.74,633.52,458.14Z" transform="translate(-215.77 -254.21)"/><path class="cls-2" d="M676.67,496c-36.41,19.62-66.2,62.56-86.66,114.61A433.91,433.91,0,0,0,574.12,660q-1.43,5.55-2.72,11.15-2.08,9.06-3.81,18.19c-14.2,76.11-9.37,150.92,11.78,209,22.88,66.44,63.27,111.47,102.4,163.78C718.49,1110,754.2,1164,779.45,1235.52c27.17,69.18,48.39,135.45,71.76,178.31.93,1.73,1.87,3.41,2.81,5.06,22.27,40,46.78,58.4,74.71,68.69q4.49,1.64,9.1,3c29.21,8.62,60.32,11.62,96.34,16.82,10,.84,20.46,1.83,31.51,2.21v-1.37c-8.94-.42-17.5-1.22-25.8-2-.34,0-1.69-.13-2-.18-2.37-.3-4.72-.58-7-.86l-4.83-.69c-6.82-1-13.49-1.88-20-2.77-25.16-3.45-48.34-6.85-70.2-13.48-1.44-.43-2.86-.88-4.27-1.35-29.41-10-53.52-28.82-75.14-67.31q-2.28-3.94-4.51-8.2c-10.53-19.57-20.67-44.05-31.16-71.7-12.34-32.5-25-68.3-39.52-104.74-26.06-73.38-62.64-127.63-97.88-173.79-3.39-4.52-6.81-9-10.19-13.41-7.86-10.25-15.7-20.32-23.38-30.45-27.39-36.22-52.36-72.43-68.66-119.57-14.06-37.15-21-80.53-20.54-126.82a460,460,0,0,1,4.76-60.9,487,487,0,0,1,15.86-72.09h0c.93-3.08,1.89-6.13,2.88-9.13,10.24-31.4,23.32-58.59,38.69-80.55,16.29-23.45,34.85-40.69,54.89-50.67l.08-.06.07-.06c50-35.7,110.17-29.22,182.88-19.06l14.64,2c22.7,3.57,47.55,7.48,74.25,11.92,36.27,6.06,75.48,13,116.12,21.12v-1.28c-68.82-13.67-133.76-24.23-190.08-33.6C793.83,467.16,729.8,458.15,676.67,496Z" transform="translate(-215.77 -254.21)"/><path class="cls-2" d="M719.83,533.87c-32.44,19.8-59.08,62-77.18,111.42a432,432,0,0,0-14,46.74q-1.26,5.25-2.39,10.53-1.82,8.58-3.3,17.15C610.31,793,616.56,862.07,637.37,916c22.64,60.34,60.42,102.94,96.82,152.78,33.43,44.92,65.79,95.73,88.11,163.92,24.25,66.26,43.73,126,65.29,164.11.88,1.58,1.77,3.11,2.66,4.61,21.08,36.39,44.42,51.72,70.84,60.57q4.17,1.36,8.44,2.5c26.68,7.21,55.36,9.9,88.77,14.29l7.38.52v-1.65l-3-.24c-.23,0-1.63-.11-1.85-.14l-6.46-.75-4.43-.58q-9.4-1.22-18.34-2.34c-23.27-3-44.55-5.93-64.51-11.52-1.32-.36-2.64-.75-3.94-1.15-27.75-8.76-50.46-24.57-70.77-59.4-1.43-2.38-2.84-4.86-4.26-7.44-9.78-17.64-19.2-39.93-28.88-65.54-11.07-29.23-22.37-62-35.14-96.4-22.9-69.54-55.78-120.48-88.31-164.36-3.12-4.26-6.27-8.49-9.39-12.65-7.25-9.67-14.5-19.15-21.63-28.67C679,992,655.26,958.21,639.09,915.26c-14.39-36.1-21.65-78-21.46-122.66A428.68,428.68,0,0,1,622,733.55a466.66,466.66,0,0,1,15.33-69.9h0c.83-2.75,1.69-5.49,2.57-8.18,9.11-28.05,20.53-52.57,33.75-72.59,14.15-21.59,30.13-37.79,47.2-47.5l.08-.06.07-.06c45.92-37.11,101-32.2,166.68-23.69l13.47,1.74c22.59,3.4,47.61,7.21,74.54,11.59,28.33,4.63,58.59,9.84,90,15.8v-1.36c-59.45-11.28-115.44-20.14-164.24-27.87C826.81,501.76,768.58,494.57,719.83,533.87Z" transform="translate(-215.77 -254.21)"/><path class="cls-2" d="M763,571.74c-28.47,20-52,61.34-67.71,108.21A432.26,432.26,0,0,0,683.12,724q-1.08,5-2,9.89-1.58,8.1-2.81,16.13c-11,70.43-3.35,133.78,17.1,183.45,22.4,54.24,57.58,94.4,91.24,141.79,30.16,42,59.15,89.63,78.55,154.48,21.33,63.33,39.07,116.54,58.81,149.92q1.26,2.11,2.53,4.14c19.89,32.75,42,45,67,52.47,2.56.73,5.16,1.4,7.78,2,19.66,4.71,40.7,7.16,64.45,9.84v-1.81l-8.56-1c-21.36-2.47-40.76-5-58.81-9.56-1.21-.3-2.42-.61-3.62-.94-26.09-7.52-47.39-20.32-66.38-51.5q-2-3.2-4-6.68c-9-15.72-17.73-35.81-26.62-59.38-9.79-26-19.75-55.73-30.75-88.06-19.73-65.71-48.92-113.32-78.73-154.93q-4.29-6-8.6-11.9c-6.64-9.08-13.3-18-19.89-26.87-24.12-32.57-46.59-64-62.64-102.77-14.71-35-22.26-75.38-22.38-118.5a399.9,399.9,0,0,1,4-57.19,445.94,445.94,0,0,1,14.79-67.7h0q1.11-3.66,2.26-7.23c8-24.7,17.75-46.56,28.81-64.64,12-19.73,25.42-34.89,39.51-44.32l.08-.07.08-.07c41.87-38.51,91.86-35.17,150.46-28.31l12.3,1.45c22.5,3.24,47.68,6.94,74.84,11.26,20.32,3.24,41.71,6.81,63.82,10.77v-1.56c-50.06-9-97.12-16.16-138.39-22.31C859.8,536.35,807.37,531,763,571.74Z" transform="translate(-215.77 -254.21)"/><path class="cls-2" d="M806.14,609.6c-24.49,20.16-44.84,60.73-58.23,105a426.81,426.81,0,0,0-14.32,65.79c-9.45,67.6-.34,125.22,19.77,170.68,41.43,90,119.23,143.6,154.64,275.83,19.23,63.08,35.83,111.18,54.72,139.4,18.7,29.12,39.69,38.37,63.09,44.36a363.8,363.8,0,0,0,39.87,6.55v-1.87a361.78,361.78,0,0,1-39.41-6.48c-24.44-6.26-44.33-16.06-62-43.59-18.52-27.65-35.18-75.53-54.48-138.85C888,1145,850.72,1094,814.68,1044.7,792.21,1014,771,984.92,755.06,950.32c-21.55-48.71-28.34-107.38-19.63-169.68a425.63,425.63,0,0,1,14.26-65.5h0c14.5-47.94,35.5-85.89,57.63-104.1l.09-.08.08-.08c40.54-42.76,89.15-37.67,145.39-31.78,32.35,4.45,70.85,10,112.8,17v-1.88c-40.64-6.81-78.8-12.34-112.55-17C892.78,570.94,846.16,567.39,806.14,609.6Z" transform="translate(-215.77 -254.21)"/></g><g id="Layer_4" data-name="Layer 4"><polygon class="cls-2" points="816.82 944.58 807.62 944.58 807.62 935.37 806.62 935.37 806.62 944.58 797.42 944.58 797.42 945.58 806.62 945.58 806.62 954.78 807.62 954.78 807.62 945.58 816.82 945.58 816.82 944.58"/><polygon class="cls-2" points="816.82 895.08 807.62 895.08 807.62 885.88 806.62 885.88 806.62 895.08 797.42 895.08 797.42 896.08 806.62 896.08 806.62 905.28 807.62 905.28 807.62 896.08 816.82 896.08 816.82 895.08"/><polygon class="cls-2" points="841.57 919.83 832.37 919.83 832.37 910.62 831.37 910.62 831.37 919.83 822.17 919.83 822.17 920.83 831.37 920.83 831.37 930.03 832.37 930.03 832.37 920.83 841.57 920.83 841.57 919.83"/><polygon class="cls-2" points="792.07 919.83 782.87 919.83 782.87 910.62 781.87 910.62 781.87 919.83 772.67 919.83 772.67 920.83 781.87 920.83 781.87 930.03 782.87 930.03 782.87 920.83 792.07 920.83 792.07 919.83"/><polygon class="cls-2" points="841.57 870.33 832.37 870.33 832.37 861.13 831.37 861.13 831.37 870.33 822.17 870.33 822.17 871.33 831.37 871.33 831.37 880.53 832.37 880.53 832.37 871.33 841.57 871.33 841.57 870.33"/><polygon class="cls-2" points="841.57 969.32 832.37 969.32 832.37 960.12 831.37 960.12 831.37 969.32 822.17 969.32 822.17 970.32 831.37 970.32 831.37 979.53 832.37 979.53 832.37 970.32 841.57 970.32 841.57 969.32"/><polygon class="cls-2" points="792.07 1117.82 782.87 1117.82 782.87 1108.61 781.87 1108.61 781.87 1117.82 772.67 1117.82 772.67 1118.82 781.87 1118.82 781.87 1128.02 782.87 1128.02 782.87 1118.82 792.07 1118.82 792.07 1117.82"/><polygon class="cls-2" points="792.07 1068.32 782.87 1068.32 782.87 1059.12 781.87 1059.12 781.87 1068.32 772.67 1068.32 772.67 1069.32 781.87 1069.32 781.87 1078.52 782.87 1078.52 782.87 1069.32 792.07 1069.32 792.07 1068.32"/><polygon class="cls-2" points="816.82 1093.07 807.62 1093.07 807.62 1083.86 806.62 1083.86 806.62 1093.07 797.42 1093.07 797.42 1094.07 806.62 1094.07 806.62 1103.27 807.62 1103.27 807.62 1094.07 816.82 1094.07 816.82 1093.07"/><polygon class="cls-2" points="767.32 1093.07 758.12 1093.07 758.12 1083.86 757.12 1083.86 757.12 1093.07 747.92 1093.07 747.92 1094.07 757.12 1094.07 757.12 1103.27 758.12 1103.27 758.12 1094.07 767.32 1094.07 767.32 1093.07"/><polygon class="cls-2" points="841.57 1068.32 832.37 1068.32 832.37 1059.12 831.37 1059.12 831.37 1068.32 822.17 1068.32 822.17 1069.32 831.37 1069.32 831.37 1078.52 832.37 1078.52 832.37 1069.32 841.57 1069.32 841.57 1068.32"/><polygon class="cls-2" points="841.57 1018.82 832.37 1018.82 832.37 1009.62 831.37 1009.62 831.37 1018.82 822.17 1018.82 822.17 1019.82 831.37 1019.82 831.37 1029.02 832.37 1029.02 832.37 1019.82 841.57 1019.82 841.57 1018.82"/><polygon class="cls-2" points="816.82 1043.57 807.62 1043.57 807.62 1034.37 806.62 1034.37 806.62 1043.57 797.42 1043.57 797.42 1044.57 806.62 1044.57 806.62 1053.77 807.62 1053.77 807.62 1044.57 816.82 1044.57 816.82 1043.57"/><polygon class="cls-2" points="841.57 1117.82 832.37 1117.82 832.37 1108.61 831.37 1108.61 831.37 1117.82 822.17 1117.82 822.17 1118.82 831.37 1118.82 831.37 1128.02 832.37 1128.02 832.37 1118.82 841.57 1118.82 841.57 1117.82"/><polygon class="cls-2" points="742.58 969.32 733.37 969.32 733.37 960.12 732.37 960.12 732.37 969.32 723.17 969.32 723.17 970.32 732.37 970.32 732.37 979.52 733.37 979.52 733.37 970.32 742.58 970.32 742.58 969.32"/><polygon class="cls-2" points="742.58 919.83 733.37 919.83 733.37 910.62 732.37 910.62 732.37 919.83 723.17 919.83 723.17 920.83 732.37 920.83 732.37 930.03 733.37 930.03 733.37 920.83 742.58 920.83 742.58 919.83"/><polygon class="cls-2" points="767.32 944.57 758.12 944.57 758.12 935.37 757.12 935.37 757.12 944.57 747.92 944.57 747.92 945.57 757.12 945.57 757.12 954.78 758.12 954.78 758.12 945.57 767.32 945.57 767.32 944.57"/><polygon class="cls-2" points="717.83 944.57 708.63 944.57 708.63 935.37 707.63 935.37 707.63 944.57 698.42 944.57 698.42 945.57 707.63 945.57 707.63 954.78 708.63 954.78 708.63 945.57 717.83 945.57 717.83 944.57"/><polygon class="cls-2" points="792.07 1018.82 782.87 1018.82 782.87 1009.62 781.87 1009.62 781.87 1018.82 772.67 1018.82 772.67 1019.82 781.87 1019.82 781.87 1029.02 782.87 1029.02 782.87 1019.82 792.07 1019.82 792.07 1018.82"/><polygon class="cls-2" points="792.07 969.32 782.87 969.32 782.87 960.12 781.87 960.12 781.87 969.32 772.67 969.32 772.67 970.32 781.87 970.32 781.87 979.52 782.87 979.52 782.87 970.32 792.07 970.32 792.07 969.32"/><polygon class="cls-2" points="816.82 994.07 807.62 994.07 807.62 984.87 806.62 984.87 806.62 994.07 797.42 994.07 797.42 995.07 806.62 995.07 806.62 1004.27 807.62 1004.27 807.62 995.07 816.82 995.07 816.82 994.07"/><polygon class="cls-2" points="767.32 994.07 758.12 994.07 758.12 984.87 757.12 984.87 757.12 994.07 747.92 994.07 747.92 995.07 757.12 995.07 757.12 1004.27 758.12 1004.27 758.12 995.07 767.32 995.07 767.32 994.07"/><polygon class="cls-2" points="742.58 1018.82 733.37 1018.82 733.37 1009.62 732.37 1009.62 732.37 1018.82 723.17 1018.82 723.17 1019.82 732.37 1019.82 732.37 1029.02 733.37 1029.02 733.37 1019.82 742.58 1019.82 742.58 1018.82"/><polygon class="cls-2" points="767.32 1043.57 758.12 1043.57 758.12 1034.37 757.12 1034.37 757.12 1043.57 747.92 1043.57 747.92 1044.57 757.12 1044.57 757.12 1053.77 758.12 1053.77 758.12 1044.57 767.32 1044.57 767.32 1043.57"/><polygon class="cls-2" points="717.83 845.58 708.63 845.58 708.63 836.38 707.63 836.38 707.63 845.58 698.42 845.58 698.42 846.58 707.63 846.58 707.63 855.78 708.63 855.78 708.63 846.58 717.83 846.58 717.83 845.58"/><polygon class="cls-2" points="717.83 796.08 708.63 796.08 708.63 786.88 707.63 786.88 707.63 796.08 698.42 796.08 698.42 797.08 707.63 797.08 707.63 806.28 708.63 806.28 708.63 797.08 717.83 797.08 717.83 796.08"/><polygon class="cls-2" points="742.58 820.83 733.37 820.83 733.37 811.63 732.37 811.63 732.37 820.83 723.17 820.83 723.17 821.83 732.37 821.83 732.37 831.03 733.37 831.03 733.37 821.83 742.58 821.83 742.58 820.83"/><polygon class="cls-2" points="693.08 820.83 683.88 820.83 683.88 811.63 682.88 811.63 682.88 820.83 673.67 820.83 673.67 821.83 682.88 821.83 682.88 831.03 683.88 831.03 683.88 821.83 693.08 821.83 693.08 820.83"/><polygon class="cls-2" points="767.32 796.08 758.12 796.08 758.12 786.88 757.12 786.88 757.12 796.08 747.92 796.08 747.92 797.08 757.12 797.08 757.12 806.28 758.12 806.28 758.12 797.08 767.32 797.08 767.32 796.08"/><polygon class="cls-2" points="767.32 746.59 758.12 746.59 758.12 737.38 757.12 737.38 757.12 746.59 747.92 746.59 747.92 747.59 757.12 747.59 757.12 756.79 758.12 756.79 758.12 747.59 767.32 747.59 767.32 746.59"/><polygon class="cls-2" points="792.07 771.33 782.87 771.33 782.87 762.13 781.87 762.13 781.87 771.33 772.67 771.33 772.67 772.33 781.87 772.33 781.87 781.53 782.87 781.53 782.87 772.33 792.07 772.33 792.07 771.33"/><polygon class="cls-2" points="742.58 771.33 733.37 771.33 733.37 762.13 732.37 762.13 732.37 771.33 723.17 771.33 723.17 772.33 732.37 772.33 732.37 781.53 733.37 781.53 733.37 772.33 742.58 772.33 742.58 771.33"/><polygon class="cls-2" points="816.82 845.58 807.62 845.58 807.62 836.38 806.62 836.38 806.62 845.58 797.42 845.58 797.42 846.58 806.62 846.58 806.62 855.78 807.62 855.78 807.62 846.58 816.82 846.58 816.82 845.58"/><polygon class="cls-2" points="816.82 796.08 807.62 796.08 807.62 786.88 806.62 786.88 806.62 796.08 797.42 796.08 797.42 797.08 806.62 797.08 806.62 806.28 807.62 806.28 807.62 797.08 816.82 797.08 816.82 796.08"/><polygon class="cls-2" points="841.57 820.83 832.37 820.83 832.37 811.63 831.37 811.63 831.37 820.83 822.17 820.83 822.17 821.83 831.37 821.83 831.37 831.03 832.37 831.03 832.37 821.83 841.57 821.83 841.57 820.83"/><polygon class="cls-2" points="792.07 820.83 782.87 820.83 782.87 811.63 781.87 811.63 781.87 820.83 772.67 820.83 772.67 821.83 781.87 821.83 781.87 831.03 782.87 831.03 782.87 821.83 792.07 821.83 792.07 820.83"/><polygon class="cls-2" points="767.32 895.08 758.12 895.08 758.12 885.88 757.12 885.88 757.12 895.08 747.92 895.08 747.92 896.08 757.12 896.08 757.12 905.28 758.12 905.28 758.12 896.08 767.32 896.08 767.32 895.08"/><polygon class="cls-2" points="767.32 845.58 758.12 845.58 758.12 836.38 757.12 836.38 757.12 845.58 747.92 845.58 747.92 846.58 757.12 846.58 757.12 855.78 758.12 855.78 758.12 846.58 767.32 846.58 767.32 845.58"/><polygon class="cls-2" points="792.07 870.33 782.87 870.33 782.87 861.13 781.87 861.13 781.87 870.33 772.67 870.33 772.67 871.33 781.87 871.33 781.87 880.53 782.87 880.53 782.87 871.33 792.07 871.33 792.07 870.33"/><polygon class="cls-2" points="742.58 870.33 733.37 870.33 733.37 861.13 732.37 861.13 732.37 870.33 723.17 870.33 723.17 871.33 732.37 871.33 732.37 880.53 733.37 880.53 733.37 871.33 742.58 871.33 742.58 870.33"/><polygon class="cls-2" points="643.58 820.83 634.38 820.83 634.38 811.63 633.38 811.63 633.38 820.83 624.18 820.83 624.18 821.83 633.38 821.83 633.38 831.03 634.38 831.03 634.38 821.83 643.58 821.83 643.58 820.83"/><polygon class="cls-2" points="668.33 845.58 659.13 845.58 659.13 836.38 658.13 836.38 658.13 845.58 648.92 845.58 648.92 846.58 658.13 846.58 658.13 855.78 659.13 855.78 659.13 846.58 668.33 846.58 668.33 845.58"/><polygon class="cls-2" points="693.08 870.33 683.88 870.33 683.88 861.13 682.88 861.13 682.88 870.33 673.67 870.33 673.67 871.33 682.88 871.33 682.88 880.53 683.88 880.53 683.88 871.33 693.08 871.33 693.08 870.33"/><polygon class="cls-2" points="717.83 895.08 708.63 895.08 708.63 885.88 707.63 885.88 707.63 895.08 698.42 895.08 698.42 896.08 707.63 896.08 707.63 905.28 708.63 905.28 708.63 896.08 717.83 896.08 717.83 895.08"/><polygon class="cls-2" points="618.83 746.59 609.63 746.59 609.63 737.38 608.63 737.38 608.63 746.59 599.43 746.59 599.43 747.59 608.63 747.59 608.63 756.79 609.63 756.79 609.63 747.59 618.83 747.59 618.83 746.59"/><polygon class="cls-2" points="618.83 697.09 609.63 697.09 609.63 687.88 608.63 687.88 608.63 697.09 599.43 697.09 599.43 698.09 608.63 698.09 608.63 707.29 609.63 707.29 609.63 698.09 618.83 698.09 618.83 697.09"/><polygon class="cls-2" points="643.58 721.84 634.38 721.84 634.38 712.63 633.38 712.63 633.38 721.84 624.18 721.84 624.18 722.84 633.38 722.84 633.38 732.04 634.38 732.04 634.38 722.84 643.58 722.84 643.58 721.84"/><polygon class="cls-2" points="594.08 721.84 584.88 721.84 584.88 712.63 583.88 712.63 583.88 721.84 574.68 721.84 574.68 722.84 583.88 722.84 583.88 732.04 584.88 732.04 584.88 722.84 594.08 722.84 594.08 721.84"/><polygon class="cls-2" points="668.33 697.09 659.13 697.09 659.13 687.88 658.13 687.88 658.13 697.09 648.92 697.09 648.92 698.09 658.13 698.09 658.13 707.29 659.13 707.29 659.13 698.09 668.33 698.09 668.33 697.09"/><polygon class="cls-2" points="668.33 647.59 659.13 647.59 659.13 638.39 658.13 638.39 658.13 647.59 648.92 647.59 648.92 648.59 658.13 648.59 658.13 657.79 659.13 657.79 659.13 648.59 668.33 648.59 668.33 647.59"/><polygon class="cls-2" points="693.08 672.34 683.88 672.34 683.88 663.14 682.88 663.14 682.88 672.34 673.67 672.34 673.67 673.34 682.88 673.34 682.88 682.54 683.88 682.54 683.88 673.34 693.08 673.34 693.08 672.34"/><polygon class="cls-2" points="643.58 672.34 634.38 672.34 634.38 663.14 633.38 663.14 633.38 672.34 624.18 672.34 624.18 673.34 633.38 673.34 633.38 682.54 634.38 682.54 634.38 673.34 643.58 673.34 643.58 672.34"/><polygon class="cls-2" points="717.83 746.59 708.63 746.59 708.63 737.38 707.63 737.38 707.63 746.59 698.42 746.59 698.42 747.59 707.63 747.59 707.63 756.79 708.63 756.79 708.63 747.59 717.83 747.59 717.83 746.59"/><polygon class="cls-2" points="717.83 697.09 708.63 697.09 708.63 687.88 707.63 687.88 707.63 697.09 698.42 697.09 698.42 698.09 707.63 698.09 707.63 707.29 708.63 707.29 708.63 698.09 717.83 698.09 717.83 697.09"/><polygon class="cls-2" points="742.58 721.84 733.37 721.84 733.37 712.63 732.37 712.63 732.37 721.84 723.17 721.84 723.17 722.84 732.37 722.84 732.37 732.04 733.37 732.04 733.37 722.84 742.58 722.84 742.58 721.84"/><polygon class="cls-2" points="693.08 721.84 683.88 721.84 683.88 712.63 682.88 712.63 682.88 721.84 673.67 721.84 673.67 722.84 682.88 722.84 682.88 732.04 683.88 732.04 683.88 722.84 693.08 722.84 693.08 721.84"/><polygon class="cls-2" points="668.33 796.08 659.13 796.08 659.13 786.88 658.13 786.88 658.13 796.08 648.92 796.08 648.92 797.08 658.13 797.08 658.13 806.28 659.13 806.28 659.13 797.08 668.33 797.08 668.33 796.08"/><polygon class="cls-2" points="668.33 746.59 659.13 746.59 659.13 737.38 658.13 737.38 658.13 746.59 648.92 746.59 648.92 747.59 658.13 747.59 658.13 756.79 659.13 756.79 659.13 747.59 668.33 747.59 668.33 746.59"/><polygon class="cls-2" points="693.08 771.33 683.88 771.33 683.88 762.13 682.88 762.13 682.88 771.33 673.67 771.33 673.67 772.33 682.88 772.33 682.88 781.53 683.88 781.53 683.88 772.33 693.08 772.33 693.08 771.33"/><polygon class="cls-2" points="643.58 771.33 634.38 771.33 634.38 762.13 633.38 762.13 633.38 771.33 624.18 771.33 624.18 772.33 633.38 772.33 633.38 781.53 634.38 781.53 634.38 772.33 643.58 772.33 643.58 771.33"/><polygon class="cls-2" points="544.59 622.84 535.38 622.84 535.38 613.64 534.38 613.64 534.38 622.84 525.18 622.84 525.18 623.84 534.38 623.84 534.38 633.04 535.38 633.04 535.38 623.84 544.59 623.84 544.59 622.84"/><polygon class="cls-2" points="569.33 598.09 560.13 598.09 560.13 588.89 559.13 588.89 559.13 598.09 549.93 598.09 549.93 599.09 559.13 599.09 559.13 608.29 560.13 608.29 560.13 599.09 569.33 599.09 569.33 598.09"/><polygon class="cls-2" points="569.33 548.6 560.13 548.6 560.13 539.39 559.13 539.39 559.13 548.6 549.93 548.6 549.93 549.6 559.13 549.6 559.13 558.8 560.13 558.8 560.13 549.6 569.33 549.6 569.33 548.6"/><polygon class="cls-2" points="594.08 573.34 584.88 573.34 584.88 564.14 583.88 564.14 583.88 573.34 574.68 573.34 574.68 574.34 583.88 574.34 583.88 583.55 584.88 583.55 584.88 574.34 594.08 574.34 594.08 573.34"/><polygon class="cls-2" points="544.59 573.34 535.38 573.34 535.38 564.14 534.38 564.14 534.38 573.34 525.18 573.34 525.18 574.34 534.38 574.34 534.38 583.55 535.38 583.55 535.38 574.34 544.59 574.34 544.59 573.34"/><polygon class="cls-2" points="618.83 647.59 609.63 647.59 609.63 638.39 608.63 638.39 608.63 647.59 599.43 647.59 599.43 648.59 608.63 648.59 608.63 657.79 609.63 657.79 609.63 648.59 618.83 648.59 618.83 647.59"/><polygon class="cls-2" points="618.83 598.09 609.63 598.09 609.63 588.89 608.63 588.89 608.63 598.09 599.43 598.09 599.43 599.09 608.63 599.09 608.63 608.29 609.63 608.29 609.63 599.09 618.83 599.09 618.83 598.09"/><polygon class="cls-2" points="643.58 622.84 634.38 622.84 634.38 613.64 633.38 613.64 633.38 622.84 624.18 622.84 624.18 623.84 633.38 623.84 633.38 633.04 634.38 633.04 634.38 623.84 643.58 623.84 643.58 622.84"/><polygon class="cls-2" points="594.08 622.84 584.88 622.84 584.88 613.64 583.88 613.64 583.88 622.84 574.68 622.84 574.68 623.84 583.88 623.84 583.88 633.04 584.88 633.04 584.88 623.84 594.08 623.84 594.08 622.84"/><polygon class="cls-2" points="569.33 697.09 560.13 697.09 560.13 687.88 559.13 687.88 559.13 697.09 549.93 697.09 549.93 698.09 559.13 698.09 559.13 707.29 560.13 707.29 560.13 698.09 569.33 698.09 569.33 697.09"/><polygon class="cls-2" points="569.33 647.59 560.13 647.59 560.13 638.39 559.13 638.39 559.13 647.59 549.93 647.59 549.93 648.59 559.13 648.59 559.13 657.79 560.13 657.79 560.13 648.59 569.33 648.59 569.33 647.59"/><polygon class="cls-2" points="594.08 672.34 584.88 672.34 584.88 663.14 583.88 663.14 583.88 672.34 574.68 672.34 574.68 673.34 583.88 673.34 583.88 682.54 584.88 682.54 584.88 673.34 594.08 673.34 594.08 672.34"/><polygon class="cls-2" points="594.08 474.35 584.88 474.35 584.88 465.15 583.88 465.15 583.88 474.35 574.68 474.35 574.68 475.35 583.88 475.35 583.88 484.55 584.88 484.55 584.88 475.35 594.08 475.35 594.08 474.35"/><polygon class="cls-2" points="594.08 424.85 584.88 424.85 584.88 415.65 583.88 415.65 583.88 424.85 574.68 424.85 574.68 425.85 583.88 425.85 583.88 435.05 584.88 435.05 584.88 425.85 594.08 425.85 594.08 424.85"/><polygon class="cls-2" points="618.83 449.6 609.63 449.6 609.63 440.4 608.63 440.4 608.63 449.6 599.43 449.6 599.43 450.6 608.63 450.6 608.63 459.8 609.63 459.8 609.63 450.6 618.83 450.6 618.83 449.6"/><polygon class="cls-2" points="569.33 449.6 560.13 449.6 560.13 440.4 559.13 440.4 559.13 449.6 549.93 449.6 549.93 450.6 559.13 450.6 559.13 459.8 560.13 459.8 560.13 450.6 569.33 450.6 569.33 449.6"/><polygon class="cls-2" points="544.59 523.85 535.38 523.85 535.38 514.64 534.38 514.64 534.38 523.85 525.18 523.85 525.18 524.85 534.38 524.85 534.38 534.05 535.38 534.05 535.38 524.85 544.59 524.85 544.59 523.85"/><polygon class="cls-2" points="569.33 499.1 560.13 499.1 560.13 489.89 559.13 489.89 559.13 499.1 549.93 499.1 549.93 500.1 559.13 500.1 559.13 509.3 560.13 509.3 560.13 500.1 569.33 500.1 569.33 499.1"/><polygon class="cls-2" points="693.08 375.35 683.88 375.35 683.88 366.15 682.88 366.15 682.88 375.35 673.67 375.35 673.67 376.35 682.88 376.35 682.88 385.56 683.88 385.56 683.88 376.35 693.08 376.35 693.08 375.35"/><polygon class="cls-2" points="717.83 350.61 708.63 350.61 708.63 341.4 707.63 341.4 707.63 350.61 698.42 350.61 698.42 351.61 707.63 351.61 707.63 360.81 708.63 360.81 708.63 351.61 717.83 351.61 717.83 350.61"/><polygon class="cls-2" points="668.33 350.61 659.13 350.61 659.13 341.4 658.13 341.4 658.13 350.61 648.92 350.61 648.92 351.61 658.13 351.61 658.13 360.81 659.13 360.81 659.13 351.61 668.33 351.61 668.33 350.61"/><polygon class="cls-2" points="643.58 424.85 634.38 424.85 634.38 415.65 633.38 415.65 633.38 424.85 624.18 424.85 624.18 425.85 633.38 425.85 633.38 435.05 634.38 435.05 634.38 425.85 643.58 425.85 643.58 424.85"/><polygon class="cls-2" points="643.58 375.35 634.38 375.35 634.38 366.15 633.38 366.15 633.38 375.35 624.18 375.35 624.18 376.35 633.38 376.35 633.38 385.56 634.38 385.56 634.38 376.35 643.58 376.35 643.58 375.35"/><polygon class="cls-2" points="668.33 400.1 659.13 400.1 659.13 390.9 658.13 390.9 658.13 400.1 648.92 400.1 648.92 401.1 658.13 401.1 658.13 410.3 659.13 410.3 659.13 401.1 668.33 401.1 668.33 400.1"/><polygon class="cls-2" points="618.83 400.1 609.63 400.1 609.63 390.9 608.63 390.9 608.63 400.1 599.43 400.1 599.43 401.1 608.63 401.1 608.63 410.3 609.63 410.3 609.63 401.1 618.83 401.1 618.83 400.1"/><polygon class="cls-2" points="618.83 548.6 609.63 548.6 609.63 539.39 608.63 539.39 608.63 548.6 599.43 548.6 599.43 549.6 608.63 549.6 608.63 558.8 609.63 558.8 609.63 549.6 618.83 549.6 618.83 548.6"/><polygon class="cls-2" points="618.83 499.1 609.63 499.1 609.63 489.89 608.63 489.89 608.63 499.1 599.43 499.1 599.43 500.1 608.63 500.1 608.63 509.3 609.63 509.3 609.63 500.1 618.83 500.1 618.83 499.1"/><polygon class="cls-2" points="643.58 523.85 634.38 523.85 634.38 514.64 633.38 514.64 633.38 523.85 624.18 523.85 624.18 524.85 633.38 524.85 633.38 534.05 634.38 534.05 634.38 524.85 643.58 524.85 643.58 523.85"/><polygon class="cls-2" points="594.08 523.85 584.88 523.85 584.88 514.64 583.88 514.64 583.88 523.85 574.68 523.85 574.68 524.85 583.88 524.85 583.88 534.05 584.88 534.05 584.88 524.85 594.08 524.85 594.08 523.85"/><polygon class="cls-2" points="668.33 499.1 659.13 499.1 659.13 489.89 658.13 489.89 658.13 499.1 648.92 499.1 648.92 500.1 658.13 500.1 658.13 509.3 659.13 509.3 659.13 500.1 668.33 500.1 668.33 499.1"/><polygon class="cls-2" points="668.33 449.6 659.13 449.6 659.13 440.4 658.13 440.4 658.13 449.6 648.92 449.6 648.92 450.6 658.13 450.6 658.13 459.8 659.13 459.8 659.13 450.6 668.33 450.6 668.33 449.6"/><polygon class="cls-2" points="693.08 474.35 683.88 474.35 683.88 465.15 682.88 465.15 682.88 474.35 673.67 474.35 673.67 475.35 682.88 475.35 682.88 484.55 683.88 484.55 683.88 475.35 693.08 475.35 693.08 474.35"/><polygon class="cls-2" points="643.58 474.35 634.38 474.35 634.38 465.15 633.38 465.15 633.38 474.35 624.18 474.35 624.18 475.35 633.38 475.35 633.38 484.55 634.38 484.55 634.38 475.35 643.58 475.35 643.58 474.35"/><polygon class="cls-2" points="717.83 548.6 708.63 548.6 708.63 539.39 707.63 539.39 707.63 548.6 698.42 548.6 698.42 549.6 707.63 549.6 707.63 558.8 708.63 558.8 708.63 549.6 717.83 549.6 717.83 548.6"/><polygon class="cls-2" points="717.83 499.1 708.63 499.1 708.63 489.89 707.63 489.89 707.63 499.1 698.42 499.1 698.42 500.1 707.63 500.1 707.63 509.3 708.63 509.3 708.63 500.1 717.83 500.1 717.83 499.1"/><polygon class="cls-2" points="742.58 523.85 733.37 523.85 733.37 514.64 732.37 514.64 732.37 523.85 723.17 523.85 723.17 524.85 732.37 524.85 732.37 534.05 733.37 534.05 733.37 524.85 742.58 524.85 742.58 523.85"/><polygon class="cls-2" points="693.08 523.85 683.88 523.85 683.88 514.64 682.88 514.64 682.88 523.85 673.67 523.85 673.67 524.85 682.88 524.85 682.88 534.05 683.88 534.05 683.88 524.85 693.08 524.85 693.08 523.85"/><polygon class="cls-2" points="668.33 598.09 659.13 598.09 659.13 588.89 658.13 588.89 658.13 598.09 648.92 598.09 648.92 599.09 658.13 599.09 658.13 608.29 659.13 608.29 659.13 599.09 668.33 599.09 668.33 598.09"/><polygon class="cls-2" points="668.33 548.6 659.13 548.6 659.13 539.39 658.13 539.39 658.13 548.6 648.92 548.6 648.92 549.6 658.13 549.6 658.13 558.8 659.13 558.8 659.13 549.6 668.33 549.6 668.33 548.6"/><polygon class="cls-2" points="693.08 573.34 683.88 573.34 683.88 564.14 682.88 564.14 682.88 573.34 673.67 573.34 673.67 574.34 682.88 574.34 682.88 583.55 683.88 583.55 683.88 574.34 693.08 574.34 693.08 573.34"/><polygon class="cls-2" points="643.58 573.34 634.38 573.34 634.38 564.14 633.38 564.14 633.38 573.34 624.18 573.34 624.18 574.34 633.38 574.34 633.38 583.55 634.38 583.55 634.38 574.34 643.58 574.34 643.58 573.34"/><polygon class="cls-2" points="717.83 449.6 708.63 449.6 708.63 440.4 707.63 440.4 707.63 449.6 698.42 449.6 698.42 450.6 707.63 450.6 707.63 459.8 708.63 459.8 708.63 450.6 717.83 450.6 717.83 449.6"/><polygon class="cls-2" points="717.83 400.1 708.63 400.1 708.63 390.9 707.63 390.9 707.63 400.1 698.42 400.1 698.42 401.1 707.63 401.1 707.63 410.3 708.63 410.3 708.63 401.1 717.83 401.1 717.83 400.1"/><polygon class="cls-2" points="742.58 424.85 733.37 424.85 733.37 415.65 732.37 415.65 732.37 424.85 723.17 424.85 723.17 425.85 732.37 425.85 732.37 435.05 733.37 435.05 733.37 425.85 742.58 425.85 742.58 424.85"/><polygon class="cls-2" points="693.08 424.85 683.88 424.85 683.88 415.65 682.88 415.65 682.88 424.85 673.67 424.85 673.67 425.85 682.88 425.85 682.88 435.05 683.88 435.05 683.88 425.85 693.08 425.85 693.08 424.85"/><polygon class="cls-2" points="767.32 400.1 758.12 400.1 758.12 390.9 757.12 390.9 757.12 400.1 747.92 400.1 747.92 401.1 757.12 401.1 757.12 410.3 758.12 410.3 758.12 401.1 767.32 401.1 767.32 400.1"/><polygon class="cls-2" points="767.32 350.61 758.12 350.61 758.12 341.4 757.12 341.4 757.12 350.61 747.92 350.61 747.92 351.61 757.12 351.61 757.12 360.81 758.12 360.81 758.12 351.61 767.32 351.61 767.32 350.61"/><polygon class="cls-2" points="792.07 375.35 782.87 375.35 782.87 366.15 781.87 366.15 781.87 375.35 772.67 375.35 772.67 376.35 781.87 376.35 781.87 385.56 782.87 385.56 782.87 376.35 792.07 376.35 792.07 375.35"/><polygon class="cls-2" points="742.58 375.35 733.37 375.35 733.37 366.15 732.37 366.15 732.37 375.35 723.17 375.35 723.17 376.35 732.37 376.35 732.37 385.56 733.37 385.56 733.37 376.35 742.58 376.35 742.58 375.35"/><polygon class="cls-2" points="816.82 449.6 807.62 449.6 807.62 440.4 806.62 440.4 806.62 449.6 797.42 449.6 797.42 450.6 806.62 450.6 806.62 459.8 807.62 459.8 807.62 450.6 816.82 450.6 816.82 449.6"/><polygon class="cls-2" points="816.82 400.1 807.62 400.1 807.62 390.9 806.62 390.9 806.62 400.1 797.42 400.1 797.42 401.1 806.62 401.1 806.62 410.3 807.62 410.3 807.62 401.1 816.82 401.1 816.82 400.1"/><polygon class="cls-2" points="841.57 424.85 832.37 424.85 832.37 415.65 831.37 415.65 831.37 424.85 822.17 424.85 822.17 425.85 831.37 425.85 831.37 435.05 832.37 435.05 832.37 425.85 841.57 425.85 841.57 424.85"/><polygon class="cls-2" points="792.07 424.85 782.87 424.85 782.87 415.65 781.87 415.65 781.87 424.85 772.67 424.85 772.67 425.85 781.87 425.85 781.87 435.05 782.87 435.05 782.87 425.85 792.07 425.85 792.07 424.85"/><polygon class="cls-2" points="767.32 499.1 758.12 499.1 758.12 489.89 757.12 489.89 757.12 499.1 747.92 499.1 747.92 500.1 757.12 500.1 757.12 509.3 758.12 509.3 758.12 500.1 767.32 500.1 767.32 499.1"/><polygon class="cls-2" points="767.32 449.6 758.12 449.6 758.12 440.4 757.12 440.4 757.12 449.6 747.92 449.6 747.92 450.6 757.12 450.6 757.12 459.8 758.12 459.8 758.12 450.6 767.32 450.6 767.32 449.6"/><polygon class="cls-2" points="792.07 474.35 782.87 474.35 782.87 465.15 781.87 465.15 781.87 474.35 772.67 474.35 772.67 475.35 781.87 475.35 781.87 484.55 782.87 484.55 782.87 475.35 792.07 475.35 792.07 474.35"/><polygon class="cls-2" points="742.58 474.35 733.37 474.35 733.37 465.15 732.37 465.15 732.37 474.35 723.17 474.35 723.17 475.35 732.37 475.35 732.37 484.55 733.37 484.55 733.37 475.35 742.58 475.35 742.58 474.35"/><polygon class="cls-2" points="816.82 350.61 807.62 350.61 807.62 341.4 806.62 341.4 806.62 350.61 797.42 350.61 797.42 351.61 806.62 351.61 806.62 360.81 807.62 360.81 807.62 351.61 816.82 351.61 816.82 350.61"/><polygon class="cls-2" points="841.57 375.35 832.37 375.35 832.37 366.15 831.37 366.15 831.37 375.35 822.17 375.35 822.17 376.35 831.37 376.35 831.37 385.56 832.37 385.56 832.37 376.35 841.57 376.35 841.57 375.35"/><polygon class="cls-2" points="717.83 647.59 708.63 647.59 708.63 638.39 707.63 638.39 707.63 647.59 698.42 647.59 698.42 648.59 707.63 648.59 707.63 657.79 708.63 657.79 708.63 648.59 717.83 648.59 717.83 647.59"/><polygon class="cls-2" points="717.83 598.09 708.63 598.09 708.63 588.89 707.63 588.89 707.63 598.09 698.42 598.09 698.42 599.09 707.63 599.09 707.63 608.29 708.63 608.29 708.63 599.09 717.83 599.09 717.83 598.09"/><polygon class="cls-2" points="742.58 622.84 733.37 622.84 733.37 613.64 732.37 613.64 732.37 622.84 723.17 622.84 723.17 623.84 732.37 623.84 732.37 633.04 733.37 633.04 733.37 623.84 742.58 623.84 742.58 622.84"/><polygon class="cls-2" points="693.08 622.84 683.88 622.84 683.88 613.64 682.88 613.64 682.88 622.84 673.67 622.84 673.67 623.84 682.88 623.84 682.88 633.04 683.88 633.04 683.88 623.84 693.08 623.84 693.08 622.84"/><polygon class="cls-2" points="767.32 598.09 758.12 598.09 758.12 588.89 757.12 588.89 757.12 598.09 747.92 598.09 747.92 599.09 757.12 599.09 757.12 608.29 758.12 608.29 758.12 599.09 767.32 599.09 767.32 598.09"/><polygon class="cls-2" points="767.32 548.6 758.12 548.6 758.12 539.39 757.12 539.39 757.12 548.6 747.92 548.6 747.92 549.6 757.12 549.6 757.12 558.8 758.12 558.8 758.12 549.6 767.32 549.6 767.32 548.6"/><polygon class="cls-2" points="792.07 573.34 782.87 573.34 782.87 564.14 781.87 564.14 781.87 573.34 772.67 573.34 772.67 574.34 781.87 574.34 781.87 583.55 782.87 583.55 782.87 574.34 792.07 574.34 792.07 573.34"/><polygon class="cls-2" points="742.58 573.34 733.37 573.34 733.37 564.14 732.37 564.14 732.37 573.34 723.17 573.34 723.17 574.34 732.37 574.34 732.37 583.55 733.37 583.55 733.37 574.34 742.58 574.34 742.58 573.34"/><polygon class="cls-2" points="816.82 647.59 807.62 647.59 807.62 638.39 806.62 638.39 806.62 647.59 797.42 647.59 797.42 648.59 806.62 648.59 806.62 657.79 807.62 657.79 807.62 648.59 816.82 648.59 816.82 647.59"/><polygon class="cls-2" points="816.82 598.09 807.62 598.09 807.62 588.89 806.62 588.89 806.62 598.09 797.42 598.09 797.42 599.09 806.62 599.09 806.62 608.29 807.62 608.29 807.62 599.09 816.82 599.09 816.82 598.09"/><polygon class="cls-2" points="841.57 622.84 832.37 622.84 832.37 613.64 831.37 613.64 831.37 622.84 822.17 622.84 822.17 623.84 831.37 623.84 831.37 633.04 832.37 633.04 832.37 623.84 841.57 623.84 841.57 622.84"/><polygon class="cls-2" points="792.07 622.84 782.87 622.84 782.87 613.64 781.87 613.64 781.87 622.84 772.67 622.84 772.67 623.84 781.87 623.84 781.87 633.04 782.87 633.04 782.87 623.84 792.07 623.84 792.07 622.84"/><polygon class="cls-2" points="767.32 697.09 758.12 697.09 758.12 687.88 757.12 687.88 757.12 697.09 747.92 697.09 747.92 698.09 757.12 698.09 757.12 707.29 758.12 707.29 758.12 698.09 767.32 698.09 767.32 697.09"/><polygon class="cls-2" points="767.32 647.59 758.12 647.59 758.12 638.39 757.12 638.39 757.12 647.59 747.92 647.59 747.92 648.59 757.12 648.59 757.12 657.79 758.12 657.79 758.12 648.59 767.32 648.59 767.32 647.59"/><polygon class="cls-2" points="792.07 672.34 782.87 672.34 782.87 663.14 781.87 663.14 781.87 672.34 772.67 672.34 772.67 673.34 781.87 673.34 781.87 682.54 782.87 682.54 782.87 673.34 792.07 673.34 792.07 672.34"/><polygon class="cls-2" points="742.58 672.34 733.37 672.34 733.37 663.14 732.37 663.14 732.37 672.34 723.17 672.34 723.17 673.34 732.37 673.34 732.37 682.54 733.37 682.54 733.37 673.34 742.58 673.34 742.58 672.34"/><polygon class="cls-2" points="816.82 548.6 807.62 548.6 807.62 539.39 806.62 539.39 806.62 548.6 797.42 548.6 797.42 549.6 806.62 549.6 806.62 558.8 807.62 558.8 807.62 549.6 816.82 549.6 816.82 548.6"/><polygon class="cls-2" points="816.82 499.1 807.62 499.1 807.62 489.89 806.62 489.89 806.62 499.1 797.42 499.1 797.42 500.1 806.62 500.1 806.62 509.3 807.62 509.3 807.62 500.1 816.82 500.1 816.82 499.1"/><polygon class="cls-2" points="841.57 523.85 832.37 523.85 832.37 514.64 831.37 514.64 831.37 523.85 822.17 523.85 822.17 524.85 831.37 524.85 831.37 534.05 832.37 534.05 832.37 524.85 841.57 524.85 841.57 523.85"/><polygon class="cls-2" points="792.07 523.85 782.87 523.85 782.87 514.64 781.87 514.64 781.87 523.85 772.67 523.85 772.67 524.85 781.87 524.85 781.87 534.05 782.87 534.05 782.87 524.85 792.07 524.85 792.07 523.85"/><polygon class="cls-2" points="841.57 474.35 832.37 474.35 832.37 465.15 831.37 465.15 831.37 474.35 822.17 474.35 822.17 475.35 831.37 475.35 831.37 484.55 832.37 484.55 832.37 475.35 841.57 475.35 841.57 474.35"/><polygon class="cls-2" points="841.57 573.34 832.37 573.34 832.37 564.14 831.37 564.14 831.37 573.34 822.17 573.34 822.17 574.34 831.37 574.34 831.37 583.55 832.37 583.55 832.37 574.34 841.57 574.34 841.57 573.34"/><polygon class="cls-2" points="816.82 746.59 807.62 746.59 807.62 737.38 806.62 737.38 806.62 746.59 797.42 746.59 797.42 747.59 806.62 747.59 806.62 756.79 807.62 756.79 807.62 747.59 816.82 747.59 816.82 746.59"/><polygon class="cls-2" points="816.82 697.09 807.62 697.09 807.62 687.88 806.62 687.88 806.62 697.09 797.42 697.09 797.42 698.09 806.62 698.09 806.62 707.29 807.62 707.29 807.62 698.09 816.82 698.09 816.82 697.09"/><polygon class="cls-2" points="841.57 721.84 832.37 721.84 832.37 712.63 831.37 712.63 831.37 721.84 822.17 721.84 822.17 722.84 831.37 722.84 831.37 732.04 832.37 732.04 832.37 722.84 841.57 722.84 841.57 721.84"/><polygon class="cls-2" points="792.07 721.84 782.87 721.84 782.87 712.63 781.87 712.63 781.87 721.84 772.67 721.84 772.67 722.84 781.87 722.84 781.87 732.04 782.87 732.04 782.87 722.84 792.07 722.84 792.07 721.84"/><polygon class="cls-2" points="841.57 672.34 832.37 672.34 832.37 663.14 831.37 663.14 831.37 672.34 822.17 672.34 822.17 673.34 831.37 673.34 831.37 682.54 832.37 682.54 832.37 673.34 841.57 673.34 841.57 672.34"/><polygon class="cls-2" points="841.57 771.33 832.37 771.33 832.37 762.13 831.37 762.13 831.37 771.33 822.17 771.33 822.17 772.33 831.37 772.33 831.37 781.53 832.37 781.53 832.37 772.33 841.57 772.33 841.57 771.33"/></g></svg>