<svg xmlns="http://www.w3.org/2000/svg" viewBox="0 0 849.4 1434.07"><defs><style>.cls-1{fill:none;}.cls-2{fill:#ff5733;}</style></defs><g id="Layer_1" data-name="Layer 1"><path class="cls-1" d="M1034.17,1507.38c-36-5.2-67.13-8.2-96.34-16.82q-4.62-1.35-9.1-3c-27.93-10.29-52.44-28.66-74.71-68.69-.94-1.65-1.88-3.33-2.81-5.06-23.37-42.86-44.59-109.13-71.76-178.31-25.25-71.54-61-125.5-97.68-173.35-39.13-52.31-79.52-97.34-102.4-163.78-21.15-58.1-26-132.91-11.78-209q1.73-9.12,3.81-18.19,1.29-5.59,2.72-11.15A433.91,433.91,0,0,1,590,610.62c20.46-52,50.25-95,86.66-114.61,53.13-37.86,117.16-28.85,198.93-17.44,56.18,9.35,120.94,19.87,189.57,33.49V486.38l-9.37-2c-46.34-9.52-91.13-17.58-132.4-24.64-26.45-4.5-51.15-8.52-73.94-12.25l-15.81-2.32c-79.77-11.81-145.1-19.85-199.1,14.44l-.06.05-.07.05c-23,10.26-44.16,28.54-62.6,53.86-17.52,23.89-32.25,53.74-43.62,88.49-1.1,3.31-2.16,6.69-3.19,10.08h0a507.39,507.39,0,0,0-16.4,74.29,490.61,490.61,0,0,0-5.12,62.74c-.78,47.88,5.89,92.78,19.63,131,16.42,51.31,42.63,89.91,71.67,128,8.23,10.76,16.65,21.41,25.12,32.24,3.63,4.65,7.33,9.4,11,14.17,38,48.43,78.22,106,107.44,183.22,16.31,38.5,30.3,77.31,43.92,113.08,11.29,29.69,22.15,56.36,33.42,77.86q2.36,4.63,4.76,9c22.94,42.14,48.46,63.94,79.53,75.21q2.26.83,4.58,1.56c23.78,7.67,48.85,11.51,75.91,15.44,7,1,14.23,2.07,21.61,3.19l5.23.81,7.61,1c.45.06,1.74.16,2.19.23,15,1.59,30.81,3.27,48.07,3v-28.53C1054.31,1509.18,1044.06,1508.2,1034.17,1507.38Z" transform="translate(-215.77 -254.21)"/><path class="cls-1" d="M1010,1536c-38.64-6-72.18-9.31-103.91-19.35q-4.95-1.55-9.77-3.46c-29.43-11.71-55.11-33.13-78.58-76.79-1-1.8-2-3.64-2.94-5.52-25.2-47.6-48.15-120.41-78.24-192.51-28.18-74.89-67.25-132-107.24-182.78-41.86-54.77-84.86-102.24-108-174.78C499.88,818.51,496.47,738,512.26,659q2-9.66,4.3-19.23,1.46-5.92,3.06-11.77A435.66,435.66,0,0,1,537.38,576c22.82-54.65,55.75-98.38,96.14-117.82,57.49-36.4,127.33-25.57,216.24-12.46,63.71,11,137.43,23.26,215.41,39.35V459.67q-18.21-4-36-7.71c-46.08-9.43-90.63-17.54-131.93-24.77-26.22-4.56-50.75-8.68-73.64-12.58l-17-2.61c-86.83-13.47-157.27-23.07-215.31,9.82l-.07,0-.06,0c-26,10.55-49.71,29.86-70.29,57-19.67,25.84-36,58.34-48.57,96.44-1.2,3.62-2.37,7.32-3.49,11h0a531,531,0,0,0-16.94,76.49,524.23,524.23,0,0,0-5.48,64.6c-1.08,49.46,5.3,95.88,18.71,135.14,16.55,55.5,44,96.49,74.69,136.36,8.77,11.38,17.78,22.62,26.86,34,3.88,4.89,7.86,9.91,11.79,14.93,40.66,50.71,84.63,111.59,117,192.65,18.08,40.55,33.4,82.38,48.31,121.42,12.09,31.72,23.67,60.6,35.68,84q2.49,5,5,9.71c24.26,45.79,51.18,70.6,83.91,83.12,1.63.62,3.26,1.21,4.91,1.76,25.68,8.71,52.64,13,81.6,17.4,7.56,1.16,15.32,2.34,23.26,3.62l5.61.92,8.2,1.08c.56.08,1.79.19,2.36.27,21.51,2.52,44.56,5.21,70.84,2.93v-27.74C1045.11,1539.77,1027.08,1537.66,1010,1536Z" transform="translate(-215.77 -254.21)"/><path class="cls-1" d="M985.91,1564.67c-41.25-6.79-77.23-10.43-111.48-21.89q-5.29-1.76-10.43-3.93c-30.94-13.14-57.8-37.61-82.45-84.91-1-2-2.06-3.94-3.09-6-27-52.35-51.7-131.69-84.71-206.7-31.1-78.24-73.54-138.51-116.8-192.22-44.6-57.24-90.21-107.14-113.57-185.78-21.85-66.54-23.82-152.8-6.45-234.59q2.19-10.2,4.79-20.25,1.63-6.25,3.4-12.4a440.15,440.15,0,0,1,19.62-54.73c25.18-57.25,61.26-101.77,105.62-121,61.86-35,137.5-22.3,233.56-7.5,71.23,12.73,153.94,26.7,241.25,45.33v-25c-21.21-4.89-42.16-9.39-62.6-13.61-45.83-9.35-90.13-17.51-131.47-24.89-26-4.63-50.36-8.86-73.35-12.92l-18.15-2.9c-93.89-15.12-169.44-26.29-231.52,5.19l-.06,0-.06,0c-29,10.82-55.26,31.17-78,60.22-21.83,27.77-39.86,62.93-53.51,104.39-1.31,3.93-2.58,7.95-3.8,12h0a563.35,563.35,0,0,0-23.31,145.13c-1.39,51.05,4.7,99,17.79,139.31,16.67,59.67,45.38,103,77.7,144.76,9.31,12,18.91,23.82,28.6,35.81,4.14,5.14,8.39,10.42,12.58,15.69,43.37,53,91,117.18,126.59,202.07,19.84,42.61,36.51,87.46,52.69,129.77,12.9,33.76,25.2,64.83,38,90.19q2.61,5.4,5.27,10.47c25.57,49.45,53.9,77.25,88.29,91q2.59,1,5.23,2c27.59,9.74,56.44,14.45,87.3,19.36,8.09,1.29,16.39,2.61,24.89,4,2,.33,4,.68,6,1q4.35.57,8.78,1.19c.67.09,1.85.21,2.52.31,27.73,3.5,57.9,7.31,93.62,1.79v-26.93C1035.34,1570.74,1009.75,1567.21,985.91,1564.67Z" transform="translate(-215.77 -254.21)"/><path class="cls-1" d="M961.78,1593.32c-43.87-7.6-82.27-11.55-119-24.42q-5.64-2-11.09-4.42c-32.45-14.57-60.48-42.07-86.33-93-1.08-2.1-2.15-4.25-3.22-6.43-28.84-57.09-55.26-143-91.19-220.9-34-81.59-79.82-145-126.36-201.66C477.2,982.79,429,930.45,405.39,845.7,383.19,775,382.64,683,401.59,598.34q2.45-10.76,5.3-21.29,1.78-6.57,3.73-13a445.6,445.6,0,0,1,21.49-57.39c27.54-59.83,66.76-105.14,115.09-124.22,66.23-33.5,147.68-19,250.87-2.53,78.77,14.47,170.48,30.17,267.1,51.41V406.65C1034.89,399.47,1005,393,976,387.08c-45.57-9.27-89.63-17.47-131-25-25.76-4.69-50-9-73.05-13.25l-19.32-3.18c-101-16.78-181.61-29.52-247.73.56l-.06,0-.06,0c-32,11.1-60.81,32.49-85.68,63.4-24,29.71-43.66,67.54-58.44,112.34-1.41,4.24-2.79,8.58-4.11,12.94h0a573.24,573.24,0,0,0-18,80.88,588.69,588.69,0,0,0-6.2,68.3c-1.68,52.64,4.1,102.1,16.87,143.48,16.79,63.85,46.75,109.62,80.72,153.15,9.86,12.62,20.05,25,30.34,37.6,4.39,5.38,8.92,10.92,13.38,16.45,46.08,55.25,97.44,122.78,136.16,211.5,21.61,44.67,39.62,92.53,57.08,138.11,13.7,35.8,26.72,69.07,40.21,96.35q2.75,5.77,5.52,11.23c26.89,53.1,56.63,83.9,92.67,98.93q2.76,1.15,5.56,2.17c29.49,10.78,60.24,15.93,93,21.32,8.62,1.43,17.48,2.88,26.53,4.47l6.41,1.15c3.09.41,6.21.85,9.35,1.3.79.11,1.91.24,2.7.36,33.72,4.53,70.89,9.51,116.39-.28v-26.1C1025.13,1602.05,992.15,1596.86,961.78,1593.32Z" transform="translate(-215.77 -254.21)"/><path class="cls-1" d="M1025.81,1410.67c-23.4-6-44.39-15.24-63.09-44.36-18.89-28.22-35.49-76.32-54.72-139.4-35.41-132.23-113.21-185.85-154.64-275.83C733.25,905.62,724.14,848,733.59,780.4a426.81,426.81,0,0,1,14.32-65.79c13.39-44.28,33.74-84.85,58.23-105,40-42.21,86.64-38.66,147-32.34,33.61,4.62,71.59,10.13,112,16.9v-26c-21.93-3.92-43.14-7.47-63.31-10.68-27.16-4.32-52.34-8-74.84-11.26l-12.3-1.45c-58.6-6.86-108.59-10.2-150.46,28.31l-.08.07-.08.07c-14.09,9.43-27.5,24.59-39.51,44.32-11.06,18.08-20.84,39.94-28.81,64.64q-1.15,3.57-2.26,7.23h0a445.94,445.94,0,0,0-14.79,67.7,399.9,399.9,0,0,0-4,57.19c.12,43.12,7.67,83.46,22.38,118.5,16,38.78,38.52,70.2,62.64,102.77,6.59,8.89,13.25,17.79,19.89,26.87q4.3,5.88,8.6,11.9c29.81,41.61,59,89.22,78.73,154.93,11,32.33,21,62.09,30.75,88.06,8.89,23.57,17.58,43.66,26.62,59.38q2,3.48,4,6.68c19,31.18,40.29,44,66.38,51.5,1.2.33,2.41.64,3.62.94,18.05,4.55,37.45,7.09,58.81,9.56l8.05.92v-29.14A361.14,361.14,0,0,1,1025.81,1410.67Z" transform="translate(-215.77 -254.21)"/><path class="cls-1" d="M1058.3,1478.73c-33.41-4.39-62.09-7.08-88.77-14.29q-4.28-1.14-8.44-2.5c-26.42-8.85-49.76-24.18-70.84-60.57-.89-1.5-1.78-3-2.66-4.61-21.56-38.11-41-97.85-65.29-164.11-22.32-68.19-54.68-119-88.11-163.92C697.79,1018.89,660,976.29,637.37,916c-20.81-53.88-27.06-123-14.44-196.24q1.47-8.57,3.3-17.15,1.14-5.28,2.39-10.53a432,432,0,0,1,14-46.74c18.1-49.47,44.74-91.62,77.18-111.42,48.75-39.3,107-32.11,181.61-22.4,48.66,7.71,104.47,16.54,163.73,27.77V513.35c-40.45-8.08-79.49-15-115.61-21-26.7-4.44-51.55-8.35-74.25-11.92l-14.64-2C788,468.22,727.75,461.74,677.79,497.44l-.07.06-.08.06c-20,10-38.6,27.22-54.89,50.67-15.37,22-28.45,49.15-38.69,80.55-1,3-1.95,6.05-2.88,9.13h0A487,487,0,0,0,565.32,710a460,460,0,0,0-4.76,60.9c-.49,46.29,6.48,89.67,20.54,126.82,16.3,47.14,41.27,83.35,68.66,119.57,7.68,10.13,15.52,20.2,23.38,30.45,3.38,4.4,6.8,8.89,10.19,13.41,35.24,46.16,71.82,100.41,97.88,173.79,14.53,36.44,27.18,72.24,39.52,104.74,10.49,27.65,20.63,52.13,31.16,71.7q2.24,4.24,4.51,8.2c21.62,38.49,45.73,57.29,75.14,67.31,1.41.47,2.83.92,4.27,1.35,21.86,6.63,45,10,70.2,13.48,6.49.89,13.16,1.8,20,2.77l4.83.69c2.32.28,4.67.56,7,.86.33,0,1.68.13,2,.18,8.14.76,16.53,1.55,25.29,2v-29Z" transform="translate(-215.77 -254.21)"/><path class="cls-1" d="M952.88,579.1c-56.24-5.89-104.85-11-145.39,31.78l-.08.08-.09.08c-22.13,18.21-43.13,56.16-57.63,104.1h0a425.63,425.63,0,0,0-14.26,65.5c-8.71,62.3-1.92,121,19.63,169.68,15.93,34.6,37.15,63.64,59.62,94.38,36,49.31,73.31,100.29,95.11,181.73,19.3,63.32,36,111.2,54.48,138.85,17.67,27.53,37.56,37.33,62,43.59a358.72,358.72,0,0,0,38.9,6.42V596C1023.42,589,985.1,583.53,952.88,579.1Z" transform="translate(-215.77 -254.21)"/><path class="cls-1" d="M1001.23,1438.33c-2.62-.62-5.22-1.29-7.78-2-24.91-7.43-47.07-19.72-67-52.47q-1.28-2-2.53-4.14c-19.74-33.38-37.48-86.59-58.81-149.92-19.4-64.85-48.39-112.5-78.55-154.48-33.66-47.39-68.84-87.55-91.24-141.79-20.45-49.67-28.14-113-17.1-183.45q1.25-8,2.81-16.13,1-4.93,2-9.89A432.26,432.26,0,0,1,695.28,680C711,633.08,734.52,591.72,763,571.74c44.38-40.76,96.81-35.39,164.3-27.37,41.14,6.13,88,13.27,137.88,22.22v-26c-31.19-5.91-61.28-11.1-89.46-15.7-26.93-4.38-52-8.19-74.54-11.59l-13.47-1.74C822,503.06,766.94,498.15,721,535.26l-.07.06-.08.06c-17.07,9.71-33,25.91-47.2,47.5-13.22,20-24.64,44.54-33.75,72.59-.88,2.69-1.74,5.43-2.57,8.18h0A466.66,466.66,0,0,0,622,733.55a428.68,428.68,0,0,0-4.39,59.05c-.19,44.7,7.07,86.56,21.46,122.66,16.17,43,39.89,76.77,65.65,111.16,7.13,9.52,14.38,19,21.63,28.67,3.12,4.16,6.27,8.39,9.39,12.65,32.53,43.88,65.41,94.82,88.31,164.36,12.77,34.39,24.07,67.17,35.14,96.4,9.68,25.61,19.1,47.9,28.88,65.54,1.42,2.58,2.83,5.06,4.26,7.44,20.31,34.83,43,50.64,70.77,59.4,1.3.4,2.62.79,3.94,1.15,20,5.59,41.24,8.56,64.51,11.52q8.92,1.14,18.34,2.34l4.43.58,6.46.75c.22,0,1.62.11,1.85.14l2.52.2v-29.45C1041.63,1445.45,1020.75,1443,1001.23,1438.33Z" transform="translate(-215.77 -254.21)"/><path class="cls-1" d="M720.19,283l-21.66-3.77c-115.06-20.09-205.95-36-280.15-8.69l-.05,0-.05,0c-37.91,11.65-71.92,35.13-101.08,69.76C288.93,374,265.94,417.09,248.88,468.6c-1.62,4.85-3.21,9.84-4.72,14.83h0c-14.81,49-23.8,103.37-26,157.28-2.28,55.82,2.92,108.31,15,151.8,22.05,93.43,69.9,150.6,120.56,211.13,4.91,5.86,10,11.93,15,18,51.5,59.8,110.25,134,155.29,230.36,25.15,48.78,45.85,102.67,65.86,154.79,15.31,39.87,29.77,77.53,44.74,108.67,32.64,71.34,68.75,112.66,113.66,130.07,33.31,12.86,67.84,18.88,104.39,25.24,12,2.09,24.33,4.24,37,6.69,4.46.63,9,1.3,13.54,2,45.26,6.68,96.17,14.2,161.94-6.6v-24.14c-61.45,16.82-108.75,7.68-151.66,2-49.09-9.2-92.35-13.79-134.19-29.5q-6.3-2.37-12.4-5.36c-35.47-17.43-65.85-51-94.08-109.24-1.17-2.4-2.34-4.86-3.51-7.35C636.86,1432.6,607,1333.65,565.2,1249.88c-39.88-88.28-92.39-158-145.48-220.52C366.91,964.74,313.47,907.53,289.4,810.58,266.51,731.4,268.81,628,290.93,537.65q2.91-11.85,6.28-23.36,2.12-7.21,4.41-14.27a457.35,457.35,0,0,1,25.22-62.71c32.26-65,77.77-111.91,134.05-130.62,75-30.61,168-12.49,285.5,7.4,93.84,18,203.57,37.18,318.78,63.79V353.17c-96-22.66-188.64-40.29-272.53-56.25C767.36,292.11,743.47,287.56,720.19,283Z" transform="translate(-215.77 -254.21)"/><path class="cls-1" d="M818.79,329.49c-25.52-4.75-49.56-9.19-72.75-13.57l-20.48-3.48c-108-18.44-193.78-32.74-263.95-4.06l-.05,0-.05,0c-34.93,11.38-66.37,33.81-93.38,66.58-26.13,31.65-47.46,72.14-63.39,120.3-1.51,4.54-3,9.21-4.41,13.88h0a593.57,593.57,0,0,0-18.54,83.08,625.38,625.38,0,0,0-6.57,70.15c-2,54.22,3.51,105.2,16,147.63,16.91,68,48.12,116.2,83.73,161.55,10.4,13.24,21.18,26.23,32.07,39.4,4.66,5.62,9.46,11.42,14.19,17.2C470,1085.73,525,1156.57,566.9,1249.13c23.38,46.72,42.73,97.6,61.46,146.45,14.51,37.83,28.25,73.3,42.48,102.51q2.86,6.17,5.77,12c28.21,56.75,59.35,90.55,97.06,106.84q2.91,1.26,5.88,2.37c31.4,11.82,64,17.4,98.69,23.28,9.15,1.56,18.55,3.15,28.16,4.9l6.81,1.25,9.93,1.41c.89.14,2,.28,2.86.41,39.56,5.59,83.64,11.82,139.17-3.12v-25.19c-50.61,11.41-90.81,4.34-127.52-.26-46.48-8.4-87.32-12.67-126.62-27q-6-2.16-11.75-4.89c-34-16-63.17-46.55-90.21-101.12q-1.68-3.39-3.36-6.9c-30.65-61.83-58.81-154.24-97.66-235.09-37-84.93-86.11-151.51-135.92-211.09C422.05,973.76,371.23,919,347.39,828.14c-22.54-75-21.66-172.69-1.13-260.14q2.69-11.31,5.79-22.33,1.95-6.9,4.07-13.65a450.2,450.2,0,0,1,23.36-60c29.89-62.43,72.26-108.53,124.57-127.42,70.6-32.06,157.85-15.76,268.18,2.44,86.3,16.22,187,33.66,292.94,57.56V380.08c-39.38-9.44-78.24-17.79-115.83-25.44C904,345.46,860.2,337.21,818.79,329.49Z" transform="translate(-215.77 -254.21)"/><path class="cls-2" d="M903.23,1679.4c-4.57-.67-9.08-1.34-13.54-2-12.68-2.45-25.05-4.6-37-6.69-36.55-6.36-71.08-12.38-104.39-25.24-44.91-17.41-81-58.73-113.66-130.07-15-31.14-29.43-68.8-44.74-108.67-20-52.12-40.71-106-65.86-154.79-45-96.4-103.79-170.56-155.29-230.36-5-6-10.08-12.1-15-18C303.09,943.12,255.24,886,233.19,792.52c-12.12-43.49-17.32-96-15-151.8,2.21-53.91,11.2-108.29,26-157.28h0c1.51-5,3.1-10,4.72-14.83,17.06-51.51,40.05-94.65,68.32-128.24,29.16-34.63,63.17-58.11,101.08-69.76l.05,0,.05,0c74.2-27.27,165.09-11.4,280.15,8.69L720.19,283c23.28,4.54,47.17,9.09,72.45,13.9,83.89,16,176.51,33.59,272.53,56.25v-1.9C940.68,321.91,821.93,301,720.55,281.19c-124.62-21.58-223.48-41.52-302.82-12.37C339.56,292.86,280.92,366,247.12,468q-2.46,7.35-4.75,14.9c-29.6,97.94-36.27,219.3-11,310.1,24.32,103.05,80.36,162.69,135.91,229.78,56.36,65.44,112.23,138.32,155,230C567,1339.44,598.67,1444.92,633,1516.24c33.85,74,70.37,113.82,114.66,131s90,22,141.76,32c49,6.89,103.29,18.27,175.79-4.52v-2C999.4,1693.6,948.49,1686.08,903.23,1679.4Z" transform="translate(-215.77 -254.21)"/><path class="cls-2" d="M926,1650.54c-.9-.13-2-.27-2.86-.41l-9.93-1.41-6.81-1.25c-9.61-1.75-19-3.34-28.16-4.9-34.66-5.88-67.29-11.46-98.69-23.28q-3-1.11-5.88-2.37c-37.71-16.29-68.85-50.09-97.06-106.84q-2.9-5.82-5.77-12c-14.23-29.21-28-64.68-42.48-102.51-18.73-48.85-38.08-99.73-61.46-146.45C525,1156.57,470,1085.73,421.17,1028.2c-4.73-5.78-9.53-11.58-14.19-17.2-10.89-13.17-21.67-26.16-32.07-39.4-35.61-45.35-66.82-93.51-83.73-161.55-12.45-42.43-17.94-93.41-16-147.63a625.38,625.38,0,0,1,6.57-70.15,593.57,593.57,0,0,1,18.54-83.08h0c1.41-4.67,2.9-9.34,4.41-13.88C320.67,447.14,342,406.65,368.13,375c27-32.77,58.45-55.2,93.38-66.58l.05,0,.05,0c70.17-28.68,155.94-14.38,263.95,4.06L746,315.92c23.19,4.38,47.23,8.82,72.75,13.57,41.41,7.72,85.23,16,130.55,25.15,37.59,7.65,76.45,16,115.83,25.44v-2.2C950,351.27,840.23,332.09,746.39,314.09c-117.48-19.89-210.53-38-285.5-7.4-56.28,18.71-101.79,65.59-134,130.62A457.35,457.35,0,0,0,301.62,500q-2.3,7.05-4.41,14.27-3.36,11.51-6.28,23.36C268.81,628,266.51,731.4,289.4,810.58c24.07,96.95,77.51,154.16,130.32,218.78,53.09,62.51,105.6,132.24,145.48,220.52,41.77,83.77,71.66,182.72,104.13,249.29,1.17,2.49,2.34,4.95,3.51,7.35,28.23,58.21,58.61,91.81,94.08,109.24q6.11,3,12.4,5.36c41.84,15.71,85.1,20.3,134.19,29.5,42.91,5.72,90.21,14.86,151.66-2v-1.24C1009.64,1662.36,965.56,1656.13,926,1650.54Z" transform="translate(-215.77 -254.21)"/><path class="cls-2" d="M948.78,1621.68c-.79-.12-1.91-.25-2.7-.36-3.14-.45-6.26-.89-9.35-1.3l-6.41-1.15c-9.05-1.59-17.91-3-26.53-4.47-32.75-5.39-63.5-10.54-93-21.32q-2.81-1-5.56-2.17c-36-15-65.78-45.83-92.67-98.93q-2.77-5.45-5.52-11.23c-13.49-27.28-26.51-60.55-40.21-96.35-17.46-45.58-35.47-93.44-57.08-138.11C571,1157.57,519.68,1090,473.6,1034.79c-4.46-5.53-9-11.07-13.38-16.45-10.29-12.58-20.48-25-30.34-37.6-34-43.53-63.93-89.3-80.72-153.15-12.77-41.38-18.55-90.84-16.87-143.48a588.69,588.69,0,0,1,6.2-68.3,573.24,573.24,0,0,1,18-80.88h0c1.32-4.36,2.7-8.7,4.11-12.94,14.78-44.8,34.47-82.63,58.44-112.34,24.87-30.91,53.73-52.3,85.68-63.4l.06,0,.06,0c66.12-30.08,146.78-17.34,247.73-.56l19.32,3.18C795,353,819.19,357.37,845,362.06c41.37,7.55,85.43,15.75,131,25,29,5.95,58.94,12.39,89.22,19.57v-2.1C959.25,380.65,858.53,363.21,772.23,347c-110.33-18.2-197.58-34.5-268.18-2.44-52.31,18.89-94.68,65-124.57,127.42a450.2,450.2,0,0,0-23.36,60q-2.12,6.75-4.07,13.65-3.1,11-5.79,22.33c-20.53,87.45-21.41,185.18,1.13,260.14,23.84,90.85,74.66,145.62,124.74,207.78,49.81,59.58,99,126.16,135.92,211.09,38.85,80.85,67,173.26,97.66,235.09q1.68,3.51,3.36,6.9c27,54.57,56.25,85.12,90.21,101.12q5.78,2.73,11.75,4.89c39.3,14.29,80.14,18.56,126.62,27,36.71,4.6,76.91,11.67,127.52.26v-.83C1019.67,1631.19,982.5,1626.21,948.78,1621.68Z" transform="translate(-215.77 -254.21)"/><path class="cls-2" d="M547.2,382.41c-48.33,19.08-87.55,64.39-115.09,124.22A445.6,445.6,0,0,0,410.62,564q-2,6.47-3.73,13-2.86,10.51-5.3,21.29C382.64,683,383.19,775,405.39,845.7,429,930.45,477.2,982.79,524.54,1042.48c46.54,56.65,92.33,120.07,126.36,201.66,35.93,77.93,62.35,163.81,91.19,220.9,1.07,2.18,2.14,4.33,3.22,6.43,25.85,50.94,53.88,78.44,86.33,93q5.46,2.46,11.09,4.42c36.78,12.87,75.18,16.82,119,24.42,30.37,3.54,63.35,8.73,103.39,2v-.7c-35.72,5.52-65.89,1.71-93.62-1.79-.67-.1-1.85-.22-2.52-.31q-4.42-.62-8.78-1.19c-2-.35-4-.7-6-1-8.5-1.44-16.8-2.76-24.89-4-30.86-4.91-59.71-9.62-87.3-19.36q-2.64-.93-5.23-2c-34.39-13.78-62.72-41.58-88.29-91q-2.65-5.07-5.27-10.47c-12.75-25.36-25-56.43-38-90.19-16.18-42.31-32.85-87.16-52.69-129.77-35.55-84.89-83.22-149.09-126.59-202.07-4.19-5.27-8.44-10.55-12.58-15.69-9.69-12-19.29-23.82-28.6-35.81-32.32-41.71-61-85.09-77.7-144.76C394.06,804.8,388,756.86,389.36,705.81a563.35,563.35,0,0,1,23.31-145.13h0c1.22-4,2.49-8,3.8-12,13.65-41.46,31.68-76.62,53.51-104.39,22.72-29.05,49-49.4,78-60.22l.06,0,.06,0c62.08-31.48,137.63-20.31,231.52-5.19l18.15,2.9c23,4.06,47.36,8.29,73.35,12.92,41.34,7.38,85.64,15.54,131.47,24.89,20.44,4.22,41.39,8.72,62.6,13.61v-1.84c-96.62-21.24-188.33-36.94-267.1-51.41C694.88,363.39,613.43,348.91,547.2,382.41Z" transform="translate(-215.77 -254.21)"/><path class="cls-2" d="M590.36,420.28c-44.36,19.25-80.44,63.77-105.62,121A440.15,440.15,0,0,0,465.12,596q-1.77,6.15-3.4,12.4-2.6,10-4.79,20.25c-17.37,81.79-15.4,168.05,6.45,234.59,23.36,78.64,69,128.54,113.57,185.78,43.26,53.71,85.7,114,116.8,192.22,33,75,57.7,154.35,84.71,206.7,1,2,2,4,3.09,6,24.65,47.3,51.51,71.77,82.45,84.91q5.14,2.18,10.43,3.93c34.25,11.46,70.23,15.1,111.48,21.89,23.84,2.54,49.43,6.07,79.26,3v-.79c-26.28,2.28-49.33-.41-70.84-2.93-.57-.08-1.8-.19-2.36-.27l-8.2-1.08-5.61-.92c-7.94-1.28-15.7-2.46-23.26-3.62-29-4.42-55.92-8.69-81.6-17.4-1.65-.55-3.28-1.14-4.91-1.76-32.73-12.52-59.65-37.33-83.91-83.12q-2.52-4.69-5-9.71c-12-23.43-23.59-52.31-35.68-84-14.91-39-30.23-80.87-48.31-121.42-32.38-81.06-76.35-141.94-117-192.65-3.93-5-7.91-10-11.79-14.93-9.08-11.41-18.09-22.65-26.86-34-30.68-39.87-58.14-80.86-74.69-136.36-13.41-39.26-19.79-85.68-18.71-135.14a524.23,524.23,0,0,1,5.48-64.6,531,531,0,0,1,16.94-76.49h0c1.12-3.72,2.29-7.42,3.49-11,12.52-38.1,28.9-70.6,48.57-96.44,20.58-27.18,44.29-46.49,70.29-57l.06,0,.07,0c58-32.89,128.48-23.29,215.31-9.82l17,2.61c22.89,3.9,47.42,8,73.64,12.58,41.3,7.23,85.85,15.34,131.93,24.77q17.74,3.69,36,7.71v-1.56c-87.31-18.63-170-32.6-241.25-45.33C727.86,398,652.22,385.32,590.36,420.28Z" transform="translate(-215.77 -254.21)"/><path class="cls-2" d="M633.52,458.14C593.13,477.58,560.2,521.31,537.38,576A435.66,435.66,0,0,0,519.62,628q-1.61,5.85-3.06,11.77-2.34,9.56-4.3,19.23c-15.79,78.94-12.38,159.48,9.12,221.8,23.12,72.54,66.12,120,108,174.78,40,50.78,79.06,107.89,107.24,182.78,30.09,72.1,53,144.91,78.24,192.51,1,1.88,2,3.72,2.94,5.52,23.47,43.66,49.15,65.08,78.58,76.79q4.82,1.92,9.77,3.46c31.73,10,65.27,13.36,103.91,19.35,17,1.64,35.07,3.75,55.13,3.12v-1c-17.26.26-33.06-1.42-48.07-3-.45-.07-1.74-.17-2.19-.23l-7.61-1-5.23-.81c-7.38-1.12-14.59-2.16-21.61-3.19-27.06-3.93-52.13-7.77-75.91-15.44q-2.31-.73-4.58-1.56c-31.07-11.27-56.59-33.07-79.53-75.21q-2.4-4.32-4.76-9c-11.27-21.5-22.13-48.17-33.42-77.86-13.62-35.77-27.61-74.58-43.92-113.08-29.22-77.22-69.49-134.79-107.44-183.22-3.66-4.77-7.36-9.52-11-14.17-8.47-10.83-16.89-21.48-25.12-32.24-29-38-55.25-76.65-71.67-128-13.74-38.21-20.41-83.11-19.63-131a490.61,490.61,0,0,1,5.12-62.74A507.39,507.39,0,0,1,525,612.17h0c1-3.39,2.09-6.77,3.19-10.08,11.37-34.75,26.1-64.6,43.62-88.49,18.44-25.32,39.57-43.6,62.6-53.86l.07-.05.06-.05c54-34.29,119.33-26.25,199.1-14.44l15.81,2.32c22.79,3.73,47.49,7.75,73.94,12.25,41.27,7.06,86.06,15.12,132.4,24.64l9.37,2V485c-78-16.09-151.7-28.33-215.41-39.35C760.85,432.57,691,421.74,633.52,458.14Z" transform="translate(-215.77 -254.21)"/><path class="cls-2" d="M676.67,496c-36.41,19.62-66.2,62.56-86.66,114.61A433.91,433.91,0,0,0,574.12,660q-1.43,5.55-2.72,11.15-2.08,9.06-3.81,18.19c-14.2,76.11-9.37,150.92,11.78,209,22.88,66.44,63.27,111.47,102.4,163.78C718.49,1110,754.2,1164,779.45,1235.52c27.17,69.18,48.39,135.45,71.76,178.31.93,1.73,1.87,3.41,2.81,5.06,22.27,40,46.78,58.4,74.71,68.69q4.49,1.64,9.1,3c29.21,8.62,60.32,11.62,96.34,16.82,9.89.82,20.14,1.8,31,2.19v-1.37c-8.76-.43-17.15-1.22-25.29-2-.34,0-1.69-.13-2-.18-2.37-.3-4.72-.58-7-.86l-4.83-.69c-6.82-1-13.49-1.88-20-2.77-25.16-3.45-48.34-6.85-70.2-13.48-1.44-.43-2.86-.88-4.27-1.35-29.41-10-53.52-28.82-75.14-67.31q-2.28-3.94-4.51-8.2c-10.53-19.57-20.67-44.05-31.16-71.7-12.34-32.5-25-68.3-39.52-104.74-26.06-73.38-62.64-127.63-97.88-173.79-3.39-4.52-6.81-9-10.19-13.41-7.86-10.25-15.7-20.32-23.38-30.45-27.39-36.22-52.36-72.43-68.66-119.57-14.06-37.15-21-80.53-20.54-126.82a460,460,0,0,1,4.76-60.9,487,487,0,0,1,15.86-72.09h0c.93-3.08,1.89-6.13,2.88-9.13,10.24-31.4,23.32-58.59,38.69-80.55,16.29-23.45,34.85-40.69,54.89-50.67l.08-.06.07-.06c50-35.7,110.17-29.22,182.88-19.06l14.64,2c22.7,3.57,47.55,7.48,74.25,11.92,36.12,6,75.16,12.94,115.61,21v-1.29c-68.63-13.62-133.39-24.14-189.57-33.49C793.83,467.16,729.8,458.15,676.67,496Z" transform="translate(-215.77 -254.21)"/><path class="cls-2" d="M719.83,533.87c-32.44,19.8-59.08,62-77.18,111.42a432,432,0,0,0-14,46.74q-1.26,5.25-2.39,10.53-1.82,8.58-3.3,17.15C610.31,793,616.56,862.07,637.37,916c22.64,60.34,60.42,102.94,96.82,152.78,33.43,44.92,65.79,95.73,88.11,163.92,24.25,66.26,43.73,126,65.29,164.11.88,1.58,1.77,3.11,2.66,4.61,21.08,36.39,44.42,51.72,70.84,60.57q4.17,1.36,8.44,2.5c26.68,7.21,55.36,9.9,88.77,14.29l6.87.48v-1.65l-2.52-.2c-.23,0-1.63-.11-1.85-.14l-6.46-.75-4.43-.58q-9.4-1.22-18.34-2.34c-23.27-3-44.55-5.93-64.51-11.52-1.32-.36-2.64-.75-3.94-1.15-27.75-8.76-50.46-24.57-70.77-59.4-1.43-2.38-2.84-4.86-4.26-7.44-9.78-17.64-19.2-39.93-28.88-65.54-11.07-29.23-22.37-62-35.14-96.4-22.9-69.54-55.78-120.48-88.31-164.36-3.12-4.26-6.27-8.49-9.39-12.65-7.25-9.67-14.5-19.15-21.63-28.67C679,992,655.26,958.21,639.09,915.26c-14.39-36.1-21.65-78-21.46-122.66A428.68,428.68,0,0,1,622,733.55a466.66,466.66,0,0,1,15.33-69.9h0c.83-2.75,1.69-5.49,2.57-8.18,9.11-28.05,20.53-52.57,33.75-72.59,14.15-21.59,30.13-37.79,47.2-47.5l.08-.06.07-.06c45.92-37.11,101-32.2,166.68-23.69l13.47,1.74c22.59,3.4,47.61,7.21,74.54,11.59,28.18,4.6,58.27,9.79,89.46,15.7v-1.36C1005.91,528,950.1,519.18,901.44,511.47,826.81,501.76,768.58,494.57,719.83,533.87Z" transform="translate(-215.77 -254.21)"/><path class="cls-2" d="M763,571.74c-28.47,20-52,61.34-67.71,108.21A432.26,432.26,0,0,0,683.12,724q-1.08,5-2,9.89-1.58,8.1-2.81,16.13c-11,70.43-3.35,133.78,17.1,183.45,22.4,54.24,57.58,94.4,91.24,141.79,30.16,42,59.15,89.63,78.55,154.48,21.33,63.33,39.07,116.54,58.81,149.92q1.26,2.11,2.53,4.14c19.89,32.75,42,45,67,52.47,2.56.73,5.16,1.4,7.78,2,19.52,4.67,40.4,7.12,63.94,9.78v-1.81l-8.05-.92c-21.36-2.47-40.76-5-58.81-9.56-1.21-.3-2.42-.61-3.62-.94-26.09-7.52-47.39-20.32-66.38-51.5q-2-3.2-4-6.68c-9-15.72-17.73-35.81-26.62-59.38-9.79-26-19.75-55.73-30.75-88.06-19.73-65.71-48.92-113.32-78.73-154.93q-4.29-6-8.6-11.9c-6.64-9.08-13.3-18-19.89-26.87-24.12-32.57-46.59-64-62.64-102.77-14.71-35-22.26-75.38-22.38-118.5a399.9,399.9,0,0,1,4-57.19,445.94,445.94,0,0,1,14.79-67.7h0q1.11-3.66,2.26-7.23c8-24.7,17.75-46.56,28.81-64.64,12-19.73,25.42-34.89,39.51-44.32l.08-.07.08-.07c41.87-38.51,91.86-35.17,150.46-28.31l12.3,1.45c22.5,3.24,47.68,6.94,74.84,11.26,20.17,3.21,41.38,6.76,63.31,10.68v-1.56c-49.87-9-96.74-16.09-137.88-22.22C859.8,536.35,807.37,531,763,571.74Z" transform="translate(-215.77 -254.21)"/><path class="cls-2" d="M806.14,609.6c-24.49,20.16-44.84,60.73-58.23,105a426.81,426.81,0,0,0-14.32,65.79c-9.45,67.6-.34,125.22,19.77,170.68,41.43,90,119.23,143.6,154.64,275.83,19.23,63.08,35.83,111.18,54.72,139.4,18.7,29.12,39.69,38.37,63.09,44.36a361.14,361.14,0,0,0,39.36,6.49v-1.87a358.72,358.72,0,0,1-38.9-6.42c-24.44-6.26-44.33-16.06-62-43.59-18.52-27.65-35.18-75.53-54.48-138.85C888,1145,850.72,1094,814.68,1044.7,792.21,1014,771,984.92,755.06,950.32c-21.55-48.71-28.34-107.38-19.63-169.68a425.63,425.63,0,0,1,14.26-65.5h0c14.5-47.94,35.5-85.89,57.63-104.1l.09-.08.08-.08c40.54-42.76,89.15-37.67,145.39-31.78,32.22,4.43,70.54,9.94,112.29,16.94v-1.88c-40.45-6.77-78.43-12.28-112-16.9C892.78,570.94,846.16,567.39,806.14,609.6Z" transform="translate(-215.77 -254.21)"/></g><g id="Layer_2" data-name="Layer 2"><polygon class="cls-2" points="813.63 343.89 807.12 350.4 800.61 343.89 799.91 344.6 806.41 351.11 799.91 357.61 800.61 358.32 807.12 351.81 813.63 358.32 814.33 357.61 807.83 351.11 814.33 344.6 813.63 343.89"/><polygon class="cls-2" points="838.38 368.64 831.87 375.15 825.36 368.64 824.65 369.35 831.16 375.85 824.65 382.36 825.36 383.07 831.87 376.56 838.38 383.07 839.08 382.36 832.58 375.85 839.08 369.35 838.38 368.64"/><polygon class="cls-2" points="764.13 343.89 757.62 350.4 751.12 343.89 750.41 344.6 756.91 351.11 750.41 357.61 751.12 358.32 757.62 351.81 764.13 358.32 764.84 357.61 758.33 351.11 764.84 344.6 764.13 343.89"/><polygon class="cls-2" points="788.88 368.64 782.37 375.15 775.86 368.64 775.16 369.35 781.66 375.85 775.16 382.36 775.86 383.07 782.37 376.56 788.88 383.07 789.59 382.36 783.08 375.85 789.59 369.35 788.88 368.64"/><polygon class="cls-2" points="813.63 393.39 807.12 399.89 800.61 393.39 799.91 394.1 806.41 400.6 799.91 407.11 800.61 407.82 807.12 401.31 813.63 407.82 814.33 407.11 807.83 400.6 814.33 394.1 813.63 393.39"/><polygon class="cls-2" points="838.38 418.14 831.87 424.64 825.36 418.14 824.65 418.84 831.16 425.35 824.65 431.86 825.36 432.56 831.87 426.06 838.38 432.56 839.08 431.86 832.58 425.35 839.08 418.84 838.38 418.14"/><polygon class="cls-2" points="714.63 343.89 708.13 350.4 701.62 343.89 700.91 344.6 707.42 351.11 700.91 357.61 701.62 358.32 708.13 351.81 714.63 358.32 715.34 357.61 708.83 351.11 715.34 344.6 714.63 343.89"/><polygon class="cls-2" points="739.38 368.64 732.87 375.15 726.37 368.64 725.66 369.35 732.17 375.85 725.66 382.36 726.37 383.07 732.87 376.56 739.38 383.07 740.09 382.36 733.58 375.85 740.09 369.35 739.38 368.64"/><polygon class="cls-2" points="764.13 393.39 757.62 399.89 751.12 393.39 750.41 394.1 756.91 400.6 750.41 407.11 751.12 407.82 757.62 401.31 764.13 407.82 764.84 407.11 758.33 400.6 764.84 394.1 764.13 393.39"/><polygon class="cls-2" points="788.88 418.14 782.37 424.64 775.86 418.14 775.16 418.84 781.66 425.35 775.16 431.86 775.86 432.56 782.37 426.06 788.88 432.56 789.59 431.86 783.08 425.35 789.59 418.84 788.88 418.14"/><polygon class="cls-2" points="813.63 442.89 807.12 449.39 800.61 442.89 799.91 443.59 806.41 450.1 799.91 456.61 800.61 457.31 807.12 450.81 813.63 457.31 814.33 456.61 807.83 450.1 814.33 443.59 813.63 442.89"/><polygon class="cls-2" points="838.38 467.63 831.87 474.14 825.36 467.63 824.65 468.34 831.16 474.85 824.65 481.36 825.36 482.06 831.87 475.56 838.38 482.06 839.08 481.36 832.58 474.85 839.08 468.34 838.38 467.63"/><polygon class="cls-2" points="665.13 343.89 658.63 350.4 652.12 343.89 651.41 344.6 657.92 351.11 651.41 357.61 652.12 358.32 658.63 351.81 665.13 358.32 665.84 357.61 659.33 351.11 665.84 344.6 665.13 343.89"/><polygon class="cls-2" points="689.88 368.64 683.38 375.15 676.87 368.64 676.16 369.35 682.67 375.85 676.16 382.36 676.87 383.07 683.38 376.56 689.88 383.07 690.59 382.36 684.08 375.85 690.59 369.35 689.88 368.64"/><polygon class="cls-2" points="714.63 393.39 708.13 399.89 701.62 393.39 700.91 394.1 707.42 400.6 700.91 407.11 701.62 407.82 708.13 401.31 714.63 407.82 715.34 407.11 708.83 400.6 715.34 394.1 714.63 393.39"/><polygon class="cls-2" points="739.38 418.14 732.87 424.64 726.37 418.14 725.66 418.84 732.17 425.35 725.66 431.86 726.37 432.56 732.87 426.06 739.38 432.56 740.09 431.86 733.58 425.35 740.09 418.84 739.38 418.14"/><polygon class="cls-2" points="764.13 442.89 757.62 449.39 751.12 442.89 750.41 443.59 756.91 450.1 750.41 456.61 751.12 457.31 757.62 450.81 764.13 457.31 764.84 456.61 758.33 450.1 764.84 443.59 764.13 442.89"/><polygon class="cls-2" points="788.88 467.63 782.37 474.14 775.86 467.63 775.16 468.34 781.66 474.85 775.16 481.36 775.86 482.06 782.37 475.56 788.88 482.06 789.59 481.36 783.08 474.85 789.59 468.34 788.88 467.63"/><polygon class="cls-2" points="813.63 492.38 807.12 498.89 800.61 492.38 799.91 493.09 806.41 499.6 799.91 506.1 800.61 506.81 807.12 500.3 813.63 506.81 814.33 506.1 807.83 499.6 814.33 493.09 813.63 492.38"/><polygon class="cls-2" points="838.38 517.13 831.87 523.64 825.36 517.13 824.65 517.84 831.16 524.35 824.65 530.85 825.36 531.56 831.87 525.05 838.38 531.56 839.08 530.85 832.58 524.35 839.08 517.84 838.38 517.13"/><polygon class="cls-2" points="640.38 368.64 633.88 375.15 627.37 368.64 626.66 369.35 633.17 375.85 626.66 382.36 627.37 383.07 633.88 376.56 640.38 383.07 641.09 382.36 634.59 375.85 641.09 369.35 640.38 368.64"/><polygon class="cls-2" points="665.13 393.39 658.63 399.89 652.12 393.39 651.41 394.1 657.92 400.6 651.41 407.11 652.12 407.82 658.63 401.31 665.13 407.82 665.84 407.11 659.33 400.6 665.84 394.1 665.13 393.39"/><polygon class="cls-2" points="689.88 418.14 683.38 424.64 676.87 418.14 676.16 418.84 682.67 425.35 676.16 431.86 676.87 432.56 683.38 426.06 689.88 432.56 690.59 431.86 684.08 425.35 690.59 418.84 689.88 418.14"/><polygon class="cls-2" points="714.63 442.89 708.13 449.39 701.62 442.89 700.91 443.59 707.42 450.1 700.91 456.61 701.62 457.31 708.13 450.81 714.63 457.31 715.34 456.61 708.83 450.1 715.34 443.59 714.63 442.89"/><polygon class="cls-2" points="739.38 467.63 732.87 474.14 726.37 467.63 725.66 468.34 732.17 474.85 725.66 481.36 726.37 482.06 732.87 475.56 739.38 482.06 740.09 481.36 733.58 474.85 740.09 468.34 739.38 467.63"/><polygon class="cls-2" points="764.13 492.38 757.62 498.89 751.12 492.38 750.41 493.09 756.91 499.6 750.41 506.1 751.12 506.81 757.62 500.3 764.13 506.81 764.84 506.1 758.33 499.6 764.84 493.09 764.13 492.38"/><polygon class="cls-2" points="788.88 517.13 782.37 523.64 775.86 517.13 775.16 517.84 781.66 524.35 775.16 530.85 775.86 531.56 782.37 525.05 788.88 531.56 789.59 530.85 783.08 524.35 789.59 517.84 788.88 517.13"/><polygon class="cls-2" points="813.63 541.88 807.12 548.39 800.61 541.88 799.91 542.59 806.41 549.1 799.91 555.6 800.61 556.31 807.12 549.8 813.63 556.31 814.33 555.6 807.83 549.1 814.33 542.59 813.63 541.88"/><polygon class="cls-2" points="838.38 566.63 831.87 573.14 825.36 566.63 824.65 567.34 831.16 573.84 824.65 580.35 825.36 581.06 831.87 574.55 838.38 581.06 839.08 580.35 832.58 573.84 839.08 567.34 838.38 566.63"/><polygon class="cls-2" points="615.64 393.39 609.13 399.89 602.62 393.39 601.92 394.1 608.42 400.6 601.92 407.11 602.62 407.82 609.13 401.31 615.64 407.82 616.34 407.11 609.84 400.6 616.34 394.1 615.64 393.39"/><polygon class="cls-2" points="640.38 418.14 633.88 424.64 627.37 418.14 626.66 418.84 633.17 425.35 626.66 431.86 627.37 432.56 633.88 426.06 640.38 432.56 641.09 431.86 634.59 425.35 641.09 418.84 640.38 418.14"/><polygon class="cls-2" points="665.13 442.89 658.63 449.39 652.12 442.89 651.41 443.59 657.92 450.1 651.41 456.61 652.12 457.31 658.63 450.81 665.13 457.31 665.84 456.61 659.33 450.1 665.84 443.59 665.13 442.89"/><polygon class="cls-2" points="689.88 467.63 683.38 474.14 676.87 467.63 676.16 468.34 682.67 474.85 676.16 481.36 676.87 482.06 683.38 475.56 689.88 482.06 690.59 481.36 684.08 474.85 690.59 468.34 689.88 467.63"/><polygon class="cls-2" points="714.63 492.38 708.13 498.89 701.62 492.38 700.91 493.09 707.42 499.6 700.91 506.1 701.62 506.81 708.13 500.3 714.63 506.81 715.34 506.1 708.83 499.6 715.34 493.09 714.63 492.38"/><polygon class="cls-2" points="739.38 517.13 732.87 523.64 726.37 517.13 725.66 517.84 732.17 524.35 725.66 530.85 726.37 531.56 732.87 525.05 739.38 531.56 740.09 530.85 733.58 524.35 740.09 517.84 739.38 517.13"/><polygon class="cls-2" points="764.13 541.88 757.62 548.39 751.12 541.88 750.41 542.59 756.91 549.1 750.41 555.6 751.12 556.31 757.62 549.8 764.13 556.31 764.84 555.6 758.33 549.1 764.84 542.59 764.13 541.88"/><polygon class="cls-2" points="788.88 566.63 782.37 573.14 775.86 566.63 775.16 567.34 781.66 573.84 775.16 580.35 775.86 581.06 782.37 574.55 788.88 581.06 789.59 580.35 783.08 573.84 789.59 567.34 788.88 566.63"/><polygon class="cls-2" points="813.63 591.38 807.12 597.88 800.61 591.38 799.91 592.09 806.41 598.59 799.91 605.1 800.61 605.81 807.12 599.3 813.63 605.81 814.33 605.1 807.83 598.59 814.33 592.09 813.63 591.38"/><polygon class="cls-2" points="838.38 616.13 831.87 622.63 825.36 616.13 824.65 616.83 831.16 623.34 824.65 629.85 825.36 630.55 831.87 624.05 838.38 630.55 839.08 629.85 832.58 623.34 839.08 616.83 838.38 616.13"/><polygon class="cls-2" points="590.89 418.14 584.38 424.64 577.87 418.14 577.17 418.84 583.67 425.35 577.17 431.86 577.87 432.56 584.38 426.06 590.89 432.56 591.6 431.86 585.09 425.35 591.6 418.84 590.89 418.14"/><polygon class="cls-2" points="615.64 442.89 609.13 449.39 602.62 442.89 601.92 443.59 608.42 450.1 601.92 456.61 602.62 457.31 609.13 450.81 615.64 457.31 616.34 456.61 609.84 450.1 616.34 443.59 615.64 442.89"/><polygon class="cls-2" points="640.38 467.63 633.88 474.14 627.37 467.63 626.66 468.34 633.17 474.85 626.66 481.36 627.37 482.06 633.88 475.56 640.38 482.06 641.09 481.36 634.59 474.85 641.09 468.34 640.38 467.63"/><polygon class="cls-2" points="665.13 492.38 658.63 498.89 652.12 492.38 651.41 493.09 657.92 499.6 651.41 506.1 652.12 506.81 658.63 500.3 665.13 506.81 665.84 506.1 659.33 499.6 665.84 493.09 665.13 492.38"/><polygon class="cls-2" points="689.88 517.13 683.38 523.64 676.87 517.13 676.16 517.84 682.67 524.35 676.16 530.85 676.87 531.56 683.38 525.05 689.88 531.56 690.59 530.85 684.08 524.35 690.59 517.84 689.88 517.13"/><polygon class="cls-2" points="714.63 541.88 708.13 548.39 701.62 541.88 700.91 542.59 707.42 549.1 700.91 555.6 701.62 556.31 708.13 549.8 714.63 556.31 715.34 555.6 708.83 549.1 715.34 542.59 714.63 541.88"/><polygon class="cls-2" points="739.38 566.63 732.87 573.14 726.37 566.63 725.66 567.34 732.17 573.84 725.66 580.35 726.37 581.06 732.87 574.55 739.38 581.06 740.09 580.35 733.58 573.84 740.09 567.34 739.38 566.63"/><polygon class="cls-2" points="764.13 591.38 757.62 597.88 751.12 591.38 750.41 592.09 756.91 598.59 750.41 605.1 751.12 605.81 757.62 599.3 764.13 605.81 764.84 605.1 758.33 598.59 764.84 592.09 764.13 591.38"/><polygon class="cls-2" points="788.88 616.13 782.37 622.63 775.86 616.13 775.16 616.83 781.66 623.34 775.16 629.85 775.86 630.55 782.37 624.05 788.88 630.55 789.59 629.85 783.08 623.34 789.59 616.83 788.88 616.13"/><polygon class="cls-2" points="813.63 640.88 807.12 647.38 800.61 640.88 799.91 641.58 806.41 648.09 799.91 654.6 800.61 655.3 807.12 648.8 813.63 655.3 814.33 654.6 807.83 648.09 814.33 641.58 813.63 640.88"/><polygon class="cls-2" points="838.38 665.62 831.87 672.13 825.36 665.62 824.65 666.33 831.16 672.84 824.65 679.35 825.36 680.05 831.87 673.54 838.38 680.05 839.08 679.35 832.58 672.84 839.08 666.33 838.38 665.62"/><polygon class="cls-2" points="566.14 442.89 559.63 449.39 553.13 442.89 552.42 443.59 558.92 450.1 552.42 456.61 553.13 457.31 559.63 450.81 566.14 457.31 566.85 456.61 560.34 450.1 566.85 443.59 566.14 442.89"/><polygon class="cls-2" points="590.89 467.63 584.38 474.14 577.87 467.63 577.17 468.34 583.67 474.85 577.17 481.36 577.87 482.06 584.38 475.56 590.89 482.06 591.6 481.36 585.09 474.85 591.6 468.34 590.89 467.63"/><polygon class="cls-2" points="615.64 492.38 609.13 498.89 602.62 492.38 601.92 493.09 608.42 499.6 601.92 506.1 602.62 506.81 609.13 500.3 615.64 506.81 616.34 506.1 609.84 499.6 616.34 493.09 615.64 492.38"/><polygon class="cls-2" points="640.38 517.13 633.88 523.64 627.37 517.13 626.66 517.84 633.17 524.35 626.66 530.85 627.37 531.56 633.88 525.05 640.38 531.56 641.09 530.85 634.59 524.35 641.09 517.84 640.38 517.13"/><polygon class="cls-2" points="665.13 541.88 658.63 548.39 652.12 541.88 651.41 542.59 657.92 549.1 651.41 555.6 652.12 556.31 658.63 549.8 665.13 556.31 665.84 555.6 659.33 549.1 665.84 542.59 665.13 541.88"/><polygon class="cls-2" points="689.88 566.63 683.38 573.14 676.87 566.63 676.16 567.34 682.67 573.84 676.16 580.35 676.87 581.06 683.38 574.55 689.88 581.06 690.59 580.35 684.08 573.84 690.59 567.34 689.88 566.63"/><polygon class="cls-2" points="714.63 591.38 708.13 597.88 701.62 591.38 700.91 592.09 707.42 598.59 700.91 605.1 701.62 605.81 708.13 599.3 714.63 605.81 715.34 605.1 708.83 598.59 715.34 592.09 714.63 591.38"/><polygon class="cls-2" points="739.38 616.13 732.87 622.63 726.37 616.13 725.66 616.83 732.17 623.34 725.66 629.85 726.37 630.55 732.87 624.05 739.38 630.55 740.09 629.85 733.58 623.34 740.09 616.83 739.38 616.13"/><polygon class="cls-2" points="764.13 640.88 757.62 647.38 751.12 640.88 750.41 641.58 756.91 648.09 750.41 654.6 751.12 655.3 757.62 648.8 764.13 655.3 764.84 654.6 758.33 648.09 764.84 641.58 764.13 640.88"/><polygon class="cls-2" points="788.88 665.62 782.37 672.13 775.86 665.62 775.16 666.33 781.66 672.84 775.16 679.35 775.86 680.05 782.37 673.54 788.88 680.05 789.59 679.35 783.08 672.84 789.59 666.33 788.88 665.62"/><polygon class="cls-2" points="813.63 690.37 807.12 696.88 800.61 690.37 799.91 691.08 806.41 697.59 799.91 704.09 800.61 704.8 807.12 698.29 813.63 704.8 814.33 704.09 807.83 697.59 814.33 691.08 813.63 690.37"/><polygon class="cls-2" points="838.38 715.12 831.87 721.63 825.36 715.12 824.65 715.83 831.16 722.34 824.65 728.84 825.36 729.55 831.87 723.04 838.38 729.55 839.08 728.84 832.58 722.34 839.08 715.83 838.38 715.12"/><polygon class="cls-2" points="566.14 492.38 559.63 498.89 553.13 492.38 552.42 493.09 558.92 499.6 552.42 506.1 553.13 506.81 559.63 500.3 566.14 506.81 566.85 506.1 560.34 499.6 566.85 493.09 566.14 492.38"/><polygon class="cls-2" points="590.89 517.13 584.38 523.64 577.87 517.13 577.17 517.84 583.67 524.35 577.17 530.85 577.87 531.56 584.38 525.05 590.89 531.56 591.6 530.85 585.09 524.35 591.6 517.84 590.89 517.13"/><polygon class="cls-2" points="615.64 541.88 609.13 548.39 602.62 541.88 601.92 542.59 608.42 549.1 601.92 555.6 602.62 556.31 609.13 549.8 615.64 556.31 616.34 555.6 609.84 549.1 616.34 542.59 615.64 541.88"/><polygon class="cls-2" points="640.38 566.63 633.88 573.14 627.37 566.63 626.66 567.34 633.17 573.84 626.66 580.35 627.37 581.06 633.88 574.55 640.38 581.06 641.09 580.35 634.59 573.84 641.09 567.34 640.38 566.63"/><polygon class="cls-2" points="665.13 591.38 658.63 597.88 652.12 591.38 651.41 592.09 657.92 598.59 651.41 605.1 652.12 605.81 658.63 599.3 665.13 605.81 665.84 605.1 659.33 598.59 665.84 592.09 665.13 591.38"/><polygon class="cls-2" points="689.88 616.13 683.38 622.63 676.87 616.13 676.16 616.83 682.67 623.34 676.16 629.85 676.87 630.55 683.38 624.05 689.88 630.55 690.59 629.85 684.08 623.34 690.59 616.83 689.88 616.13"/><polygon class="cls-2" points="714.63 640.88 708.13 647.38 701.62 640.88 700.91 641.58 707.42 648.09 700.91 654.6 701.62 655.3 708.13 648.8 714.63 655.3 715.34 654.6 708.83 648.09 715.34 641.58 714.63 640.88"/><polygon class="cls-2" points="739.38 665.62 732.87 672.13 726.37 665.62 725.66 666.33 732.17 672.84 725.66 679.35 726.37 680.05 732.87 673.54 739.38 680.05 740.09 679.35 733.58 672.84 740.09 666.33 739.38 665.62"/><polygon class="cls-2" points="764.13 690.37 757.62 696.88 751.12 690.37 750.41 691.08 756.91 697.59 750.41 704.09 751.12 704.8 757.62 698.29 764.13 704.8 764.84 704.09 758.33 697.59 764.84 691.08 764.13 690.37"/><polygon class="cls-2" points="788.88 715.12 782.37 721.63 775.86 715.12 775.16 715.83 781.66 722.34 775.16 728.84 775.86 729.55 782.37 723.04 788.88 729.55 789.59 728.84 783.08 722.34 789.59 715.83 788.88 715.12"/><polygon class="cls-2" points="813.63 739.87 807.12 746.38 800.61 739.87 799.91 740.58 806.41 747.09 799.91 753.59 800.61 754.3 807.12 747.79 813.63 754.3 814.33 753.59 807.83 747.09 814.33 740.58 813.63 739.87"/><polygon class="cls-2" points="838.38 764.62 831.87 771.13 825.36 764.62 824.65 765.33 831.16 771.83 824.65 778.34 825.36 779.05 831.87 772.54 838.38 779.05 839.08 778.34 832.58 771.83 839.08 765.33 838.38 764.62"/><polygon class="cls-2" points="541.39 517.13 534.88 523.64 528.38 517.13 527.67 517.84 534.18 524.35 527.67 530.85 528.38 531.56 534.88 525.05 541.39 531.56 542.1 530.85 535.59 524.35 542.1 517.84 541.39 517.13"/><polygon class="cls-2" points="566.14 541.88 559.63 548.39 553.13 541.88 552.42 542.59 558.92 549.1 552.42 555.6 553.13 556.31 559.63 549.8 566.14 556.31 566.85 555.6 560.34 549.1 566.85 542.59 566.14 541.88"/><polygon class="cls-2" points="590.89 566.63 584.38 573.14 577.87 566.63 577.17 567.34 583.67 573.84 577.17 580.35 577.87 581.06 584.38 574.55 590.89 581.06 591.6 580.35 585.09 573.84 591.6 567.34 590.89 566.63"/><polygon class="cls-2" points="615.64 591.38 609.13 597.88 602.62 591.38 601.92 592.09 608.42 598.59 601.92 605.1 602.62 605.81 609.13 599.3 615.64 605.81 616.34 605.1 609.84 598.59 616.34 592.09 615.64 591.38"/><polygon class="cls-2" points="640.38 616.13 633.88 622.63 627.37 616.13 626.66 616.83 633.17 623.34 626.66 629.85 627.37 630.55 633.88 624.05 640.38 630.55 641.09 629.85 634.59 623.34 641.09 616.83 640.38 616.13"/><polygon class="cls-2" points="665.13 640.88 658.63 647.38 652.12 640.88 651.41 641.58 657.92 648.09 651.41 654.6 652.12 655.3 658.63 648.8 665.13 655.3 665.84 654.6 659.33 648.09 665.84 641.58 665.13 640.88"/><polygon class="cls-2" points="689.88 665.62 683.38 672.13 676.87 665.62 676.16 666.33 682.67 672.84 676.16 679.35 676.87 680.05 683.38 673.54 689.88 680.05 690.59 679.35 684.08 672.84 690.59 666.33 689.88 665.62"/><polygon class="cls-2" points="714.63 690.37 708.13 696.88 701.62 690.37 700.91 691.08 707.42 697.59 700.91 704.09 701.62 704.8 708.13 698.29 714.63 704.8 715.34 704.09 708.83 697.59 715.34 691.08 714.63 690.37"/><polygon class="cls-2" points="739.38 715.12 732.87 721.63 726.37 715.12 725.66 715.83 732.17 722.34 725.66 728.84 726.37 729.55 732.87 723.04 739.38 729.55 740.09 728.84 733.58 722.34 740.09 715.83 739.38 715.12"/><polygon class="cls-2" points="764.13 739.87 757.62 746.38 751.12 739.87 750.41 740.58 756.91 747.09 750.41 753.59 751.12 754.3 757.62 747.79 764.13 754.3 764.84 753.59 758.33 747.09 764.84 740.58 764.13 739.87"/><polygon class="cls-2" points="788.88 764.62 782.37 771.13 775.86 764.62 775.16 765.33 781.66 771.83 775.16 778.34 775.86 779.05 782.37 772.54 788.88 779.05 789.59 778.34 783.08 771.83 789.59 765.33 788.88 764.62"/><polygon class="cls-2" points="813.63 789.37 807.12 795.88 800.61 789.37 799.91 790.08 806.41 796.58 799.91 803.09 800.61 803.8 807.12 797.29 813.63 803.8 814.33 803.09 807.83 796.58 814.33 790.08 813.63 789.37"/><polygon class="cls-2" points="838.38 814.12 831.87 820.62 825.36 814.12 824.65 814.82 831.16 821.33 824.65 827.84 825.36 828.54 831.87 822.04 838.38 828.54 839.08 827.84 832.58 821.33 839.08 814.82 838.38 814.12"/><polygon class="cls-2" points="541.39 566.63 534.88 573.14 528.38 566.63 527.67 567.34 534.18 573.84 527.67 580.35 528.38 581.06 534.88 574.55 541.39 581.06 542.1 580.35 535.59 573.84 542.1 567.34 541.39 566.63"/><polygon class="cls-2" points="566.14 591.38 559.63 597.88 553.13 591.38 552.42 592.09 558.92 598.59 552.42 605.1 553.13 605.81 559.63 599.3 566.14 605.81 566.85 605.1 560.34 598.59 566.85 592.09 566.14 591.38"/><polygon class="cls-2" points="590.89 616.13 584.38 622.63 577.87 616.13 577.17 616.83 583.67 623.34 577.17 629.85 577.87 630.55 584.38 624.05 590.89 630.55 591.6 629.85 585.09 623.34 591.6 616.83 590.89 616.13"/><polygon class="cls-2" points="615.64 640.88 609.13 647.38 602.62 640.88 601.92 641.58 608.42 648.09 601.92 654.6 602.62 655.3 609.13 648.8 615.64 655.3 616.34 654.6 609.84 648.09 616.34 641.58 615.64 640.88"/><polygon class="cls-2" points="640.38 665.62 633.88 672.13 627.37 665.62 626.66 666.33 633.17 672.84 626.66 679.35 627.37 680.05 633.88 673.54 640.38 680.05 641.09 679.35 634.59 672.84 641.09 666.33 640.38 665.62"/><polygon class="cls-2" points="665.13 690.37 658.63 696.88 652.12 690.37 651.41 691.08 657.92 697.59 651.41 704.09 652.12 704.8 658.63 698.29 665.13 704.8 665.84 704.09 659.33 697.59 665.84 691.08 665.13 690.37"/><polygon class="cls-2" points="689.88 715.12 683.38 721.63 676.87 715.12 676.16 715.83 682.67 722.34 676.16 728.84 676.87 729.55 683.38 723.04 689.88 729.55 690.59 728.84 684.08 722.34 690.59 715.83 689.88 715.12"/><polygon class="cls-2" points="714.63 739.87 708.13 746.38 701.62 739.87 700.91 740.58 707.42 747.09 700.91 753.59 701.62 754.3 708.13 747.79 714.63 754.3 715.34 753.59 708.83 747.09 715.34 740.58 714.63 739.87"/><polygon class="cls-2" points="739.38 764.62 732.87 771.13 726.37 764.62 725.66 765.33 732.17 771.83 725.66 778.34 726.37 779.05 732.87 772.54 739.38 779.05 740.09 778.34 733.58 771.83 740.09 765.33 739.38 764.62"/><polygon class="cls-2" points="764.13 789.37 757.62 795.88 751.12 789.37 750.41 790.08 756.91 796.58 750.41 803.09 751.12 803.8 757.62 797.29 764.13 803.8 764.84 803.09 758.33 796.58 764.84 790.08 764.13 789.37"/><polygon class="cls-2" points="788.88 814.12 782.37 820.62 775.86 814.12 775.16 814.82 781.66 821.33 775.16 827.84 775.86 828.54 782.37 822.04 788.88 828.54 789.59 827.84 783.08 821.33 789.59 814.82 788.88 814.12"/><polygon class="cls-2" points="813.63 838.87 807.12 845.37 800.61 838.87 799.91 839.57 806.41 846.08 799.91 852.59 800.61 853.29 807.12 846.79 813.63 853.29 814.33 852.59 807.83 846.08 814.33 839.57 813.63 838.87"/><polygon class="cls-2" points="838.38 863.61 831.87 870.12 825.36 863.61 824.65 864.32 831.16 870.83 824.65 877.34 825.36 878.04 831.87 871.53 838.38 878.04 839.08 877.34 832.58 870.83 839.08 864.32 838.38 863.61"/><polygon class="cls-2" points="541.39 616.13 534.88 622.63 528.38 616.13 527.67 616.83 534.18 623.34 527.67 629.85 528.38 630.55 534.88 624.05 541.39 630.55 542.1 629.85 535.59 623.34 542.1 616.83 541.39 616.13"/><polygon class="cls-2" points="566.14 640.88 559.63 647.38 553.13 640.88 552.42 641.58 558.92 648.09 552.42 654.6 553.13 655.3 559.63 648.8 566.14 655.3 566.85 654.6 560.34 648.09 566.85 641.58 566.14 640.88"/><polygon class="cls-2" points="590.89 665.62 584.38 672.13 577.87 665.62 577.17 666.33 583.67 672.84 577.17 679.35 577.87 680.05 584.38 673.54 590.89 680.05 591.6 679.35 585.09 672.84 591.6 666.33 590.89 665.62"/><polygon class="cls-2" points="615.64 690.37 609.13 696.88 602.62 690.37 601.92 691.08 608.42 697.59 601.92 704.09 602.62 704.8 609.13 698.29 615.64 704.8 616.34 704.09 609.84 697.59 616.34 691.08 615.64 690.37"/><polygon class="cls-2" points="640.38 715.12 633.88 721.63 627.37 715.12 626.66 715.83 633.17 722.34 626.66 728.84 627.37 729.55 633.88 723.04 640.38 729.55 641.09 728.84 634.59 722.34 641.09 715.83 640.38 715.12"/><polygon class="cls-2" points="665.13 739.87 658.63 746.38 652.12 739.87 651.41 740.58 657.92 747.09 651.41 753.59 652.12 754.3 658.63 747.79 665.13 754.3 665.84 753.59 659.33 747.09 665.84 740.58 665.13 739.87"/><polygon class="cls-2" points="689.88 764.62 683.38 771.13 676.87 764.62 676.16 765.33 682.67 771.83 676.16 778.34 676.87 779.05 683.38 772.54 689.88 779.05 690.59 778.34 684.08 771.83 690.59 765.33 689.88 764.62"/><polygon class="cls-2" points="714.63 789.37 708.13 795.88 701.62 789.37 700.91 790.08 707.42 796.58 700.91 803.09 701.62 803.8 708.13 797.29 714.63 803.8 715.34 803.09 708.83 796.58 715.34 790.08 714.63 789.37"/><polygon class="cls-2" points="739.38 814.12 732.87 820.62 726.37 814.12 725.66 814.82 732.17 821.33 725.66 827.84 726.37 828.54 732.87 822.04 739.38 828.54 740.09 827.84 733.58 821.33 740.09 814.82 739.38 814.12"/><polygon class="cls-2" points="764.13 838.87 757.62 845.37 751.12 838.87 750.41 839.57 756.91 846.08 750.41 852.59 751.12 853.29 757.62 846.79 764.13 853.29 764.84 852.59 758.33 846.08 764.84 839.57 764.13 838.87"/><polygon class="cls-2" points="788.88 863.61 782.37 870.12 775.86 863.61 775.16 864.32 781.66 870.83 775.16 877.34 775.86 878.04 782.37 871.53 788.88 878.04 789.59 877.34 783.08 870.83 789.59 864.32 788.88 863.61"/><polygon class="cls-2" points="813.63 888.36 807.12 894.87 800.61 888.36 799.91 889.07 806.41 895.58 799.91 902.08 800.61 902.79 807.12 896.28 813.63 902.79 814.33 902.08 807.83 895.58 814.33 889.07 813.63 888.36"/><polygon class="cls-2" points="838.38 913.11 831.87 919.62 825.36 913.11 824.65 913.82 831.16 920.33 824.65 926.83 825.36 927.54 831.87 921.03 838.38 927.54 839.08 926.83 832.58 920.33 839.08 913.82 838.38 913.11"/><polygon class="cls-2" points="566.14 690.37 559.63 696.88 553.13 690.37 552.42 691.08 558.92 697.59 552.42 704.09 553.13 704.8 559.63 698.29 566.14 704.8 566.85 704.09 560.34 697.59 566.85 691.08 566.14 690.37"/><polygon class="cls-2" points="590.89 715.12 584.38 721.63 577.87 715.12 577.17 715.83 583.67 722.34 577.17 728.84 577.87 729.55 584.38 723.04 590.89 729.55 591.6 728.84 585.09 722.34 591.6 715.83 590.89 715.12"/><polygon class="cls-2" points="615.64 739.87 609.13 746.38 602.62 739.87 601.92 740.58 608.42 747.09 601.92 753.59 602.62 754.3 609.13 747.79 615.64 754.3 616.34 753.59 609.84 747.09 616.34 740.58 615.64 739.87"/><polygon class="cls-2" points="640.38 764.62 633.88 771.13 627.37 764.62 626.66 765.33 633.17 771.83 626.66 778.34 627.37 779.05 633.88 772.54 640.38 779.05 641.09 778.34 634.59 771.83 641.09 765.33 640.38 764.62"/><polygon class="cls-2" points="665.13 789.37 658.63 795.88 652.12 789.37 651.41 790.08 657.92 796.58 651.41 803.09 652.12 803.8 658.63 797.29 665.13 803.8 665.84 803.09 659.33 796.58 665.84 790.08 665.13 789.37"/><polygon class="cls-2" points="689.88 814.12 683.38 820.62 676.87 814.12 676.16 814.82 682.67 821.33 676.16 827.84 676.87 828.54 683.38 822.04 689.88 828.54 690.59 827.84 684.08 821.33 690.59 814.82 689.88 814.12"/><polygon class="cls-2" points="714.63 838.87 708.13 845.37 701.62 838.87 700.91 839.57 707.42 846.08 700.91 852.59 701.62 853.29 708.13 846.79 714.63 853.29 715.34 852.59 708.83 846.08 715.34 839.57 714.63 838.87"/><polygon class="cls-2" points="739.38 863.61 732.87 870.12 726.37 863.61 725.66 864.32 732.17 870.83 725.66 877.34 726.37 878.04 732.87 871.53 739.38 878.04 740.09 877.34 733.58 870.83 740.09 864.32 739.38 863.61"/><polygon class="cls-2" points="764.13 888.36 757.62 894.87 751.12 888.36 750.41 889.07 756.91 895.58 750.41 902.08 751.12 902.79 757.62 896.28 764.13 902.79 764.84 902.08 758.33 895.58 764.84 889.07 764.13 888.36"/><polygon class="cls-2" points="788.88 913.11 782.37 919.62 775.86 913.11 775.16 913.82 781.66 920.33 775.16 926.83 775.86 927.54 782.37 921.03 788.88 927.54 789.59 926.83 783.08 920.33 789.59 913.82 788.88 913.11"/><polygon class="cls-2" points="813.63 937.86 807.12 944.37 800.61 937.86 799.91 938.57 806.41 945.07 799.91 951.58 800.61 952.29 807.12 945.78 813.63 952.29 814.33 951.58 807.83 945.07 814.33 938.57 813.63 937.86"/><polygon class="cls-2" points="838.38 962.61 831.87 969.12 825.36 962.61 824.65 963.32 831.16 969.82 824.65 976.33 825.36 977.04 831.87 970.53 838.38 977.04 839.08 976.33 832.58 969.82 839.08 963.32 838.38 962.61"/><polygon class="cls-2" points="640.38 814.12 633.88 820.62 627.37 814.12 626.66 814.82 633.17 821.33 626.66 827.84 627.37 828.54 633.88 822.04 640.38 828.54 641.09 827.84 634.59 821.33 641.09 814.82 640.38 814.12"/><polygon class="cls-2" points="665.13 838.87 658.63 845.37 652.12 838.87 651.41 839.57 657.92 846.08 651.41 852.59 652.12 853.29 658.63 846.79 665.13 853.29 665.84 852.59 659.33 846.08 665.84 839.57 665.13 838.87"/><polygon class="cls-2" points="689.88 863.61 683.38 870.12 676.87 863.61 676.16 864.32 682.67 870.83 676.16 877.34 676.87 878.04 683.38 871.53 689.88 878.04 690.59 877.34 684.08 870.83 690.59 864.32 689.88 863.61"/><polygon class="cls-2" points="714.63 888.36 708.13 894.87 701.62 888.36 700.91 889.07 707.42 895.58 700.91 902.08 701.62 902.79 708.13 896.28 714.63 902.79 715.34 902.08 708.83 895.58 715.34 889.07 714.63 888.36"/><polygon class="cls-2" points="739.38 913.11 732.87 919.62 726.37 913.11 725.66 913.82 732.17 920.33 725.66 926.83 726.37 927.54 732.87 921.03 739.38 927.54 740.09 926.83 733.58 920.33 740.09 913.82 739.38 913.11"/><polygon class="cls-2" points="764.13 937.86 757.62 944.37 751.12 937.86 750.41 938.57 756.91 945.07 750.41 951.58 751.12 952.29 757.62 945.78 764.13 952.29 764.84 951.58 758.33 945.07 764.84 938.57 764.13 937.86"/><polygon class="cls-2" points="788.88 962.61 782.37 969.12 775.86 962.61 775.16 963.32 781.66 969.82 775.16 976.33 775.86 977.04 782.37 970.53 788.88 977.04 789.59 976.33 783.08 969.82 789.59 963.32 788.88 962.61"/><polygon class="cls-2" points="813.63 987.36 807.12 993.87 800.61 987.36 799.91 988.07 806.41 994.57 799.91 1001.08 800.61 1001.79 807.12 995.28 813.63 1001.79 814.33 1001.08 807.83 994.57 814.33 988.07 813.63 987.36"/><polygon class="cls-2" points="838.38 1012.11 831.87 1018.61 825.36 1012.11 824.65 1012.81 831.16 1019.32 824.65 1025.83 825.36 1026.54 831.87 1020.03 838.38 1026.54 839.08 1025.83 832.58 1019.32 839.08 1012.81 838.38 1012.11"/><polygon class="cls-2" points="714.63 937.86 708.13 944.37 701.62 937.86 700.91 938.57 707.42 945.07 700.91 951.58 701.62 952.29 708.13 945.78 714.63 952.29 715.34 951.58 708.83 945.07 715.34 938.57 714.63 937.86"/><polygon class="cls-2" points="739.38 962.61 732.87 969.12 726.37 962.61 725.66 963.32 732.17 969.82 725.66 976.33 726.37 977.04 732.87 970.53 739.38 977.04 740.09 976.33 733.58 969.82 740.09 963.32 739.38 962.61"/><polygon class="cls-2" points="764.13 987.36 757.62 993.87 751.12 987.36 750.41 988.07 756.91 994.57 750.41 1001.08 751.12 1001.79 757.62 995.28 764.13 1001.79 764.84 1001.08 758.33 994.57 764.84 988.07 764.13 987.36"/><polygon class="cls-2" points="788.88 1012.11 782.37 1018.61 775.86 1012.11 775.16 1012.81 781.66 1019.32 775.16 1025.83 775.86 1026.54 782.37 1020.03 788.88 1026.54 789.59 1025.83 783.08 1019.32 789.59 1012.81 788.88 1012.11"/><polygon class="cls-2" points="813.63 1036.86 807.12 1043.36 800.61 1036.86 799.91 1037.56 806.41 1044.07 799.91 1050.58 800.61 1051.28 807.12 1044.78 813.63 1051.28 814.33 1050.58 807.83 1044.07 814.33 1037.56 813.63 1036.86"/><polygon class="cls-2" points="838.38 1061.6 831.87 1068.11 825.36 1061.6 824.65 1062.31 831.16 1068.82 824.65 1075.33 825.36 1076.03 831.87 1069.53 838.38 1076.03 839.08 1075.33 832.58 1068.82 839.08 1062.31 838.38 1061.6"/><polygon class="cls-2" points="739.38 1012.11 732.87 1018.61 726.37 1012.11 725.66 1012.81 732.17 1019.32 725.66 1025.83 726.37 1026.54 732.87 1020.03 739.38 1026.54 740.09 1025.83 733.58 1019.32 740.09 1012.81 739.38 1012.11"/><polygon class="cls-2" points="764.13 1036.86 757.62 1043.36 751.12 1036.86 750.41 1037.56 756.91 1044.07 750.41 1050.58 751.12 1051.28 757.62 1044.78 764.13 1051.28 764.84 1050.58 758.33 1044.07 764.84 1037.56 764.13 1036.86"/><polygon class="cls-2" points="788.88 1061.6 782.37 1068.11 775.86 1061.6 775.16 1062.31 781.66 1068.82 775.16 1075.33 775.86 1076.03 782.37 1069.53 788.88 1076.03 789.59 1075.33 783.08 1068.82 789.59 1062.31 788.88 1061.6"/><polygon class="cls-2" points="813.63 1086.35 807.12 1092.86 800.61 1086.35 799.91 1087.06 806.41 1093.57 799.91 1100.07 800.61 1100.78 807.12 1094.27 813.63 1100.78 814.33 1100.07 807.83 1093.57 814.33 1087.06 813.63 1086.35"/><polygon class="cls-2" points="838.38 1111.1 831.87 1117.61 825.36 1111.1 824.65 1111.81 831.16 1118.32 824.65 1124.82 825.36 1125.53 831.87 1119.02 838.38 1125.53 839.08 1124.82 832.58 1118.32 839.08 1111.81 838.38 1111.1"/><polygon class="cls-2" points="764.13 1086.35 757.62 1092.86 751.12 1086.35 750.41 1087.06 756.91 1093.57 750.41 1100.07 751.12 1100.78 757.62 1094.27 764.13 1100.78 764.84 1100.07 758.33 1093.57 764.84 1087.06 764.13 1086.35"/><polygon class="cls-2" points="788.88 1111.1 782.37 1117.61 775.86 1111.1 775.16 1111.81 781.66 1118.32 775.16 1124.82 775.86 1125.53 782.37 1119.02 788.88 1125.53 789.59 1124.82 783.08 1118.32 789.59 1111.81 788.88 1111.1"/></g></svg>