<svg id="Layer_1" data-name="Layer 1" xmlns="http://www.w3.org/2000/svg" viewBox="0 0 1392.17 1180.43"><defs><style>.cls-1{fill:#ff5733;}.cls-2{fill:none;stroke:#ff5733;stroke-miterlimit:10;stroke-width:2px;}</style></defs><g id="Layer_4" data-name="Layer 4"><polygon class="cls-1" points="470.26 802.52 470.26 793.32 479.47 793.32 479.47 792.32 470.26 792.32 470.26 783.12 469.26 783.12 469.26 792.32 460.06 792.32 460.06 793.32 469.26 793.32 469.26 802.52 470.26 802.52"/><polygon class="cls-1" points="519.76 802.52 519.76 793.32 528.96 793.32 528.96 792.32 519.76 792.32 519.76 783.12 518.76 783.12 518.76 792.32 509.56 792.32 509.56 793.32 518.76 793.32 518.76 802.52 519.76 802.52"/><polygon class="cls-1" points="495.01 827.27 495.01 818.07 504.22 818.07 504.22 817.07 495.01 817.07 495.01 807.87 494.01 807.87 494.01 817.07 484.81 817.07 484.81 818.07 494.01 818.07 494.01 827.27 495.01 827.27"/><polygon class="cls-1" points="495.01 777.77 495.01 768.57 504.22 768.57 504.22 767.57 495.01 767.57 495.01 758.37 494.01 758.37 494.01 767.57 484.81 767.57 484.81 768.57 494.01 768.57 494.01 777.77 495.01 777.77"/><polygon class="cls-1" points="544.51 827.27 544.51 818.07 553.71 818.07 553.71 817.07 544.51 817.07 544.51 807.87 543.51 807.87 543.51 817.07 534.31 817.07 534.31 818.07 543.51 818.07 543.51 827.27 544.51 827.27"/><polygon class="cls-1" points="445.52 827.27 445.52 818.07 454.72 818.07 454.72 817.07 445.52 817.07 445.52 807.87 444.52 807.87 444.52 817.07 435.31 817.07 435.31 818.07 444.52 818.07 444.52 827.27 445.52 827.27"/><polygon class="cls-1" points="297.02 777.77 297.02 768.57 306.23 768.57 306.23 767.57 297.02 767.57 297.02 758.37 296.02 758.37 296.02 767.57 286.82 767.57 286.82 768.57 296.02 768.57 296.02 777.77 297.02 777.77"/><polygon class="cls-1" points="346.52 777.77 346.52 768.57 355.72 768.57 355.72 767.57 346.52 767.57 346.52 758.37 345.52 758.37 345.52 767.57 336.32 767.57 336.32 768.57 345.52 768.57 345.52 777.77 346.52 777.77"/><polygon class="cls-1" points="321.77 802.52 321.77 793.32 330.98 793.32 330.98 792.32 321.77 792.32 321.77 783.12 320.77 783.12 320.77 792.32 311.57 792.32 311.57 793.32 320.77 793.32 320.77 802.52 321.77 802.52"/><polygon class="cls-1" points="321.77 753.02 321.77 743.82 330.98 743.82 330.98 742.82 321.77 742.82 321.77 733.62 320.77 733.62 320.77 742.82 311.57 742.82 311.57 743.82 320.77 743.82 320.77 753.02 321.77 753.02"/><polygon class="cls-1" points="346.52 827.27 346.52 818.07 355.72 818.07 355.72 817.07 346.52 817.07 346.52 807.87 345.52 807.87 345.52 817.07 336.32 817.07 336.32 818.07 345.52 818.07 345.52 827.27 346.52 827.27"/><polygon class="cls-1" points="396.02 827.27 396.02 818.07 405.22 818.07 405.22 817.07 396.02 817.07 396.02 807.87 395.02 807.87 395.02 817.07 385.82 817.07 385.82 818.07 395.02 818.07 395.02 827.27 396.02 827.27"/><polygon class="cls-1" points="371.27 802.52 371.27 793.32 380.47 793.32 380.47 792.32 371.27 792.32 371.27 783.12 370.27 783.12 370.27 792.32 361.07 792.32 361.07 793.32 370.27 793.32 370.27 802.52 371.27 802.52"/><polygon class="cls-1" points="297.02 827.27 297.02 818.07 306.23 818.07 306.23 817.07 297.02 817.07 297.02 807.87 296.02 807.87 296.02 817.07 286.82 817.07 286.82 818.07 296.02 818.07 296.02 827.27 297.02 827.27"/><polygon class="cls-1" points="445.52 728.28 445.52 719.07 454.72 719.07 454.72 718.07 445.52 718.07 445.52 708.87 444.52 708.87 444.52 718.07 435.32 718.07 435.32 719.07 444.52 719.07 444.52 728.28 445.52 728.28"/><polygon class="cls-1" points="495.01 728.28 495.01 719.07 504.22 719.07 504.22 718.07 495.01 718.07 495.01 708.87 494.01 708.87 494.01 718.07 484.81 718.07 484.81 719.07 494.01 719.07 494.01 728.28 495.01 728.28"/><polygon class="cls-1" points="470.27 753.02 470.27 743.82 479.47 743.82 479.47 742.82 470.27 742.82 470.27 733.62 469.27 733.62 469.27 742.82 460.06 742.82 460.06 743.82 469.27 743.82 469.27 753.02 470.27 753.02"/><polygon class="cls-1" points="470.27 703.53 470.27 694.33 479.47 694.33 479.47 693.33 470.27 693.33 470.27 684.12 469.27 684.12 469.27 693.33 460.06 693.33 460.06 694.33 469.27 694.33 469.27 703.53 470.27 703.53"/><polygon class="cls-1" points="396.02 777.77 396.02 768.57 405.22 768.57 405.22 767.57 396.02 767.57 396.02 758.37 395.02 758.37 395.02 767.57 385.82 767.57 385.82 768.57 395.02 768.57 395.02 777.77 396.02 777.77"/><polygon class="cls-1" points="445.52 777.77 445.52 768.57 454.72 768.57 454.72 767.57 445.52 767.57 445.52 758.37 444.52 758.37 444.52 767.57 435.32 767.57 435.32 768.57 444.52 768.57 444.52 777.77 445.52 777.77"/><polygon class="cls-1" points="420.77 802.52 420.77 793.32 429.97 793.32 429.97 792.32 420.77 792.32 420.77 783.12 419.77 783.12 419.77 792.32 410.57 792.32 410.57 793.32 419.77 793.32 419.77 802.52 420.77 802.52"/><polygon class="cls-1" points="420.77 753.02 420.77 743.82 429.97 743.82 429.97 742.82 420.77 742.82 420.77 733.62 419.77 733.62 419.77 742.82 410.57 742.82 410.57 743.82 419.77 743.82 419.77 753.02 420.77 753.02"/><polygon class="cls-1" points="396.02 728.28 396.02 719.07 405.22 719.07 405.22 718.07 396.02 718.07 396.02 708.87 395.02 708.87 395.02 718.07 385.82 718.07 385.82 719.07 395.02 719.07 395.02 728.28 396.02 728.28"/><polygon class="cls-1" points="371.27 753.02 371.27 743.82 380.47 743.82 380.47 742.82 371.27 742.82 371.27 733.62 370.27 733.62 370.27 742.82 361.07 742.82 361.07 743.82 370.27 743.82 370.27 753.02 371.27 753.02"/><polygon class="cls-1" points="569.26 703.53 569.26 694.33 578.46 694.33 578.46 693.33 569.26 693.33 569.26 684.12 568.26 684.12 568.26 693.33 559.06 693.33 559.06 694.33 568.26 694.33 568.26 703.53 569.26 703.53"/><polygon class="cls-1" points="618.76 703.53 618.76 694.33 627.96 694.33 627.96 693.33 618.76 693.33 618.76 684.12 617.76 684.12 617.76 693.33 608.56 693.33 608.56 694.33 617.76 694.33 617.76 703.53 618.76 703.53"/><polygon class="cls-1" points="594.01 728.28 594.01 719.07 603.21 719.07 603.21 718.07 594.01 718.07 594.01 708.87 593.01 708.87 593.01 718.07 583.81 718.07 583.81 719.07 593.01 719.07 593.01 728.28 594.01 728.28"/><polygon class="cls-1" points="594.01 678.78 594.01 669.58 603.21 669.58 603.21 668.58 594.01 668.58 594.01 659.37 593.01 659.37 593.01 668.58 583.81 668.58 583.81 669.58 593.01 669.58 593.01 678.78 594.01 678.78"/><polygon class="cls-1" points="618.76 753.02 618.76 743.82 627.96 743.82 627.96 742.82 618.76 742.82 618.76 733.62 617.76 733.62 617.76 742.82 608.56 742.82 608.56 743.82 617.76 743.82 617.76 753.02 618.76 753.02"/><polygon class="cls-1" points="668.25 753.02 668.25 743.82 677.46 743.82 677.46 742.82 668.25 742.82 668.25 733.62 667.25 733.62 667.25 742.82 658.05 742.82 658.05 743.82 667.25 743.82 667.25 753.02 668.25 753.02"/><polygon class="cls-1" points="643.51 777.77 643.51 768.57 652.71 768.57 652.71 767.57 643.51 767.57 643.51 758.37 642.51 758.37 642.51 767.57 633.31 767.57 633.31 768.57 642.51 768.57 642.51 777.77 643.51 777.77"/><polygon class="cls-1" points="643.51 728.28 643.51 719.07 652.71 719.07 652.71 718.07 643.51 718.07 643.51 708.87 642.51 708.87 642.51 718.07 633.31 718.07 633.31 719.07 642.51 719.07 642.51 728.28 643.51 728.28"/><polygon class="cls-1" points="569.26 802.52 569.26 793.32 578.46 793.32 578.46 792.32 569.26 792.32 569.26 783.12 568.26 783.12 568.26 792.32 559.06 792.32 559.06 793.32 568.26 793.32 568.26 802.52 569.26 802.52"/><polygon class="cls-1" points="618.76 802.52 618.76 793.32 627.96 793.32 627.96 792.32 618.76 792.32 618.76 783.12 617.76 783.12 617.76 792.32 608.56 792.32 608.56 793.32 617.76 793.32 617.76 802.52 618.76 802.52"/><polygon class="cls-1" points="594.01 827.27 594.01 818.07 603.21 818.07 603.21 817.07 594.01 817.07 594.01 807.87 593.01 807.87 593.01 817.07 583.81 817.07 583.81 818.07 593.01 818.07 593.01 827.27 594.01 827.27"/><polygon class="cls-1" points="594.01 777.77 594.01 768.57 603.21 768.57 603.21 767.57 594.01 767.57 594.01 758.37 593.01 758.37 593.01 767.57 583.81 767.57 583.81 768.57 593.01 768.57 593.01 777.77 594.01 777.77"/><polygon class="cls-1" points="519.76 753.02 519.76 743.82 528.96 743.82 528.96 742.82 519.76 742.82 519.76 733.62 518.76 733.62 518.76 742.82 509.56 742.82 509.56 743.82 518.76 743.82 518.76 753.02 519.76 753.02"/><polygon class="cls-1" points="569.26 753.02 569.26 743.82 578.46 743.82 578.46 742.82 569.26 742.82 569.26 733.62 568.26 733.62 568.26 742.82 559.06 742.82 559.06 743.82 568.26 743.82 568.26 753.02 569.26 753.02"/><polygon class="cls-1" points="544.51 777.77 544.51 768.57 553.71 768.57 553.71 767.57 544.51 767.57 544.51 758.37 543.51 758.37 543.51 767.57 534.31 767.57 534.31 768.57 543.51 768.57 543.51 777.77 544.51 777.77"/><polygon class="cls-1" points="544.51 728.28 544.51 719.07 553.71 719.07 553.71 718.07 544.51 718.07 544.51 708.87 543.51 708.87 543.51 718.07 534.31 718.07 534.31 719.07 543.51 719.07 543.51 728.28 544.51 728.28"/><polygon class="cls-1" points="594.01 629.28 594.01 620.08 603.21 620.08 603.21 619.08 594.01 619.08 594.01 609.88 593.01 609.88 593.01 619.08 583.81 619.08 583.81 620.08 593.01 620.08 593.01 629.28 594.01 629.28"/><polygon class="cls-1" points="569.26 654.03 569.26 644.83 578.46 644.83 578.46 643.83 569.26 643.83 569.26 634.62 568.26 634.62 568.26 643.83 559.06 643.83 559.06 644.83 568.26 644.83 568.26 654.03 569.26 654.03"/><polygon class="cls-1" points="544.51 678.78 544.51 669.58 553.71 669.58 553.71 668.58 544.51 668.58 544.51 659.37 543.51 659.37 543.51 668.58 534.31 668.58 534.31 669.58 543.51 669.58 543.51 678.78 544.51 678.78"/><polygon class="cls-1" points="519.76 703.53 519.76 694.33 528.96 694.33 528.96 693.33 519.76 693.33 519.76 684.12 518.76 684.12 518.76 693.33 509.56 693.33 509.56 694.33 518.76 694.33 518.76 703.53 519.76 703.53"/><polygon class="cls-1" points="668.25 604.53 668.25 595.33 677.46 595.33 677.46 594.33 668.25 594.33 668.25 585.13 667.25 585.13 667.25 594.33 658.05 594.33 658.05 595.33 667.25 595.33 667.25 604.53 668.25 604.53"/><polygon class="cls-1" points="717.75 604.53 717.75 595.33 726.96 595.33 726.96 594.33 717.75 594.33 717.75 585.13 716.75 585.13 716.75 594.33 707.55 594.33 707.55 595.33 716.75 595.33 716.75 604.53 717.75 604.53"/><polygon class="cls-1" points="693 629.28 693 620.08 702.21 620.08 702.21 619.08 693 619.08 693 609.88 692 609.88 692 619.08 682.8 619.08 682.8 620.08 692 620.08 692 629.28 693 629.28"/><polygon class="cls-1" points="693 579.78 693 570.58 702.21 570.58 702.21 569.58 693 569.58 693 560.38 692 560.38 692 569.58 682.8 569.58 682.8 570.58 692 570.58 692 579.78 693 579.78"/><polygon class="cls-1" points="717.75 654.03 717.75 644.83 726.96 644.83 726.96 643.83 717.75 643.83 717.75 634.62 716.75 634.62 716.75 643.83 707.55 643.83 707.55 644.83 716.75 644.83 716.75 654.03 717.75 654.03"/><polygon class="cls-1" points="767.25 654.03 767.25 644.83 776.45 644.83 776.45 643.83 767.25 643.83 767.25 634.62 766.25 634.62 766.25 643.83 757.05 643.83 757.05 644.83 766.25 644.83 766.25 654.03 767.25 654.03"/><polygon class="cls-1" points="742.5 678.78 742.5 669.58 751.7 669.58 751.7 668.58 742.5 668.58 742.5 659.37 741.5 659.37 741.5 668.58 732.3 668.58 732.3 669.58 741.5 669.58 741.5 678.78 742.5 678.78"/><polygon class="cls-1" points="742.5 629.28 742.5 620.08 751.7 620.08 751.7 619.08 742.5 619.08 742.5 609.88 741.5 609.88 741.5 619.08 732.3 619.08 732.3 620.08 741.5 620.08 741.5 629.28 742.5 629.28"/><polygon class="cls-1" points="668.25 703.53 668.25 694.33 677.46 694.33 677.46 693.33 668.25 693.33 668.25 684.12 667.25 684.12 667.25 693.33 658.05 693.33 658.05 694.33 667.25 694.33 667.25 703.53 668.25 703.53"/><polygon class="cls-1" points="717.75 703.53 717.75 694.33 726.96 694.33 726.96 693.33 717.75 693.33 717.75 684.12 716.75 684.12 716.75 693.33 707.55 693.33 707.55 694.33 716.75 694.33 716.75 703.53 717.75 703.53"/><polygon class="cls-1" points="693 728.28 693 719.07 702.21 719.07 702.21 718.07 693 718.07 693 708.87 692 708.87 692 718.07 682.8 718.07 682.8 719.07 692 719.07 692 728.28 693 728.28"/><polygon class="cls-1" points="693 678.78 693 669.58 702.21 669.58 702.21 668.58 693 668.58 693 659.37 692 659.37 692 668.58 682.8 668.58 682.8 669.58 692 669.58 692 678.78 693 678.78"/><polygon class="cls-1" points="618.76 654.03 618.76 644.83 627.96 644.83 627.96 643.83 618.76 643.83 618.76 634.62 617.76 634.62 617.76 643.83 608.56 643.83 608.56 644.83 617.76 644.83 617.76 654.03 618.76 654.03"/><polygon class="cls-1" points="668.25 654.03 668.25 644.83 677.46 644.83 677.46 643.83 668.25 643.83 668.25 634.62 667.25 634.62 667.25 643.83 658.05 643.83 658.05 644.83 667.25 644.83 667.25 654.03 668.25 654.03"/><polygon class="cls-1" points="643.51 678.78 643.51 669.58 652.71 669.58 652.71 668.58 643.51 668.58 643.51 659.37 642.51 659.37 642.51 668.58 633.31 668.58 633.31 669.58 642.51 669.58 642.51 678.78 643.51 678.78"/><polygon class="cls-1" points="643.51 629.28 643.51 620.08 652.71 620.08 652.71 619.08 643.51 619.08 643.51 609.88 642.51 609.88 642.51 619.08 633.31 619.08 633.31 620.08 642.51 620.08 642.51 629.28 643.51 629.28"/><polygon class="cls-1" points="792 530.29 792 521.08 801.2 521.08 801.2 520.08 792 520.08 792 510.88 791 510.88 791 520.08 781.8 520.08 781.8 521.08 791 521.08 791 530.29 792 530.29"/><polygon class="cls-1" points="816.75 555.03 816.75 545.83 825.95 545.83 825.95 544.83 816.75 544.83 816.75 535.63 815.75 535.63 815.75 544.83 806.55 544.83 806.55 545.83 815.75 545.83 815.75 555.03 816.75 555.03"/><polygon class="cls-1" points="866.24 555.03 866.24 545.83 875.45 545.83 875.45 544.83 866.24 544.83 866.24 535.63 865.24 535.63 865.24 544.83 856.04 544.83 856.04 545.83 865.24 545.83 865.24 555.03 866.24 555.03"/><polygon class="cls-1" points="841.5 579.78 841.5 570.58 850.7 570.58 850.7 569.58 841.5 569.58 841.5 560.38 840.5 560.38 840.5 569.58 831.29 569.58 831.29 570.58 840.5 570.58 840.5 579.78 841.5 579.78"/><polygon class="cls-1" points="841.5 530.29 841.5 521.08 850.7 521.08 850.7 520.08 841.5 520.08 841.5 510.88 840.5 510.88 840.5 520.08 831.29 520.08 831.29 521.08 840.5 521.08 840.5 530.29 841.5 530.29"/><polygon class="cls-1" points="767.25 604.53 767.25 595.33 776.45 595.33 776.45 594.33 767.25 594.33 767.25 585.13 766.25 585.13 766.25 594.33 757.05 594.33 757.05 595.33 766.25 595.33 766.25 604.53 767.25 604.53"/><polygon class="cls-1" points="816.75 604.53 816.75 595.33 825.95 595.33 825.95 594.33 816.75 594.33 816.75 585.13 815.75 585.13 815.75 594.33 806.55 594.33 806.55 595.33 815.75 595.33 815.75 604.53 816.75 604.53"/><polygon class="cls-1" points="792 629.28 792 620.08 801.2 620.08 801.2 619.08 792 619.08 792 609.88 791 609.88 791 619.08 781.8 619.08 781.8 620.08 791 620.08 791 629.28 792 629.28"/><polygon class="cls-1" points="792 579.78 792 570.58 801.2 570.58 801.2 569.58 792 569.58 792 560.38 791 560.38 791 569.58 781.8 569.58 781.8 570.58 791 570.58 791 579.78 792 579.78"/><polygon class="cls-1" points="717.75 555.03 717.75 545.83 726.96 545.83 726.96 544.83 717.75 544.83 717.75 535.63 716.75 535.63 716.75 544.83 707.55 544.83 707.55 545.83 716.75 545.83 716.75 555.03 717.75 555.03"/><polygon class="cls-1" points="767.25 555.03 767.25 545.83 776.45 545.83 776.45 544.83 767.25 544.83 767.25 535.63 766.25 535.63 766.25 544.83 757.05 544.83 757.05 545.83 766.25 545.83 766.25 555.03 767.25 555.03"/><polygon class="cls-1" points="742.5 579.78 742.5 570.58 751.7 570.58 751.7 569.58 742.5 569.58 742.5 560.38 741.5 560.38 741.5 569.58 732.3 569.58 732.3 570.58 741.5 570.58 741.5 579.78 742.5 579.78"/><polygon class="cls-1" points="940.49 579.78 940.49 570.58 949.69 570.58 949.69 569.58 940.49 569.58 940.49 560.38 939.49 560.38 939.49 569.58 930.29 569.58 930.29 570.58 939.49 570.58 939.49 579.78 940.49 579.78"/><polygon class="cls-1" points="989.99 579.78 989.99 570.58 999.19 570.58 999.19 569.58 989.99 569.58 989.99 560.38 988.99 560.38 988.99 569.58 979.79 569.58 979.79 570.58 988.99 570.58 988.99 579.78 989.99 579.78"/><polygon class="cls-1" points="965.24 604.53 965.24 595.33 974.44 595.33 974.44 594.33 965.24 594.33 965.24 585.13 964.24 585.13 964.24 594.33 955.04 594.33 955.04 595.33 964.24 595.33 964.24 604.53 965.24 604.53"/><polygon class="cls-1" points="965.24 555.03 965.24 545.83 974.44 545.83 974.44 544.83 965.24 544.83 965.24 535.63 964.24 535.63 964.24 544.83 955.04 544.83 955.04 545.83 964.24 545.83 964.24 555.03 965.24 555.03"/><polygon class="cls-1" points="890.99 530.29 890.99 521.08 900.2 521.08 900.2 520.08 890.99 520.08 890.99 510.88 889.99 510.88 889.99 520.08 880.79 520.08 880.79 521.08 889.99 521.08 889.99 530.29 890.99 530.29"/><polygon class="cls-1" points="915.74 555.03 915.74 545.83 924.95 545.83 924.95 544.83 915.74 544.83 915.74 535.63 914.74 535.63 914.74 544.83 905.54 544.83 905.54 545.83 914.74 545.83 914.74 555.03 915.74 555.03"/><polygon class="cls-1" points="1039.49 678.78 1039.49 669.58 1048.69 669.58 1048.69 668.58 1039.49 668.58 1039.49 659.37 1038.49 659.37 1038.49 668.58 1029.28 668.58 1029.28 669.58 1038.49 669.58 1038.49 678.78 1039.49 678.78"/><polygon class="cls-1" points="1064.23 703.53 1064.23 694.33 1073.44 694.33 1073.44 693.33 1064.23 693.33 1064.23 684.12 1063.23 684.12 1063.23 693.33 1054.03 693.33 1054.03 694.33 1063.23 694.33 1063.23 703.53 1064.23 703.53"/><polygon class="cls-1" points="1064.23 654.03 1064.23 644.83 1073.44 644.83 1073.44 643.83 1064.23 643.83 1064.23 634.62 1063.23 634.62 1063.23 643.83 1054.03 643.83 1054.03 644.83 1063.23 644.83 1063.23 654.03 1064.23 654.03"/><polygon class="cls-1" points="989.99 629.28 989.99 620.08 999.19 620.08 999.19 619.08 989.99 619.08 989.99 609.88 988.99 609.88 988.99 619.08 979.79 619.08 979.79 620.08 988.99 620.08 988.99 629.28 989.99 629.28"/><polygon class="cls-1" points="1039.49 629.28 1039.49 620.08 1048.69 620.08 1048.69 619.08 1039.49 619.08 1039.49 609.88 1038.49 609.88 1038.49 619.08 1029.28 619.08 1029.28 620.08 1038.49 620.08 1038.49 629.28 1039.49 629.28"/><polygon class="cls-1" points="1014.74 654.03 1014.74 644.83 1023.94 644.83 1023.94 643.83 1014.74 643.83 1014.74 634.62 1013.74 634.62 1013.74 643.83 1004.54 643.83 1004.54 644.83 1013.74 644.83 1013.74 654.03 1014.74 654.03"/><polygon class="cls-1" points="1014.74 604.53 1014.74 595.33 1023.94 595.33 1023.94 594.33 1014.74 594.33 1014.74 585.13 1013.74 585.13 1013.74 594.33 1004.54 594.33 1004.54 595.33 1013.74 595.33 1013.74 604.53 1014.74 604.53"/><polygon class="cls-1" points="866.24 604.53 866.24 595.33 875.45 595.33 875.45 594.33 866.24 594.33 866.24 585.13 865.24 585.13 865.24 594.33 856.04 594.33 856.04 595.33 865.24 595.33 865.24 604.53 866.24 604.53"/><polygon class="cls-1" points="915.74 604.53 915.74 595.33 924.95 595.33 924.95 594.33 915.74 594.33 915.74 585.13 914.74 585.13 914.74 594.33 905.54 594.33 905.54 595.33 914.74 595.33 914.74 604.53 915.74 604.53"/><polygon class="cls-1" points="890.99 629.28 890.99 620.08 900.2 620.08 900.2 619.08 890.99 619.08 890.99 609.88 889.99 609.88 889.99 619.08 880.79 619.08 880.79 620.08 889.99 620.08 889.99 629.28 890.99 629.28"/><polygon class="cls-1" points="890.99 579.78 890.99 570.58 900.2 570.58 900.2 569.58 890.99 569.58 890.99 560.38 889.99 560.38 889.99 569.58 880.79 569.58 880.79 570.58 889.99 570.58 889.99 579.78 890.99 579.78"/><polygon class="cls-1" points="915.74 654.03 915.74 644.83 924.95 644.83 924.95 643.83 915.74 643.83 915.74 634.62 914.74 634.62 914.74 643.83 905.54 643.83 905.54 644.83 914.74 644.83 914.74 654.03 915.74 654.03"/><polygon class="cls-1" points="965.24 654.03 965.24 644.83 974.44 644.83 974.44 643.83 965.24 643.83 965.24 634.62 964.24 634.62 964.24 643.83 955.04 643.83 955.04 644.83 964.24 644.83 964.24 654.03 965.24 654.03"/><polygon class="cls-1" points="940.49 678.78 940.49 669.58 949.69 669.58 949.69 668.58 940.49 668.58 940.49 659.37 939.49 659.37 939.49 668.58 930.29 668.58 930.29 669.58 939.49 669.58 939.49 678.78 940.49 678.78"/><polygon class="cls-1" points="940.49 629.28 940.49 620.08 949.69 620.08 949.69 619.08 940.49 619.08 940.49 609.88 939.49 609.88 939.49 619.08 930.29 619.08 930.29 620.08 939.49 620.08 939.49 629.28 940.49 629.28"/><polygon class="cls-1" points="866.24 703.53 866.24 694.33 875.45 694.33 875.45 693.33 866.24 693.33 866.24 684.12 865.24 684.12 865.24 693.33 856.04 693.33 856.04 694.33 865.24 694.33 865.24 703.53 866.24 703.53"/><polygon class="cls-1" points="915.74 703.53 915.74 694.33 924.95 694.33 924.95 693.33 915.74 693.33 915.74 684.12 914.74 684.12 914.74 693.33 905.54 693.33 905.54 694.33 914.74 694.33 914.74 703.53 915.74 703.53"/><polygon class="cls-1" points="890.99 728.28 890.99 719.07 900.2 719.07 900.2 718.07 890.99 718.07 890.99 708.87 889.99 708.87 889.99 718.07 880.79 718.07 880.79 719.07 889.99 719.07 889.99 728.28 890.99 728.28"/><polygon class="cls-1" points="890.99 678.78 890.99 669.58 900.2 669.58 900.2 668.58 890.99 668.58 890.99 659.37 889.99 659.37 889.99 668.58 880.79 668.58 880.79 669.58 889.99 669.58 889.99 678.78 890.99 678.78"/><polygon class="cls-1" points="816.75 654.03 816.75 644.83 825.95 644.83 825.95 643.83 816.75 643.83 816.75 634.62 815.75 634.62 815.75 643.83 806.55 643.83 806.55 644.83 815.75 644.83 815.75 654.03 816.75 654.03"/><polygon class="cls-1" points="866.24 654.03 866.24 644.83 875.45 644.83 875.45 643.83 866.24 643.83 866.24 634.62 865.24 634.62 865.24 643.83 856.04 643.83 856.04 644.83 865.24 644.83 865.24 654.03 866.24 654.03"/><polygon class="cls-1" points="841.5 678.78 841.5 669.58 850.7 669.58 850.7 668.58 841.5 668.58 841.5 659.37 840.5 659.37 840.5 668.58 831.29 668.58 831.29 669.58 840.5 669.58 840.5 678.78 841.5 678.78"/><polygon class="cls-1" points="841.5 629.28 841.5 620.08 850.7 620.08 850.7 619.08 841.5 619.08 841.5 609.88 840.5 609.88 840.5 619.08 831.29 619.08 831.29 620.08 840.5 620.08 840.5 629.28 841.5 629.28"/><polygon class="cls-1" points="965.24 703.53 965.24 694.33 974.44 694.33 974.44 693.33 965.24 693.33 965.24 684.12 964.24 684.12 964.24 693.33 955.04 693.33 955.04 694.33 964.24 694.33 964.24 703.53 965.24 703.53"/><polygon class="cls-1" points="1014.74 703.53 1014.74 694.33 1023.94 694.33 1023.94 693.33 1014.74 693.33 1014.74 684.12 1013.74 684.12 1013.74 693.33 1004.54 693.33 1004.54 694.33 1013.74 694.33 1013.74 703.53 1014.74 703.53"/><polygon class="cls-1" points="989.99 728.28 989.99 719.07 999.19 719.07 999.19 718.07 989.99 718.07 989.99 708.87 988.99 708.87 988.99 718.07 979.79 718.07 979.79 719.07 988.99 719.07 988.99 728.28 989.99 728.28"/><polygon class="cls-1" points="989.99 678.78 989.99 669.58 999.19 669.58 999.19 668.58 989.99 668.58 989.99 659.37 988.99 659.37 988.99 668.58 979.79 668.58 979.79 669.58 988.99 669.58 988.99 678.78 989.99 678.78"/><polygon class="cls-1" points="1014.74 753.02 1014.74 743.82 1023.94 743.82 1023.94 742.82 1014.74 742.82 1014.74 733.62 1013.74 733.62 1013.74 742.82 1004.54 742.82 1004.54 743.82 1013.74 743.82 1013.74 753.02 1014.74 753.02"/><polygon class="cls-1" points="1064.23 753.02 1064.23 743.82 1073.44 743.82 1073.44 742.82 1064.23 742.82 1064.23 733.62 1063.23 733.62 1063.23 742.82 1054.03 742.82 1054.03 743.82 1063.23 743.82 1063.23 753.02 1064.23 753.02"/><polygon class="cls-1" points="1039.49 777.77 1039.49 768.57 1048.69 768.57 1048.69 767.57 1039.49 767.57 1039.49 758.37 1038.49 758.37 1038.49 767.57 1029.28 767.57 1029.28 768.57 1038.49 768.57 1038.49 777.77 1039.49 777.77"/><polygon class="cls-1" points="1039.49 728.28 1039.49 719.07 1048.69 719.07 1048.69 718.07 1039.49 718.07 1039.49 708.87 1038.49 708.87 1038.49 718.07 1029.28 718.07 1029.28 719.07 1038.49 719.07 1038.49 728.28 1039.49 728.28"/><polygon class="cls-1" points="965.24 802.52 965.24 793.32 974.44 793.32 974.44 792.32 965.24 792.32 965.24 783.12 964.24 783.12 964.24 792.32 955.04 792.32 955.04 793.32 964.24 793.32 964.24 802.52 965.24 802.52"/><polygon class="cls-1" points="1014.74 802.52 1014.74 793.32 1023.94 793.32 1023.94 792.32 1014.74 792.32 1014.74 783.12 1013.74 783.12 1013.74 792.32 1004.54 792.32 1004.54 793.32 1013.74 793.32 1013.74 802.52 1014.74 802.52"/><polygon class="cls-1" points="989.99 827.27 989.99 818.07 999.19 818.07 999.19 817.07 989.99 817.07 989.99 807.87 988.99 807.87 988.99 817.07 979.79 817.07 979.79 818.07 988.99 818.07 988.99 827.27 989.99 827.27"/><polygon class="cls-1" points="989.99 777.77 989.99 768.57 999.19 768.57 999.19 767.57 989.99 767.57 989.99 758.37 988.99 758.37 988.99 767.57 979.79 767.57 979.79 768.57 988.99 768.57 988.99 777.77 989.99 777.77"/><polygon class="cls-1" points="915.74 753.02 915.74 743.82 924.95 743.82 924.95 742.82 915.74 742.82 915.74 733.62 914.74 733.62 914.74 742.82 905.54 742.82 905.54 743.82 914.74 743.82 914.74 753.02 915.74 753.02"/><polygon class="cls-1" points="965.24 753.02 965.24 743.82 974.44 743.82 974.44 742.82 965.24 742.82 965.24 733.62 964.24 733.62 964.24 742.82 955.04 742.82 955.04 743.82 964.24 743.82 964.24 753.02 965.24 753.02"/><polygon class="cls-1" points="940.49 777.77 940.49 768.57 949.69 768.57 949.69 767.57 940.49 767.57 940.49 758.37 939.49 758.37 939.49 767.57 930.29 767.57 930.29 768.57 939.49 768.57 939.49 777.77 940.49 777.77"/><polygon class="cls-1" points="940.49 728.28 940.49 719.07 949.69 719.07 949.69 718.07 940.49 718.07 940.49 708.87 939.49 708.87 939.49 718.07 930.29 718.07 930.29 719.07 939.49 719.07 939.49 728.28 940.49 728.28"/><polygon class="cls-1" points="1064.23 802.52 1064.23 793.32 1073.44 793.32 1073.44 792.32 1064.23 792.32 1064.23 783.12 1063.23 783.12 1063.23 792.32 1054.03 792.32 1054.03 793.32 1063.23 793.32 1063.23 802.52 1064.23 802.52"/><polygon class="cls-1" points="1039.49 827.27 1039.49 818.07 1048.69 818.07 1048.69 817.07 1039.49 817.07 1039.49 807.87 1038.49 807.87 1038.49 817.07 1029.28 817.07 1029.28 818.07 1038.49 818.07 1038.49 827.27 1039.49 827.27"/><polygon class="cls-1" points="767.25 703.53 767.25 694.33 776.45 694.33 776.45 693.33 767.25 693.33 767.25 684.12 766.25 684.12 766.25 693.33 757.05 693.33 757.05 694.33 766.25 694.33 766.25 703.53 767.25 703.53"/><polygon class="cls-1" points="816.75 703.53 816.75 694.33 825.95 694.33 825.95 693.33 816.75 693.33 816.75 684.12 815.75 684.12 815.75 693.33 806.55 693.33 806.55 694.33 815.75 694.33 815.75 703.53 816.75 703.53"/><polygon class="cls-1" points="792 728.28 792 719.07 801.2 719.07 801.2 718.07 792 718.07 792 708.87 791 708.87 791 718.07 781.8 718.07 781.8 719.07 791 719.07 791 728.28 792 728.28"/><polygon class="cls-1" points="792 678.78 792 669.58 801.2 669.58 801.2 668.58 792 668.58 792 659.37 791 659.37 791 668.58 781.8 668.58 781.8 669.58 791 669.58 791 678.78 792 678.78"/><polygon class="cls-1" points="816.75 753.02 816.75 743.82 825.95 743.82 825.95 742.82 816.75 742.82 816.75 733.62 815.75 733.62 815.75 742.82 806.55 742.82 806.55 743.82 815.75 743.82 815.75 753.02 816.75 753.02"/><polygon class="cls-1" points="866.24 753.02 866.24 743.82 875.45 743.82 875.45 742.82 866.24 742.82 866.24 733.62 865.24 733.62 865.24 742.82 856.04 742.82 856.04 743.82 865.24 743.82 865.24 753.02 866.24 753.02"/><polygon class="cls-1" points="841.5 777.77 841.5 768.57 850.7 768.57 850.7 767.57 841.5 767.57 841.5 758.37 840.5 758.37 840.5 767.57 831.29 767.57 831.29 768.57 840.5 768.57 840.5 777.77 841.5 777.77"/><polygon class="cls-1" points="841.5 728.28 841.5 719.07 850.7 719.07 850.7 718.07 841.5 718.07 841.5 708.87 840.5 708.87 840.5 718.07 831.29 718.07 831.29 719.07 840.5 719.07 840.5 728.28 841.5 728.28"/><polygon class="cls-1" points="767.25 802.52 767.25 793.32 776.45 793.32 776.45 792.32 767.25 792.32 767.25 783.12 766.25 783.12 766.25 792.32 757.05 792.32 757.05 793.32 766.25 793.32 766.25 802.52 767.25 802.52"/><polygon class="cls-1" points="816.75 802.52 816.75 793.32 825.95 793.32 825.95 792.32 816.75 792.32 816.75 783.12 815.75 783.12 815.75 792.32 806.55 792.32 806.55 793.32 815.75 793.32 815.75 802.52 816.75 802.52"/><polygon class="cls-1" points="792 827.27 792 818.07 801.2 818.07 801.2 817.07 792 817.07 792 807.87 791 807.87 791 817.07 781.8 817.07 781.8 818.07 791 818.07 791 827.27 792 827.27"/><polygon class="cls-1" points="792 777.77 792 768.57 801.2 768.57 801.2 767.57 792 767.57 792 758.37 791 758.37 791 767.57 781.8 767.57 781.8 768.57 791 768.57 791 777.77 792 777.77"/><polygon class="cls-1" points="717.75 753.02 717.75 743.82 726.96 743.82 726.96 742.82 717.75 742.82 717.75 733.62 716.75 733.62 716.75 742.82 707.55 742.82 707.55 743.82 716.75 743.82 716.75 753.02 717.75 753.02"/><polygon class="cls-1" points="767.25 753.02 767.25 743.82 776.45 743.82 776.45 742.82 767.25 742.82 767.25 733.62 766.25 733.62 766.25 742.82 757.05 742.82 757.05 743.82 766.25 743.82 766.25 753.02 767.25 753.02"/><polygon class="cls-1" points="742.5 777.77 742.5 768.57 751.7 768.57 751.7 767.57 742.5 767.57 742.5 758.37 741.5 758.37 741.5 767.57 732.3 767.57 732.3 768.57 741.5 768.57 741.5 777.77 742.5 777.77"/><polygon class="cls-1" points="742.5 728.28 742.5 719.07 751.7 719.07 751.7 718.07 742.5 718.07 742.5 708.87 741.5 708.87 741.5 718.07 732.3 718.07 732.3 719.07 741.5 719.07 741.5 728.28 742.5 728.28"/><polygon class="cls-1" points="866.24 802.52 866.24 793.32 875.45 793.32 875.45 792.32 866.24 792.32 866.24 783.12 865.24 783.12 865.24 792.32 856.04 792.32 856.04 793.32 865.24 793.32 865.24 802.52 866.24 802.52"/><polygon class="cls-1" points="915.74 802.52 915.74 793.32 924.95 793.32 924.95 792.32 915.74 792.32 915.74 783.12 914.74 783.12 914.74 792.32 905.54 792.32 905.54 793.32 914.74 793.32 914.74 802.52 915.74 802.52"/><polygon class="cls-1" points="890.99 827.27 890.99 818.07 900.2 818.07 900.2 817.07 890.99 817.07 890.99 807.87 889.99 807.87 889.99 817.07 880.79 817.07 880.79 818.07 889.99 818.07 889.99 827.27 890.99 827.27"/><polygon class="cls-1" points="890.99 777.77 890.99 768.57 900.2 768.57 900.2 767.57 890.99 767.57 890.99 758.37 889.99 758.37 889.99 767.57 880.79 767.57 880.79 768.57 889.99 768.57 889.99 777.77 890.99 777.77"/><polygon class="cls-1" points="940.49 827.27 940.49 818.07 949.69 818.07 949.69 817.07 940.49 817.07 940.49 807.87 939.49 807.87 939.49 817.07 930.29 817.07 930.29 818.07 939.49 818.07 939.49 827.27 940.49 827.27"/><polygon class="cls-1" points="841.5 827.27 841.5 818.07 850.7 818.07 850.7 817.07 841.5 817.07 841.5 807.87 840.5 807.87 840.5 817.07 831.29 817.07 831.29 818.07 840.5 818.07 840.5 827.27 841.5 827.27"/><polygon class="cls-1" points="668.25 802.52 668.25 793.32 677.46 793.32 677.46 792.32 668.25 792.32 668.25 783.12 667.25 783.12 667.25 792.32 658.05 792.32 658.05 793.32 667.25 793.32 667.25 802.52 668.25 802.52"/><polygon class="cls-1" points="717.75 802.52 717.75 793.32 726.96 793.32 726.96 792.32 717.75 792.32 717.75 783.12 716.75 783.12 716.75 792.32 707.55 792.32 707.55 793.32 716.75 793.32 716.75 802.52 717.75 802.52"/><polygon class="cls-1" points="693 827.27 693 818.07 702.21 818.07 702.21 817.07 693 817.07 693 807.87 692 807.87 692 817.07 682.8 817.07 682.8 818.07 692 818.07 692 827.27 693 827.27"/><polygon class="cls-1" points="693 777.77 693 768.57 702.21 768.57 702.21 767.57 693 767.57 693 758.37 692 758.37 692 767.57 682.8 767.57 682.8 768.57 692 768.57 692 777.77 693 777.77"/><polygon class="cls-1" points="742.5 827.27 742.5 818.07 751.7 818.07 751.7 817.07 742.5 817.07 742.5 807.87 741.5 807.87 741.5 817.07 732.3 817.07 732.3 818.07 741.5 818.07 741.5 827.27 742.5 827.27"/><polygon class="cls-1" points="643.51 827.27 643.51 818.07 652.71 818.07 652.71 817.07 643.51 817.07 643.51 807.87 642.51 807.87 642.51 817.07 633.31 817.07 633.31 818.07 642.51 818.07 642.51 827.27 643.51 827.27"/></g><path class="cls-2" d="M300,1340.52a279.72,279.72,0,0,1-27.94-76.67c-25.45-124.39-33.92-257.32,50.56-342.07,43.92-44.06,93.93-65.2,183.4-95.81,202.74-69.36,293.09-204.78,457.55-283.6,117-56.07,386.17-126,548.84-35.2,148.9,83.09,162.43,356,88.62,675.55a570.92,570.92,0,0,1-89.78,200.33h0A608.17,608.17,0,0,1,1270.89,1584h0a608.07,608.07,0,0,1-235.12,56.46l-23.22.82a927.71,927.71,0,0,1-276.69-32h0a927.57,927.57,0,0,1-238.71-102.73l-55.64-33.88-43.23-27.14a282.06,282.06,0,0,1-98.29-105Z" transform="translate(-253.52 -462.42)"/><path class="cls-2" d="M538,855.64c190.92-67.88,269.86-190.76,424.16-264.22,118.2-55.8,378.46-111.77,531.34-19.72,131.79,79.35,142.47,321.06,80.39,608.5-15.56,72-47,139.56-90.43,198.81-6.36,8.68-14.44,18.78-21.2,27.1-42.61,52.39-95.62,94.75-153.42,128.85h0a531.4,531.4,0,0,1-57.76,29h0c-70.77,30.86-147,50.62-224.48,50.37-.5,0-21.62.67-22.12.67-82.53-.69-165-5.88-245.1-25.58-5.78-1.42-12.79-3.13-18.53-4.69h0c-4-1.08-8.8-2.32-12.74-3.46-61.18-17.64-133.26-44.59-189.13-75-9-4.88-18-9.69-26.8-14.78-1.37-.21-52.18-30.6-53.52-30.94-1-.27-40.56-24.57-41.55-25-41-19.08-70-57.19-91.57-96.8h0c-13.22-21.62-21-46.14-26.16-70.94-15.59-74.91-23.49-153.41-4.75-220.6,9.84-35.66,26.92-68.29,54.27-95.54C395,905.61,446.22,888.26,538,855.64Z" transform="translate(-253.52 -462.42)"/><path class="cls-2" d="M570,885.3c179.17-66.11,246.41-177.17,390.76-244.83,119.21-55.89,370.52-97.88,513.83-4.25,114.86,75,123.37,286.34,72.16,541.45-14.47,72.11-46.72,139.1-91.08,197.31-5.7,7.49-14.67,18-20.66,25.22-40.9,49.26-93.2,86.66-148.33,118h0c-17.64,10-35.46,21.18-55.42,25.69h0c-71.24,16.09-140.22,44.71-213.84,44.27-1,0-20,.53-21,.52-78.38-.89-156.8-5.76-232.95-24.21-5.05-1.22-12.61-3-17.63-4.32h0c-3.47-.94-8.67-2.18-12.13-3.17-53.53-15.44-131.48-41.47-180.75-67.41-8.53-4.49-16.59-10.15-25.75-13.24-2.61-.88-48.71-27.34-51.39-28-2.09-.53-37.89-22-39.86-22.92-37.93-17.47-64.85-52.29-84.86-88.6h0a237,237,0,0,1-24.38-65.23c-14.58-68.74-20.83-141-2.42-202.78,9.68-32.5,25.62-62.41,50.91-87.42C423.51,933.5,475.91,920,570,885.3Z" transform="translate(-253.52 -462.42)"/><path class="cls-2" d="M602,915c167.5-64.1,223.13-163.26,357.37-225.45,120.33-55.74,362.37-84.39,496.33,11.24,98.14,70.07,105.12,251.84,63.92,474.4-13.37,72.23-46.39,138.58-91.72,195.8-5,6.32-14.92,17.21-20.12,23.33-39.22,46.16-90.74,78.55-143.25,107.06h0c-16.8,9.12-34.17,18.47-53.08,22.44h0c-67.46,14.15-133.47,38.8-203.19,38.17-1.48,0-18.43.39-19.91.36-74.24-1.09-148.59-5.64-220.79-22.83-4.34-1-12.43-2.78-16.74-4h0c-3-.81-8.55-2-11.51-2.89-45.88-13.23-129.79-38.23-172.38-59.77-8.12-4.11-16-8.93-24.69-11.71-3.94-1.26-45.24-24.06-49.26-25.08-3.15-.79-35.22-19.45-38.18-20.8-34.84-15.85-58.25-48.26-78.15-80.41h0a216,216,0,0,1-22.6-59.5c-13.57-62.58-18.29-128.6-.09-185,9.48-29.35,24.34-56.52,47.54-79.3C452,961.4,505.62,951.84,602,915Z" transform="translate(-253.52 -462.42)"/><path class="cls-2" d="M633.94,944.63c155.92-61.87,199.87-149.3,324-206.07C1079.38,683,1312,667.13,1436.74,765.28c81.76,64.33,87.75,217.54,55.7,407.34-12.23,72.41-46,138-92.38,194.3-4.27,5.19-15.18,16.41-19.58,21.45-37.54,43.07-88.21,70.4-138.17,96.16h0c-16,8.24-32.86,15.75-50.73,19.18h0c-63.74,12.23-126.71,32.89-192.54,32.08-2,0-16.84.24-18.81.21-70.1-1.29-140.38-5.53-208.63-21.47-3.62-.85-12.26-2.61-15.84-3.58h0c-2.48-.68-8.44-1.9-10.91-2.61-38.23-11-128.19-34.84-164-52.14-7.72-3.72-15.41-7.7-23.63-10.17-5.29-1.59-41.78-20.8-47.14-22.15-4.2-1.06-32.54-16.91-36.5-18.69C441.84,1391,420.24,1362,402.15,1333h0c-10.24-16.41-16.61-34.94-20.82-53.78-12.56-56.41-15.75-116.2,2.24-167.15,9.26-26.21,23.08-50.61,44.17-71.18C480.55,989.32,535.35,983.75,633.94,944.63Z" transform="translate(-253.52 -462.42)"/><path class="cls-2" d="M665.93,974.29C810.33,914.87,842.57,839,956.51,787.6c122.62-55.34,345.81-59.16,461.32,42.2,65.81,57.76,71.26,183.46,47.46,340.3-11,72.63-45.6,137.36-93,192.79-3.5,4.08-15.47,15.59-19,19.57-35.88,40-85.6,62.21-133.08,85.26h0a181.83,181.83,0,0,1-48.39,15.92h0c-60.07,10.32-120,27-181.9,26-2.46,0-15.24.12-17.7.06-66-1.49-132.16-5.4-196.48-20.1-2.9-.67-12.07-2.43-14.94-3.21h0c-2-.54-8.32-1.76-10.29-2.33-30.59-8.82-126.7-31.26-155.63-44.49a153.26,153.26,0,0,0-22.57-8.64c-6.65-1.86-38.32-17.54-45-19.22-5.24-1.32-29.85-14.39-34.81-16.57-28.65-12.64-48.44-38.2-64.71-64h0c-9.26-14.68-15.16-31.21-19.05-48.07-11.56-50.24-13.24-103.8,4.57-149.33,9-23.06,21.83-44.69,40.8-63.06C509.09,1017.26,565.13,1015.78,665.93,974.29Z" transform="translate(-253.52 -462.42)"/><path class="cls-2" d="M697.91,1004c133-56.8,153.44-121.18,257.19-167.31,123.81-55.06,337.89-47.88,443.81,57.68,50.45,50.28,55.67,149.53,39.24,273.25-9.69,72.89-45.14,136.65-93.68,191.28-2.68,3-15.77,14.75-18.5,17.69-34.26,37-82.91,54-128,74.36h0c-14.43,6.53-30.21,10.31-46,12.67h0c-56.5,8.41-113.21,21.06-171.26,19.88-3-.06-13.64,0-16.6-.09-61.83-1.7-123.93-5.29-184.32-18.74-2.18-.49-11.9-2.25-14-2.84h0c-1.49-.41-8.2-1.62-9.68-2-22.94-6.62-125.33-27.45-147.25-36.86a144.88,144.88,0,0,0-21.51-7.11c-8-2-34.86-14.26-42.89-16.28-6.3-1.59-27.16-11.89-33.13-14.46-25.57-11-43.55-33.16-58-55.84h0c-8.26-12.94-13.69-27.47-17.27-42.34-10.55-44.08-10.76-91.42,6.91-131.52,8.77-19.92,20.58-38.76,37.42-54.94C537.67,1045.23,595,1047.93,697.91,1004Z" transform="translate(-253.52 -462.42)"/><path class="cls-2" d="M729.89,1033.62c121.62-54,130.27-107,223.8-147.93,125-54.69,331.16-38.08,426.31,73.17,35.84,41.91,41,115.75,31,206.19-8.07,73.22-44.61,135.9-94.32,189.77-1.83,2-16.11,13.89-18,15.82-32.66,33.95-80.09,45.68-122.92,63.46h0c-13.69,5.69-28.83,7.58-43.69,9.41h0c-53,6.53-106.45,15.15-160.61,13.79-3.45-.09-12-.14-15.5-.25-57.7-1.9-115.7-5.16-172.17-17.37-1.45-.32-11.71-2.08-13.15-2.47h0c-1-.27-8.08-1.47-9.06-1.76-15.3-4.41-124.1-23.34-138.88-29.22-6.57-2.61-13.56-4-20.45-5.57-9.43-2.14-31.39-11-40.77-13.36-7.34-1.85-24.45-9.41-31.44-12.34-22.49-9.43-38.65-28.12-51.29-47.64h0a122.08,122.08,0,0,1-15.49-36.63c-9.54-37.92-8.33-79,9.24-113.7,8.5-16.79,19.35-32.81,34.05-46.82C566.29,1073.25,624.86,1080.25,729.89,1033.62Z" transform="translate(-253.52 -462.42)"/><path class="cls-2" d="M761.88,1063.28c110.34-51,107.12-92.8,190.4-128.54,126.31-54.21,327.81-30.76,408.8,88.65,22.25,32.81,27.16,82.06,22.77,139.14-5.66,73.63-44,135.08-95,188.26-.93,1-16.47,13-17.42,13.94-31.11,31-75,45.29-117.84,52.57h0c-13.7,2.32-27.44,4.84-41.35,6.14h0c-49.64,4.66-99.68,9.25-150,7.7-3.94-.12-10.45-.25-14.39-.41-53.58-2.1-107.46-5-160-16-.73-.15-11.54-1.9-12.25-2.1h0c-.5-.13-8-1.33-8.46-1.47-7.64-2.21-123-18.88-130.51-21.59-6.2-2.25-12.9-2.78-19.38-4-10.85-2.11-27.93-7.72-38.64-10.42-8.4-2.11-21.73-7-29.77-10.23-19.41-7.83-33.73-23.07-44.57-39.45h0a105.59,105.59,0,0,1-13.71-30.91c-8.53-31.75-5.95-66.71,11.57-95.88a179.94,179.94,0,0,1,30.68-38.7C595,1101.33,654.87,1112.78,761.88,1063.28Z" transform="translate(-253.52 -462.42)"/><path class="cls-2" d="M567.72,1354.8a420,420,0,0,0,82.92,18.11l122.14,13.95,19.19,2.92a1428.57,1428.57,0,0,0,339.48,10.71h0a228.35,228.35,0,0,0,112.75-41.67l16.88-12.06c60.28-43.06,96.52-112.68,95.63-186.76-.29-23.83-4.41-48.37-14.54-72.09-56.29-131.75-263.65-157.68-391.3-104.12-73,30.63-57.85,61.21-157,109.16-108.84,52.63-170.1,36.58-234.72,96.75a226.34,226.34,0,0,0-27.31,30.58c-34.13,45.9-16.53,111.64,35.89,134.52Z" transform="translate(-253.52 -462.42)"/><polygon class="cls-1" points="890 858.18 890 867.38 880.79 867.38 880.79 868.38 890 868.38 890 877.58 891 877.58 891 868.38 900.2 868.38 900.2 867.38 891 867.38 891 858.18 890 858.18"/><polygon class="cls-1" points="840.5 858.18 840.5 867.38 831.3 867.38 831.3 868.38 840.5 868.38 840.5 877.58 841.5 877.58 841.5 868.38 850.7 868.38 850.7 867.38 841.5 867.38 841.5 858.18 840.5 858.18"/><polygon class="cls-1" points="865.25 833.43 865.25 842.63 856.04 842.63 856.04 843.63 865.25 843.63 865.25 852.83 866.25 852.83 866.25 843.63 875.45 843.63 875.45 842.63 866.25 842.63 866.25 833.43 865.25 833.43"/><polygon class="cls-1" points="865.25 882.93 865.25 892.13 856.04 892.13 856.04 893.13 865.25 893.13 865.25 902.33 866.25 902.33 866.25 893.13 875.45 893.13 875.45 892.13 866.25 892.13 866.25 882.93 865.25 882.93"/><polygon class="cls-1" points="815.75 833.43 815.75 842.63 806.55 842.63 806.55 843.63 815.75 843.63 815.75 852.83 816.75 852.83 816.75 843.63 825.95 843.63 825.95 842.63 816.75 842.63 816.75 833.43 815.75 833.43"/><polygon class="cls-1" points="914.74 833.43 914.74 842.63 905.54 842.63 905.54 843.63 914.74 843.63 914.74 852.83 915.74 852.83 915.74 843.63 924.95 843.63 924.95 842.63 915.74 842.63 915.74 833.43 914.74 833.43"/><polygon class="cls-1" points="1013.74 833.43 1013.74 842.63 1004.54 842.63 1004.54 843.63 1013.74 843.63 1013.74 852.83 1014.74 852.83 1014.74 843.63 1023.94 843.63 1023.94 842.63 1014.74 842.63 1014.74 833.43 1013.74 833.43"/><polygon class="cls-1" points="964.24 833.43 964.24 842.63 955.04 842.63 955.04 843.63 964.24 843.63 964.24 852.83 965.24 852.83 965.24 843.63 974.44 843.63 974.44 842.63 965.24 842.63 965.24 833.43 964.24 833.43"/><polygon class="cls-1" points="988.99 858.18 988.99 867.38 979.79 867.38 979.79 868.38 988.99 868.38 988.99 877.58 989.99 877.58 989.99 868.38 999.19 868.38 999.19 867.38 989.99 867.38 989.99 858.18 988.99 858.18"/><polygon class="cls-1" points="889.99 907.68 889.99 916.88 880.79 916.88 880.79 917.88 889.99 917.88 889.99 927.08 890.99 927.08 890.99 917.88 900.2 917.88 900.2 916.88 890.99 916.88 890.99 907.68 889.99 907.68"/><polygon class="cls-1" points="964.24 882.93 964.24 892.13 955.04 892.13 955.04 893.13 964.24 893.13 964.24 902.33 965.24 902.33 965.24 893.13 974.44 893.13 974.44 892.13 965.24 892.13 965.24 882.93 964.24 882.93"/><polygon class="cls-1" points="914.74 882.93 914.74 892.13 905.54 892.13 905.54 893.13 914.74 893.13 914.74 902.33 915.74 902.33 915.74 893.13 924.94 893.13 924.94 892.13 915.74 892.13 915.74 882.93 914.74 882.93"/><polygon class="cls-1" points="939.49 858.18 939.49 867.38 930.29 867.38 930.29 868.38 939.49 868.38 939.49 877.58 940.49 877.58 940.49 868.38 949.69 868.38 949.69 867.38 940.49 867.38 940.49 858.18 939.49 858.18"/><polygon class="cls-1" points="741.5 907.68 741.5 916.88 732.3 916.88 732.3 917.88 741.5 917.88 741.5 927.08 742.5 927.08 742.5 917.88 751.7 917.88 751.7 916.88 742.5 916.88 742.5 907.68 741.5 907.68"/><polygon class="cls-1" points="692.01 907.68 692.01 916.88 682.8 916.88 682.8 917.88 692.01 917.88 692.01 927.08 693.01 927.08 693.01 917.88 702.21 917.88 702.21 916.88 693.01 916.88 693.01 907.68 692.01 907.68"/><polygon class="cls-1" points="716.75 882.93 716.75 892.13 707.55 892.13 707.55 893.13 716.75 893.13 716.75 902.33 717.75 902.33 717.75 893.13 726.95 893.13 726.95 892.13 717.75 892.13 717.75 882.93 716.75 882.93"/><polygon class="cls-1" points="791 858.18 791 867.38 781.8 867.38 781.8 868.38 791 868.38 791 877.58 792 877.58 792 868.38 801.2 868.38 801.2 867.38 792 867.38 792 858.18 791 858.18"/><polygon class="cls-1" points="741.5 858.18 741.5 867.38 732.3 867.38 732.3 868.38 741.5 868.38 741.5 877.58 742.5 877.58 742.5 868.38 751.7 868.38 751.7 867.38 742.5 867.38 742.5 858.18 741.5 858.18"/><polygon class="cls-1" points="766.25 833.43 766.25 842.63 757.05 842.63 757.05 843.63 766.25 843.63 766.25 852.83 767.25 852.83 767.25 843.63 776.45 843.63 776.45 842.63 767.25 842.63 767.25 833.43 766.25 833.43"/><polygon class="cls-1" points="766.25 882.93 766.25 892.13 757.05 892.13 757.05 893.13 766.25 893.13 766.25 902.33 767.25 902.33 767.25 893.13 776.45 893.13 776.45 892.13 767.25 892.13 767.25 882.93 766.25 882.93"/><polygon class="cls-1" points="840.5 907.68 840.5 916.88 831.3 916.88 831.3 917.88 840.5 917.88 840.5 927.08 841.5 927.08 841.5 917.88 850.7 917.88 850.7 916.88 841.5 916.88 841.5 907.68 840.5 907.68"/><polygon class="cls-1" points="791 907.68 791 916.88 781.8 916.88 781.8 917.88 791 917.88 791 927.08 792 927.08 792 917.88 801.2 917.88 801.2 916.88 792 916.88 792 907.68 791 907.68"/><polygon class="cls-1" points="815.75 882.93 815.75 892.13 806.55 892.13 806.55 893.13 815.75 893.13 815.75 902.33 816.75 902.33 816.75 893.13 825.95 893.13 825.95 892.13 816.75 892.13 816.75 882.93 815.75 882.93"/><polygon class="cls-1" points="395.02 858.18 395.02 867.38 385.82 867.38 385.82 868.38 395.02 868.38 395.02 877.58 396.02 877.58 396.02 868.38 405.22 868.38 405.22 867.38 396.02 867.38 396.02 858.18 395.02 858.18"/><polygon class="cls-1" points="345.52 858.18 345.52 867.38 336.32 867.38 336.32 868.38 345.52 868.38 345.52 877.58 346.52 877.58 346.52 868.38 355.72 868.38 355.72 867.38 346.52 867.38 346.52 858.18 345.52 858.18"/><polygon class="cls-1" points="370.27 833.43 370.27 842.63 361.07 842.63 361.07 843.63 370.27 843.63 370.27 852.83 371.27 852.83 371.27 843.63 380.47 843.63 380.47 842.63 371.27 842.63 371.27 833.43 370.27 833.43"/><polygon class="cls-1" points="370.27 882.93 370.27 892.13 361.07 892.13 361.07 893.13 370.27 893.13 370.27 902.33 371.27 902.33 371.27 893.13 380.47 893.13 380.47 892.13 371.27 892.13 371.27 882.93 370.27 882.93"/><polygon class="cls-1" points="419.77 882.93 419.77 892.13 410.57 892.13 410.57 893.13 419.77 893.13 419.77 902.33 420.77 902.33 420.77 893.13 429.97 893.13 429.97 892.13 420.77 892.13 420.77 882.93 419.77 882.93"/><polygon class="cls-1" points="320.77 833.43 320.77 842.63 311.57 842.63 311.57 843.63 320.77 843.63 320.77 852.83 321.77 852.83 321.77 843.63 330.98 843.63 330.98 842.63 321.77 842.63 321.77 833.43 320.77 833.43"/><polygon class="cls-1" points="518.76 882.93 518.76 892.13 509.56 892.13 509.56 893.13 518.76 893.13 518.76 902.33 519.76 902.33 519.76 893.13 528.97 893.13 528.97 892.13 519.76 892.13 519.76 882.93 518.76 882.93"/><polygon class="cls-1" points="593.01 858.18 593.01 867.38 583.81 867.38 583.81 868.38 593.01 868.38 593.01 877.58 594.01 877.58 594.01 868.38 603.21 868.38 603.21 867.38 594.01 867.38 594.01 858.18 593.01 858.18"/><polygon class="cls-1" points="543.51 858.18 543.51 867.38 534.31 867.38 534.31 868.38 543.51 868.38 543.51 877.58 544.51 877.58 544.51 868.38 553.71 868.38 553.71 867.38 544.51 867.38 544.51 858.18 543.51 858.18"/><polygon class="cls-1" points="568.26 833.43 568.26 842.63 559.06 842.63 559.06 843.63 568.26 843.63 568.26 852.83 569.26 852.83 569.26 843.63 578.46 843.63 578.46 842.63 569.26 842.63 569.26 833.43 568.26 833.43"/><polygon class="cls-1" points="568.26 882.93 568.26 892.13 559.06 892.13 559.06 893.13 568.26 893.13 568.26 902.33 569.26 902.33 569.26 893.13 578.46 893.13 578.46 892.13 569.26 892.13 569.26 882.93 568.26 882.93"/><polygon class="cls-1" points="642.51 907.68 642.51 916.88 633.3 916.88 633.3 917.88 642.51 917.88 642.51 927.08 643.51 927.08 643.51 917.88 652.71 917.88 652.71 916.88 643.51 916.88 643.51 907.68 642.51 907.68"/><polygon class="cls-1" points="593.01 907.68 593.01 916.88 583.81 916.88 583.81 917.88 593.01 917.88 593.01 927.08 594.01 927.08 594.01 917.88 603.21 917.88 603.21 916.88 594.01 916.88 594.01 907.68 593.01 907.68"/><polygon class="cls-1" points="617.76 882.93 617.76 892.13 608.56 892.13 608.56 893.13 617.76 893.13 617.76 902.33 618.76 902.33 618.76 893.13 627.96 893.13 627.96 892.13 618.76 892.13 618.76 882.93 617.76 882.93"/><polygon class="cls-1" points="494.02 858.18 494.02 867.38 484.81 867.38 484.81 868.38 494.02 868.38 494.02 877.58 495.02 877.58 495.02 868.38 504.22 868.38 504.22 867.38 495.02 867.38 495.02 858.18 494.02 858.18"/><polygon class="cls-1" points="444.52 858.18 444.52 867.38 435.31 867.38 435.31 868.38 444.52 868.38 444.52 877.58 445.52 877.58 445.52 868.38 454.72 868.38 454.72 867.38 445.52 867.38 445.52 858.18 444.52 858.18"/><polygon class="cls-1" points="469.27 833.43 469.27 842.63 460.06 842.63 460.06 843.63 469.27 843.63 469.27 852.83 470.27 852.83 470.27 843.63 479.47 843.63 479.47 842.63 470.27 842.63 470.27 833.43 469.27 833.43"/><polygon class="cls-1" points="469.27 882.93 469.27 892.13 460.06 892.13 460.06 893.13 469.27 893.13 469.27 902.33 470.27 902.33 470.27 893.13 479.47 893.13 479.47 892.13 470.27 892.13 470.27 882.93 469.27 882.93"/><polygon class="cls-1" points="419.77 833.43 419.77 842.63 410.57 842.63 410.57 843.63 419.77 843.63 419.77 852.83 420.77 852.83 420.77 843.63 429.97 843.63 429.97 842.63 420.77 842.63 420.77 833.43 419.77 833.43"/><polygon class="cls-1" points="518.76 833.43 518.76 842.63 509.56 842.63 509.56 843.63 518.76 843.63 518.76 852.83 519.76 852.83 519.76 843.63 528.97 843.63 528.97 842.63 519.76 842.63 519.76 833.43 518.76 833.43"/><polygon class="cls-1" points="692.01 858.18 692.01 867.38 682.8 867.38 682.8 868.38 692.01 868.38 692.01 877.58 693.01 877.58 693.01 868.38 702.21 868.38 702.21 867.38 693.01 867.38 693.01 858.18 692.01 858.18"/><polygon class="cls-1" points="642.51 858.18 642.51 867.38 633.3 867.38 633.3 868.38 642.51 868.38 642.51 877.58 643.51 877.58 643.51 868.38 652.71 868.38 652.71 867.38 643.51 867.38 643.51 858.18 642.51 858.18"/><polygon class="cls-1" points="667.26 833.43 667.26 842.63 658.05 842.63 658.05 843.63 667.26 843.63 667.26 852.83 668.26 852.83 668.26 843.63 677.46 843.63 677.46 842.63 668.26 842.63 668.26 833.43 667.26 833.43"/><polygon class="cls-1" points="667.26 882.93 667.26 892.13 658.05 892.13 658.05 893.13 667.26 893.13 667.26 902.33 668.26 902.33 668.26 893.13 677.46 893.13 677.46 892.13 668.26 892.13 668.26 882.93 667.26 882.93"/><polygon class="cls-1" points="617.76 833.43 617.76 842.63 608.56 842.63 608.56 843.63 617.76 843.63 617.76 852.83 618.76 852.83 618.76 843.63 627.96 843.63 627.96 842.63 618.76 842.63 618.76 833.43 617.76 833.43"/><polygon class="cls-1" points="716.75 833.43 716.75 842.63 707.55 842.63 707.55 843.63 716.75 843.63 716.75 852.83 717.75 852.83 717.75 843.63 726.95 843.63 726.95 842.63 717.75 842.63 717.75 833.43 716.75 833.43"/></svg>