<svg id="Layer_1" data-name="Layer 1" xmlns="http://www.w3.org/2000/svg" viewBox="0 0 1598.66 1434.07"><defs><style>.cls-1{fill:#ff5733;}.cls-2{fill:none;stroke:#ff5733;stroke-miterlimit:10;stroke-width:2px;}</style></defs><g id="Layer_4" data-name="Layer 4"><polygon class="cls-1" points="910.31 1264.94 910.31 1255.74 919.52 1255.74 919.52 1254.74 910.31 1254.74 910.31 1245.54 909.31 1245.54 909.31 1254.74 900.11 1254.74 900.11 1255.74 909.31 1255.74 909.31 1264.94 910.31 1264.94"/><polygon class="cls-1" points="959.81 1264.94 959.81 1255.74 969.01 1255.74 969.01 1254.74 959.81 1254.74 959.81 1245.54 958.81 1245.54 958.81 1254.74 949.61 1254.74 949.61 1255.74 958.81 1255.74 958.81 1264.94 959.81 1264.94"/><polygon class="cls-1" points="935.06 1289.69 935.06 1280.49 944.27 1280.49 944.27 1279.49 935.06 1279.49 935.06 1270.29 934.06 1270.29 934.06 1279.49 924.86 1279.49 924.86 1280.49 934.06 1280.49 934.06 1289.69 935.06 1289.69"/><polygon class="cls-1" points="935.06 1240.19 935.06 1230.99 944.27 1230.99 944.27 1229.99 935.06 1229.99 935.06 1220.79 934.06 1220.79 934.06 1229.99 924.86 1229.99 924.86 1230.99 934.06 1230.99 934.06 1240.19 935.06 1240.19"/><polygon class="cls-1" points="984.56 1289.69 984.56 1280.49 993.76 1280.49 993.76 1279.49 984.56 1279.49 984.56 1270.29 983.56 1270.29 983.56 1279.49 974.36 1279.49 974.36 1280.49 983.56 1280.49 983.56 1289.69 984.56 1289.69"/><polygon class="cls-1" points="885.57 1289.69 885.57 1280.49 894.77 1280.49 894.77 1279.49 885.57 1279.49 885.57 1270.29 884.57 1270.29 884.57 1279.49 875.36 1279.49 875.36 1280.49 884.57 1280.49 884.57 1289.69 885.57 1289.69"/><polygon class="cls-1" points="737.07 1240.19 737.07 1230.99 746.28 1230.99 746.28 1229.99 737.07 1229.99 737.07 1220.79 736.07 1220.79 736.07 1229.99 726.87 1229.99 726.87 1230.99 736.07 1230.99 736.07 1240.19 737.07 1240.19"/><polygon class="cls-1" points="786.57 1240.19 786.57 1230.99 795.77 1230.99 795.77 1229.99 786.57 1229.99 786.57 1220.79 785.57 1220.79 785.57 1229.99 776.37 1229.99 776.37 1230.99 785.57 1230.99 785.57 1240.19 786.57 1240.19"/><polygon class="cls-1" points="761.82 1264.94 761.82 1255.74 771.03 1255.74 771.03 1254.74 761.82 1254.74 761.82 1245.54 760.82 1245.54 760.82 1254.74 751.62 1254.74 751.62 1255.74 760.82 1255.74 760.82 1264.94 761.82 1264.94"/><polygon class="cls-1" points="761.82 1215.44 761.82 1206.24 771.03 1206.24 771.03 1205.24 761.82 1205.24 761.82 1196.04 760.82 1196.04 760.82 1205.24 751.62 1205.24 751.62 1206.24 760.82 1206.24 760.82 1215.44 761.82 1215.44"/><polygon class="cls-1" points="786.57 1289.69 786.57 1280.49 795.77 1280.49 795.77 1279.49 786.57 1279.49 786.57 1270.29 785.57 1270.29 785.57 1279.49 776.37 1279.49 776.37 1280.49 785.57 1280.49 785.57 1289.69 786.57 1289.69"/><polygon class="cls-1" points="836.07 1289.69 836.07 1280.49 845.27 1280.49 845.27 1279.49 836.07 1279.49 836.07 1270.29 835.07 1270.29 835.07 1279.49 825.87 1279.49 825.87 1280.49 835.07 1280.49 835.07 1289.69 836.07 1289.69"/><polygon class="cls-1" points="811.32 1264.94 811.32 1255.74 820.52 1255.74 820.52 1254.74 811.32 1254.74 811.32 1245.54 810.32 1245.54 810.32 1254.74 801.12 1254.74 801.12 1255.74 810.32 1255.74 810.32 1264.94 811.32 1264.94"/><polygon class="cls-1" points="737.07 1289.69 737.07 1280.49 746.28 1280.49 746.28 1279.49 737.07 1279.49 737.07 1270.29 736.07 1270.29 736.07 1279.49 726.87 1279.49 726.87 1280.49 736.07 1280.49 736.07 1289.69 737.07 1289.69"/><polygon class="cls-1" points="885.57 1190.7 885.57 1181.49 894.77 1181.49 894.77 1180.49 885.57 1180.49 885.57 1171.29 884.57 1171.29 884.57 1180.49 875.37 1180.49 875.37 1181.49 884.57 1181.49 884.57 1190.7 885.57 1190.7"/><polygon class="cls-1" points="935.06 1190.7 935.06 1181.49 944.27 1181.49 944.27 1180.49 935.06 1180.49 935.06 1171.29 934.06 1171.29 934.06 1180.49 924.86 1180.49 924.86 1181.49 934.06 1181.49 934.06 1190.7 935.06 1190.7"/><polygon class="cls-1" points="910.32 1215.44 910.32 1206.24 919.52 1206.24 919.52 1205.24 910.32 1205.24 910.32 1196.04 909.32 1196.04 909.32 1205.24 900.11 1205.24 900.11 1206.24 909.32 1206.24 909.32 1215.44 910.32 1215.44"/><polygon class="cls-1" points="910.32 1165.95 910.32 1156.75 919.52 1156.75 919.52 1155.75 910.32 1155.75 910.32 1146.54 909.32 1146.54 909.32 1155.75 900.11 1155.75 900.11 1156.75 909.32 1156.75 909.32 1165.95 910.32 1165.95"/><polygon class="cls-1" points="836.07 1240.19 836.07 1230.99 845.27 1230.99 845.27 1229.99 836.07 1229.99 836.07 1220.79 835.07 1220.79 835.07 1229.99 825.87 1229.99 825.87 1230.99 835.07 1230.99 835.07 1240.19 836.07 1240.19"/><polygon class="cls-1" points="885.57 1240.19 885.57 1230.99 894.77 1230.99 894.77 1229.99 885.57 1229.99 885.57 1220.79 884.57 1220.79 884.57 1229.99 875.37 1229.99 875.37 1230.99 884.57 1230.99 884.57 1240.19 885.57 1240.19"/><polygon class="cls-1" points="860.82 1264.94 860.82 1255.74 870.02 1255.74 870.02 1254.74 860.82 1254.74 860.82 1245.54 859.82 1245.54 859.82 1254.74 850.62 1254.74 850.62 1255.74 859.82 1255.74 859.82 1264.94 860.82 1264.94"/><polygon class="cls-1" points="860.82 1215.44 860.82 1206.24 870.02 1206.24 870.02 1205.24 860.82 1205.24 860.82 1196.04 859.82 1196.04 859.82 1205.24 850.62 1205.24 850.62 1206.24 859.82 1206.24 859.82 1215.44 860.82 1215.44"/><polygon class="cls-1" points="836.07 1190.7 836.07 1181.49 845.27 1181.49 845.27 1180.49 836.07 1180.49 836.07 1171.29 835.07 1171.29 835.07 1180.49 825.87 1180.49 825.87 1181.49 835.07 1181.49 835.07 1190.7 836.07 1190.7"/><polygon class="cls-1" points="811.32 1215.44 811.32 1206.24 820.52 1206.24 820.52 1205.24 811.32 1205.24 811.32 1196.04 810.32 1196.04 810.32 1205.24 801.12 1205.24 801.12 1206.24 810.32 1206.24 810.32 1215.44 811.32 1215.44"/><polygon class="cls-1" points="1009.31 1165.95 1009.31 1156.75 1018.51 1156.75 1018.51 1155.75 1009.31 1155.75 1009.31 1146.54 1008.31 1146.54 1008.31 1155.75 999.11 1155.75 999.11 1156.75 1008.31 1156.75 1008.31 1165.95 1009.31 1165.95"/><polygon class="cls-1" points="1058.81 1165.95 1058.81 1156.75 1068.01 1156.75 1068.01 1155.75 1058.81 1155.75 1058.81 1146.54 1057.81 1146.54 1057.81 1155.75 1048.61 1155.75 1048.61 1156.75 1057.81 1156.75 1057.81 1165.95 1058.81 1165.95"/><polygon class="cls-1" points="1034.06 1190.7 1034.06 1181.49 1043.26 1181.49 1043.26 1180.49 1034.06 1180.49 1034.06 1171.29 1033.06 1171.29 1033.06 1180.49 1023.86 1180.49 1023.86 1181.49 1033.06 1181.49 1033.06 1190.7 1034.06 1190.7"/><polygon class="cls-1" points="1034.06 1141.2 1034.06 1132 1043.26 1132 1043.26 1131 1034.06 1131 1034.06 1121.79 1033.06 1121.79 1033.06 1131 1023.86 1131 1023.86 1132 1033.06 1132 1033.06 1141.2 1034.06 1141.2"/><polygon class="cls-1" points="1058.81 1215.44 1058.81 1206.24 1068.01 1206.24 1068.01 1205.24 1058.81 1205.24 1058.81 1196.04 1057.81 1196.04 1057.81 1205.24 1048.61 1205.24 1048.61 1206.24 1057.81 1206.24 1057.81 1215.44 1058.81 1215.44"/><polygon class="cls-1" points="1108.3 1215.44 1108.3 1206.24 1117.51 1206.24 1117.51 1205.24 1108.3 1205.24 1108.3 1196.04 1107.3 1196.04 1107.3 1205.24 1098.1 1205.24 1098.1 1206.24 1107.3 1206.24 1107.3 1215.44 1108.3 1215.44"/><polygon class="cls-1" points="1083.56 1240.19 1083.56 1230.99 1092.76 1230.99 1092.76 1229.99 1083.56 1229.99 1083.56 1220.79 1082.56 1220.79 1082.56 1229.99 1073.36 1229.99 1073.36 1230.99 1082.56 1230.99 1082.56 1240.19 1083.56 1240.19"/><polygon class="cls-1" points="1083.56 1190.7 1083.56 1181.49 1092.76 1181.49 1092.76 1180.49 1083.56 1180.49 1083.56 1171.29 1082.56 1171.29 1082.56 1180.49 1073.36 1180.49 1073.36 1181.49 1082.56 1181.49 1082.56 1190.7 1083.56 1190.7"/><polygon class="cls-1" points="1009.31 1264.94 1009.31 1255.74 1018.51 1255.74 1018.51 1254.74 1009.31 1254.74 1009.31 1245.54 1008.31 1245.54 1008.31 1254.74 999.11 1254.74 999.11 1255.74 1008.31 1255.74 1008.31 1264.94 1009.31 1264.94"/><polygon class="cls-1" points="1058.81 1264.94 1058.81 1255.74 1068.01 1255.74 1068.01 1254.74 1058.81 1254.74 1058.81 1245.54 1057.81 1245.54 1057.81 1254.74 1048.61 1254.74 1048.61 1255.74 1057.81 1255.74 1057.81 1264.94 1058.81 1264.94"/><polygon class="cls-1" points="1034.06 1289.69 1034.06 1280.49 1043.26 1280.49 1043.26 1279.49 1034.06 1279.49 1034.06 1270.29 1033.06 1270.29 1033.06 1279.49 1023.86 1279.49 1023.86 1280.49 1033.06 1280.49 1033.06 1289.69 1034.06 1289.69"/><polygon class="cls-1" points="1034.06 1240.19 1034.06 1230.99 1043.26 1230.99 1043.26 1229.99 1034.06 1229.99 1034.06 1220.79 1033.06 1220.79 1033.06 1229.99 1023.86 1229.99 1023.86 1230.99 1033.06 1230.99 1033.06 1240.19 1034.06 1240.19"/><polygon class="cls-1" points="959.81 1215.44 959.81 1206.24 969.01 1206.24 969.01 1205.24 959.81 1205.24 959.81 1196.04 958.81 1196.04 958.81 1205.24 949.61 1205.24 949.61 1206.24 958.81 1206.24 958.81 1215.44 959.81 1215.44"/><polygon class="cls-1" points="1009.31 1215.44 1009.31 1206.24 1018.51 1206.24 1018.51 1205.24 1009.31 1205.24 1009.31 1196.04 1008.31 1196.04 1008.31 1205.24 999.11 1205.24 999.11 1206.24 1008.31 1206.24 1008.31 1215.44 1009.31 1215.44"/><polygon class="cls-1" points="984.56 1240.19 984.56 1230.99 993.76 1230.99 993.76 1229.99 984.56 1229.99 984.56 1220.79 983.56 1220.79 983.56 1229.99 974.36 1229.99 974.36 1230.99 983.56 1230.99 983.56 1240.19 984.56 1240.19"/><polygon class="cls-1" points="984.56 1190.7 984.56 1181.49 993.76 1181.49 993.76 1180.49 984.56 1180.49 984.56 1171.29 983.56 1171.29 983.56 1180.49 974.36 1180.49 974.36 1181.49 983.56 1181.49 983.56 1190.7 984.56 1190.7"/><polygon class="cls-1" points="1034.06 1091.7 1034.06 1082.5 1043.26 1082.5 1043.26 1081.5 1034.06 1081.5 1034.06 1072.3 1033.06 1072.3 1033.06 1081.5 1023.86 1081.5 1023.86 1082.5 1033.06 1082.5 1033.06 1091.7 1034.06 1091.7"/><polygon class="cls-1" points="1009.31 1116.45 1009.31 1107.25 1018.51 1107.25 1018.51 1106.25 1009.31 1106.25 1009.31 1097.04 1008.31 1097.04 1008.31 1106.25 999.11 1106.25 999.11 1107.25 1008.31 1107.25 1008.31 1116.45 1009.31 1116.45"/><polygon class="cls-1" points="984.56 1141.2 984.56 1132 993.76 1132 993.76 1131 984.56 1131 984.56 1121.79 983.56 1121.79 983.56 1131 974.36 1131 974.36 1132 983.56 1132 983.56 1141.2 984.56 1141.2"/><polygon class="cls-1" points="959.81 1165.95 959.81 1156.75 969.01 1156.75 969.01 1155.75 959.81 1155.75 959.81 1146.54 958.81 1146.54 958.81 1155.75 949.61 1155.75 949.61 1156.75 958.81 1156.75 958.81 1165.95 959.81 1165.95"/><polygon class="cls-1" points="1108.3 1066.95 1108.3 1057.75 1117.51 1057.75 1117.51 1056.75 1108.3 1056.75 1108.3 1047.55 1107.3 1047.55 1107.3 1056.75 1098.1 1056.75 1098.1 1057.75 1107.3 1057.75 1107.3 1066.95 1108.3 1066.95"/><polygon class="cls-1" points="1157.8 1066.95 1157.8 1057.75 1167.01 1057.75 1167.01 1056.75 1157.8 1056.75 1157.8 1047.55 1156.8 1047.55 1156.8 1056.75 1147.6 1056.75 1147.6 1057.75 1156.8 1057.75 1156.8 1066.95 1157.8 1066.95"/><polygon class="cls-1" points="1133.05 1091.7 1133.05 1082.5 1142.26 1082.5 1142.26 1081.5 1133.05 1081.5 1133.05 1072.3 1132.05 1072.3 1132.05 1081.5 1122.85 1081.5 1122.85 1082.5 1132.05 1082.5 1132.05 1091.7 1133.05 1091.7"/><polygon class="cls-1" points="1133.05 1042.2 1133.05 1033 1142.26 1033 1142.26 1032 1133.05 1032 1133.05 1022.8 1132.05 1022.8 1132.05 1032 1122.85 1032 1122.85 1033 1132.05 1033 1132.05 1042.2 1133.05 1042.2"/><polygon class="cls-1" points="1157.8 1116.45 1157.8 1107.25 1167.01 1107.25 1167.01 1106.25 1157.8 1106.25 1157.8 1097.04 1156.8 1097.04 1156.8 1106.25 1147.6 1106.25 1147.6 1107.25 1156.8 1107.25 1156.8 1116.45 1157.8 1116.45"/><polygon class="cls-1" points="1207.3 1116.45 1207.3 1107.25 1216.5 1107.25 1216.5 1106.25 1207.3 1106.25 1207.3 1097.04 1206.3 1097.04 1206.3 1106.25 1197.1 1106.25 1197.1 1107.25 1206.3 1107.25 1206.3 1116.45 1207.3 1116.45"/><polygon class="cls-1" points="1182.55 1141.2 1182.55 1132 1191.75 1132 1191.75 1131 1182.55 1131 1182.55 1121.79 1181.55 1121.79 1181.55 1131 1172.35 1131 1172.35 1132 1181.55 1132 1181.55 1141.2 1182.55 1141.2"/><polygon class="cls-1" points="1182.55 1091.7 1182.55 1082.5 1191.75 1082.5 1191.75 1081.5 1182.55 1081.5 1182.55 1072.3 1181.55 1072.3 1181.55 1081.5 1172.35 1081.5 1172.35 1082.5 1181.55 1082.5 1181.55 1091.7 1182.55 1091.7"/><polygon class="cls-1" points="1108.3 1165.95 1108.3 1156.75 1117.51 1156.75 1117.51 1155.75 1108.3 1155.75 1108.3 1146.54 1107.3 1146.54 1107.3 1155.75 1098.1 1155.75 1098.1 1156.75 1107.3 1156.75 1107.3 1165.95 1108.3 1165.95"/><polygon class="cls-1" points="1157.8 1165.95 1157.8 1156.75 1167.01 1156.75 1167.01 1155.75 1157.8 1155.75 1157.8 1146.54 1156.8 1146.54 1156.8 1155.75 1147.6 1155.75 1147.6 1156.75 1156.8 1156.75 1156.8 1165.95 1157.8 1165.95"/><polygon class="cls-1" points="1133.05 1190.7 1133.05 1181.49 1142.26 1181.49 1142.26 1180.49 1133.05 1180.49 1133.05 1171.29 1132.05 1171.29 1132.05 1180.49 1122.85 1180.49 1122.85 1181.49 1132.05 1181.49 1132.05 1190.7 1133.05 1190.7"/><polygon class="cls-1" points="1133.05 1141.2 1133.05 1132 1142.26 1132 1142.26 1131 1133.05 1131 1133.05 1121.79 1132.05 1121.79 1132.05 1131 1122.85 1131 1122.85 1132 1132.05 1132 1132.05 1141.2 1133.05 1141.2"/><polygon class="cls-1" points="1058.81 1116.45 1058.81 1107.25 1068.01 1107.25 1068.01 1106.25 1058.81 1106.25 1058.81 1097.04 1057.81 1097.04 1057.81 1106.25 1048.61 1106.25 1048.61 1107.25 1057.81 1107.25 1057.81 1116.45 1058.81 1116.45"/><polygon class="cls-1" points="1108.3 1116.45 1108.3 1107.25 1117.51 1107.25 1117.51 1106.25 1108.3 1106.25 1108.3 1097.04 1107.3 1097.04 1107.3 1106.25 1098.1 1106.25 1098.1 1107.25 1107.3 1107.25 1107.3 1116.45 1108.3 1116.45"/><polygon class="cls-1" points="1083.56 1141.2 1083.56 1132 1092.76 1132 1092.76 1131 1083.56 1131 1083.56 1121.79 1082.56 1121.79 1082.56 1131 1073.36 1131 1073.36 1132 1082.56 1132 1082.56 1141.2 1083.56 1141.2"/><polygon class="cls-1" points="1083.56 1091.7 1083.56 1082.5 1092.76 1082.5 1092.76 1081.5 1083.56 1081.5 1083.56 1072.3 1082.56 1072.3 1082.56 1081.5 1073.36 1081.5 1073.36 1082.5 1082.56 1082.5 1082.56 1091.7 1083.56 1091.7"/><polygon class="cls-1" points="1232.05 992.71 1232.05 983.5 1241.25 983.5 1241.25 982.5 1232.05 982.5 1232.05 973.3 1231.05 973.3 1231.05 982.5 1221.85 982.5 1221.85 983.5 1231.05 983.5 1231.05 992.71 1232.05 992.71"/><polygon class="cls-1" points="1256.8 1017.45 1256.8 1008.25 1266 1008.25 1266 1007.25 1256.8 1007.25 1256.8 998.05 1255.8 998.05 1255.8 1007.25 1246.6 1007.25 1246.6 1008.25 1255.8 1008.25 1255.8 1017.45 1256.8 1017.45"/><polygon class="cls-1" points="1306.29 1017.45 1306.29 1008.25 1315.5 1008.25 1315.5 1007.25 1306.29 1007.25 1306.29 998.05 1305.29 998.05 1305.29 1007.25 1296.09 1007.25 1296.09 1008.25 1305.29 1008.25 1305.29 1017.45 1306.29 1017.45"/><polygon class="cls-1" points="1281.55 1042.2 1281.55 1033 1290.75 1033 1290.75 1032 1281.55 1032 1281.55 1022.8 1280.55 1022.8 1280.55 1032 1271.34 1032 1271.34 1033 1280.55 1033 1280.55 1042.2 1281.55 1042.2"/><polygon class="cls-1" points="1281.55 992.71 1281.55 983.5 1290.75 983.5 1290.75 982.5 1281.55 982.5 1281.55 973.3 1280.55 973.3 1280.55 982.5 1271.34 982.5 1271.34 983.5 1280.55 983.5 1280.55 992.71 1281.55 992.71"/><polygon class="cls-1" points="1207.3 1066.95 1207.3 1057.75 1216.5 1057.75 1216.5 1056.75 1207.3 1056.75 1207.3 1047.55 1206.3 1047.55 1206.3 1056.75 1197.1 1056.75 1197.1 1057.75 1206.3 1057.75 1206.3 1066.95 1207.3 1066.95"/><polygon class="cls-1" points="1256.8 1066.95 1256.8 1057.75 1266 1057.75 1266 1056.75 1256.8 1056.75 1256.8 1047.55 1255.8 1047.55 1255.8 1056.75 1246.6 1056.75 1246.6 1057.75 1255.8 1057.75 1255.8 1066.95 1256.8 1066.95"/><polygon class="cls-1" points="1232.05 1091.7 1232.05 1082.5 1241.25 1082.5 1241.25 1081.5 1232.05 1081.5 1232.05 1072.3 1231.05 1072.3 1231.05 1081.5 1221.85 1081.5 1221.85 1082.5 1231.05 1082.5 1231.05 1091.7 1232.05 1091.7"/><polygon class="cls-1" points="1232.05 1042.2 1232.05 1033 1241.25 1033 1241.25 1032 1232.05 1032 1232.05 1022.8 1231.05 1022.8 1231.05 1032 1221.85 1032 1221.85 1033 1231.05 1033 1231.05 1042.2 1232.05 1042.2"/><polygon class="cls-1" points="1157.8 1017.45 1157.8 1008.25 1167.01 1008.25 1167.01 1007.25 1157.8 1007.25 1157.8 998.05 1156.8 998.05 1156.8 1007.25 1147.6 1007.25 1147.6 1008.25 1156.8 1008.25 1156.8 1017.45 1157.8 1017.45"/><polygon class="cls-1" points="1207.3 1017.45 1207.3 1008.25 1216.5 1008.25 1216.5 1007.25 1207.3 1007.25 1207.3 998.05 1206.3 998.05 1206.3 1007.25 1197.1 1007.25 1197.1 1008.25 1206.3 1008.25 1206.3 1017.45 1207.3 1017.45"/><polygon class="cls-1" points="1182.55 1042.2 1182.55 1033 1191.75 1033 1191.75 1032 1182.55 1032 1182.55 1022.8 1181.55 1022.8 1181.55 1032 1172.35 1032 1172.35 1033 1181.55 1033 1181.55 1042.2 1182.55 1042.2"/><polygon class="cls-1" points="1380.54 1042.2 1380.54 1033 1389.74 1033 1389.74 1032 1380.54 1032 1380.54 1022.8 1379.54 1022.8 1379.54 1032 1370.34 1032 1370.34 1033 1379.54 1033 1379.54 1042.2 1380.54 1042.2"/><polygon class="cls-1" points="1430.04 1042.2 1430.04 1033 1439.24 1033 1439.24 1032 1430.04 1032 1430.04 1022.8 1429.04 1022.8 1429.04 1032 1419.84 1032 1419.84 1033 1429.04 1033 1429.04 1042.2 1430.04 1042.2"/><polygon class="cls-1" points="1405.29 1066.95 1405.29 1057.75 1414.49 1057.75 1414.49 1056.75 1405.29 1056.75 1405.29 1047.55 1404.29 1047.55 1404.29 1056.75 1395.09 1056.75 1395.09 1057.75 1404.29 1057.75 1404.29 1066.95 1405.29 1066.95"/><polygon class="cls-1" points="1405.29 1017.45 1405.29 1008.25 1414.49 1008.25 1414.49 1007.25 1405.29 1007.25 1405.29 998.05 1404.29 998.05 1404.29 1007.25 1395.09 1007.25 1395.09 1008.25 1404.29 1008.25 1404.29 1017.45 1405.29 1017.45"/><polygon class="cls-1" points="1331.04 992.71 1331.04 983.5 1340.25 983.5 1340.25 982.5 1331.04 982.5 1331.04 973.3 1330.04 973.3 1330.04 982.5 1320.84 982.5 1320.84 983.5 1330.04 983.5 1330.04 992.71 1331.04 992.71"/><polygon class="cls-1" points="1355.79 1017.45 1355.79 1008.25 1365 1008.25 1365 1007.25 1355.79 1007.25 1355.79 998.05 1354.79 998.05 1354.79 1007.25 1345.59 1007.25 1345.59 1008.25 1354.79 1008.25 1354.79 1017.45 1355.79 1017.45"/><polygon class="cls-1" points="1479.54 1141.2 1479.54 1132 1488.74 1132 1488.74 1131 1479.54 1131 1479.54 1121.79 1478.54 1121.79 1478.54 1131 1469.33 1131 1469.33 1132 1478.54 1132 1478.54 1141.2 1479.54 1141.2"/><polygon class="cls-1" points="1504.28 1165.95 1504.28 1156.75 1513.49 1156.75 1513.49 1155.75 1504.28 1155.75 1504.28 1146.54 1503.28 1146.54 1503.28 1155.75 1494.08 1155.75 1494.08 1156.75 1503.28 1156.75 1503.28 1165.95 1504.28 1165.95"/><polygon class="cls-1" points="1504.28 1116.45 1504.28 1107.25 1513.49 1107.25 1513.49 1106.25 1504.28 1106.25 1504.28 1097.04 1503.28 1097.04 1503.28 1106.25 1494.08 1106.25 1494.08 1107.25 1503.28 1107.25 1503.28 1116.45 1504.28 1116.45"/><polygon class="cls-1" points="1430.04 1091.7 1430.04 1082.5 1439.24 1082.5 1439.24 1081.5 1430.04 1081.5 1430.04 1072.3 1429.04 1072.3 1429.04 1081.5 1419.84 1081.5 1419.84 1082.5 1429.04 1082.5 1429.04 1091.7 1430.04 1091.7"/><polygon class="cls-1" points="1479.54 1091.7 1479.54 1082.5 1488.74 1082.5 1488.74 1081.5 1479.54 1081.5 1479.54 1072.3 1478.54 1072.3 1478.54 1081.5 1469.33 1081.5 1469.33 1082.5 1478.54 1082.5 1478.54 1091.7 1479.54 1091.7"/><polygon class="cls-1" points="1454.79 1116.45 1454.79 1107.25 1463.99 1107.25 1463.99 1106.25 1454.79 1106.25 1454.79 1097.04 1453.79 1097.04 1453.79 1106.25 1444.59 1106.25 1444.59 1107.25 1453.79 1107.25 1453.79 1116.45 1454.79 1116.45"/><polygon class="cls-1" points="1454.79 1066.95 1454.79 1057.75 1463.99 1057.75 1463.99 1056.75 1454.79 1056.75 1454.79 1047.55 1453.79 1047.55 1453.79 1056.75 1444.59 1056.75 1444.59 1057.75 1453.79 1057.75 1453.79 1066.95 1454.79 1066.95"/><polygon class="cls-1" points="1306.29 1066.95 1306.29 1057.75 1315.5 1057.75 1315.5 1056.75 1306.29 1056.75 1306.29 1047.55 1305.29 1047.55 1305.29 1056.75 1296.09 1056.75 1296.09 1057.75 1305.29 1057.75 1305.29 1066.95 1306.29 1066.95"/><polygon class="cls-1" points="1355.79 1066.95 1355.79 1057.75 1365 1057.75 1365 1056.75 1355.79 1056.75 1355.79 1047.55 1354.79 1047.55 1354.79 1056.75 1345.59 1056.75 1345.59 1057.75 1354.79 1057.75 1354.79 1066.95 1355.79 1066.95"/><polygon class="cls-1" points="1331.04 1091.7 1331.04 1082.5 1340.25 1082.5 1340.25 1081.5 1331.04 1081.5 1331.04 1072.3 1330.04 1072.3 1330.04 1081.5 1320.84 1081.5 1320.84 1082.5 1330.04 1082.5 1330.04 1091.7 1331.04 1091.7"/><polygon class="cls-1" points="1331.04 1042.2 1331.04 1033 1340.25 1033 1340.25 1032 1331.04 1032 1331.04 1022.8 1330.04 1022.8 1330.04 1032 1320.84 1032 1320.84 1033 1330.04 1033 1330.04 1042.2 1331.04 1042.2"/><polygon class="cls-1" points="1355.79 1116.45 1355.79 1107.25 1365 1107.25 1365 1106.25 1355.79 1106.25 1355.79 1097.04 1354.79 1097.04 1354.79 1106.25 1345.59 1106.25 1345.59 1107.25 1354.79 1107.25 1354.79 1116.45 1355.79 1116.45"/><polygon class="cls-1" points="1405.29 1116.45 1405.29 1107.25 1414.49 1107.25 1414.49 1106.25 1405.29 1106.25 1405.29 1097.04 1404.29 1097.04 1404.29 1106.25 1395.09 1106.25 1395.09 1107.25 1404.29 1107.25 1404.29 1116.45 1405.29 1116.45"/><polygon class="cls-1" points="1380.54 1141.2 1380.54 1132 1389.74 1132 1389.74 1131 1380.54 1131 1380.54 1121.79 1379.54 1121.79 1379.54 1131 1370.34 1131 1370.34 1132 1379.54 1132 1379.54 1141.2 1380.54 1141.2"/><polygon class="cls-1" points="1380.54 1091.7 1380.54 1082.5 1389.74 1082.5 1389.74 1081.5 1380.54 1081.5 1380.54 1072.3 1379.54 1072.3 1379.54 1081.5 1370.34 1081.5 1370.34 1082.5 1379.54 1082.5 1379.54 1091.7 1380.54 1091.7"/><polygon class="cls-1" points="1306.29 1165.95 1306.29 1156.75 1315.5 1156.75 1315.5 1155.75 1306.29 1155.75 1306.29 1146.54 1305.29 1146.54 1305.29 1155.75 1296.09 1155.75 1296.09 1156.75 1305.29 1156.75 1305.29 1165.95 1306.29 1165.95"/><polygon class="cls-1" points="1355.79 1165.95 1355.79 1156.75 1365 1156.75 1365 1155.75 1355.79 1155.75 1355.79 1146.54 1354.79 1146.54 1354.79 1155.75 1345.59 1155.75 1345.59 1156.75 1354.79 1156.75 1354.79 1165.95 1355.79 1165.95"/><polygon class="cls-1" points="1331.04 1190.7 1331.04 1181.49 1340.25 1181.49 1340.25 1180.49 1331.04 1180.49 1331.04 1171.29 1330.04 1171.29 1330.04 1180.49 1320.84 1180.49 1320.84 1181.49 1330.04 1181.49 1330.04 1190.7 1331.04 1190.7"/><polygon class="cls-1" points="1331.04 1141.2 1331.04 1132 1340.25 1132 1340.25 1131 1331.04 1131 1331.04 1121.79 1330.04 1121.79 1330.04 1131 1320.84 1131 1320.84 1132 1330.04 1132 1330.04 1141.2 1331.04 1141.2"/><polygon class="cls-1" points="1256.8 1116.45 1256.8 1107.25 1266 1107.25 1266 1106.25 1256.8 1106.25 1256.8 1097.04 1255.8 1097.04 1255.8 1106.25 1246.6 1106.25 1246.6 1107.25 1255.8 1107.25 1255.8 1116.45 1256.8 1116.45"/><polygon class="cls-1" points="1306.29 1116.45 1306.29 1107.25 1315.5 1107.25 1315.5 1106.25 1306.29 1106.25 1306.29 1097.04 1305.29 1097.04 1305.29 1106.25 1296.09 1106.25 1296.09 1107.25 1305.29 1107.25 1305.29 1116.45 1306.29 1116.45"/><polygon class="cls-1" points="1281.55 1141.2 1281.55 1132 1290.75 1132 1290.75 1131 1281.55 1131 1281.55 1121.79 1280.55 1121.79 1280.55 1131 1271.34 1131 1271.34 1132 1280.55 1132 1280.55 1141.2 1281.55 1141.2"/><polygon class="cls-1" points="1281.55 1091.7 1281.55 1082.5 1290.75 1082.5 1290.75 1081.5 1281.55 1081.5 1281.55 1072.3 1280.55 1072.3 1280.55 1081.5 1271.34 1081.5 1271.34 1082.5 1280.55 1082.5 1280.55 1091.7 1281.55 1091.7"/><polygon class="cls-1" points="1405.29 1165.95 1405.29 1156.75 1414.49 1156.75 1414.49 1155.75 1405.29 1155.75 1405.29 1146.54 1404.29 1146.54 1404.29 1155.75 1395.09 1155.75 1395.09 1156.75 1404.29 1156.75 1404.29 1165.95 1405.29 1165.95"/><polygon class="cls-1" points="1454.79 1165.95 1454.79 1156.75 1463.99 1156.75 1463.99 1155.75 1454.79 1155.75 1454.79 1146.54 1453.79 1146.54 1453.79 1155.75 1444.59 1155.75 1444.59 1156.75 1453.79 1156.75 1453.79 1165.95 1454.79 1165.95"/><polygon class="cls-1" points="1430.04 1190.7 1430.04 1181.49 1439.24 1181.49 1439.24 1180.49 1430.04 1180.49 1430.04 1171.29 1429.04 1171.29 1429.04 1180.49 1419.84 1180.49 1419.84 1181.49 1429.04 1181.49 1429.04 1190.7 1430.04 1190.7"/><polygon class="cls-1" points="1430.04 1141.2 1430.04 1132 1439.24 1132 1439.24 1131 1430.04 1131 1430.04 1121.79 1429.04 1121.79 1429.04 1131 1419.84 1131 1419.84 1132 1429.04 1132 1429.04 1141.2 1430.04 1141.2"/><polygon class="cls-1" points="1454.79 1215.44 1454.79 1206.24 1463.99 1206.24 1463.99 1205.24 1454.79 1205.24 1454.79 1196.04 1453.79 1196.04 1453.79 1205.24 1444.59 1205.24 1444.59 1206.24 1453.79 1206.24 1453.79 1215.44 1454.79 1215.44"/><polygon class="cls-1" points="1504.28 1215.44 1504.28 1206.24 1513.49 1206.24 1513.49 1205.24 1504.28 1205.24 1504.28 1196.04 1503.28 1196.04 1503.28 1205.24 1494.08 1205.24 1494.08 1206.24 1503.28 1206.24 1503.28 1215.44 1504.28 1215.44"/><polygon class="cls-1" points="1479.54 1240.19 1479.54 1230.99 1488.74 1230.99 1488.74 1229.99 1479.54 1229.99 1479.54 1220.79 1478.54 1220.79 1478.54 1229.99 1469.33 1229.99 1469.33 1230.99 1478.54 1230.99 1478.54 1240.19 1479.54 1240.19"/><polygon class="cls-1" points="1479.54 1190.7 1479.54 1181.49 1488.74 1181.49 1488.74 1180.49 1479.54 1180.49 1479.54 1171.29 1478.54 1171.29 1478.54 1180.49 1469.33 1180.49 1469.33 1181.49 1478.54 1181.49 1478.54 1190.7 1479.54 1190.7"/><polygon class="cls-1" points="1405.29 1264.94 1405.29 1255.74 1414.49 1255.74 1414.49 1254.74 1405.29 1254.74 1405.29 1245.54 1404.29 1245.54 1404.29 1254.74 1395.09 1254.74 1395.09 1255.74 1404.29 1255.74 1404.29 1264.94 1405.29 1264.94"/><polygon class="cls-1" points="1454.79 1264.94 1454.79 1255.74 1463.99 1255.74 1463.99 1254.74 1454.79 1254.74 1454.79 1245.54 1453.79 1245.54 1453.79 1254.74 1444.59 1254.74 1444.59 1255.74 1453.79 1255.74 1453.79 1264.94 1454.79 1264.94"/><polygon class="cls-1" points="1430.04 1289.69 1430.04 1280.49 1439.24 1280.49 1439.24 1279.49 1430.04 1279.49 1430.04 1270.29 1429.04 1270.29 1429.04 1279.49 1419.84 1279.49 1419.84 1280.49 1429.04 1280.49 1429.04 1289.69 1430.04 1289.69"/><polygon class="cls-1" points="1430.04 1240.19 1430.04 1230.99 1439.24 1230.99 1439.24 1229.99 1430.04 1229.99 1430.04 1220.79 1429.04 1220.79 1429.04 1229.99 1419.84 1229.99 1419.84 1230.99 1429.04 1230.99 1429.04 1240.19 1430.04 1240.19"/><polygon class="cls-1" points="1355.79 1215.44 1355.79 1206.24 1365 1206.24 1365 1205.24 1355.79 1205.24 1355.79 1196.04 1354.79 1196.04 1354.79 1205.24 1345.59 1205.24 1345.59 1206.24 1354.79 1206.24 1354.79 1215.44 1355.79 1215.44"/><polygon class="cls-1" points="1405.29 1215.44 1405.29 1206.24 1414.49 1206.24 1414.49 1205.24 1405.29 1205.24 1405.29 1196.04 1404.29 1196.04 1404.29 1205.24 1395.09 1205.24 1395.09 1206.24 1404.29 1206.24 1404.29 1215.44 1405.29 1215.44"/><polygon class="cls-1" points="1380.54 1240.19 1380.54 1230.99 1389.74 1230.99 1389.74 1229.99 1380.54 1229.99 1380.54 1220.79 1379.54 1220.79 1379.54 1229.99 1370.34 1229.99 1370.34 1230.99 1379.54 1230.99 1379.54 1240.19 1380.54 1240.19"/><polygon class="cls-1" points="1380.54 1190.7 1380.54 1181.49 1389.74 1181.49 1389.74 1180.49 1380.54 1180.49 1380.54 1171.29 1379.54 1171.29 1379.54 1180.49 1370.34 1180.49 1370.34 1181.49 1379.54 1181.49 1379.54 1190.7 1380.54 1190.7"/><polygon class="cls-1" points="1504.28 1264.94 1504.28 1255.74 1513.49 1255.74 1513.49 1254.74 1504.28 1254.74 1504.28 1245.54 1503.28 1245.54 1503.28 1254.74 1494.08 1254.74 1494.08 1255.74 1503.28 1255.74 1503.28 1264.94 1504.28 1264.94"/><polygon class="cls-1" points="1479.54 1289.69 1479.54 1280.49 1488.74 1280.49 1488.74 1279.49 1479.54 1279.49 1479.54 1270.29 1478.54 1270.29 1478.54 1279.49 1469.33 1279.49 1469.33 1280.49 1478.54 1280.49 1478.54 1289.69 1479.54 1289.69"/><polygon class="cls-1" points="1207.3 1165.95 1207.3 1156.75 1216.5 1156.75 1216.5 1155.75 1207.3 1155.75 1207.3 1146.54 1206.3 1146.54 1206.3 1155.75 1197.1 1155.75 1197.1 1156.75 1206.3 1156.75 1206.3 1165.95 1207.3 1165.95"/><polygon class="cls-1" points="1256.8 1165.95 1256.8 1156.75 1266 1156.75 1266 1155.75 1256.8 1155.75 1256.8 1146.54 1255.8 1146.54 1255.8 1155.75 1246.6 1155.75 1246.6 1156.75 1255.8 1156.75 1255.8 1165.95 1256.8 1165.95"/><polygon class="cls-1" points="1232.05 1190.7 1232.05 1181.49 1241.25 1181.49 1241.25 1180.49 1232.05 1180.49 1232.05 1171.29 1231.05 1171.29 1231.05 1180.49 1221.85 1180.49 1221.85 1181.49 1231.05 1181.49 1231.05 1190.7 1232.05 1190.7"/><polygon class="cls-1" points="1232.05 1141.2 1232.05 1132 1241.25 1132 1241.25 1131 1232.05 1131 1232.05 1121.79 1231.05 1121.79 1231.05 1131 1221.85 1131 1221.85 1132 1231.05 1132 1231.05 1141.2 1232.05 1141.2"/><polygon class="cls-1" points="1256.8 1215.44 1256.8 1206.24 1266 1206.24 1266 1205.24 1256.8 1205.24 1256.8 1196.04 1255.8 1196.04 1255.8 1205.24 1246.6 1205.24 1246.6 1206.24 1255.8 1206.24 1255.8 1215.44 1256.8 1215.44"/><polygon class="cls-1" points="1306.29 1215.44 1306.29 1206.24 1315.5 1206.24 1315.5 1205.24 1306.29 1205.24 1306.29 1196.04 1305.29 1196.04 1305.29 1205.24 1296.09 1205.24 1296.09 1206.24 1305.29 1206.24 1305.29 1215.44 1306.29 1215.44"/><polygon class="cls-1" points="1281.55 1240.19 1281.55 1230.99 1290.75 1230.99 1290.75 1229.99 1281.55 1229.99 1281.55 1220.79 1280.55 1220.79 1280.55 1229.99 1271.34 1229.99 1271.34 1230.99 1280.55 1230.99 1280.55 1240.19 1281.55 1240.19"/><polygon class="cls-1" points="1281.55 1190.7 1281.55 1181.49 1290.75 1181.49 1290.75 1180.49 1281.55 1180.49 1281.55 1171.29 1280.55 1171.29 1280.55 1180.49 1271.34 1180.49 1271.34 1181.49 1280.55 1181.49 1280.55 1190.7 1281.55 1190.7"/><polygon class="cls-1" points="1207.3 1264.94 1207.3 1255.74 1216.5 1255.74 1216.5 1254.74 1207.3 1254.74 1207.3 1245.54 1206.3 1245.54 1206.3 1254.74 1197.1 1254.74 1197.1 1255.74 1206.3 1255.74 1206.3 1264.94 1207.3 1264.94"/><polygon class="cls-1" points="1256.8 1264.94 1256.8 1255.74 1266 1255.74 1266 1254.74 1256.8 1254.74 1256.8 1245.54 1255.8 1245.54 1255.8 1254.74 1246.6 1254.74 1246.6 1255.74 1255.8 1255.74 1255.8 1264.94 1256.8 1264.94"/><polygon class="cls-1" points="1232.05 1289.69 1232.05 1280.49 1241.25 1280.49 1241.25 1279.49 1232.05 1279.49 1232.05 1270.29 1231.05 1270.29 1231.05 1279.49 1221.85 1279.49 1221.85 1280.49 1231.05 1280.49 1231.05 1289.69 1232.05 1289.69"/><polygon class="cls-1" points="1232.05 1240.19 1232.05 1230.99 1241.25 1230.99 1241.25 1229.99 1232.05 1229.99 1232.05 1220.79 1231.05 1220.79 1231.05 1229.99 1221.85 1229.99 1221.85 1230.99 1231.05 1230.99 1231.05 1240.19 1232.05 1240.19"/><polygon class="cls-1" points="1157.8 1215.44 1157.8 1206.24 1167.01 1206.24 1167.01 1205.24 1157.8 1205.24 1157.8 1196.04 1156.8 1196.04 1156.8 1205.24 1147.6 1205.24 1147.6 1206.24 1156.8 1206.24 1156.8 1215.44 1157.8 1215.44"/><polygon class="cls-1" points="1207.3 1215.44 1207.3 1206.24 1216.5 1206.24 1216.5 1205.24 1207.3 1205.24 1207.3 1196.04 1206.3 1196.04 1206.3 1205.24 1197.1 1205.24 1197.1 1206.24 1206.3 1206.24 1206.3 1215.44 1207.3 1215.44"/><polygon class="cls-1" points="1182.55 1240.19 1182.55 1230.99 1191.75 1230.99 1191.75 1229.99 1182.55 1229.99 1182.55 1220.79 1181.55 1220.79 1181.55 1229.99 1172.35 1229.99 1172.35 1230.99 1181.55 1230.99 1181.55 1240.19 1182.55 1240.19"/><polygon class="cls-1" points="1182.55 1190.7 1182.55 1181.49 1191.75 1181.49 1191.75 1180.49 1182.55 1180.49 1182.55 1171.29 1181.55 1171.29 1181.55 1180.49 1172.35 1180.49 1172.35 1181.49 1181.55 1181.49 1181.55 1190.7 1182.55 1190.7"/><polygon class="cls-1" points="1306.29 1264.94 1306.29 1255.74 1315.5 1255.74 1315.5 1254.74 1306.29 1254.74 1306.29 1245.54 1305.29 1245.54 1305.29 1254.74 1296.09 1254.74 1296.09 1255.74 1305.29 1255.74 1305.29 1264.94 1306.29 1264.94"/><polygon class="cls-1" points="1355.79 1264.94 1355.79 1255.74 1365 1255.74 1365 1254.74 1355.79 1254.74 1355.79 1245.54 1354.79 1245.54 1354.79 1254.74 1345.59 1254.74 1345.59 1255.74 1354.79 1255.74 1354.79 1264.94 1355.79 1264.94"/><polygon class="cls-1" points="1331.04 1289.69 1331.04 1280.49 1340.25 1280.49 1340.25 1279.49 1331.04 1279.49 1331.04 1270.29 1330.04 1270.29 1330.04 1279.49 1320.84 1279.49 1320.84 1280.49 1330.04 1280.49 1330.04 1289.69 1331.04 1289.69"/><polygon class="cls-1" points="1331.04 1240.19 1331.04 1230.99 1340.25 1230.99 1340.25 1229.99 1331.04 1229.99 1331.04 1220.79 1330.04 1220.79 1330.04 1229.99 1320.84 1229.99 1320.84 1230.99 1330.04 1230.99 1330.04 1240.19 1331.04 1240.19"/><polygon class="cls-1" points="1380.54 1289.69 1380.54 1280.49 1389.74 1280.49 1389.74 1279.49 1380.54 1279.49 1380.54 1270.29 1379.54 1270.29 1379.54 1279.49 1370.34 1279.49 1370.34 1280.49 1379.54 1280.49 1379.54 1289.69 1380.54 1289.69"/><polygon class="cls-1" points="1281.55 1289.69 1281.55 1280.49 1290.75 1280.49 1290.75 1279.49 1281.55 1279.49 1281.55 1270.29 1280.55 1270.29 1280.55 1279.49 1271.34 1279.49 1271.34 1280.49 1280.55 1280.49 1280.55 1289.69 1281.55 1289.69"/><polygon class="cls-1" points="1108.3 1264.94 1108.3 1255.74 1117.51 1255.74 1117.51 1254.74 1108.3 1254.74 1108.3 1245.54 1107.3 1245.54 1107.3 1254.74 1098.1 1254.74 1098.1 1255.74 1107.3 1255.74 1107.3 1264.94 1108.3 1264.94"/><polygon class="cls-1" points="1157.8 1264.94 1157.8 1255.74 1167.01 1255.74 1167.01 1254.74 1157.8 1254.74 1157.8 1245.54 1156.8 1245.54 1156.8 1254.74 1147.6 1254.74 1147.6 1255.74 1156.8 1255.74 1156.8 1264.94 1157.8 1264.94"/><polygon class="cls-1" points="1133.05 1289.69 1133.05 1280.49 1142.26 1280.49 1142.26 1279.49 1133.05 1279.49 1133.05 1270.29 1132.05 1270.29 1132.05 1279.49 1122.85 1279.49 1122.85 1280.49 1132.05 1280.49 1132.05 1289.69 1133.05 1289.69"/><polygon class="cls-1" points="1133.05 1240.19 1133.05 1230.99 1142.26 1230.99 1142.26 1229.99 1133.05 1229.99 1133.05 1220.79 1132.05 1220.79 1132.05 1229.99 1122.85 1229.99 1122.85 1230.99 1132.05 1230.99 1132.05 1240.19 1133.05 1240.19"/><polygon class="cls-1" points="1182.55 1289.69 1182.55 1280.49 1191.75 1280.49 1191.75 1279.49 1182.55 1279.49 1182.55 1270.29 1181.55 1270.29 1181.55 1279.49 1172.35 1279.49 1172.35 1280.49 1181.55 1280.49 1181.55 1289.69 1182.55 1289.69"/><polygon class="cls-1" points="1083.56 1289.69 1083.56 1280.49 1092.76 1280.49 1092.76 1279.49 1083.56 1279.49 1083.56 1270.29 1082.56 1270.29 1082.56 1279.49 1073.36 1279.49 1073.36 1280.49 1082.56 1280.49 1082.56 1289.69 1083.56 1289.69"/></g><path class="cls-2" d="M486.52,1340.52a279.74,279.74,0,0,1-27.95-76.67c-25.45-124.39-33.91-257.32,50.57-342.07,43.92-44.06,93.93-65.2,183.4-95.81,202.74-69.36,293.09-204.78,457.55-283.6,117-56.07,386.17-126,548.84-35.2,148.9,83.09,162.43,356,88.62,675.55a570.92,570.92,0,0,1-89.78,200.33h0A608.17,608.17,0,0,1,1457.42,1584h0a608.07,608.07,0,0,1-235.12,56.46l-23.22.82a927.71,927.71,0,0,1-276.69-32h0a927.78,927.78,0,0,1-238.72-102.73L628,1472.65l-43.24-27.14a282.11,282.11,0,0,1-98.28-105Z"/><path class="cls-2" d="M724.52,855.64c190.92-67.88,269.86-190.76,424.16-264.22,118.2-55.8,378.46-111.77,531.33-19.72,131.8,79.35,142.48,321.06,80.4,608.5-15.56,72-47,139.56-90.43,198.81-6.36,8.68-14.44,18.78-21.2,27.1-42.61,52.39-95.62,94.75-153.42,128.85h0a530.64,530.64,0,0,1-57.77,29h0c-70.76,30.86-147,50.62-224.47,50.37-.5,0-21.63.67-22.12.67-82.53-.69-165-5.88-245.1-25.58-5.78-1.42-12.79-3.13-18.53-4.69h0c-4-1.08-8.79-2.32-12.74-3.46-61.17-17.64-133.25-44.59-189.12-75-9-4.88-18-9.69-26.81-14.78-1.36-.21-52.17-30.6-53.51-30.94-1-.27-40.57-24.57-41.55-25-41-19.08-70-57.19-91.57-96.8h0c-13.22-21.62-21-46.14-26.17-70.94-15.58-74.91-23.48-153.41-4.75-220.6,9.84-35.66,26.92-68.29,54.28-95.54C581.54,905.61,632.75,888.26,724.52,855.64Z"/><path class="cls-2" d="M756.5,885.3c179.18-66.11,246.42-177.17,390.77-244.83,119.21-55.89,370.52-97.88,513.83-4.25,114.86,75,123.37,286.34,72.16,541.45-14.47,72.11-46.72,139.1-91.08,197.31-5.7,7.49-14.67,18-20.66,25.22-40.9,49.26-93.2,86.66-148.33,118h0c-17.64,10-35.46,21.18-55.42,25.69h0c-71.24,16.09-140.22,44.71-213.84,44.27-1,0-20,.53-21,.52-78.38-.89-156.8-5.76-233-24.21-5.05-1.22-12.61-3-17.63-4.32h0c-3.47-.94-8.68-2.18-12.13-3.17-53.53-15.44-131.48-41.47-180.75-67.41-8.53-4.49-16.6-10.15-25.75-13.24-2.62-.88-48.71-27.34-51.39-28-2.1-.53-37.89-22-39.86-22.92-37.93-17.47-64.85-52.29-84.86-88.6h0a237,237,0,0,1-24.38-65.23c-14.58-68.74-20.83-141-2.42-202.78,9.68-32.5,25.62-62.41,50.9-87.42C610,933.5,662.44,920,756.5,885.3Z"/><path class="cls-2" d="M788.49,915c167.5-64.1,223.13-163.26,357.37-225.45,120.33-55.74,362.37-84.39,496.32,11.24,98.15,70.07,105.13,251.84,63.93,474.4-13.37,72.23-46.39,138.58-91.72,195.8-5,6.32-14.92,17.21-20.13,23.33-39.21,46.16-90.74,78.55-143.24,107.06h0c-16.8,9.12-34.17,18.47-53.08,22.44h0c-67.46,14.15-133.47,38.8-203.19,38.17-1.48,0-18.43.39-19.91.36-74.24-1.09-148.59-5.64-220.79-22.83-4.34-1-12.43-2.78-16.74-4h0c-3-.81-8.55-2-11.51-2.89-45.89-13.23-129.79-38.23-172.38-59.77-8.12-4.11-16-8.93-24.69-11.71-4-1.26-45.25-24.06-49.26-25.08-3.15-.79-35.23-19.45-38.18-20.8-34.84-15.85-58.25-48.26-78.15-80.41h0a215.63,215.63,0,0,1-22.6-59.5c-13.57-62.58-18.29-128.6-.09-185,9.47-29.35,24.34-56.52,47.53-79.3C638.55,961.4,692.14,951.84,788.49,915Z"/><path class="cls-2" d="M820.47,944.63c155.92-61.87,199.87-149.3,324-206.07,121.46-55.57,354.08-71.43,478.82,26.72C1705,829.61,1711,982.82,1679,1172.62c-12.23,72.41-46,138-92.38,194.3-4.27,5.19-15.18,16.41-19.58,21.45-37.54,43.07-88.21,70.4-138.17,96.16h0c-16,8.24-32.86,15.75-50.73,19.18h0c-63.74,12.23-126.71,32.89-192.55,32.08-2,0-16.83.24-18.8.21-70.1-1.29-140.38-5.53-208.64-21.47-3.62-.85-12.25-2.61-15.84-3.58h0c-2.47-.68-8.43-1.9-10.9-2.61-38.23-11-128.19-34.84-164-52.14-7.72-3.72-15.41-7.7-23.63-10.17-5.29-1.59-41.78-20.8-47.14-22.15-4.2-1.06-32.54-16.91-36.5-18.69C628.37,1391,606.77,1362,588.68,1333h0c-10.24-16.41-16.61-34.94-20.82-53.78C555.3,1222.78,552.11,1163,570.1,1112c9.26-26.21,23.08-50.61,44.16-71.18C667.08,989.32,721.88,983.75,820.47,944.63Z"/><path class="cls-2" d="M852.46,974.29C996.86,914.87,1029.1,839,1143,787.6c122.62-55.34,345.8-59.16,461.31,42.2,65.82,57.76,71.27,183.46,47.47,340.3-11,72.63-45.6,137.36-93,192.79-3.49,4.08-15.46,15.59-19,19.57-35.88,40-85.6,62.21-133.08,85.26h0a181.83,181.83,0,0,1-48.39,15.92h0c-60.07,10.32-120,27-181.9,26-2.46,0-15.24.12-17.7.06-66-1.49-132.16-5.4-196.48-20.1-2.9-.67-12.07-2.43-14.94-3.21h0c-2-.54-8.32-1.76-10.29-2.33-30.59-8.82-126.7-31.26-155.63-44.49a153.7,153.7,0,0,0-22.57-8.64c-6.66-1.86-38.32-17.54-45-19.22-5.24-1.32-29.85-14.39-34.81-16.57-28.65-12.64-48.45-38.2-64.72-64h0c-9.25-14.68-15.15-31.21-19-48.07-11.56-50.24-13.24-103.8,4.57-149.33,9-23.06,21.83-44.69,40.8-63.06C695.62,1017.26,751.65,1015.78,852.46,974.29Z"/><path class="cls-2" d="M884.44,1004c133-56.8,153.44-121.18,257.19-167.31,123.81-55.06,337.89-47.88,443.81,57.68,50.44,50.28,55.67,149.53,39.23,273.25-9.68,72.89-45.13,136.65-93.67,191.28-2.68,3-15.77,14.75-18.5,17.69-34.26,37-82.91,54-128,74.36h0c-14.43,6.53-30.21,10.31-46,12.67h0c-56.5,8.41-113.21,21.06-171.26,19.88-3-.06-13.65,0-16.6-.09-61.83-1.7-123.93-5.29-184.33-18.74-2.17-.49-11.89-2.25-14-2.84h0c-1.49-.41-8.2-1.62-9.68-2-22.94-6.62-125.33-27.45-147.25-36.86a144.88,144.88,0,0,0-21.51-7.11c-8-2-34.86-14.26-42.89-16.28-6.3-1.59-27.16-11.89-33.13-14.46-25.57-11-43.55-33.16-58-55.84h0c-8.26-12.94-13.68-27.47-17.26-42.34-10.55-44.08-10.76-91.42,6.9-131.52,8.78-19.92,20.59-38.76,37.43-54.94C724.2,1045.23,781.48,1047.93,884.44,1004Z"/><path class="cls-2" d="M916.42,1033.62c121.62-54,130.27-107,223.8-147.93,125-54.69,331.16-38.08,426.3,73.17,35.85,41.91,41,115.75,31,206.19-8.07,73.22-44.61,135.9-94.33,189.77-1.82,2-16.1,13.89-18,15.82-32.66,33.95-80.09,45.68-122.92,63.46h0c-13.69,5.69-28.83,7.58-43.69,9.41h0c-53,6.53-106.45,15.15-160.62,13.79-3.44-.09-12-.14-15.49-.25-57.7-1.9-115.7-5.16-172.17-17.37-1.45-.32-11.71-2.08-13.15-2.47h0c-1-.27-8.08-1.47-9.06-1.76-15.3-4.41-124.1-23.34-138.89-29.22-6.56-2.61-13.55-4-20.44-5.57-9.44-2.14-31.39-11-40.77-13.36-7.35-1.85-24.45-9.41-31.45-12.34-22.48-9.43-38.64-28.12-51.28-47.64h0a122.08,122.08,0,0,1-15.49-36.63c-9.54-37.92-8.33-79,9.24-113.7,8.5-16.79,19.35-32.81,34.05-46.82C752.82,1073.25,811.39,1080.25,916.42,1033.62Z"/><path class="cls-2" d="M948.41,1063.28c110.34-51,107.12-92.8,190.4-128.54,126.31-54.21,327.81-30.76,408.8,88.65,22.25,32.81,27.16,82.06,22.77,139.14-5.66,73.63-44,135.08-95,188.26-.93,1-16.47,13-17.42,13.94-31.11,31-75,45.29-117.84,52.57h0c-13.7,2.32-27.44,4.84-41.35,6.14h0c-49.64,4.66-99.68,9.25-150,7.7-3.94-.12-10.45-.25-14.39-.41-53.58-2.1-107.47-5-160-16-.72-.15-11.53-1.9-12.24-2.1h0c-.5-.13-8-1.33-8.46-1.47-7.65-2.21-123-18.88-130.51-21.59-6.2-2.25-12.9-2.78-19.38-4-10.85-2.11-27.93-7.72-38.65-10.42-8.39-2.11-21.72-7-29.76-10.23-19.41-7.83-33.73-23.07-44.57-39.45h0a105.59,105.59,0,0,1-13.71-30.91c-8.54-31.75-5.95-66.71,11.57-95.88a179.94,179.94,0,0,1,30.68-38.7C781.5,1101.33,841.4,1112.78,948.41,1063.28Z"/><path class="cls-2" d="M754.25,1354.8a420,420,0,0,0,82.92,18.11l122.14,13.95,19.19,2.92A1428.56,1428.56,0,0,0,1318,1400.49h0a228.35,228.35,0,0,0,112.75-41.67l16.88-12.06c60.28-43.06,96.52-112.68,95.62-186.76-.28-23.83-4.4-48.37-14.54-72.09-56.28-131.75-263.64-157.68-391.29-104.12-73,30.63-57.85,61.21-157,109.16-108.84,52.63-170.11,36.58-234.72,96.75a226.34,226.34,0,0,0-27.31,30.58c-34.13,45.9-16.53,111.64,35.89,134.52Z"/><polygon class="cls-1" points="1330.05 1320.6 1330.05 1329.8 1320.84 1329.8 1320.84 1330.8 1330.05 1330.8 1330.05 1340 1331.05 1340 1331.05 1330.8 1340.25 1330.8 1340.25 1329.8 1331.05 1329.8 1331.05 1320.6 1330.05 1320.6"/><polygon class="cls-1" points="1280.55 1320.6 1280.55 1329.8 1271.35 1329.8 1271.35 1330.8 1280.55 1330.8 1280.55 1340 1281.55 1340 1281.55 1330.8 1290.75 1330.8 1290.75 1329.8 1281.55 1329.8 1281.55 1320.6 1280.55 1320.6"/><polygon class="cls-1" points="1305.3 1295.85 1305.3 1305.05 1296.09 1305.05 1296.09 1306.05 1305.3 1306.05 1305.3 1315.25 1306.3 1315.25 1306.3 1306.05 1315.5 1306.05 1315.5 1305.05 1306.3 1305.05 1306.3 1295.85 1305.3 1295.85"/><polygon class="cls-1" points="1305.3 1345.35 1305.3 1354.55 1296.09 1354.55 1296.09 1355.55 1305.3 1355.55 1305.3 1364.75 1306.3 1364.75 1306.3 1355.55 1315.5 1355.55 1315.5 1354.55 1306.3 1354.55 1306.3 1345.35 1305.3 1345.35"/><polygon class="cls-1" points="1255.8 1295.85 1255.8 1305.05 1246.6 1305.05 1246.6 1306.05 1255.8 1306.05 1255.8 1315.25 1256.8 1315.25 1256.8 1306.05 1266 1306.05 1266 1305.05 1256.8 1305.05 1256.8 1295.85 1255.8 1295.85"/><polygon class="cls-1" points="1354.79 1295.85 1354.79 1305.05 1345.59 1305.05 1345.59 1306.05 1354.79 1306.05 1354.79 1315.25 1355.79 1315.25 1355.79 1306.05 1365 1306.05 1365 1305.05 1355.79 1305.05 1355.79 1295.85 1354.79 1295.85"/><polygon class="cls-1" points="1453.79 1295.85 1453.79 1305.05 1444.59 1305.05 1444.59 1306.05 1453.79 1306.05 1453.79 1315.25 1454.79 1315.25 1454.79 1306.05 1463.99 1306.05 1463.99 1305.05 1454.79 1305.05 1454.79 1295.85 1453.79 1295.85"/><polygon class="cls-1" points="1404.29 1295.85 1404.29 1305.05 1395.09 1305.05 1395.09 1306.05 1404.29 1306.05 1404.29 1315.25 1405.29 1315.25 1405.29 1306.05 1414.49 1306.05 1414.49 1305.05 1405.29 1305.05 1405.29 1295.85 1404.29 1295.85"/><polygon class="cls-1" points="1429.04 1320.6 1429.04 1329.8 1419.84 1329.8 1419.84 1330.8 1429.04 1330.8 1429.04 1340 1430.04 1340 1430.04 1330.8 1439.24 1330.8 1439.24 1329.8 1430.04 1329.8 1430.04 1320.6 1429.04 1320.6"/><polygon class="cls-1" points="1330.04 1370.1 1330.04 1379.3 1320.84 1379.3 1320.84 1380.3 1330.04 1380.3 1330.04 1389.5 1331.04 1389.5 1331.04 1380.3 1340.25 1380.3 1340.25 1379.3 1331.04 1379.3 1331.04 1370.1 1330.04 1370.1"/><polygon class="cls-1" points="1404.29 1345.35 1404.29 1354.55 1395.09 1354.55 1395.09 1355.55 1404.29 1355.55 1404.29 1364.75 1405.29 1364.75 1405.29 1355.55 1414.49 1355.55 1414.49 1354.55 1405.29 1354.55 1405.29 1345.35 1404.29 1345.35"/><polygon class="cls-1" points="1354.79 1345.35 1354.79 1354.55 1345.59 1354.55 1345.59 1355.55 1354.79 1355.55 1354.79 1364.75 1355.79 1364.75 1355.79 1355.55 1364.99 1355.55 1364.99 1354.55 1355.79 1354.55 1355.79 1345.35 1354.79 1345.35"/><polygon class="cls-1" points="1379.54 1320.6 1379.54 1329.8 1370.34 1329.8 1370.34 1330.8 1379.54 1330.8 1379.54 1340 1380.54 1340 1380.54 1330.8 1389.74 1330.8 1389.74 1329.8 1380.54 1329.8 1380.54 1320.6 1379.54 1320.6"/><polygon class="cls-1" points="1181.55 1370.1 1181.55 1379.3 1172.35 1379.3 1172.35 1380.3 1181.55 1380.3 1181.55 1389.5 1182.55 1389.5 1182.55 1380.3 1191.75 1380.3 1191.75 1379.3 1182.55 1379.3 1182.55 1370.1 1181.55 1370.1"/><polygon class="cls-1" points="1132.06 1370.1 1132.06 1379.3 1122.85 1379.3 1122.85 1380.3 1132.06 1380.3 1132.06 1389.5 1133.06 1389.5 1133.06 1380.3 1142.26 1380.3 1142.26 1379.3 1133.06 1379.3 1133.06 1370.1 1132.06 1370.1"/><polygon class="cls-1" points="1156.8 1345.35 1156.8 1354.55 1147.6 1354.55 1147.6 1355.55 1156.8 1355.55 1156.8 1364.75 1157.8 1364.75 1157.8 1355.55 1167 1355.55 1167 1354.55 1157.8 1354.55 1157.8 1345.35 1156.8 1345.35"/><polygon class="cls-1" points="1231.05 1320.6 1231.05 1329.8 1221.85 1329.8 1221.85 1330.8 1231.05 1330.8 1231.05 1340 1232.05 1340 1232.05 1330.8 1241.25 1330.8 1241.25 1329.8 1232.05 1329.8 1232.05 1320.6 1231.05 1320.6"/><polygon class="cls-1" points="1181.55 1320.6 1181.55 1329.8 1172.35 1329.8 1172.35 1330.8 1181.55 1330.8 1181.55 1340 1182.55 1340 1182.55 1330.8 1191.75 1330.8 1191.75 1329.8 1182.55 1329.8 1182.55 1320.6 1181.55 1320.6"/><polygon class="cls-1" points="1206.3 1295.85 1206.3 1305.05 1197.1 1305.05 1197.1 1306.05 1206.3 1306.05 1206.3 1315.25 1207.3 1315.25 1207.3 1306.05 1216.5 1306.05 1216.5 1305.05 1207.3 1305.05 1207.3 1295.85 1206.3 1295.85"/><polygon class="cls-1" points="1206.3 1345.35 1206.3 1354.55 1197.1 1354.55 1197.1 1355.55 1206.3 1355.55 1206.3 1364.75 1207.3 1364.75 1207.3 1355.55 1216.5 1355.55 1216.5 1354.55 1207.3 1354.55 1207.3 1345.35 1206.3 1345.35"/><polygon class="cls-1" points="1280.55 1370.1 1280.55 1379.3 1271.35 1379.3 1271.35 1380.3 1280.55 1380.3 1280.55 1389.5 1281.55 1389.5 1281.55 1380.3 1290.75 1380.3 1290.75 1379.3 1281.55 1379.3 1281.55 1370.1 1280.55 1370.1"/><polygon class="cls-1" points="1231.05 1370.1 1231.05 1379.3 1221.85 1379.3 1221.85 1380.3 1231.05 1380.3 1231.05 1389.5 1232.05 1389.5 1232.05 1380.3 1241.25 1380.3 1241.25 1379.3 1232.05 1379.3 1232.05 1370.1 1231.05 1370.1"/><polygon class="cls-1" points="1255.8 1345.35 1255.8 1354.55 1246.6 1354.55 1246.6 1355.55 1255.8 1355.55 1255.8 1364.75 1256.8 1364.75 1256.8 1355.55 1266 1355.55 1266 1354.55 1256.8 1354.55 1256.8 1345.35 1255.8 1345.35"/><polygon class="cls-1" points="835.07 1320.6 835.07 1329.8 825.87 1329.8 825.87 1330.8 835.07 1330.8 835.07 1340 836.07 1340 836.07 1330.8 845.27 1330.8 845.27 1329.8 836.07 1329.8 836.07 1320.6 835.07 1320.6"/><polygon class="cls-1" points="785.57 1320.6 785.57 1329.8 776.37 1329.8 776.37 1330.8 785.57 1330.8 785.57 1340 786.57 1340 786.57 1330.8 795.77 1330.8 795.77 1329.8 786.57 1329.8 786.57 1320.6 785.57 1320.6"/><polygon class="cls-1" points="810.32 1295.85 810.32 1305.05 801.12 1305.05 801.12 1306.05 810.32 1306.05 810.32 1315.25 811.32 1315.25 811.32 1306.05 820.52 1306.05 820.52 1305.05 811.32 1305.05 811.32 1295.85 810.32 1295.85"/><polygon class="cls-1" points="810.32 1345.35 810.32 1354.55 801.12 1354.55 801.12 1355.55 810.32 1355.55 810.32 1364.75 811.32 1364.75 811.32 1355.55 820.52 1355.55 820.52 1354.55 811.32 1354.55 811.32 1345.35 810.32 1345.35"/><polygon class="cls-1" points="859.82 1345.35 859.82 1354.55 850.62 1354.55 850.62 1355.55 859.82 1355.55 859.82 1364.75 860.82 1364.75 860.82 1355.55 870.02 1355.55 870.02 1354.55 860.82 1354.55 860.82 1345.35 859.82 1345.35"/><polygon class="cls-1" points="760.82 1295.85 760.82 1305.05 751.62 1305.05 751.62 1306.05 760.82 1306.05 760.82 1315.25 761.82 1315.25 761.82 1306.05 771.03 1306.05 771.03 1305.05 761.82 1305.05 761.82 1295.85 760.82 1295.85"/><polygon class="cls-1" points="958.81 1345.35 958.81 1354.55 949.61 1354.55 949.61 1355.55 958.81 1355.55 958.81 1364.75 959.81 1364.75 959.81 1355.55 969.02 1355.55 969.02 1354.55 959.81 1354.55 959.81 1345.35 958.81 1345.35"/><polygon class="cls-1" points="1033.06 1320.6 1033.06 1329.8 1023.86 1329.8 1023.86 1330.8 1033.06 1330.8 1033.06 1340 1034.06 1340 1034.06 1330.8 1043.26 1330.8 1043.26 1329.8 1034.06 1329.8 1034.06 1320.6 1033.06 1320.6"/><polygon class="cls-1" points="983.56 1320.6 983.56 1329.8 974.36 1329.8 974.36 1330.8 983.56 1330.8 983.56 1340 984.56 1340 984.56 1330.8 993.76 1330.8 993.76 1329.8 984.56 1329.8 984.56 1320.6 983.56 1320.6"/><polygon class="cls-1" points="1008.31 1295.85 1008.31 1305.05 999.11 1305.05 999.11 1306.05 1008.31 1306.05 1008.31 1315.25 1009.31 1315.25 1009.31 1306.05 1018.51 1306.05 1018.51 1305.05 1009.31 1305.05 1009.31 1295.85 1008.31 1295.85"/><polygon class="cls-1" points="1008.31 1345.35 1008.31 1354.55 999.11 1354.55 999.11 1355.55 1008.31 1355.55 1008.31 1364.75 1009.31 1364.75 1009.31 1355.55 1018.51 1355.55 1018.51 1354.55 1009.31 1354.55 1009.31 1345.35 1008.31 1345.35"/><polygon class="cls-1" points="1082.56 1370.1 1082.56 1379.3 1073.35 1379.3 1073.35 1380.3 1082.56 1380.3 1082.56 1389.5 1083.56 1389.5 1083.56 1380.3 1092.76 1380.3 1092.76 1379.3 1083.56 1379.3 1083.56 1370.1 1082.56 1370.1"/><polygon class="cls-1" points="1033.06 1370.1 1033.06 1379.3 1023.86 1379.3 1023.86 1380.3 1033.06 1380.3 1033.06 1389.5 1034.06 1389.5 1034.06 1380.3 1043.26 1380.3 1043.26 1379.3 1034.06 1379.3 1034.06 1370.1 1033.06 1370.1"/><polygon class="cls-1" points="1057.81 1345.35 1057.81 1354.55 1048.61 1354.55 1048.61 1355.55 1057.81 1355.55 1057.81 1364.75 1058.81 1364.75 1058.81 1355.55 1068.01 1355.55 1068.01 1354.55 1058.81 1354.55 1058.81 1345.35 1057.81 1345.35"/><polygon class="cls-1" points="934.07 1320.6 934.07 1329.8 924.86 1329.8 924.86 1330.8 934.07 1330.8 934.07 1340 935.07 1340 935.07 1330.8 944.27 1330.8 944.27 1329.8 935.07 1329.8 935.07 1320.6 934.07 1320.6"/><polygon class="cls-1" points="884.57 1320.6 884.57 1329.8 875.36 1329.8 875.36 1330.8 884.57 1330.8 884.57 1340 885.57 1340 885.57 1330.8 894.77 1330.8 894.77 1329.8 885.57 1329.8 885.57 1320.6 884.57 1320.6"/><polygon class="cls-1" points="909.32 1295.85 909.32 1305.05 900.11 1305.05 900.11 1306.05 909.32 1306.05 909.32 1315.25 910.32 1315.25 910.32 1306.05 919.52 1306.05 919.52 1305.05 910.32 1305.05 910.32 1295.85 909.32 1295.85"/><polygon class="cls-1" points="909.32 1345.35 909.32 1354.55 900.11 1354.55 900.11 1355.55 909.32 1355.55 909.32 1364.75 910.32 1364.75 910.32 1355.55 919.52 1355.55 919.52 1354.55 910.32 1354.55 910.32 1345.35 909.32 1345.35"/><polygon class="cls-1" points="859.82 1295.85 859.82 1305.05 850.62 1305.05 850.62 1306.05 859.82 1306.05 859.82 1315.25 860.82 1315.25 860.82 1306.05 870.02 1306.05 870.02 1305.05 860.82 1305.05 860.82 1295.85 859.82 1295.85"/><polygon class="cls-1" points="958.81 1295.85 958.81 1305.05 949.61 1305.05 949.61 1306.05 958.81 1306.05 958.81 1315.25 959.81 1315.25 959.81 1306.05 969.02 1306.05 969.02 1305.05 959.81 1305.05 959.81 1295.85 958.81 1295.85"/><polygon class="cls-1" points="1132.06 1320.6 1132.06 1329.8 1122.85 1329.8 1122.85 1330.8 1132.06 1330.8 1132.06 1340 1133.06 1340 1133.06 1330.8 1142.26 1330.8 1142.26 1329.8 1133.06 1329.8 1133.06 1320.6 1132.06 1320.6"/><polygon class="cls-1" points="1082.56 1320.6 1082.56 1329.8 1073.35 1329.8 1073.35 1330.8 1082.56 1330.8 1082.56 1340 1083.56 1340 1083.56 1330.8 1092.76 1330.8 1092.76 1329.8 1083.56 1329.8 1083.56 1320.6 1082.56 1320.6"/><polygon class="cls-1" points="1107.31 1295.85 1107.31 1305.05 1098.1 1305.05 1098.1 1306.05 1107.31 1306.05 1107.31 1315.25 1108.31 1315.25 1108.31 1306.05 1117.51 1306.05 1117.51 1305.05 1108.31 1305.05 1108.31 1295.85 1107.31 1295.85"/><polygon class="cls-1" points="1107.31 1345.35 1107.31 1354.55 1098.1 1354.55 1098.1 1355.55 1107.31 1355.55 1107.31 1364.75 1108.31 1364.75 1108.31 1355.55 1117.51 1355.55 1117.51 1354.55 1108.31 1354.55 1108.31 1345.35 1107.31 1345.35"/><polygon class="cls-1" points="1057.81 1295.85 1057.81 1305.05 1048.61 1305.05 1048.61 1306.05 1057.81 1306.05 1057.81 1315.25 1058.81 1315.25 1058.81 1306.05 1068.01 1306.05 1068.01 1305.05 1058.81 1305.05 1058.81 1295.85 1057.81 1295.85"/><polygon class="cls-1" points="1156.8 1295.85 1156.8 1305.05 1147.6 1305.05 1147.6 1306.05 1156.8 1306.05 1156.8 1315.25 1157.8 1315.25 1157.8 1306.05 1167 1306.05 1167 1305.05 1157.8 1305.05 1157.8 1295.85 1156.8 1295.85"/></svg>