<svg id="Layer_1" data-name="Layer 1" xmlns="http://www.w3.org/2000/svg" viewBox="0 0 1598.66 1434.07"><defs><style>.cls-1{fill:#ff5733;}.cls-2{fill:none;stroke:#ff5733;stroke-miterlimit:10;stroke-width:2px;}</style></defs><g id="Layer_4" data-name="Layer 4"><polygon class="cls-1" points="830.65 1274.16 830.65 1264.96 839.86 1264.96 839.86 1263.96 830.65 1263.96 830.65 1254.77 829.65 1254.77 829.65 1263.96 820.45 1263.96 820.45 1264.96 829.65 1264.96 829.65 1274.16 830.65 1274.16"/><polygon class="cls-1" points="880.15 1274.16 880.15 1264.96 889.35 1264.96 889.35 1263.96 880.15 1263.96 880.15 1254.77 879.15 1254.77 879.15 1263.96 869.95 1263.96 869.95 1264.96 879.15 1264.96 879.15 1274.16 880.15 1274.16"/><polygon class="cls-1" points="855.4 1298.91 855.4 1289.71 864.61 1289.71 864.61 1288.71 855.4 1288.71 855.4 1279.52 854.4 1279.52 854.4 1288.71 845.2 1288.71 845.2 1289.71 854.4 1289.71 854.4 1298.91 855.4 1298.91"/><polygon class="cls-1" points="855.4 1249.41 855.4 1240.21 864.61 1240.21 864.61 1239.21 855.4 1239.21 855.4 1230.02 854.4 1230.02 854.4 1239.21 845.2 1239.21 845.2 1240.21 854.4 1240.21 854.4 1249.41 855.4 1249.41"/><polygon class="cls-1" points="904.9 1298.91 904.9 1289.71 914.1 1289.71 914.1 1288.71 904.9 1288.71 904.9 1279.52 903.9 1279.52 903.9 1288.71 894.7 1288.71 894.7 1289.71 903.9 1289.71 903.9 1298.91 904.9 1298.91"/><polygon class="cls-1" points="805.91 1298.91 805.91 1289.71 815.11 1289.71 815.11 1288.71 805.91 1288.71 805.91 1279.52 804.91 1279.52 804.91 1288.71 795.7 1288.71 795.7 1289.71 804.91 1289.71 804.91 1298.91 805.91 1298.91"/><polygon class="cls-1" points="657.41 1249.41 657.41 1240.21 666.62 1240.21 666.62 1239.21 657.41 1239.21 657.41 1230.02 656.41 1230.02 656.41 1239.21 647.21 1239.21 647.21 1240.21 656.41 1240.21 656.41 1249.41 657.41 1249.41"/><polygon class="cls-1" points="706.91 1249.41 706.91 1240.21 716.11 1240.21 716.11 1239.21 706.91 1239.21 706.91 1230.02 705.91 1230.02 705.91 1239.21 696.71 1239.21 696.71 1240.21 705.91 1240.21 705.91 1249.41 706.91 1249.41"/><polygon class="cls-1" points="682.16 1274.16 682.16 1264.96 691.37 1264.96 691.37 1263.96 682.16 1263.96 682.16 1254.77 681.16 1254.77 681.16 1263.96 671.96 1263.96 671.96 1264.96 681.16 1264.96 681.16 1274.16 682.16 1274.16"/><polygon class="cls-1" points="682.16 1224.66 682.16 1215.46 691.37 1215.46 691.37 1214.46 682.16 1214.46 682.16 1205.27 681.16 1205.27 681.16 1214.46 671.96 1214.46 671.96 1215.46 681.16 1215.46 681.16 1224.66 682.16 1224.66"/><polygon class="cls-1" points="706.91 1298.91 706.91 1289.71 716.11 1289.71 716.11 1288.71 706.91 1288.71 706.91 1279.52 705.91 1279.52 705.91 1288.71 696.71 1288.71 696.71 1289.71 705.91 1289.71 705.91 1298.91 706.91 1298.91"/><polygon class="cls-1" points="756.41 1298.91 756.41 1289.71 765.61 1289.71 765.61 1288.71 756.41 1288.71 756.41 1279.52 755.41 1279.52 755.41 1288.71 746.21 1288.71 746.21 1289.71 755.41 1289.71 755.41 1298.91 756.41 1298.91"/><polygon class="cls-1" points="731.66 1274.16 731.66 1264.96 740.86 1264.96 740.86 1263.96 731.66 1263.96 731.66 1254.77 730.66 1254.77 730.66 1263.96 721.46 1263.96 721.46 1264.96 730.66 1264.96 730.66 1274.16 731.66 1274.16"/><polygon class="cls-1" points="657.41 1298.91 657.41 1289.71 666.62 1289.71 666.62 1288.71 657.41 1288.71 657.41 1279.52 656.41 1279.52 656.41 1288.71 647.21 1288.71 647.21 1289.71 656.41 1289.71 656.41 1298.91 657.41 1298.91"/><polygon class="cls-1" points="805.91 1199.92 805.91 1190.71 815.11 1190.71 815.11 1189.71 805.91 1189.71 805.91 1180.52 804.91 1180.52 804.91 1189.71 795.71 1189.71 795.71 1190.71 804.91 1190.71 804.91 1199.92 805.91 1199.92"/><polygon class="cls-1" points="855.4 1199.92 855.4 1190.71 864.61 1190.71 864.61 1189.71 855.4 1189.71 855.4 1180.52 854.4 1180.52 854.4 1189.71 845.2 1189.71 845.2 1190.71 854.4 1190.71 854.4 1199.92 855.4 1199.92"/><polygon class="cls-1" points="830.66 1224.66 830.66 1215.46 839.86 1215.46 839.86 1214.46 830.66 1214.46 830.66 1205.27 829.66 1205.27 829.66 1214.46 820.45 1214.46 820.45 1215.46 829.66 1215.46 829.66 1224.66 830.66 1224.66"/><polygon class="cls-1" points="830.66 1175.17 830.66 1165.97 839.86 1165.97 839.86 1164.97 830.66 1164.97 830.66 1155.77 829.66 1155.77 829.66 1164.97 820.45 1164.97 820.45 1165.97 829.66 1165.97 829.66 1175.17 830.66 1175.17"/><polygon class="cls-1" points="756.41 1249.41 756.41 1240.21 765.61 1240.21 765.61 1239.21 756.41 1239.21 756.41 1230.02 755.41 1230.02 755.41 1239.21 746.21 1239.21 746.21 1240.21 755.41 1240.21 755.41 1249.41 756.41 1249.41"/><polygon class="cls-1" points="805.91 1249.41 805.91 1240.21 815.11 1240.21 815.11 1239.21 805.91 1239.21 805.91 1230.02 804.91 1230.02 804.91 1239.21 795.71 1239.21 795.71 1240.21 804.91 1240.21 804.91 1249.41 805.91 1249.41"/><polygon class="cls-1" points="781.16 1274.16 781.16 1264.96 790.36 1264.96 790.36 1263.96 781.16 1263.96 781.16 1254.77 780.16 1254.77 780.16 1263.96 770.96 1263.96 770.96 1264.96 780.16 1264.96 780.16 1274.16 781.16 1274.16"/><polygon class="cls-1" points="781.16 1224.66 781.16 1215.46 790.36 1215.46 790.36 1214.46 781.16 1214.46 781.16 1205.27 780.16 1205.27 780.16 1214.46 770.96 1214.46 770.96 1215.46 780.16 1215.46 780.16 1224.66 781.16 1224.66"/><polygon class="cls-1" points="756.41 1199.92 756.41 1190.71 765.61 1190.71 765.61 1189.71 756.41 1189.71 756.41 1180.52 755.41 1180.52 755.41 1189.71 746.21 1189.71 746.21 1190.71 755.41 1190.71 755.41 1199.92 756.41 1199.92"/><polygon class="cls-1" points="731.66 1224.66 731.66 1215.46 740.86 1215.46 740.86 1214.46 731.66 1214.46 731.66 1205.27 730.66 1205.27 730.66 1214.46 721.46 1214.46 721.46 1215.46 730.66 1215.46 730.66 1224.66 731.66 1224.66"/><polygon class="cls-1" points="929.65 1175.17 929.65 1165.97 938.85 1165.97 938.85 1164.97 929.65 1164.97 929.65 1155.77 928.65 1155.77 928.65 1164.97 919.45 1164.97 919.45 1165.97 928.65 1165.97 928.65 1175.17 929.65 1175.17"/><polygon class="cls-1" points="979.15 1175.17 979.15 1165.97 988.35 1165.97 988.35 1164.97 979.15 1164.97 979.15 1155.77 978.15 1155.77 978.15 1164.97 968.95 1164.97 968.95 1165.97 978.15 1165.97 978.15 1175.17 979.15 1175.17"/><polygon class="cls-1" points="954.4 1199.92 954.4 1190.71 963.6 1190.71 963.6 1189.71 954.4 1189.71 954.4 1180.52 953.4 1180.52 953.4 1189.71 944.2 1189.71 944.2 1190.71 953.4 1190.71 953.4 1199.92 954.4 1199.92"/><polygon class="cls-1" points="954.4 1150.42 954.4 1141.22 963.6 1141.22 963.6 1140.22 954.4 1140.22 954.4 1131.02 953.4 1131.02 953.4 1140.22 944.2 1140.22 944.2 1141.22 953.4 1141.22 953.4 1150.42 954.4 1150.42"/><polygon class="cls-1" points="979.15 1224.66 979.15 1215.46 988.35 1215.46 988.35 1214.46 979.15 1214.46 979.15 1205.27 978.15 1205.27 978.15 1214.46 968.95 1214.46 968.95 1215.46 978.15 1215.46 978.15 1224.66 979.15 1224.66"/><polygon class="cls-1" points="1028.64 1224.66 1028.64 1215.46 1037.85 1215.46 1037.85 1214.46 1028.64 1214.46 1028.64 1205.27 1027.64 1205.27 1027.64 1214.46 1018.44 1214.46 1018.44 1215.46 1027.64 1215.46 1027.64 1224.66 1028.64 1224.66"/><polygon class="cls-1" points="1003.9 1249.41 1003.9 1240.21 1013.1 1240.21 1013.1 1239.21 1003.9 1239.21 1003.9 1230.02 1002.9 1230.02 1002.9 1239.21 993.7 1239.21 993.7 1240.21 1002.9 1240.21 1002.9 1249.41 1003.9 1249.41"/><polygon class="cls-1" points="1003.9 1199.92 1003.9 1190.71 1013.1 1190.71 1013.1 1189.71 1003.9 1189.71 1003.9 1180.52 1002.9 1180.52 1002.9 1189.71 993.7 1189.71 993.7 1190.71 1002.9 1190.71 1002.9 1199.92 1003.9 1199.92"/><polygon class="cls-1" points="929.65 1274.16 929.65 1264.96 938.85 1264.96 938.85 1263.96 929.65 1263.96 929.65 1254.77 928.65 1254.77 928.65 1263.96 919.45 1263.96 919.45 1264.96 928.65 1264.96 928.65 1274.16 929.65 1274.16"/><polygon class="cls-1" points="979.15 1274.16 979.15 1264.96 988.35 1264.96 988.35 1263.96 979.15 1263.96 979.15 1254.77 978.15 1254.77 978.15 1263.96 968.95 1263.96 968.95 1264.96 978.15 1264.96 978.15 1274.16 979.15 1274.16"/><polygon class="cls-1" points="954.4 1298.91 954.4 1289.71 963.6 1289.71 963.6 1288.71 954.4 1288.71 954.4 1279.52 953.4 1279.52 953.4 1288.71 944.2 1288.71 944.2 1289.71 953.4 1289.71 953.4 1298.91 954.4 1298.91"/><polygon class="cls-1" points="954.4 1249.41 954.4 1240.21 963.6 1240.21 963.6 1239.21 954.4 1239.21 954.4 1230.02 953.4 1230.02 953.4 1239.21 944.2 1239.21 944.2 1240.21 953.4 1240.21 953.4 1249.41 954.4 1249.41"/><polygon class="cls-1" points="880.15 1224.66 880.15 1215.46 889.35 1215.46 889.35 1214.46 880.15 1214.46 880.15 1205.27 879.15 1205.27 879.15 1214.46 869.95 1214.46 869.95 1215.46 879.15 1215.46 879.15 1224.66 880.15 1224.66"/><polygon class="cls-1" points="929.65 1224.66 929.65 1215.46 938.85 1215.46 938.85 1214.46 929.65 1214.46 929.65 1205.27 928.65 1205.27 928.65 1214.46 919.45 1214.46 919.45 1215.46 928.65 1215.46 928.65 1224.66 929.65 1224.66"/><polygon class="cls-1" points="904.9 1249.41 904.9 1240.21 914.1 1240.21 914.1 1239.21 904.9 1239.21 904.9 1230.02 903.9 1230.02 903.9 1239.21 894.7 1239.21 894.7 1240.21 903.9 1240.21 903.9 1249.41 904.9 1249.41"/><polygon class="cls-1" points="904.9 1199.92 904.9 1190.71 914.1 1190.71 914.1 1189.71 904.9 1189.71 904.9 1180.52 903.9 1180.52 903.9 1189.71 894.7 1189.71 894.7 1190.71 903.9 1190.71 903.9 1199.92 904.9 1199.92"/><polygon class="cls-1" points="954.4 1100.92 954.4 1091.72 963.6 1091.72 963.6 1090.72 954.4 1090.72 954.4 1081.53 953.4 1081.53 953.4 1090.72 944.2 1090.72 944.2 1091.72 953.4 1091.72 953.4 1100.92 954.4 1100.92"/><polygon class="cls-1" points="929.65 1125.67 929.65 1116.47 938.85 1116.47 938.85 1115.47 929.65 1115.47 929.65 1106.27 928.65 1106.27 928.65 1115.47 919.45 1115.47 919.45 1116.47 928.65 1116.47 928.65 1125.67 929.65 1125.67"/><polygon class="cls-1" points="904.9 1150.42 904.9 1141.22 914.1 1141.22 914.1 1140.22 904.9 1140.22 904.9 1131.02 903.9 1131.02 903.9 1140.22 894.7 1140.22 894.7 1141.22 903.9 1141.22 903.9 1150.42 904.9 1150.42"/><polygon class="cls-1" points="880.15 1175.17 880.15 1165.97 889.35 1165.97 889.35 1164.97 880.15 1164.97 880.15 1155.77 879.15 1155.77 879.15 1164.97 869.95 1164.97 869.95 1165.97 879.15 1165.97 879.15 1175.17 880.15 1175.17"/><polygon class="cls-1" points="1028.64 1076.17 1028.64 1066.97 1037.85 1066.97 1037.85 1065.97 1028.64 1065.97 1028.64 1056.78 1027.64 1056.78 1027.64 1065.97 1018.44 1065.97 1018.44 1066.97 1027.64 1066.97 1027.64 1076.17 1028.64 1076.17"/><polygon class="cls-1" points="1078.14 1076.17 1078.14 1066.97 1087.35 1066.97 1087.35 1065.97 1078.14 1065.97 1078.14 1056.78 1077.14 1056.78 1077.14 1065.97 1067.94 1065.97 1067.94 1066.97 1077.14 1066.97 1077.14 1076.17 1078.14 1076.17"/><polygon class="cls-1" points="1053.39 1100.92 1053.39 1091.72 1062.6 1091.72 1062.6 1090.72 1053.39 1090.72 1053.39 1081.53 1052.39 1081.53 1052.39 1090.72 1043.19 1090.72 1043.19 1091.72 1052.39 1091.72 1052.39 1100.92 1053.39 1100.92"/><polygon class="cls-1" points="1053.39 1051.42 1053.39 1042.22 1062.6 1042.22 1062.6 1041.22 1053.39 1041.22 1053.39 1032.03 1052.39 1032.03 1052.39 1041.22 1043.19 1041.22 1043.19 1042.22 1052.39 1042.22 1052.39 1051.42 1053.39 1051.42"/><polygon class="cls-1" points="1078.14 1125.67 1078.14 1116.47 1087.35 1116.47 1087.35 1115.47 1078.14 1115.47 1078.14 1106.27 1077.14 1106.27 1077.14 1115.47 1067.94 1115.47 1067.94 1116.47 1077.14 1116.47 1077.14 1125.67 1078.14 1125.67"/><polygon class="cls-1" points="1127.64 1125.67 1127.64 1116.47 1136.84 1116.47 1136.84 1115.47 1127.64 1115.47 1127.64 1106.27 1126.64 1106.27 1126.64 1115.47 1117.44 1115.47 1117.44 1116.47 1126.64 1116.47 1126.64 1125.67 1127.64 1125.67"/><polygon class="cls-1" points="1102.89 1150.42 1102.89 1141.22 1112.09 1141.22 1112.09 1140.22 1102.89 1140.22 1102.89 1131.02 1101.89 1131.02 1101.89 1140.22 1092.69 1140.22 1092.69 1141.22 1101.89 1141.22 1101.89 1150.42 1102.89 1150.42"/><polygon class="cls-1" points="1102.89 1100.92 1102.89 1091.72 1112.09 1091.72 1112.09 1090.72 1102.89 1090.72 1102.89 1081.53 1101.89 1081.53 1101.89 1090.72 1092.69 1090.72 1092.69 1091.72 1101.89 1091.72 1101.89 1100.92 1102.89 1100.92"/><polygon class="cls-1" points="1028.64 1175.17 1028.64 1165.97 1037.85 1165.97 1037.85 1164.97 1028.64 1164.97 1028.64 1155.77 1027.64 1155.77 1027.64 1164.97 1018.44 1164.97 1018.44 1165.97 1027.64 1165.97 1027.64 1175.17 1028.64 1175.17"/><polygon class="cls-1" points="1078.14 1175.17 1078.14 1165.97 1087.35 1165.97 1087.35 1164.97 1078.14 1164.97 1078.14 1155.77 1077.14 1155.77 1077.14 1164.97 1067.94 1164.97 1067.94 1165.97 1077.14 1165.97 1077.14 1175.17 1078.14 1175.17"/><polygon class="cls-1" points="1053.39 1199.92 1053.39 1190.71 1062.6 1190.71 1062.6 1189.71 1053.39 1189.71 1053.39 1180.52 1052.39 1180.52 1052.39 1189.71 1043.19 1189.71 1043.19 1190.71 1052.39 1190.71 1052.39 1199.92 1053.39 1199.92"/><polygon class="cls-1" points="1053.39 1150.42 1053.39 1141.22 1062.6 1141.22 1062.6 1140.22 1053.39 1140.22 1053.39 1131.02 1052.39 1131.02 1052.39 1140.22 1043.19 1140.22 1043.19 1141.22 1052.39 1141.22 1052.39 1150.42 1053.39 1150.42"/><polygon class="cls-1" points="979.15 1125.67 979.15 1116.47 988.35 1116.47 988.35 1115.47 979.15 1115.47 979.15 1106.27 978.15 1106.27 978.15 1115.47 968.95 1115.47 968.95 1116.47 978.15 1116.47 978.15 1125.67 979.15 1125.67"/><polygon class="cls-1" points="1028.64 1125.67 1028.64 1116.47 1037.85 1116.47 1037.85 1115.47 1028.64 1115.47 1028.64 1106.27 1027.64 1106.27 1027.64 1115.47 1018.44 1115.47 1018.44 1116.47 1027.64 1116.47 1027.64 1125.67 1028.64 1125.67"/><polygon class="cls-1" points="1003.9 1150.42 1003.9 1141.22 1013.1 1141.22 1013.1 1140.22 1003.9 1140.22 1003.9 1131.02 1002.9 1131.02 1002.9 1140.22 993.7 1140.22 993.7 1141.22 1002.9 1141.22 1002.9 1150.42 1003.9 1150.42"/><polygon class="cls-1" points="1003.9 1100.92 1003.9 1091.72 1013.1 1091.72 1013.1 1090.72 1003.9 1090.72 1003.9 1081.53 1002.9 1081.53 1002.9 1090.72 993.7 1090.72 993.7 1091.72 1002.9 1091.72 1002.9 1100.92 1003.9 1100.92"/><polygon class="cls-1" points="1152.39 1001.93 1152.39 992.73 1161.59 992.73 1161.59 991.73 1152.39 991.73 1152.39 982.52 1151.39 982.52 1151.39 991.73 1142.19 991.73 1142.19 992.73 1151.39 992.73 1151.39 1001.93 1152.39 1001.93"/><polygon class="cls-1" points="1177.14 1026.67 1177.14 1017.48 1186.34 1017.48 1186.34 1016.48 1177.14 1016.48 1177.14 1007.27 1176.14 1007.27 1176.14 1016.48 1166.94 1016.48 1166.94 1017.48 1176.14 1017.48 1176.14 1026.67 1177.14 1026.67"/><polygon class="cls-1" points="1226.63 1026.67 1226.63 1017.48 1235.84 1017.48 1235.84 1016.48 1226.63 1016.48 1226.63 1007.27 1225.63 1007.27 1225.63 1016.48 1216.43 1016.48 1216.43 1017.48 1225.63 1017.48 1225.63 1026.67 1226.63 1026.67"/><polygon class="cls-1" points="1201.89 1051.42 1201.89 1042.22 1211.09 1042.22 1211.09 1041.22 1201.89 1041.22 1201.89 1032.03 1200.89 1032.03 1200.89 1041.22 1191.68 1041.22 1191.68 1042.22 1200.89 1042.22 1200.89 1051.42 1201.89 1051.42"/><polygon class="cls-1" points="1201.89 1001.93 1201.89 992.73 1211.09 992.73 1211.09 991.73 1201.89 991.73 1201.89 982.52 1200.89 982.52 1200.89 991.73 1191.68 991.73 1191.68 992.73 1200.89 992.73 1200.89 1001.93 1201.89 1001.93"/><polygon class="cls-1" points="1127.64 1076.17 1127.64 1066.97 1136.84 1066.97 1136.84 1065.97 1127.64 1065.97 1127.64 1056.78 1126.64 1056.78 1126.64 1065.97 1117.44 1065.97 1117.44 1066.97 1126.64 1066.97 1126.64 1076.17 1127.64 1076.17"/><polygon class="cls-1" points="1177.14 1076.17 1177.14 1066.97 1186.34 1066.97 1186.34 1065.97 1177.14 1065.97 1177.14 1056.78 1176.14 1056.78 1176.14 1065.97 1166.94 1065.97 1166.94 1066.97 1176.14 1066.97 1176.14 1076.17 1177.14 1076.17"/><polygon class="cls-1" points="1152.39 1100.92 1152.39 1091.72 1161.59 1091.72 1161.59 1090.72 1152.39 1090.72 1152.39 1081.53 1151.39 1081.53 1151.39 1090.72 1142.19 1090.72 1142.19 1091.72 1151.39 1091.72 1151.39 1100.92 1152.39 1100.92"/><polygon class="cls-1" points="1152.39 1051.42 1152.39 1042.22 1161.59 1042.22 1161.59 1041.22 1152.39 1041.22 1152.39 1032.03 1151.39 1032.03 1151.39 1041.22 1142.19 1041.22 1142.19 1042.22 1151.39 1042.22 1151.39 1051.42 1152.39 1051.42"/><polygon class="cls-1" points="1078.14 1026.67 1078.14 1017.48 1087.35 1017.48 1087.35 1016.48 1078.14 1016.48 1078.14 1007.27 1077.14 1007.27 1077.14 1016.48 1067.94 1016.48 1067.94 1017.48 1077.14 1017.48 1077.14 1026.67 1078.14 1026.67"/><polygon class="cls-1" points="1127.64 1026.67 1127.64 1017.48 1136.84 1017.48 1136.84 1016.48 1127.64 1016.48 1127.64 1007.27 1126.64 1007.27 1126.64 1016.48 1117.44 1016.48 1117.44 1017.48 1126.64 1017.48 1126.64 1026.67 1127.64 1026.67"/><polygon class="cls-1" points="1102.89 1051.42 1102.89 1042.22 1112.09 1042.22 1112.09 1041.22 1102.89 1041.22 1102.89 1032.03 1101.89 1032.03 1101.89 1041.22 1092.69 1041.22 1092.69 1042.22 1101.89 1042.22 1101.89 1051.42 1102.89 1051.42"/><polygon class="cls-1" points="1300.88 1051.42 1300.88 1042.22 1310.08 1042.22 1310.08 1041.22 1300.88 1041.22 1300.88 1032.03 1299.88 1032.03 1299.88 1041.22 1290.68 1041.22 1290.68 1042.22 1299.88 1042.22 1299.88 1051.42 1300.88 1051.42"/><polygon class="cls-1" points="1350.38 1051.42 1350.38 1042.22 1359.58 1042.22 1359.58 1041.22 1350.38 1041.22 1350.38 1032.03 1349.38 1032.03 1349.38 1041.22 1340.18 1041.22 1340.18 1042.22 1349.38 1042.22 1349.38 1051.42 1350.38 1051.42"/><polygon class="cls-1" points="1325.63 1076.17 1325.63 1066.97 1334.83 1066.97 1334.83 1065.97 1325.63 1065.97 1325.63 1056.78 1324.63 1056.78 1324.63 1065.97 1315.43 1065.97 1315.43 1066.97 1324.63 1066.97 1324.63 1076.17 1325.63 1076.17"/><polygon class="cls-1" points="1325.63 1026.67 1325.63 1017.48 1334.83 1017.48 1334.83 1016.48 1325.63 1016.48 1325.63 1007.27 1324.63 1007.27 1324.63 1016.48 1315.43 1016.48 1315.43 1017.48 1324.63 1017.48 1324.63 1026.67 1325.63 1026.67"/><polygon class="cls-1" points="1251.38 1001.93 1251.38 992.73 1260.59 992.73 1260.59 991.73 1251.38 991.73 1251.38 982.52 1250.38 982.52 1250.38 991.73 1241.18 991.73 1241.18 992.73 1250.38 992.73 1250.38 1001.93 1251.38 1001.93"/><polygon class="cls-1" points="1276.13 1026.67 1276.13 1017.48 1285.34 1017.48 1285.34 1016.48 1276.13 1016.48 1276.13 1007.27 1275.13 1007.27 1275.13 1016.48 1265.93 1016.48 1265.93 1017.48 1275.13 1017.48 1275.13 1026.67 1276.13 1026.67"/><polygon class="cls-1" points="1399.88 1150.42 1399.88 1141.22 1409.08 1141.22 1409.08 1140.22 1399.88 1140.22 1399.88 1131.02 1398.88 1131.02 1398.88 1140.22 1389.67 1140.22 1389.67 1141.22 1398.88 1141.22 1398.88 1150.42 1399.88 1150.42"/><polygon class="cls-1" points="1424.62 1175.17 1424.62 1165.97 1433.83 1165.97 1433.83 1164.97 1424.62 1164.97 1424.62 1155.77 1423.62 1155.77 1423.62 1164.97 1414.42 1164.97 1414.42 1165.97 1423.62 1165.97 1423.62 1175.17 1424.62 1175.17"/><polygon class="cls-1" points="1424.62 1125.67 1424.62 1116.47 1433.83 1116.47 1433.83 1115.47 1424.62 1115.47 1424.62 1106.27 1423.62 1106.27 1423.62 1115.47 1414.42 1115.47 1414.42 1116.47 1423.62 1116.47 1423.62 1125.67 1424.62 1125.67"/><polygon class="cls-1" points="1350.38 1100.92 1350.38 1091.72 1359.58 1091.72 1359.58 1090.72 1350.38 1090.72 1350.38 1081.53 1349.38 1081.53 1349.38 1090.72 1340.18 1090.72 1340.18 1091.72 1349.38 1091.72 1349.38 1100.92 1350.38 1100.92"/><polygon class="cls-1" points="1399.88 1100.92 1399.88 1091.72 1409.08 1091.72 1409.08 1090.72 1399.88 1090.72 1399.88 1081.53 1398.88 1081.53 1398.88 1090.72 1389.67 1090.72 1389.67 1091.72 1398.88 1091.72 1398.88 1100.92 1399.88 1100.92"/><polygon class="cls-1" points="1375.13 1125.67 1375.13 1116.47 1384.33 1116.47 1384.33 1115.47 1375.13 1115.47 1375.13 1106.27 1374.13 1106.27 1374.13 1115.47 1364.93 1115.47 1364.93 1116.47 1374.13 1116.47 1374.13 1125.67 1375.13 1125.67"/><polygon class="cls-1" points="1375.13 1076.17 1375.13 1066.97 1384.33 1066.97 1384.33 1065.97 1375.13 1065.97 1375.13 1056.78 1374.13 1056.78 1374.13 1065.97 1364.93 1065.97 1364.93 1066.97 1374.13 1066.97 1374.13 1076.17 1375.13 1076.17"/><polygon class="cls-1" points="1226.63 1076.17 1226.63 1066.97 1235.84 1066.97 1235.84 1065.97 1226.63 1065.97 1226.63 1056.78 1225.63 1056.78 1225.63 1065.97 1216.43 1065.97 1216.43 1066.97 1225.63 1066.97 1225.63 1076.17 1226.63 1076.17"/><polygon class="cls-1" points="1276.13 1076.17 1276.13 1066.97 1285.34 1066.97 1285.34 1065.97 1276.13 1065.97 1276.13 1056.78 1275.13 1056.78 1275.13 1065.97 1265.93 1065.97 1265.93 1066.97 1275.13 1066.97 1275.13 1076.17 1276.13 1076.17"/><polygon class="cls-1" points="1251.38 1100.92 1251.38 1091.72 1260.59 1091.72 1260.59 1090.72 1251.38 1090.72 1251.38 1081.53 1250.38 1081.53 1250.38 1090.72 1241.18 1090.72 1241.18 1091.72 1250.38 1091.72 1250.38 1100.92 1251.38 1100.92"/><polygon class="cls-1" points="1251.38 1051.42 1251.38 1042.22 1260.59 1042.22 1260.59 1041.22 1251.38 1041.22 1251.38 1032.03 1250.38 1032.03 1250.38 1041.22 1241.18 1041.22 1241.18 1042.22 1250.38 1042.22 1250.38 1051.42 1251.38 1051.42"/><polygon class="cls-1" points="1276.13 1125.67 1276.13 1116.47 1285.34 1116.47 1285.34 1115.47 1276.13 1115.47 1276.13 1106.27 1275.13 1106.27 1275.13 1115.47 1265.93 1115.47 1265.93 1116.47 1275.13 1116.47 1275.13 1125.67 1276.13 1125.67"/><polygon class="cls-1" points="1325.63 1125.67 1325.63 1116.47 1334.83 1116.47 1334.83 1115.47 1325.63 1115.47 1325.63 1106.27 1324.63 1106.27 1324.63 1115.47 1315.43 1115.47 1315.43 1116.47 1324.63 1116.47 1324.63 1125.67 1325.63 1125.67"/><polygon class="cls-1" points="1300.88 1150.42 1300.88 1141.22 1310.08 1141.22 1310.08 1140.22 1300.88 1140.22 1300.88 1131.02 1299.88 1131.02 1299.88 1140.22 1290.68 1140.22 1290.68 1141.22 1299.88 1141.22 1299.88 1150.42 1300.88 1150.42"/><polygon class="cls-1" points="1300.88 1100.92 1300.88 1091.72 1310.08 1091.72 1310.08 1090.72 1300.88 1090.72 1300.88 1081.53 1299.88 1081.53 1299.88 1090.72 1290.68 1090.72 1290.68 1091.72 1299.88 1091.72 1299.88 1100.92 1300.88 1100.92"/><polygon class="cls-1" points="1226.63 1175.17 1226.63 1165.97 1235.84 1165.97 1235.84 1164.97 1226.63 1164.97 1226.63 1155.77 1225.63 1155.77 1225.63 1164.97 1216.43 1164.97 1216.43 1165.97 1225.63 1165.97 1225.63 1175.17 1226.63 1175.17"/><polygon class="cls-1" points="1276.13 1175.17 1276.13 1165.97 1285.34 1165.97 1285.34 1164.97 1276.13 1164.97 1276.13 1155.77 1275.13 1155.77 1275.13 1164.97 1265.93 1164.97 1265.93 1165.97 1275.13 1165.97 1275.13 1175.17 1276.13 1175.17"/><polygon class="cls-1" points="1251.38 1199.92 1251.38 1190.71 1260.59 1190.71 1260.59 1189.71 1251.38 1189.71 1251.38 1180.52 1250.38 1180.52 1250.38 1189.71 1241.18 1189.71 1241.18 1190.71 1250.38 1190.71 1250.38 1199.92 1251.38 1199.92"/><polygon class="cls-1" points="1251.38 1150.42 1251.38 1141.22 1260.59 1141.22 1260.59 1140.22 1251.38 1140.22 1251.38 1131.02 1250.38 1131.02 1250.38 1140.22 1241.18 1140.22 1241.18 1141.22 1250.38 1141.22 1250.38 1150.42 1251.38 1150.42"/><polygon class="cls-1" points="1177.14 1125.67 1177.14 1116.47 1186.34 1116.47 1186.34 1115.47 1177.14 1115.47 1177.14 1106.27 1176.14 1106.27 1176.14 1115.47 1166.94 1115.47 1166.94 1116.47 1176.14 1116.47 1176.14 1125.67 1177.14 1125.67"/><polygon class="cls-1" points="1226.63 1125.67 1226.63 1116.47 1235.84 1116.47 1235.84 1115.47 1226.63 1115.47 1226.63 1106.27 1225.63 1106.27 1225.63 1115.47 1216.43 1115.47 1216.43 1116.47 1225.63 1116.47 1225.63 1125.67 1226.63 1125.67"/><polygon class="cls-1" points="1201.89 1150.42 1201.89 1141.22 1211.09 1141.22 1211.09 1140.22 1201.89 1140.22 1201.89 1131.02 1200.89 1131.02 1200.89 1140.22 1191.68 1140.22 1191.68 1141.22 1200.89 1141.22 1200.89 1150.42 1201.89 1150.42"/><polygon class="cls-1" points="1201.89 1100.92 1201.89 1091.72 1211.09 1091.72 1211.09 1090.72 1201.89 1090.72 1201.89 1081.53 1200.89 1081.53 1200.89 1090.72 1191.68 1090.72 1191.68 1091.72 1200.89 1091.72 1200.89 1100.92 1201.89 1100.92"/><polygon class="cls-1" points="1325.63 1175.17 1325.63 1165.97 1334.83 1165.97 1334.83 1164.97 1325.63 1164.97 1325.63 1155.77 1324.63 1155.77 1324.63 1164.97 1315.43 1164.97 1315.43 1165.97 1324.63 1165.97 1324.63 1175.17 1325.63 1175.17"/><polygon class="cls-1" points="1375.13 1175.17 1375.13 1165.97 1384.33 1165.97 1384.33 1164.97 1375.13 1164.97 1375.13 1155.77 1374.13 1155.77 1374.13 1164.97 1364.93 1164.97 1364.93 1165.97 1374.13 1165.97 1374.13 1175.17 1375.13 1175.17"/><polygon class="cls-1" points="1350.38 1199.92 1350.38 1190.71 1359.58 1190.71 1359.58 1189.71 1350.38 1189.71 1350.38 1180.52 1349.38 1180.52 1349.38 1189.71 1340.18 1189.71 1340.18 1190.71 1349.38 1190.71 1349.38 1199.92 1350.38 1199.92"/><polygon class="cls-1" points="1350.38 1150.42 1350.38 1141.22 1359.58 1141.22 1359.58 1140.22 1350.38 1140.22 1350.38 1131.02 1349.38 1131.02 1349.38 1140.22 1340.18 1140.22 1340.18 1141.22 1349.38 1141.22 1349.38 1150.42 1350.38 1150.42"/><polygon class="cls-1" points="1375.13 1224.66 1375.13 1215.46 1384.33 1215.46 1384.33 1214.46 1375.13 1214.46 1375.13 1205.27 1374.13 1205.27 1374.13 1214.46 1364.93 1214.46 1364.93 1215.46 1374.13 1215.46 1374.13 1224.66 1375.13 1224.66"/><polygon class="cls-1" points="1424.62 1224.66 1424.62 1215.46 1433.83 1215.46 1433.83 1214.46 1424.62 1214.46 1424.62 1205.27 1423.62 1205.27 1423.62 1214.46 1414.42 1214.46 1414.42 1215.46 1423.62 1215.46 1423.62 1224.66 1424.62 1224.66"/><polygon class="cls-1" points="1399.88 1249.41 1399.88 1240.21 1409.08 1240.21 1409.08 1239.21 1399.88 1239.21 1399.88 1230.02 1398.88 1230.02 1398.88 1239.21 1389.67 1239.21 1389.67 1240.21 1398.88 1240.21 1398.88 1249.41 1399.88 1249.41"/><polygon class="cls-1" points="1399.88 1199.92 1399.88 1190.71 1409.08 1190.71 1409.08 1189.71 1399.88 1189.71 1399.88 1180.52 1398.88 1180.52 1398.88 1189.71 1389.67 1189.71 1389.67 1190.71 1398.88 1190.71 1398.88 1199.92 1399.88 1199.92"/><polygon class="cls-1" points="1325.63 1274.16 1325.63 1264.96 1334.83 1264.96 1334.83 1263.96 1325.63 1263.96 1325.63 1254.77 1324.63 1254.77 1324.63 1263.96 1315.43 1263.96 1315.43 1264.96 1324.63 1264.96 1324.63 1274.16 1325.63 1274.16"/><polygon class="cls-1" points="1375.13 1274.16 1375.13 1264.96 1384.33 1264.96 1384.33 1263.96 1375.13 1263.96 1375.13 1254.77 1374.13 1254.77 1374.13 1263.96 1364.93 1263.96 1364.93 1264.96 1374.13 1264.96 1374.13 1274.16 1375.13 1274.16"/><polygon class="cls-1" points="1350.38 1298.91 1350.38 1289.71 1359.58 1289.71 1359.58 1288.71 1350.38 1288.71 1350.38 1279.52 1349.38 1279.52 1349.38 1288.71 1340.18 1288.71 1340.18 1289.71 1349.38 1289.71 1349.38 1298.91 1350.38 1298.91"/><polygon class="cls-1" points="1350.38 1249.41 1350.38 1240.21 1359.58 1240.21 1359.58 1239.21 1350.38 1239.21 1350.38 1230.02 1349.38 1230.02 1349.38 1239.21 1340.18 1239.21 1340.18 1240.21 1349.38 1240.21 1349.38 1249.41 1350.38 1249.41"/><polygon class="cls-1" points="1276.13 1224.66 1276.13 1215.46 1285.34 1215.46 1285.34 1214.46 1276.13 1214.46 1276.13 1205.27 1275.13 1205.27 1275.13 1214.46 1265.93 1214.46 1265.93 1215.46 1275.13 1215.46 1275.13 1224.66 1276.13 1224.66"/><polygon class="cls-1" points="1325.63 1224.66 1325.63 1215.46 1334.83 1215.46 1334.83 1214.46 1325.63 1214.46 1325.63 1205.27 1324.63 1205.27 1324.63 1214.46 1315.43 1214.46 1315.43 1215.46 1324.63 1215.46 1324.63 1224.66 1325.63 1224.66"/><polygon class="cls-1" points="1300.88 1249.41 1300.88 1240.21 1310.08 1240.21 1310.08 1239.21 1300.88 1239.21 1300.88 1230.02 1299.88 1230.02 1299.88 1239.21 1290.68 1239.21 1290.68 1240.21 1299.88 1240.21 1299.88 1249.41 1300.88 1249.41"/><polygon class="cls-1" points="1300.88 1199.92 1300.88 1190.71 1310.08 1190.71 1310.08 1189.71 1300.88 1189.71 1300.88 1180.52 1299.88 1180.52 1299.88 1189.71 1290.68 1189.71 1290.68 1190.71 1299.88 1190.71 1299.88 1199.92 1300.88 1199.92"/><polygon class="cls-1" points="1424.62 1274.16 1424.62 1264.96 1433.83 1264.96 1433.83 1263.96 1424.62 1263.96 1424.62 1254.77 1423.62 1254.77 1423.62 1263.96 1414.42 1263.96 1414.42 1264.96 1423.62 1264.96 1423.62 1274.16 1424.62 1274.16"/><polygon class="cls-1" points="1399.88 1298.91 1399.88 1289.71 1409.08 1289.71 1409.08 1288.71 1399.88 1288.71 1399.88 1279.52 1398.88 1279.52 1398.88 1288.71 1389.67 1288.71 1389.67 1289.71 1398.88 1289.71 1398.88 1298.91 1399.88 1298.91"/><polygon class="cls-1" points="1127.64 1175.17 1127.64 1165.97 1136.84 1165.97 1136.84 1164.97 1127.64 1164.97 1127.64 1155.77 1126.64 1155.77 1126.64 1164.97 1117.44 1164.97 1117.44 1165.97 1126.64 1165.97 1126.64 1175.17 1127.64 1175.17"/><polygon class="cls-1" points="1177.14 1175.17 1177.14 1165.97 1186.34 1165.97 1186.34 1164.97 1177.14 1164.97 1177.14 1155.77 1176.14 1155.77 1176.14 1164.97 1166.94 1164.97 1166.94 1165.97 1176.14 1165.97 1176.14 1175.17 1177.14 1175.17"/><polygon class="cls-1" points="1152.39 1199.92 1152.39 1190.71 1161.59 1190.71 1161.59 1189.71 1152.39 1189.71 1152.39 1180.52 1151.39 1180.52 1151.39 1189.71 1142.19 1189.71 1142.19 1190.71 1151.39 1190.71 1151.39 1199.92 1152.39 1199.92"/><polygon class="cls-1" points="1152.39 1150.42 1152.39 1141.22 1161.59 1141.22 1161.59 1140.22 1152.39 1140.22 1152.39 1131.02 1151.39 1131.02 1151.39 1140.22 1142.19 1140.22 1142.19 1141.22 1151.39 1141.22 1151.39 1150.42 1152.39 1150.42"/><polygon class="cls-1" points="1177.14 1224.66 1177.14 1215.46 1186.34 1215.46 1186.34 1214.46 1177.14 1214.46 1177.14 1205.27 1176.14 1205.27 1176.14 1214.46 1166.94 1214.46 1166.94 1215.46 1176.14 1215.46 1176.14 1224.66 1177.14 1224.66"/><polygon class="cls-1" points="1226.63 1224.66 1226.63 1215.46 1235.84 1215.46 1235.84 1214.46 1226.63 1214.46 1226.63 1205.27 1225.63 1205.27 1225.63 1214.46 1216.43 1214.46 1216.43 1215.46 1225.63 1215.46 1225.63 1224.66 1226.63 1224.66"/><polygon class="cls-1" points="1201.89 1249.41 1201.89 1240.21 1211.09 1240.21 1211.09 1239.21 1201.89 1239.21 1201.89 1230.02 1200.89 1230.02 1200.89 1239.21 1191.68 1239.21 1191.68 1240.21 1200.89 1240.21 1200.89 1249.41 1201.89 1249.41"/><polygon class="cls-1" points="1201.89 1199.92 1201.89 1190.71 1211.09 1190.71 1211.09 1189.71 1201.89 1189.71 1201.89 1180.52 1200.89 1180.52 1200.89 1189.71 1191.68 1189.71 1191.68 1190.71 1200.89 1190.71 1200.89 1199.92 1201.89 1199.92"/><polygon class="cls-1" points="1127.64 1274.16 1127.64 1264.96 1136.84 1264.96 1136.84 1263.96 1127.64 1263.96 1127.64 1254.77 1126.64 1254.77 1126.64 1263.96 1117.44 1263.96 1117.44 1264.96 1126.64 1264.96 1126.64 1274.16 1127.64 1274.16"/><polygon class="cls-1" points="1177.14 1274.16 1177.14 1264.96 1186.34 1264.96 1186.34 1263.96 1177.14 1263.96 1177.14 1254.77 1176.14 1254.77 1176.14 1263.96 1166.94 1263.96 1166.94 1264.96 1176.14 1264.96 1176.14 1274.16 1177.14 1274.16"/><polygon class="cls-1" points="1152.39 1298.91 1152.39 1289.71 1161.59 1289.71 1161.59 1288.71 1152.39 1288.71 1152.39 1279.52 1151.39 1279.52 1151.39 1288.71 1142.19 1288.71 1142.19 1289.71 1151.39 1289.71 1151.39 1298.91 1152.39 1298.91"/><polygon class="cls-1" points="1152.39 1249.41 1152.39 1240.21 1161.59 1240.21 1161.59 1239.21 1152.39 1239.21 1152.39 1230.02 1151.39 1230.02 1151.39 1239.21 1142.19 1239.21 1142.19 1240.21 1151.39 1240.21 1151.39 1249.41 1152.39 1249.41"/><polygon class="cls-1" points="1078.14 1224.66 1078.14 1215.46 1087.35 1215.46 1087.35 1214.46 1078.14 1214.46 1078.14 1205.27 1077.14 1205.27 1077.14 1214.46 1067.94 1214.46 1067.94 1215.46 1077.14 1215.46 1077.14 1224.66 1078.14 1224.66"/><polygon class="cls-1" points="1127.64 1224.66 1127.64 1215.46 1136.84 1215.46 1136.84 1214.46 1127.64 1214.46 1127.64 1205.27 1126.64 1205.27 1126.64 1214.46 1117.44 1214.46 1117.44 1215.46 1126.64 1215.46 1126.64 1224.66 1127.64 1224.66"/><polygon class="cls-1" points="1102.89 1249.41 1102.89 1240.21 1112.09 1240.21 1112.09 1239.21 1102.89 1239.21 1102.89 1230.02 1101.89 1230.02 1101.89 1239.21 1092.69 1239.21 1092.69 1240.21 1101.89 1240.21 1101.89 1249.41 1102.89 1249.41"/><polygon class="cls-1" points="1102.89 1199.92 1102.89 1190.71 1112.09 1190.71 1112.09 1189.71 1102.89 1189.71 1102.89 1180.52 1101.89 1180.52 1101.89 1189.71 1092.69 1189.71 1092.69 1190.71 1101.89 1190.71 1101.89 1199.92 1102.89 1199.92"/><polygon class="cls-1" points="1226.63 1274.16 1226.63 1264.96 1235.84 1264.96 1235.84 1263.96 1226.63 1263.96 1226.63 1254.77 1225.63 1254.77 1225.63 1263.96 1216.43 1263.96 1216.43 1264.96 1225.63 1264.96 1225.63 1274.16 1226.63 1274.16"/><polygon class="cls-1" points="1276.13 1274.16 1276.13 1264.96 1285.34 1264.96 1285.34 1263.96 1276.13 1263.96 1276.13 1254.77 1275.13 1254.77 1275.13 1263.96 1265.93 1263.96 1265.93 1264.96 1275.13 1264.96 1275.13 1274.16 1276.13 1274.16"/><polygon class="cls-1" points="1251.38 1298.91 1251.38 1289.71 1260.59 1289.71 1260.59 1288.71 1251.38 1288.71 1251.38 1279.52 1250.38 1279.52 1250.38 1288.71 1241.18 1288.71 1241.18 1289.71 1250.38 1289.71 1250.38 1298.91 1251.38 1298.91"/><polygon class="cls-1" points="1251.38 1249.41 1251.38 1240.21 1260.59 1240.21 1260.59 1239.21 1251.38 1239.21 1251.38 1230.02 1250.38 1230.02 1250.38 1239.21 1241.18 1239.21 1241.18 1240.21 1250.38 1240.21 1250.38 1249.41 1251.38 1249.41"/><polygon class="cls-1" points="1300.88 1298.91 1300.88 1289.71 1310.08 1289.71 1310.08 1288.71 1300.88 1288.71 1300.88 1279.52 1299.88 1279.52 1299.88 1288.71 1290.68 1288.71 1290.68 1289.71 1299.88 1289.71 1299.88 1298.91 1300.88 1298.91"/><polygon class="cls-1" points="1201.89 1298.91 1201.89 1289.71 1211.09 1289.71 1211.09 1288.71 1201.89 1288.71 1201.89 1279.52 1200.89 1279.52 1200.89 1288.71 1191.68 1288.71 1191.68 1289.71 1200.89 1289.71 1200.89 1298.91 1201.89 1298.91"/><polygon class="cls-1" points="1028.64 1274.16 1028.64 1264.96 1037.85 1264.96 1037.85 1263.96 1028.64 1263.96 1028.64 1254.77 1027.64 1254.77 1027.64 1263.96 1018.44 1263.96 1018.44 1264.96 1027.64 1264.96 1027.64 1274.16 1028.64 1274.16"/><polygon class="cls-1" points="1078.14 1274.16 1078.14 1264.96 1087.35 1264.96 1087.35 1263.96 1078.14 1263.96 1078.14 1254.77 1077.14 1254.77 1077.14 1263.96 1067.94 1263.96 1067.94 1264.96 1077.14 1264.96 1077.14 1274.16 1078.14 1274.16"/><polygon class="cls-1" points="1053.39 1298.91 1053.39 1289.71 1062.6 1289.71 1062.6 1288.71 1053.39 1288.71 1053.39 1279.52 1052.39 1279.52 1052.39 1288.71 1043.19 1288.71 1043.19 1289.71 1052.39 1289.71 1052.39 1298.91 1053.39 1298.91"/><polygon class="cls-1" points="1053.39 1249.41 1053.39 1240.21 1062.6 1240.21 1062.6 1239.21 1053.39 1239.21 1053.39 1230.02 1052.39 1230.02 1052.39 1239.21 1043.19 1239.21 1043.19 1240.21 1052.39 1240.21 1052.39 1249.41 1053.39 1249.41"/><polygon class="cls-1" points="1102.89 1298.91 1102.89 1289.71 1112.09 1289.71 1112.09 1288.71 1102.89 1288.71 1102.89 1279.52 1101.89 1279.52 1101.89 1288.71 1092.69 1288.71 1092.69 1289.71 1101.89 1289.71 1101.89 1298.91 1102.89 1298.91"/><polygon class="cls-1" points="1003.9 1298.91 1003.9 1289.71 1013.1 1289.71 1013.1 1288.71 1003.9 1288.71 1003.9 1279.52 1002.9 1279.52 1002.9 1288.71 993.7 1288.71 993.7 1289.71 1002.9 1289.71 1002.9 1298.91 1003.9 1298.91"/></g><path class="cls-2" d="M406.86,1349.75a279.72,279.72,0,0,1-27.94-76.67C353.47,1148.69,345,1015.76,429.49,931c43.91-44,93.93-65.19,183.39-95.8C815.62,765.84,906,630.41,1070.43,551.6c117-56.08,386.18-126,548.84-35.21,148.9,83.09,162.43,356.05,88.63,675.56a571.05,571.05,0,0,1-89.78,200.32h0a608.16,608.16,0,0,1-240.35,200.93h0a608.12,608.12,0,0,1-235.13,56.46l-23.21.83a927.32,927.32,0,0,1-276.69-32h0A927.43,927.43,0,0,1,604,1515.75l-55.64-33.87-43.23-27.14a282.14,282.14,0,0,1-98.29-105Z"/><path class="cls-2" d="M644.86,864.86C835.78,797,914.72,674.11,1069,600.65c118.2-55.8,378.47-111.77,531.34-19.73,131.8,79.36,142.47,321.07,80.39,608.5-15.55,72-47,139.56-90.43,198.82-6.36,8.67-14.44,18.78-21.2,27.09-42.61,52.4-95.62,94.75-153.41,128.85h0a532.53,532.53,0,0,1-57.77,29h0c-70.76,30.86-147,50.62-224.48,50.36-.49,0-21.62.68-22.11.67-82.53-.68-165-5.88-245.11-25.57-5.77-1.42-12.79-3.13-18.53-4.69h0c-4-1.08-8.79-2.33-12.74-3.46-61.18-17.65-133.25-44.59-189.12-75-9-4.89-18-9.69-26.81-14.78-1.37-.22-52.18-30.61-53.52-31-1-.26-40.56-24.57-41.54-25-41-19.08-70-57.2-91.58-96.8h0c-13.22-21.62-21-46.14-26.16-70.95-15.58-74.91-23.48-153.41-4.75-220.59,9.84-35.66,26.92-68.29,54.28-95.55C501.89,914.83,553.09,897.49,644.86,864.86Z"/><path class="cls-2" d="M676.85,894.53C856,828.41,923.27,717.36,1067.61,649.69c119.21-55.88,370.53-97.87,513.83-4.24,114.86,75,123.37,286.34,72.16,541.45-14.47,72.1-46.72,139.1-91.07,197.31-5.71,7.48-14.68,18-20.67,25.21-40.9,49.27-93.2,86.67-148.33,117.95h0c-17.64,10-35.45,21.19-55.42,25.7h0c-71.24,16.09-140.21,44.71-213.83,44.27-1,0-20,.53-21,.52-78.39-.89-156.81-5.77-232.95-24.21-5.06-1.22-12.61-3-17.64-4.32h0c-3.47-.95-8.67-2.18-12.13-3.18-53.52-15.44-131.48-41.47-180.74-67.4-8.54-4.5-16.6-10.16-25.75-13.25-2.62-.88-48.71-27.33-51.39-28-2.1-.53-37.9-22-39.87-22.91C504.87,1417.11,478,1382.28,458,1346h0a237.13,237.13,0,0,1-24.39-65.22c-14.58-68.75-20.83-141-2.42-202.78,9.69-32.5,25.63-62.41,50.91-87.43C530.38,942.72,582.78,929.24,676.85,894.53Z"/><path class="cls-2" d="M708.83,924.19C876.34,860.09,932,760.93,1066.2,698.74,1186.53,643,1428.58,614.35,1562.53,710c98.15,70.06,105.12,251.83,63.93,474.39-13.37,72.24-46.4,138.58-91.73,195.81-5,6.32-14.92,17.21-20.12,23.33-39.21,46.15-90.74,78.55-143.25,107h0c-16.8,9.12-34.17,18.47-53.08,22.43h0c-67.46,14.15-133.46,38.8-203.19,38.18-1.48,0-18.43.38-19.9.36-74.24-1.09-148.6-5.64-220.8-22.84-4.34-1-12.43-2.78-16.73-4h0c-3-.81-8.56-2-11.52-2.89-45.88-13.24-129.79-38.23-172.38-59.77-8.12-4.11-16-8.93-24.68-11.71-4-1.26-45.25-24.07-49.27-25.08-3.15-.79-35.22-19.45-38.18-20.8-34.84-15.86-58.24-48.26-78.14-80.41h0a216,216,0,0,1-22.61-59.51c-13.57-62.58-18.28-128.59-.09-185,9.48-29.36,24.35-56.52,47.54-79.31C558.89,970.63,612.49,961.06,708.83,924.19Z"/><path class="cls-2" d="M740.82,953.85c155.91-61.86,199.87-149.29,324-206.07,121.47-55.56,354.09-71.42,478.82,26.72,81.77,64.33,87.76,217.55,55.7,407.35-12.23,72.41-46,138-92.38,194.29-4.27,5.19-15.18,16.41-19.58,21.46-37.54,43.06-88.21,70.4-138.16,96.16h0c-16,8.24-32.87,15.75-50.73,19.18h0c-63.74,12.22-126.72,32.88-192.55,32.07-2,0-16.83.25-18.8.21-70.1-1.29-140.38-5.52-208.64-21.47-3.62-.84-12.25-2.6-15.84-3.58h0c-2.48-.67-8.44-1.9-10.91-2.61-38.23-11-128.18-34.83-164-52.13-7.71-3.73-15.41-7.71-23.62-10.17-5.3-1.59-41.79-20.8-47.15-22.15-4.19-1.06-32.54-16.92-36.49-18.69-31.74-14.25-53.35-43.23-71.43-72.22h0c-10.25-16.41-16.62-34.94-20.83-53.78-12.56-56.42-15.75-116.2,2.24-167.15,9.26-26.21,23.08-50.61,44.17-71.19C587.42,998.55,642.22,993,740.82,953.85Z"/><path class="cls-2" d="M772.8,983.52c144.4-59.43,176.64-135.27,290.58-186.69C1186,741.48,1409.19,737.67,1524.7,839c65.81,57.75,71.27,183.45,47.46,340.3-11,72.62-45.6,137.35-93,192.78-3.5,4.09-15.46,15.59-19,19.58-35.89,40-85.61,62.2-133.09,85.26h0a182,182,0,0,1-48.38,15.92h0c-60.08,10.31-120,27-181.9,26-2.47,0-15.24.11-17.7.06-66-1.5-132.16-5.41-196.49-20.11-2.9-.66-12.07-2.42-14.94-3.21h0c-2-.54-8.32-1.75-10.29-2.32-30.59-8.82-126.7-31.26-155.63-44.5a153.26,153.26,0,0,0-22.57-8.64c-6.65-1.85-38.32-17.53-45-19.22-5.25-1.32-29.86-14.38-34.82-16.57-28.65-12.64-48.44-38.19-64.71-64h0c-9.25-14.67-15.15-31.2-19.05-48.06-11.55-50.25-13.24-103.8,4.58-149.33,9-23.07,21.82-44.69,40.79-63.07C616,1026.49,672,1025,772.8,983.52Z"/><path class="cls-2" d="M804.78,1013.18C937.75,956.39,958.23,892,1062,845.87c123.81-55.06,337.89-47.88,443.81,57.69,50.45,50.28,55.68,149.53,39.24,273.24-9.69,72.9-45.13,136.66-93.68,191.28-2.67,3-15.77,14.75-18.5,17.7-34.26,37-82.91,54-128,74.36h0c-14.42,6.52-30.21,10.3-46,12.66h0c-56.5,8.42-113.21,21.07-171.26,19.89-3-.06-13.64,0-16.59-.1-61.83-1.7-123.94-5.28-184.33-18.74-2.18-.48-11.89-2.25-14-2.84h0c-1.48-.4-8.19-1.61-9.67-2-22.95-6.61-125.33-27.44-147.26-36.86a142.94,142.94,0,0,0-21.51-7.1c-8-2-34.85-14.26-42.89-16.29-6.3-1.58-27.16-11.88-33.13-14.46-25.56-11-43.54-33.15-58-55.83h0c-8.26-12.94-13.69-27.47-17.27-42.35-10.55-44.08-10.76-91.41,6.91-131.52,8.77-19.91,20.58-38.75,37.42-54.94C644.54,1054.46,701.83,1057.16,804.78,1013.18Z"/><path class="cls-2" d="M836.77,1042.85c121.61-54,130.27-107,223.79-147.93,125-54.69,331.16-38.09,426.31,73.17,35.84,41.9,41,115.74,31,206.19-8.07,73.22-44.61,135.89-94.32,189.77-1.82,2-16.11,13.89-18,15.82-32.67,33.94-80.1,45.68-122.92,63.46h0c-13.7,5.69-28.84,7.58-43.7,9.41h0c-53,6.53-106.44,15.15-160.61,13.79-3.45-.09-12-.14-15.49-.25-57.71-1.91-115.71-5.16-172.18-17.38-1.45-.31-11.71-2.07-13.14-2.46h0c-1-.27-8.08-1.48-9.07-1.76-15.29-4.41-124.1-23.34-138.88-29.23-6.56-2.61-13.55-4-20.45-5.57-9.43-2.13-31.39-11-40.77-13.35-7.34-1.85-24.45-9.41-31.44-12.35-22.49-9.42-38.64-28.11-51.29-47.64h0a122.13,122.13,0,0,1-15.49-36.62c-9.54-37.92-8.32-79.05,9.24-113.71,8.51-16.78,19.35-32.81,34.05-46.82C673.16,1082.47,731.73,1089.48,836.77,1042.85Z"/><path class="cls-2" d="M868.75,1072.51c110.34-51,107.12-92.8,190.4-128.54,126.31-54.21,327.82-30.77,408.8,88.64,22.26,32.81,27.17,82.07,22.78,139.14-5.67,73.63-44,135.09-95,188.27-.93,1-16.47,13-17.42,13.94-31.11,31-75,45.28-117.84,52.56h0c-13.7,2.33-27.43,4.84-41.35,6.15h0c-49.63,4.66-99.68,9.24-150,7.69-3.93-.12-10.45-.25-14.38-.4-53.58-2.11-107.47-5-160-16-.73-.15-11.53-1.9-12.25-2.09h0c-.5-.14-8-1.33-8.45-1.48-7.65-2.2-123-18.87-130.51-21.58-6.21-2.26-12.91-2.78-19.39-4-10.85-2.11-27.93-7.72-38.64-10.42-8.4-2.12-21.72-7-29.76-10.24-19.42-7.82-33.74-23.07-44.58-39.44h0a106,106,0,0,1-13.71-30.91c-8.53-31.75-6-66.71,11.57-95.89a179.94,179.94,0,0,1,30.68-38.7C701.84,1110.56,761.74,1122,868.75,1072.51Z"/><path class="cls-2" d="M674.59,1364a420,420,0,0,0,82.93,18.11l122.13,13.95,19.19,2.91a1428,1428,0,0,0,339.48,10.71h0a228.3,228.3,0,0,0,112.75-41.66L1368,1356c60.27-43.06,96.51-112.69,95.62-186.76-.29-23.84-4.41-48.37-14.54-72.09-56.29-131.75-263.65-157.68-391.3-104.13-73,30.63-57.85,61.21-157,109.16-108.84,52.64-170.1,36.58-234.72,96.76a226.49,226.49,0,0,0-27.31,30.58c-34.13,45.89-16.53,111.64,35.89,134.52Z"/><polygon class="cls-1" points="1250.39 1329.83 1250.39 1339.03 1241.18 1339.03 1241.18 1340.03 1250.39 1340.03 1250.39 1349.22 1251.39 1349.22 1251.39 1340.03 1260.59 1340.03 1260.59 1339.03 1251.39 1339.03 1251.39 1329.83 1250.39 1329.83"/><polygon class="cls-1" points="1200.89 1329.83 1200.89 1339.03 1191.69 1339.03 1191.69 1340.03 1200.89 1340.03 1200.89 1349.22 1201.89 1349.22 1201.89 1340.03 1211.09 1340.03 1211.09 1339.03 1201.89 1339.03 1201.89 1329.83 1200.89 1329.83"/><polygon class="cls-1" points="1225.64 1305.08 1225.64 1314.28 1216.43 1314.28 1216.43 1315.28 1225.64 1315.28 1225.64 1324.47 1226.64 1324.47 1226.64 1315.28 1235.84 1315.28 1235.84 1314.28 1226.64 1314.28 1226.64 1305.08 1225.64 1305.08"/><polygon class="cls-1" points="1225.64 1354.58 1225.64 1363.78 1216.43 1363.78 1216.43 1364.78 1225.64 1364.78 1225.64 1373.97 1226.64 1373.97 1226.64 1364.78 1235.84 1364.78 1235.84 1363.78 1226.64 1363.78 1226.64 1354.58 1225.64 1354.58"/><polygon class="cls-1" points="1176.14 1305.08 1176.14 1314.28 1166.94 1314.28 1166.94 1315.28 1176.14 1315.28 1176.14 1324.47 1177.14 1324.47 1177.14 1315.28 1186.34 1315.28 1186.34 1314.28 1177.14 1314.28 1177.14 1305.08 1176.14 1305.08"/><polygon class="cls-1" points="1275.13 1305.08 1275.13 1314.28 1265.93 1314.28 1265.93 1315.28 1275.13 1315.28 1275.13 1324.47 1276.13 1324.47 1276.13 1315.28 1285.34 1315.28 1285.34 1314.28 1276.13 1314.28 1276.13 1305.08 1275.13 1305.08"/><polygon class="cls-1" points="1374.13 1305.08 1374.13 1314.28 1364.93 1314.28 1364.93 1315.28 1374.13 1315.28 1374.13 1324.47 1375.13 1324.47 1375.13 1315.28 1384.33 1315.28 1384.33 1314.28 1375.13 1314.28 1375.13 1305.08 1374.13 1305.08"/><polygon class="cls-1" points="1324.63 1305.08 1324.63 1314.28 1315.43 1314.28 1315.43 1315.28 1324.63 1315.28 1324.63 1324.47 1325.63 1324.47 1325.63 1315.28 1334.83 1315.28 1334.83 1314.28 1325.63 1314.28 1325.63 1305.08 1324.63 1305.08"/><polygon class="cls-1" points="1349.38 1329.83 1349.38 1339.03 1340.18 1339.03 1340.18 1340.03 1349.38 1340.03 1349.38 1349.22 1350.38 1349.22 1350.38 1340.03 1359.58 1340.03 1359.58 1339.03 1350.38 1339.03 1350.38 1329.83 1349.38 1329.83"/><polygon class="cls-1" points="1250.38 1379.33 1250.38 1388.53 1241.18 1388.53 1241.18 1389.53 1250.38 1389.53 1250.38 1398.72 1251.38 1398.72 1251.38 1389.53 1260.59 1389.53 1260.59 1388.53 1251.38 1388.53 1251.38 1379.33 1250.38 1379.33"/><polygon class="cls-1" points="1324.63 1354.58 1324.63 1363.78 1315.43 1363.78 1315.43 1364.78 1324.63 1364.78 1324.63 1373.97 1325.63 1373.97 1325.63 1364.78 1334.83 1364.78 1334.83 1363.78 1325.63 1363.78 1325.63 1354.58 1324.63 1354.58"/><polygon class="cls-1" points="1275.13 1354.58 1275.13 1363.78 1265.93 1363.78 1265.93 1364.78 1275.13 1364.78 1275.13 1373.97 1276.13 1373.97 1276.13 1364.78 1285.33 1364.78 1285.33 1363.78 1276.13 1363.78 1276.13 1354.58 1275.13 1354.58"/><polygon class="cls-1" points="1299.88 1329.83 1299.88 1339.03 1290.68 1339.03 1290.68 1340.03 1299.88 1340.03 1299.88 1349.22 1300.88 1349.22 1300.88 1340.03 1310.08 1340.03 1310.08 1339.03 1300.88 1339.03 1300.88 1329.83 1299.88 1329.83"/><polygon class="cls-1" points="1101.89 1379.33 1101.89 1388.53 1092.69 1388.53 1092.69 1389.53 1101.89 1389.53 1101.89 1398.72 1102.89 1398.72 1102.89 1389.53 1112.09 1389.53 1112.09 1388.53 1102.89 1388.53 1102.89 1379.33 1101.89 1379.33"/><polygon class="cls-1" points="1052.4 1379.33 1052.4 1388.53 1043.19 1388.53 1043.19 1389.53 1052.4 1389.53 1052.4 1398.72 1053.4 1398.72 1053.4 1389.53 1062.6 1389.53 1062.6 1388.53 1053.4 1388.53 1053.4 1379.33 1052.4 1379.33"/><polygon class="cls-1" points="1077.14 1354.58 1077.14 1363.78 1067.94 1363.78 1067.94 1364.78 1077.14 1364.78 1077.14 1373.97 1078.14 1373.97 1078.14 1364.78 1087.34 1364.78 1087.34 1363.78 1078.14 1363.78 1078.14 1354.58 1077.14 1354.58"/><polygon class="cls-1" points="1151.39 1329.83 1151.39 1339.03 1142.19 1339.03 1142.19 1340.03 1151.39 1340.03 1151.39 1349.22 1152.39 1349.22 1152.39 1340.03 1161.59 1340.03 1161.59 1339.03 1152.39 1339.03 1152.39 1329.83 1151.39 1329.83"/><polygon class="cls-1" points="1101.89 1329.83 1101.89 1339.03 1092.69 1339.03 1092.69 1340.03 1101.89 1340.03 1101.89 1349.22 1102.89 1349.22 1102.89 1340.03 1112.09 1340.03 1112.09 1339.03 1102.89 1339.03 1102.89 1329.83 1101.89 1329.83"/><polygon class="cls-1" points="1126.64 1305.08 1126.64 1314.28 1117.44 1314.28 1117.44 1315.28 1126.64 1315.28 1126.64 1324.47 1127.64 1324.47 1127.64 1315.28 1136.84 1315.28 1136.84 1314.28 1127.64 1314.28 1127.64 1305.08 1126.64 1305.08"/><polygon class="cls-1" points="1126.64 1354.58 1126.64 1363.78 1117.44 1363.78 1117.44 1364.78 1126.64 1364.78 1126.64 1373.97 1127.64 1373.97 1127.64 1364.78 1136.84 1364.78 1136.84 1363.78 1127.64 1363.78 1127.64 1354.58 1126.64 1354.58"/><polygon class="cls-1" points="1200.89 1379.33 1200.89 1388.53 1191.69 1388.53 1191.69 1389.53 1200.89 1389.53 1200.89 1398.72 1201.89 1398.72 1201.89 1389.53 1211.09 1389.53 1211.09 1388.53 1201.89 1388.53 1201.89 1379.33 1200.89 1379.33"/><polygon class="cls-1" points="1151.39 1379.33 1151.39 1388.53 1142.19 1388.53 1142.19 1389.53 1151.39 1389.53 1151.39 1398.72 1152.39 1398.72 1152.39 1389.53 1161.59 1389.53 1161.59 1388.53 1152.39 1388.53 1152.39 1379.33 1151.39 1379.33"/><polygon class="cls-1" points="1176.14 1354.58 1176.14 1363.78 1166.94 1363.78 1166.94 1364.78 1176.14 1364.78 1176.14 1373.97 1177.14 1373.97 1177.14 1364.78 1186.34 1364.78 1186.34 1363.78 1177.14 1363.78 1177.14 1354.58 1176.14 1354.58"/><polygon class="cls-1" points="755.41 1329.83 755.41 1339.03 746.21 1339.03 746.21 1340.03 755.41 1340.03 755.41 1349.22 756.41 1349.22 756.41 1340.03 765.61 1340.03 765.61 1339.03 756.41 1339.03 756.41 1329.83 755.41 1329.83"/><polygon class="cls-1" points="705.91 1329.83 705.91 1339.03 696.71 1339.03 696.71 1340.03 705.91 1340.03 705.91 1349.22 706.91 1349.22 706.91 1340.03 716.11 1340.03 716.11 1339.03 706.91 1339.03 706.91 1329.83 705.91 1329.83"/><polygon class="cls-1" points="730.66 1305.08 730.66 1314.28 721.46 1314.28 721.46 1315.28 730.66 1315.28 730.66 1324.47 731.66 1324.47 731.66 1315.28 740.86 1315.28 740.86 1314.28 731.66 1314.28 731.66 1305.08 730.66 1305.08"/><polygon class="cls-1" points="730.66 1354.58 730.66 1363.78 721.46 1363.78 721.46 1364.78 730.66 1364.78 730.66 1373.97 731.66 1373.97 731.66 1364.78 740.86 1364.78 740.86 1363.78 731.66 1363.78 731.66 1354.58 730.66 1354.58"/><polygon class="cls-1" points="780.16 1354.58 780.16 1363.78 770.96 1363.78 770.96 1364.78 780.16 1364.78 780.16 1373.97 781.16 1373.97 781.16 1364.78 790.36 1364.78 790.36 1363.78 781.16 1363.78 781.16 1354.58 780.16 1354.58"/><polygon class="cls-1" points="681.16 1305.08 681.16 1314.28 671.96 1314.28 671.96 1315.28 681.16 1315.28 681.16 1324.47 682.16 1324.47 682.16 1315.28 691.37 1315.28 691.37 1314.28 682.16 1314.28 682.16 1305.08 681.16 1305.08"/><polygon class="cls-1" points="879.15 1354.58 879.15 1363.78 869.95 1363.78 869.95 1364.78 879.15 1364.78 879.15 1373.97 880.15 1373.97 880.15 1364.78 889.36 1364.78 889.36 1363.78 880.15 1363.78 880.15 1354.58 879.15 1354.58"/><polygon class="cls-1" points="953.4 1329.83 953.4 1339.03 944.2 1339.03 944.2 1340.03 953.4 1340.03 953.4 1349.22 954.4 1349.22 954.4 1340.03 963.6 1340.03 963.6 1339.03 954.4 1339.03 954.4 1329.83 953.4 1329.83"/><polygon class="cls-1" points="903.9 1329.83 903.9 1339.03 894.7 1339.03 894.7 1340.03 903.9 1340.03 903.9 1349.22 904.9 1349.22 904.9 1340.03 914.1 1340.03 914.1 1339.03 904.9 1339.03 904.9 1329.83 903.9 1329.83"/><polygon class="cls-1" points="928.65 1305.08 928.65 1314.28 919.45 1314.28 919.45 1315.28 928.65 1315.28 928.65 1324.47 929.65 1324.47 929.65 1315.28 938.85 1315.28 938.85 1314.28 929.65 1314.28 929.65 1305.08 928.65 1305.08"/><polygon class="cls-1" points="928.65 1354.58 928.65 1363.78 919.45 1363.78 919.45 1364.78 928.65 1364.78 928.65 1373.97 929.65 1373.97 929.65 1364.78 938.85 1364.78 938.85 1363.78 929.65 1363.78 929.65 1354.58 928.65 1354.58"/><polygon class="cls-1" points="1002.9 1379.33 1002.9 1388.53 993.69 1388.53 993.69 1389.53 1002.9 1389.53 1002.9 1398.72 1003.9 1398.72 1003.9 1389.53 1013.1 1389.53 1013.1 1388.53 1003.9 1388.53 1003.9 1379.33 1002.9 1379.33"/><polygon class="cls-1" points="953.4 1379.33 953.4 1388.53 944.2 1388.53 944.2 1389.53 953.4 1389.53 953.4 1398.72 954.4 1398.72 954.4 1389.53 963.6 1389.53 963.6 1388.53 954.4 1388.53 954.4 1379.33 953.4 1379.33"/><polygon class="cls-1" points="978.15 1354.58 978.15 1363.78 968.95 1363.78 968.95 1364.78 978.15 1364.78 978.15 1373.97 979.15 1373.97 979.15 1364.78 988.35 1364.78 988.35 1363.78 979.15 1363.78 979.15 1354.58 978.15 1354.58"/><polygon class="cls-1" points="854.41 1329.83 854.41 1339.03 845.2 1339.03 845.2 1340.03 854.41 1340.03 854.41 1349.22 855.41 1349.22 855.41 1340.03 864.61 1340.03 864.61 1339.03 855.41 1339.03 855.41 1329.83 854.41 1329.83"/><polygon class="cls-1" points="804.91 1329.83 804.91 1339.03 795.7 1339.03 795.7 1340.03 804.91 1340.03 804.91 1349.22 805.91 1349.22 805.91 1340.03 815.11 1340.03 815.11 1339.03 805.91 1339.03 805.91 1329.83 804.91 1329.83"/><polygon class="cls-1" points="829.66 1305.08 829.66 1314.28 820.45 1314.28 820.45 1315.28 829.66 1315.28 829.66 1324.47 830.66 1324.47 830.66 1315.28 839.86 1315.28 839.86 1314.28 830.66 1314.28 830.66 1305.08 829.66 1305.08"/><polygon class="cls-1" points="829.66 1354.58 829.66 1363.78 820.45 1363.78 820.45 1364.78 829.66 1364.78 829.66 1373.97 830.66 1373.97 830.66 1364.78 839.86 1364.78 839.86 1363.78 830.66 1363.78 830.66 1354.58 829.66 1354.58"/><polygon class="cls-1" points="780.16 1305.08 780.16 1314.28 770.96 1314.28 770.96 1315.28 780.16 1315.28 780.16 1324.47 781.16 1324.47 781.16 1315.28 790.36 1315.28 790.36 1314.28 781.16 1314.28 781.16 1305.08 780.16 1305.08"/><polygon class="cls-1" points="879.15 1305.08 879.15 1314.28 869.95 1314.28 869.95 1315.28 879.15 1315.28 879.15 1324.47 880.15 1324.47 880.15 1315.28 889.36 1315.28 889.36 1314.28 880.15 1314.28 880.15 1305.08 879.15 1305.08"/><polygon class="cls-1" points="1052.4 1329.83 1052.4 1339.03 1043.19 1339.03 1043.19 1340.03 1052.4 1340.03 1052.4 1349.22 1053.4 1349.22 1053.4 1340.03 1062.6 1340.03 1062.6 1339.03 1053.4 1339.03 1053.4 1329.83 1052.4 1329.83"/><polygon class="cls-1" points="1002.9 1329.83 1002.9 1339.03 993.69 1339.03 993.69 1340.03 1002.9 1340.03 1002.9 1349.22 1003.9 1349.22 1003.9 1340.03 1013.1 1340.03 1013.1 1339.03 1003.9 1339.03 1003.9 1329.83 1002.9 1329.83"/><polygon class="cls-1" points="1027.65 1305.08 1027.65 1314.28 1018.44 1314.28 1018.44 1315.28 1027.65 1315.28 1027.65 1324.47 1028.65 1324.47 1028.65 1315.28 1037.85 1315.28 1037.85 1314.28 1028.65 1314.28 1028.65 1305.08 1027.65 1305.08"/><polygon class="cls-1" points="1027.65 1354.58 1027.65 1363.78 1018.44 1363.78 1018.44 1364.78 1027.65 1364.78 1027.65 1373.97 1028.65 1373.97 1028.65 1364.78 1037.85 1364.78 1037.85 1363.78 1028.65 1363.78 1028.65 1354.58 1027.65 1354.58"/><polygon class="cls-1" points="978.15 1305.08 978.15 1314.28 968.95 1314.28 968.95 1315.28 978.15 1315.28 978.15 1324.47 979.15 1324.47 979.15 1315.28 988.35 1315.28 988.35 1314.28 979.15 1314.28 979.15 1305.08 978.15 1305.08"/><polygon class="cls-1" points="1077.14 1305.08 1077.14 1314.28 1067.94 1314.28 1067.94 1315.28 1077.14 1315.28 1077.14 1324.47 1078.14 1324.47 1078.14 1315.28 1087.34 1315.28 1087.34 1314.28 1078.14 1314.28 1078.14 1305.08 1077.14 1305.08"/></svg>