<svg id="Layer_1" data-name="Layer 1" xmlns="http://www.w3.org/2000/svg" viewBox="0 0 1598.66 1434.07"><defs><style>.cls-1{fill:#ff5733;}.cls-2{fill:none;stroke:#ff5733;stroke-miterlimit:10;stroke-width:2px;}</style></defs><g id="Layer_4" data-name="Layer 4"><polygon class="cls-1" points="723.78 1264.94 723.78 1255.74 732.99 1255.74 732.99 1254.74 723.78 1254.74 723.78 1245.54 722.78 1245.54 722.78 1254.74 713.58 1254.74 713.58 1255.74 722.78 1255.74 722.78 1264.94 723.78 1264.94"/><polygon class="cls-1" points="773.28 1264.94 773.28 1255.74 782.48 1255.74 782.48 1254.74 773.28 1254.74 773.28 1245.54 772.28 1245.54 772.28 1254.74 763.08 1254.74 763.08 1255.74 772.28 1255.74 772.28 1264.94 773.28 1264.94"/><polygon class="cls-1" points="748.53 1289.69 748.53 1280.49 757.74 1280.49 757.74 1279.49 748.53 1279.49 748.53 1270.29 747.53 1270.29 747.53 1279.49 738.33 1279.49 738.33 1280.49 747.53 1280.49 747.53 1289.69 748.53 1289.69"/><polygon class="cls-1" points="748.53 1240.19 748.53 1230.99 757.74 1230.99 757.74 1229.99 748.53 1229.99 748.53 1220.79 747.53 1220.79 747.53 1229.99 738.33 1229.99 738.33 1230.99 747.53 1230.99 747.53 1240.19 748.53 1240.19"/><polygon class="cls-1" points="798.03 1289.69 798.03 1280.49 807.23 1280.49 807.23 1279.49 798.03 1279.49 798.03 1270.29 797.03 1270.29 797.03 1279.49 787.83 1279.49 787.83 1280.49 797.03 1280.49 797.03 1289.69 798.03 1289.69"/><polygon class="cls-1" points="699.04 1289.69 699.04 1280.49 708.24 1280.49 708.24 1279.49 699.04 1279.49 699.04 1270.29 698.04 1270.29 698.04 1279.49 688.83 1279.49 688.83 1280.49 698.04 1280.49 698.04 1289.69 699.04 1289.69"/><polygon class="cls-1" points="550.54 1240.19 550.54 1230.99 559.75 1230.99 559.75 1229.99 550.54 1229.99 550.54 1220.79 549.54 1220.79 549.54 1229.99 540.34 1229.99 540.34 1230.99 549.54 1230.99 549.54 1240.19 550.54 1240.19"/><polygon class="cls-1" points="600.04 1240.19 600.04 1230.99 609.24 1230.99 609.24 1229.99 600.04 1229.99 600.04 1220.79 599.04 1220.79 599.04 1229.99 589.84 1229.99 589.84 1230.99 599.04 1230.99 599.04 1240.19 600.04 1240.19"/><polygon class="cls-1" points="575.29 1264.94 575.29 1255.74 584.5 1255.74 584.5 1254.74 575.29 1254.74 575.29 1245.54 574.29 1245.54 574.29 1254.74 565.09 1254.74 565.09 1255.74 574.29 1255.74 574.29 1264.94 575.29 1264.94"/><polygon class="cls-1" points="575.29 1215.44 575.29 1206.24 584.5 1206.24 584.5 1205.24 575.29 1205.24 575.29 1196.04 574.29 1196.04 574.29 1205.24 565.09 1205.24 565.09 1206.24 574.29 1206.24 574.29 1215.44 575.29 1215.44"/><polygon class="cls-1" points="600.04 1289.69 600.04 1280.49 609.24 1280.49 609.24 1279.49 600.04 1279.49 600.04 1270.29 599.04 1270.29 599.04 1279.49 589.84 1279.49 589.84 1280.49 599.04 1280.49 599.04 1289.69 600.04 1289.69"/><polygon class="cls-1" points="649.54 1289.69 649.54 1280.49 658.74 1280.49 658.74 1279.49 649.54 1279.49 649.54 1270.29 648.54 1270.29 648.54 1279.49 639.34 1279.49 639.34 1280.49 648.54 1280.49 648.54 1289.69 649.54 1289.69"/><polygon class="cls-1" points="624.79 1264.94 624.79 1255.74 633.99 1255.74 633.99 1254.74 624.79 1254.74 624.79 1245.54 623.79 1245.54 623.79 1254.74 614.59 1254.74 614.59 1255.74 623.79 1255.74 623.79 1264.94 624.79 1264.94"/><polygon class="cls-1" points="550.54 1289.69 550.54 1280.49 559.75 1280.49 559.75 1279.49 550.54 1279.49 550.54 1270.29 549.54 1270.29 549.54 1279.49 540.34 1279.49 540.34 1280.49 549.54 1280.49 549.54 1289.69 550.54 1289.69"/><polygon class="cls-1" points="699.04 1190.7 699.04 1181.49 708.24 1181.49 708.24 1180.49 699.04 1180.49 699.04 1171.29 698.04 1171.29 698.04 1180.49 688.84 1180.49 688.84 1181.49 698.04 1181.49 698.04 1190.7 699.04 1190.7"/><polygon class="cls-1" points="748.53 1190.7 748.53 1181.49 757.74 1181.49 757.74 1180.49 748.53 1180.49 748.53 1171.29 747.53 1171.29 747.53 1180.49 738.33 1180.49 738.33 1181.49 747.53 1181.49 747.53 1190.7 748.53 1190.7"/><polygon class="cls-1" points="723.79 1215.44 723.79 1206.24 732.99 1206.24 732.99 1205.24 723.79 1205.24 723.79 1196.04 722.79 1196.04 722.79 1205.24 713.58 1205.24 713.58 1206.24 722.79 1206.24 722.79 1215.44 723.79 1215.44"/><polygon class="cls-1" points="723.79 1165.95 723.79 1156.75 732.99 1156.75 732.99 1155.75 723.79 1155.75 723.79 1146.54 722.79 1146.54 722.79 1155.75 713.58 1155.75 713.58 1156.75 722.79 1156.75 722.79 1165.95 723.79 1165.95"/><polygon class="cls-1" points="649.54 1240.19 649.54 1230.99 658.74 1230.99 658.74 1229.99 649.54 1229.99 649.54 1220.79 648.54 1220.79 648.54 1229.99 639.34 1229.99 639.34 1230.99 648.54 1230.99 648.54 1240.19 649.54 1240.19"/><polygon class="cls-1" points="699.04 1240.19 699.04 1230.99 708.24 1230.99 708.24 1229.99 699.04 1229.99 699.04 1220.79 698.04 1220.79 698.04 1229.99 688.84 1229.99 688.84 1230.99 698.04 1230.99 698.04 1240.19 699.04 1240.19"/><polygon class="cls-1" points="674.29 1264.94 674.29 1255.74 683.49 1255.74 683.49 1254.74 674.29 1254.74 674.29 1245.54 673.29 1245.54 673.29 1254.74 664.09 1254.74 664.09 1255.74 673.29 1255.74 673.29 1264.94 674.29 1264.94"/><polygon class="cls-1" points="674.29 1215.44 674.29 1206.24 683.49 1206.24 683.49 1205.24 674.29 1205.24 674.29 1196.04 673.29 1196.04 673.29 1205.24 664.09 1205.24 664.09 1206.24 673.29 1206.24 673.29 1215.44 674.29 1215.44"/><polygon class="cls-1" points="649.54 1190.7 649.54 1181.49 658.74 1181.49 658.74 1180.49 649.54 1180.49 649.54 1171.29 648.54 1171.29 648.54 1180.49 639.34 1180.49 639.34 1181.49 648.54 1181.49 648.54 1190.7 649.54 1190.7"/><polygon class="cls-1" points="624.79 1215.44 624.79 1206.24 633.99 1206.24 633.99 1205.24 624.79 1205.24 624.79 1196.04 623.79 1196.04 623.79 1205.24 614.59 1205.24 614.59 1206.24 623.79 1206.24 623.79 1215.44 624.79 1215.44"/><polygon class="cls-1" points="822.78 1165.95 822.78 1156.75 831.98 1156.75 831.98 1155.75 822.78 1155.75 822.78 1146.54 821.78 1146.54 821.78 1155.75 812.58 1155.75 812.58 1156.75 821.78 1156.75 821.78 1165.95 822.78 1165.95"/><polygon class="cls-1" points="872.28 1165.95 872.28 1156.75 881.48 1156.75 881.48 1155.75 872.28 1155.75 872.28 1146.54 871.28 1146.54 871.28 1155.75 862.08 1155.75 862.08 1156.75 871.28 1156.75 871.28 1165.95 872.28 1165.95"/><polygon class="cls-1" points="847.53 1190.7 847.53 1181.49 856.73 1181.49 856.73 1180.49 847.53 1180.49 847.53 1171.29 846.53 1171.29 846.53 1180.49 837.33 1180.49 837.33 1181.49 846.53 1181.49 846.53 1190.7 847.53 1190.7"/><polygon class="cls-1" points="847.53 1141.2 847.53 1132 856.73 1132 856.73 1131 847.53 1131 847.53 1121.79 846.53 1121.79 846.53 1131 837.33 1131 837.33 1132 846.53 1132 846.53 1141.2 847.53 1141.2"/><polygon class="cls-1" points="872.28 1215.44 872.28 1206.24 881.48 1206.24 881.48 1205.24 872.28 1205.24 872.28 1196.04 871.28 1196.04 871.28 1205.24 862.08 1205.24 862.08 1206.24 871.28 1206.24 871.28 1215.44 872.28 1215.44"/><polygon class="cls-1" points="921.77 1215.44 921.77 1206.24 930.98 1206.24 930.98 1205.24 921.77 1205.24 921.77 1196.04 920.77 1196.04 920.77 1205.24 911.57 1205.24 911.57 1206.24 920.77 1206.24 920.77 1215.44 921.77 1215.44"/><polygon class="cls-1" points="897.03 1240.19 897.03 1230.99 906.23 1230.99 906.23 1229.99 897.03 1229.99 897.03 1220.79 896.03 1220.79 896.03 1229.99 886.83 1229.99 886.83 1230.99 896.03 1230.99 896.03 1240.19 897.03 1240.19"/><polygon class="cls-1" points="897.03 1190.7 897.03 1181.49 906.23 1181.49 906.23 1180.49 897.03 1180.49 897.03 1171.29 896.03 1171.29 896.03 1180.49 886.83 1180.49 886.83 1181.49 896.03 1181.49 896.03 1190.7 897.03 1190.7"/><polygon class="cls-1" points="822.78 1264.94 822.78 1255.74 831.98 1255.74 831.98 1254.74 822.78 1254.74 822.78 1245.54 821.78 1245.54 821.78 1254.74 812.58 1254.74 812.58 1255.74 821.78 1255.74 821.78 1264.94 822.78 1264.94"/><polygon class="cls-1" points="872.28 1264.94 872.28 1255.74 881.48 1255.74 881.48 1254.74 872.28 1254.74 872.28 1245.54 871.28 1245.54 871.28 1254.74 862.08 1254.74 862.08 1255.74 871.28 1255.74 871.28 1264.94 872.28 1264.94"/><polygon class="cls-1" points="847.53 1289.69 847.53 1280.49 856.73 1280.49 856.73 1279.49 847.53 1279.49 847.53 1270.29 846.53 1270.29 846.53 1279.49 837.33 1279.49 837.33 1280.49 846.53 1280.49 846.53 1289.69 847.53 1289.69"/><polygon class="cls-1" points="847.53 1240.19 847.53 1230.99 856.73 1230.99 856.73 1229.99 847.53 1229.99 847.53 1220.79 846.53 1220.79 846.53 1229.99 837.33 1229.99 837.33 1230.99 846.53 1230.99 846.53 1240.19 847.53 1240.19"/><polygon class="cls-1" points="773.28 1215.44 773.28 1206.24 782.48 1206.24 782.48 1205.24 773.28 1205.24 773.28 1196.04 772.28 1196.04 772.28 1205.24 763.08 1205.24 763.08 1206.24 772.28 1206.24 772.28 1215.44 773.28 1215.44"/><polygon class="cls-1" points="822.78 1215.44 822.78 1206.24 831.98 1206.24 831.98 1205.24 822.78 1205.24 822.78 1196.04 821.78 1196.04 821.78 1205.24 812.58 1205.24 812.58 1206.24 821.78 1206.24 821.78 1215.44 822.78 1215.44"/><polygon class="cls-1" points="798.03 1240.19 798.03 1230.99 807.23 1230.99 807.23 1229.99 798.03 1229.99 798.03 1220.79 797.03 1220.79 797.03 1229.99 787.83 1229.99 787.83 1230.99 797.03 1230.99 797.03 1240.19 798.03 1240.19"/><polygon class="cls-1" points="798.03 1190.7 798.03 1181.49 807.23 1181.49 807.23 1180.49 798.03 1180.49 798.03 1171.29 797.03 1171.29 797.03 1180.49 787.83 1180.49 787.83 1181.49 797.03 1181.49 797.03 1190.7 798.03 1190.7"/><polygon class="cls-1" points="847.53 1091.7 847.53 1082.5 856.73 1082.5 856.73 1081.5 847.53 1081.5 847.53 1072.3 846.53 1072.3 846.53 1081.5 837.33 1081.5 837.33 1082.5 846.53 1082.5 846.53 1091.7 847.53 1091.7"/><polygon class="cls-1" points="822.78 1116.45 822.78 1107.25 831.98 1107.25 831.98 1106.25 822.78 1106.25 822.78 1097.04 821.78 1097.04 821.78 1106.25 812.58 1106.25 812.58 1107.25 821.78 1107.25 821.78 1116.45 822.78 1116.45"/><polygon class="cls-1" points="798.03 1141.2 798.03 1132 807.23 1132 807.23 1131 798.03 1131 798.03 1121.79 797.03 1121.79 797.03 1131 787.83 1131 787.83 1132 797.03 1132 797.03 1141.2 798.03 1141.2"/><polygon class="cls-1" points="773.28 1165.95 773.28 1156.75 782.48 1156.75 782.48 1155.75 773.28 1155.75 773.28 1146.54 772.28 1146.54 772.28 1155.75 763.08 1155.75 763.08 1156.75 772.28 1156.75 772.28 1165.95 773.28 1165.95"/><polygon class="cls-1" points="921.77 1066.95 921.77 1057.75 930.98 1057.75 930.98 1056.75 921.77 1056.75 921.77 1047.55 920.77 1047.55 920.77 1056.75 911.57 1056.75 911.57 1057.75 920.77 1057.75 920.77 1066.95 921.77 1066.95"/><polygon class="cls-1" points="971.27 1066.95 971.27 1057.75 980.48 1057.75 980.48 1056.75 971.27 1056.75 971.27 1047.55 970.27 1047.55 970.27 1056.75 961.07 1056.75 961.07 1057.75 970.27 1057.75 970.27 1066.95 971.27 1066.95"/><polygon class="cls-1" points="946.52 1091.7 946.52 1082.5 955.73 1082.5 955.73 1081.5 946.52 1081.5 946.52 1072.3 945.52 1072.3 945.52 1081.5 936.32 1081.5 936.32 1082.5 945.52 1082.5 945.52 1091.7 946.52 1091.7"/><polygon class="cls-1" points="946.52 1042.2 946.52 1033 955.73 1033 955.73 1032 946.52 1032 946.52 1022.8 945.52 1022.8 945.52 1032 936.32 1032 936.32 1033 945.52 1033 945.52 1042.2 946.52 1042.2"/><polygon class="cls-1" points="971.27 1116.45 971.27 1107.25 980.48 1107.25 980.48 1106.25 971.27 1106.25 971.27 1097.04 970.27 1097.04 970.27 1106.25 961.07 1106.25 961.07 1107.25 970.27 1107.25 970.27 1116.45 971.27 1116.45"/><polygon class="cls-1" points="1020.77 1116.45 1020.77 1107.25 1029.97 1107.25 1029.97 1106.25 1020.77 1106.25 1020.77 1097.04 1019.77 1097.04 1019.77 1106.25 1010.57 1106.25 1010.57 1107.25 1019.77 1107.25 1019.77 1116.45 1020.77 1116.45"/><polygon class="cls-1" points="996.02 1141.2 996.02 1132 1005.22 1132 1005.22 1131 996.02 1131 996.02 1121.79 995.02 1121.79 995.02 1131 985.82 1131 985.82 1132 995.02 1132 995.02 1141.2 996.02 1141.2"/><polygon class="cls-1" points="996.02 1091.7 996.02 1082.5 1005.22 1082.5 1005.22 1081.5 996.02 1081.5 996.02 1072.3 995.02 1072.3 995.02 1081.5 985.82 1081.5 985.82 1082.5 995.02 1082.5 995.02 1091.7 996.02 1091.7"/><polygon class="cls-1" points="921.77 1165.95 921.77 1156.75 930.98 1156.75 930.98 1155.75 921.77 1155.75 921.77 1146.54 920.77 1146.54 920.77 1155.75 911.57 1155.75 911.57 1156.75 920.77 1156.75 920.77 1165.95 921.77 1165.95"/><polygon class="cls-1" points="971.27 1165.95 971.27 1156.75 980.48 1156.75 980.48 1155.75 971.27 1155.75 971.27 1146.54 970.27 1146.54 970.27 1155.75 961.07 1155.75 961.07 1156.75 970.27 1156.75 970.27 1165.95 971.27 1165.95"/><polygon class="cls-1" points="946.52 1190.7 946.52 1181.49 955.73 1181.49 955.73 1180.49 946.52 1180.49 946.52 1171.29 945.52 1171.29 945.52 1180.49 936.32 1180.49 936.32 1181.49 945.52 1181.49 945.52 1190.7 946.52 1190.7"/><polygon class="cls-1" points="946.52 1141.2 946.52 1132 955.73 1132 955.73 1131 946.52 1131 946.52 1121.79 945.52 1121.79 945.52 1131 936.32 1131 936.32 1132 945.52 1132 945.52 1141.2 946.52 1141.2"/><polygon class="cls-1" points="872.28 1116.45 872.28 1107.25 881.48 1107.25 881.48 1106.25 872.28 1106.25 872.28 1097.04 871.28 1097.04 871.28 1106.25 862.08 1106.25 862.08 1107.25 871.28 1107.25 871.28 1116.45 872.28 1116.45"/><polygon class="cls-1" points="921.77 1116.45 921.77 1107.25 930.98 1107.25 930.98 1106.25 921.77 1106.25 921.77 1097.04 920.77 1097.04 920.77 1106.25 911.57 1106.25 911.57 1107.25 920.77 1107.25 920.77 1116.45 921.77 1116.45"/><polygon class="cls-1" points="897.03 1141.2 897.03 1132 906.23 1132 906.23 1131 897.03 1131 897.03 1121.79 896.03 1121.79 896.03 1131 886.83 1131 886.83 1132 896.03 1132 896.03 1141.2 897.03 1141.2"/><polygon class="cls-1" points="897.03 1091.7 897.03 1082.5 906.23 1082.5 906.23 1081.5 897.03 1081.5 897.03 1072.3 896.03 1072.3 896.03 1081.5 886.83 1081.5 886.83 1082.5 896.03 1082.5 896.03 1091.7 897.03 1091.7"/><polygon class="cls-1" points="1045.52 992.71 1045.52 983.5 1054.72 983.5 1054.72 982.5 1045.52 982.5 1045.52 973.3 1044.52 973.3 1044.52 982.5 1035.32 982.5 1035.32 983.5 1044.52 983.5 1044.52 992.71 1045.52 992.71"/><polygon class="cls-1" points="1070.27 1017.45 1070.27 1008.25 1079.47 1008.25 1079.47 1007.25 1070.27 1007.25 1070.27 998.05 1069.27 998.05 1069.27 1007.25 1060.07 1007.25 1060.07 1008.25 1069.27 1008.25 1069.27 1017.45 1070.27 1017.45"/><polygon class="cls-1" points="1119.76 1017.45 1119.76 1008.25 1128.97 1008.25 1128.97 1007.25 1119.76 1007.25 1119.76 998.05 1118.76 998.05 1118.76 1007.25 1109.56 1007.25 1109.56 1008.25 1118.76 1008.25 1118.76 1017.45 1119.76 1017.45"/><polygon class="cls-1" points="1095.02 1042.2 1095.02 1033 1104.22 1033 1104.22 1032 1095.02 1032 1095.02 1022.8 1094.02 1022.8 1094.02 1032 1084.81 1032 1084.81 1033 1094.02 1033 1094.02 1042.2 1095.02 1042.2"/><polygon class="cls-1" points="1095.02 992.71 1095.02 983.5 1104.22 983.5 1104.22 982.5 1095.02 982.5 1095.02 973.3 1094.02 973.3 1094.02 982.5 1084.81 982.5 1084.81 983.5 1094.02 983.5 1094.02 992.71 1095.02 992.71"/><polygon class="cls-1" points="1020.77 1066.95 1020.77 1057.75 1029.97 1057.75 1029.97 1056.75 1020.77 1056.75 1020.77 1047.55 1019.77 1047.55 1019.77 1056.75 1010.57 1056.75 1010.57 1057.75 1019.77 1057.75 1019.77 1066.95 1020.77 1066.95"/><polygon class="cls-1" points="1070.27 1066.95 1070.27 1057.75 1079.47 1057.75 1079.47 1056.75 1070.27 1056.75 1070.27 1047.55 1069.27 1047.55 1069.27 1056.75 1060.07 1056.75 1060.07 1057.75 1069.27 1057.75 1069.27 1066.95 1070.27 1066.95"/><polygon class="cls-1" points="1045.52 1091.7 1045.52 1082.5 1054.72 1082.5 1054.72 1081.5 1045.52 1081.5 1045.52 1072.3 1044.52 1072.3 1044.52 1081.5 1035.32 1081.5 1035.32 1082.5 1044.52 1082.5 1044.52 1091.7 1045.52 1091.7"/><polygon class="cls-1" points="1045.52 1042.2 1045.52 1033 1054.72 1033 1054.72 1032 1045.52 1032 1045.52 1022.8 1044.52 1022.8 1044.52 1032 1035.32 1032 1035.32 1033 1044.52 1033 1044.52 1042.2 1045.52 1042.2"/><polygon class="cls-1" points="971.27 1017.45 971.27 1008.25 980.48 1008.25 980.48 1007.25 971.27 1007.25 971.27 998.05 970.27 998.05 970.27 1007.25 961.07 1007.25 961.07 1008.25 970.27 1008.25 970.27 1017.45 971.27 1017.45"/><polygon class="cls-1" points="1020.77 1017.45 1020.77 1008.25 1029.97 1008.25 1029.97 1007.25 1020.77 1007.25 1020.77 998.05 1019.77 998.05 1019.77 1007.25 1010.57 1007.25 1010.57 1008.25 1019.77 1008.25 1019.77 1017.45 1020.77 1017.45"/><polygon class="cls-1" points="996.02 1042.2 996.02 1033 1005.22 1033 1005.22 1032 996.02 1032 996.02 1022.8 995.02 1022.8 995.02 1032 985.82 1032 985.82 1033 995.02 1033 995.02 1042.2 996.02 1042.2"/><polygon class="cls-1" points="1194.01 1042.2 1194.01 1033 1203.21 1033 1203.21 1032 1194.01 1032 1194.01 1022.8 1193.01 1022.8 1193.01 1032 1183.81 1032 1183.81 1033 1193.01 1033 1193.01 1042.2 1194.01 1042.2"/><polygon class="cls-1" points="1243.51 1042.2 1243.51 1033 1252.71 1033 1252.71 1032 1243.51 1032 1243.51 1022.8 1242.51 1022.8 1242.51 1032 1233.31 1032 1233.31 1033 1242.51 1033 1242.51 1042.2 1243.51 1042.2"/><polygon class="cls-1" points="1218.76 1066.95 1218.76 1057.75 1227.96 1057.75 1227.96 1056.75 1218.76 1056.75 1218.76 1047.55 1217.76 1047.55 1217.76 1056.75 1208.56 1056.75 1208.56 1057.75 1217.76 1057.75 1217.76 1066.95 1218.76 1066.95"/><polygon class="cls-1" points="1218.76 1017.45 1218.76 1008.25 1227.96 1008.25 1227.96 1007.25 1218.76 1007.25 1218.76 998.05 1217.76 998.05 1217.76 1007.25 1208.56 1007.25 1208.56 1008.25 1217.76 1008.25 1217.76 1017.45 1218.76 1017.45"/><polygon class="cls-1" points="1144.51 992.71 1144.51 983.5 1153.72 983.5 1153.72 982.5 1144.51 982.5 1144.51 973.3 1143.51 973.3 1143.51 982.5 1134.31 982.5 1134.31 983.5 1143.51 983.5 1143.51 992.71 1144.51 992.71"/><polygon class="cls-1" points="1169.26 1017.45 1169.26 1008.25 1178.47 1008.25 1178.47 1007.25 1169.26 1007.25 1169.26 998.05 1168.26 998.05 1168.26 1007.25 1159.06 1007.25 1159.06 1008.25 1168.26 1008.25 1168.26 1017.45 1169.26 1017.45"/><polygon class="cls-1" points="1293.01 1141.2 1293.01 1132 1302.21 1132 1302.21 1131 1293.01 1131 1293.01 1121.79 1292.01 1121.79 1292.01 1131 1282.8 1131 1282.8 1132 1292.01 1132 1292.01 1141.2 1293.01 1141.2"/><polygon class="cls-1" points="1317.75 1165.95 1317.75 1156.75 1326.96 1156.75 1326.96 1155.75 1317.75 1155.75 1317.75 1146.54 1316.75 1146.54 1316.75 1155.75 1307.55 1155.75 1307.55 1156.75 1316.75 1156.75 1316.75 1165.95 1317.75 1165.95"/><polygon class="cls-1" points="1317.75 1116.45 1317.75 1107.25 1326.96 1107.25 1326.96 1106.25 1317.75 1106.25 1317.75 1097.04 1316.75 1097.04 1316.75 1106.25 1307.55 1106.25 1307.55 1107.25 1316.75 1107.25 1316.75 1116.45 1317.75 1116.45"/><polygon class="cls-1" points="1243.51 1091.7 1243.51 1082.5 1252.71 1082.5 1252.71 1081.5 1243.51 1081.5 1243.51 1072.3 1242.51 1072.3 1242.51 1081.5 1233.31 1081.5 1233.31 1082.5 1242.51 1082.5 1242.51 1091.7 1243.51 1091.7"/><polygon class="cls-1" points="1293.01 1091.7 1293.01 1082.5 1302.21 1082.5 1302.21 1081.5 1293.01 1081.5 1293.01 1072.3 1292.01 1072.3 1292.01 1081.5 1282.8 1081.5 1282.8 1082.5 1292.01 1082.5 1292.01 1091.7 1293.01 1091.7"/><polygon class="cls-1" points="1268.26 1116.45 1268.26 1107.25 1277.46 1107.25 1277.46 1106.25 1268.26 1106.25 1268.26 1097.04 1267.26 1097.04 1267.26 1106.25 1258.06 1106.25 1258.06 1107.25 1267.26 1107.25 1267.26 1116.45 1268.26 1116.45"/><polygon class="cls-1" points="1268.26 1066.95 1268.26 1057.75 1277.46 1057.75 1277.46 1056.75 1268.26 1056.75 1268.26 1047.55 1267.26 1047.55 1267.26 1056.75 1258.06 1056.75 1258.06 1057.75 1267.26 1057.75 1267.26 1066.95 1268.26 1066.95"/><polygon class="cls-1" points="1119.76 1066.95 1119.76 1057.75 1128.97 1057.75 1128.97 1056.75 1119.76 1056.75 1119.76 1047.55 1118.76 1047.55 1118.76 1056.75 1109.56 1056.75 1109.56 1057.75 1118.76 1057.75 1118.76 1066.95 1119.76 1066.95"/><polygon class="cls-1" points="1169.26 1066.95 1169.26 1057.75 1178.47 1057.75 1178.47 1056.75 1169.26 1056.75 1169.26 1047.55 1168.26 1047.55 1168.26 1056.75 1159.06 1056.75 1159.06 1057.75 1168.26 1057.75 1168.26 1066.95 1169.26 1066.95"/><polygon class="cls-1" points="1144.51 1091.7 1144.51 1082.5 1153.72 1082.5 1153.72 1081.5 1144.51 1081.5 1144.51 1072.3 1143.51 1072.3 1143.51 1081.5 1134.31 1081.5 1134.31 1082.5 1143.51 1082.5 1143.51 1091.7 1144.51 1091.7"/><polygon class="cls-1" points="1144.51 1042.2 1144.51 1033 1153.72 1033 1153.72 1032 1144.51 1032 1144.51 1022.8 1143.51 1022.8 1143.51 1032 1134.31 1032 1134.31 1033 1143.51 1033 1143.51 1042.2 1144.51 1042.2"/><polygon class="cls-1" points="1169.26 1116.45 1169.26 1107.25 1178.47 1107.25 1178.47 1106.25 1169.26 1106.25 1169.26 1097.04 1168.26 1097.04 1168.26 1106.25 1159.06 1106.25 1159.06 1107.25 1168.26 1107.25 1168.26 1116.45 1169.26 1116.45"/><polygon class="cls-1" points="1218.76 1116.45 1218.76 1107.25 1227.96 1107.25 1227.96 1106.25 1218.76 1106.25 1218.76 1097.04 1217.76 1097.04 1217.76 1106.25 1208.56 1106.25 1208.56 1107.25 1217.76 1107.25 1217.76 1116.45 1218.76 1116.45"/><polygon class="cls-1" points="1194.01 1141.2 1194.01 1132 1203.21 1132 1203.21 1131 1194.01 1131 1194.01 1121.79 1193.01 1121.79 1193.01 1131 1183.81 1131 1183.81 1132 1193.01 1132 1193.01 1141.2 1194.01 1141.2"/><polygon class="cls-1" points="1194.01 1091.7 1194.01 1082.5 1203.21 1082.5 1203.21 1081.5 1194.01 1081.5 1194.01 1072.3 1193.01 1072.3 1193.01 1081.5 1183.81 1081.5 1183.81 1082.5 1193.01 1082.5 1193.01 1091.7 1194.01 1091.7"/><polygon class="cls-1" points="1119.76 1165.95 1119.76 1156.75 1128.97 1156.75 1128.97 1155.75 1119.76 1155.75 1119.76 1146.54 1118.76 1146.54 1118.76 1155.75 1109.56 1155.75 1109.56 1156.75 1118.76 1156.75 1118.76 1165.95 1119.76 1165.95"/><polygon class="cls-1" points="1169.26 1165.95 1169.26 1156.75 1178.47 1156.75 1178.47 1155.75 1169.26 1155.75 1169.26 1146.54 1168.26 1146.54 1168.26 1155.75 1159.06 1155.75 1159.06 1156.75 1168.26 1156.75 1168.26 1165.95 1169.26 1165.95"/><polygon class="cls-1" points="1144.51 1190.7 1144.51 1181.49 1153.72 1181.49 1153.72 1180.49 1144.51 1180.49 1144.51 1171.29 1143.51 1171.29 1143.51 1180.49 1134.31 1180.49 1134.31 1181.49 1143.51 1181.49 1143.51 1190.7 1144.51 1190.7"/><polygon class="cls-1" points="1144.51 1141.2 1144.51 1132 1153.72 1132 1153.72 1131 1144.51 1131 1144.51 1121.79 1143.51 1121.79 1143.51 1131 1134.31 1131 1134.31 1132 1143.51 1132 1143.51 1141.2 1144.51 1141.2"/><polygon class="cls-1" points="1070.27 1116.45 1070.27 1107.25 1079.47 1107.25 1079.47 1106.25 1070.27 1106.25 1070.27 1097.04 1069.27 1097.04 1069.27 1106.25 1060.07 1106.25 1060.07 1107.25 1069.27 1107.25 1069.27 1116.45 1070.27 1116.45"/><polygon class="cls-1" points="1119.76 1116.45 1119.76 1107.25 1128.97 1107.25 1128.97 1106.25 1119.76 1106.25 1119.76 1097.04 1118.76 1097.04 1118.76 1106.25 1109.56 1106.25 1109.56 1107.25 1118.76 1107.25 1118.76 1116.45 1119.76 1116.45"/><polygon class="cls-1" points="1095.02 1141.2 1095.02 1132 1104.22 1132 1104.22 1131 1095.02 1131 1095.02 1121.79 1094.02 1121.79 1094.02 1131 1084.81 1131 1084.81 1132 1094.02 1132 1094.02 1141.2 1095.02 1141.2"/><polygon class="cls-1" points="1095.02 1091.7 1095.02 1082.5 1104.22 1082.5 1104.22 1081.5 1095.02 1081.5 1095.02 1072.3 1094.02 1072.3 1094.02 1081.5 1084.81 1081.5 1084.81 1082.5 1094.02 1082.5 1094.02 1091.7 1095.02 1091.7"/><polygon class="cls-1" points="1218.76 1165.95 1218.76 1156.75 1227.96 1156.75 1227.96 1155.75 1218.76 1155.75 1218.76 1146.54 1217.76 1146.54 1217.76 1155.75 1208.56 1155.75 1208.56 1156.75 1217.76 1156.75 1217.76 1165.95 1218.76 1165.95"/><polygon class="cls-1" points="1268.26 1165.95 1268.26 1156.75 1277.46 1156.75 1277.46 1155.75 1268.26 1155.75 1268.26 1146.54 1267.26 1146.54 1267.26 1155.75 1258.06 1155.75 1258.06 1156.75 1267.26 1156.75 1267.26 1165.95 1268.26 1165.95"/><polygon class="cls-1" points="1243.51 1190.7 1243.51 1181.49 1252.71 1181.49 1252.71 1180.49 1243.51 1180.49 1243.51 1171.29 1242.51 1171.29 1242.51 1180.49 1233.31 1180.49 1233.31 1181.49 1242.51 1181.49 1242.51 1190.7 1243.51 1190.7"/><polygon class="cls-1" points="1243.51 1141.2 1243.51 1132 1252.71 1132 1252.71 1131 1243.51 1131 1243.51 1121.79 1242.51 1121.79 1242.51 1131 1233.31 1131 1233.31 1132 1242.51 1132 1242.51 1141.2 1243.51 1141.2"/><polygon class="cls-1" points="1268.26 1215.44 1268.26 1206.24 1277.46 1206.24 1277.46 1205.24 1268.26 1205.24 1268.26 1196.04 1267.26 1196.04 1267.26 1205.24 1258.06 1205.24 1258.06 1206.24 1267.26 1206.24 1267.26 1215.44 1268.26 1215.44"/><polygon class="cls-1" points="1317.75 1215.44 1317.75 1206.24 1326.96 1206.24 1326.96 1205.24 1317.75 1205.24 1317.75 1196.04 1316.75 1196.04 1316.75 1205.24 1307.55 1205.24 1307.55 1206.24 1316.75 1206.24 1316.75 1215.44 1317.75 1215.44"/><polygon class="cls-1" points="1293.01 1240.19 1293.01 1230.99 1302.21 1230.99 1302.21 1229.99 1293.01 1229.99 1293.01 1220.79 1292.01 1220.79 1292.01 1229.99 1282.8 1229.99 1282.8 1230.99 1292.01 1230.99 1292.01 1240.19 1293.01 1240.19"/><polygon class="cls-1" points="1293.01 1190.7 1293.01 1181.49 1302.21 1181.49 1302.21 1180.49 1293.01 1180.49 1293.01 1171.29 1292.01 1171.29 1292.01 1180.49 1282.8 1180.49 1282.8 1181.49 1292.01 1181.49 1292.01 1190.7 1293.01 1190.7"/><polygon class="cls-1" points="1218.76 1264.94 1218.76 1255.74 1227.96 1255.74 1227.96 1254.74 1218.76 1254.74 1218.76 1245.54 1217.76 1245.54 1217.76 1254.74 1208.56 1254.74 1208.56 1255.74 1217.76 1255.74 1217.76 1264.94 1218.76 1264.94"/><polygon class="cls-1" points="1268.26 1264.94 1268.26 1255.74 1277.46 1255.74 1277.46 1254.74 1268.26 1254.74 1268.26 1245.54 1267.26 1245.54 1267.26 1254.74 1258.06 1254.74 1258.06 1255.74 1267.26 1255.74 1267.26 1264.94 1268.26 1264.94"/><polygon class="cls-1" points="1243.51 1289.69 1243.51 1280.49 1252.71 1280.49 1252.71 1279.49 1243.51 1279.49 1243.51 1270.29 1242.51 1270.29 1242.51 1279.49 1233.31 1279.49 1233.31 1280.49 1242.51 1280.49 1242.51 1289.69 1243.51 1289.69"/><polygon class="cls-1" points="1243.51 1240.19 1243.51 1230.99 1252.71 1230.99 1252.71 1229.99 1243.51 1229.99 1243.51 1220.79 1242.51 1220.79 1242.51 1229.99 1233.31 1229.99 1233.31 1230.99 1242.51 1230.99 1242.51 1240.19 1243.51 1240.19"/><polygon class="cls-1" points="1169.26 1215.44 1169.26 1206.24 1178.47 1206.24 1178.47 1205.24 1169.26 1205.24 1169.26 1196.04 1168.26 1196.04 1168.26 1205.24 1159.06 1205.24 1159.06 1206.24 1168.26 1206.24 1168.26 1215.44 1169.26 1215.44"/><polygon class="cls-1" points="1218.76 1215.44 1218.76 1206.24 1227.96 1206.24 1227.96 1205.24 1218.76 1205.24 1218.76 1196.04 1217.76 1196.04 1217.76 1205.24 1208.56 1205.24 1208.56 1206.24 1217.76 1206.24 1217.76 1215.44 1218.76 1215.44"/><polygon class="cls-1" points="1194.01 1240.19 1194.01 1230.99 1203.21 1230.99 1203.21 1229.99 1194.01 1229.99 1194.01 1220.79 1193.01 1220.79 1193.01 1229.99 1183.81 1229.99 1183.81 1230.99 1193.01 1230.99 1193.01 1240.19 1194.01 1240.19"/><polygon class="cls-1" points="1194.01 1190.7 1194.01 1181.49 1203.21 1181.49 1203.21 1180.49 1194.01 1180.49 1194.01 1171.29 1193.01 1171.29 1193.01 1180.49 1183.81 1180.49 1183.81 1181.49 1193.01 1181.49 1193.01 1190.7 1194.01 1190.7"/><polygon class="cls-1" points="1317.75 1264.94 1317.75 1255.74 1326.96 1255.74 1326.96 1254.74 1317.75 1254.74 1317.75 1245.54 1316.75 1245.54 1316.75 1254.74 1307.55 1254.74 1307.55 1255.74 1316.75 1255.74 1316.75 1264.94 1317.75 1264.94"/><polygon class="cls-1" points="1293.01 1289.69 1293.01 1280.49 1302.21 1280.49 1302.21 1279.49 1293.01 1279.49 1293.01 1270.29 1292.01 1270.29 1292.01 1279.49 1282.8 1279.49 1282.8 1280.49 1292.01 1280.49 1292.01 1289.69 1293.01 1289.69"/><polygon class="cls-1" points="1020.77 1165.95 1020.77 1156.75 1029.97 1156.75 1029.97 1155.75 1020.77 1155.75 1020.77 1146.54 1019.77 1146.54 1019.77 1155.75 1010.57 1155.75 1010.57 1156.75 1019.77 1156.75 1019.77 1165.95 1020.77 1165.95"/><polygon class="cls-1" points="1070.27 1165.95 1070.27 1156.75 1079.47 1156.75 1079.47 1155.75 1070.27 1155.75 1070.27 1146.54 1069.27 1146.54 1069.27 1155.75 1060.07 1155.75 1060.07 1156.75 1069.27 1156.75 1069.27 1165.95 1070.27 1165.95"/><polygon class="cls-1" points="1045.52 1190.7 1045.52 1181.49 1054.72 1181.49 1054.72 1180.49 1045.52 1180.49 1045.52 1171.29 1044.52 1171.29 1044.52 1180.49 1035.32 1180.49 1035.32 1181.49 1044.52 1181.49 1044.52 1190.7 1045.52 1190.7"/><polygon class="cls-1" points="1045.52 1141.2 1045.52 1132 1054.72 1132 1054.72 1131 1045.52 1131 1045.52 1121.79 1044.52 1121.79 1044.52 1131 1035.32 1131 1035.32 1132 1044.52 1132 1044.52 1141.2 1045.52 1141.2"/><polygon class="cls-1" points="1070.27 1215.44 1070.27 1206.24 1079.47 1206.24 1079.47 1205.24 1070.27 1205.24 1070.27 1196.04 1069.27 1196.04 1069.27 1205.24 1060.07 1205.24 1060.07 1206.24 1069.27 1206.24 1069.27 1215.44 1070.27 1215.44"/><polygon class="cls-1" points="1119.76 1215.44 1119.76 1206.24 1128.97 1206.24 1128.97 1205.24 1119.76 1205.24 1119.76 1196.04 1118.76 1196.04 1118.76 1205.24 1109.56 1205.24 1109.56 1206.24 1118.76 1206.24 1118.76 1215.44 1119.76 1215.44"/><polygon class="cls-1" points="1095.02 1240.19 1095.02 1230.99 1104.22 1230.99 1104.22 1229.99 1095.02 1229.99 1095.02 1220.79 1094.02 1220.79 1094.02 1229.99 1084.81 1229.99 1084.81 1230.99 1094.02 1230.99 1094.02 1240.19 1095.02 1240.19"/><polygon class="cls-1" points="1095.02 1190.7 1095.02 1181.49 1104.22 1181.49 1104.22 1180.49 1095.02 1180.49 1095.02 1171.29 1094.02 1171.29 1094.02 1180.49 1084.81 1180.49 1084.81 1181.49 1094.02 1181.49 1094.02 1190.7 1095.02 1190.7"/><polygon class="cls-1" points="1020.77 1264.94 1020.77 1255.74 1029.97 1255.74 1029.97 1254.74 1020.77 1254.74 1020.77 1245.54 1019.77 1245.54 1019.77 1254.74 1010.57 1254.74 1010.57 1255.74 1019.77 1255.74 1019.77 1264.94 1020.77 1264.94"/><polygon class="cls-1" points="1070.27 1264.94 1070.27 1255.74 1079.47 1255.74 1079.47 1254.74 1070.27 1254.74 1070.27 1245.54 1069.27 1245.54 1069.27 1254.74 1060.07 1254.74 1060.07 1255.74 1069.27 1255.74 1069.27 1264.94 1070.27 1264.94"/><polygon class="cls-1" points="1045.52 1289.69 1045.52 1280.49 1054.72 1280.49 1054.72 1279.49 1045.52 1279.49 1045.52 1270.29 1044.52 1270.29 1044.52 1279.49 1035.32 1279.49 1035.32 1280.49 1044.52 1280.49 1044.52 1289.69 1045.52 1289.69"/><polygon class="cls-1" points="1045.52 1240.19 1045.52 1230.99 1054.72 1230.99 1054.72 1229.99 1045.52 1229.99 1045.52 1220.79 1044.52 1220.79 1044.52 1229.99 1035.32 1229.99 1035.32 1230.99 1044.52 1230.99 1044.52 1240.19 1045.52 1240.19"/><polygon class="cls-1" points="971.27 1215.44 971.27 1206.24 980.48 1206.24 980.48 1205.24 971.27 1205.24 971.27 1196.04 970.27 1196.04 970.27 1205.24 961.07 1205.24 961.07 1206.24 970.27 1206.24 970.27 1215.44 971.27 1215.44"/><polygon class="cls-1" points="1020.77 1215.44 1020.77 1206.24 1029.97 1206.24 1029.97 1205.24 1020.77 1205.24 1020.77 1196.04 1019.77 1196.04 1019.77 1205.24 1010.57 1205.24 1010.57 1206.24 1019.77 1206.24 1019.77 1215.44 1020.77 1215.44"/><polygon class="cls-1" points="996.02 1240.19 996.02 1230.99 1005.22 1230.99 1005.22 1229.99 996.02 1229.99 996.02 1220.79 995.02 1220.79 995.02 1229.99 985.82 1229.99 985.82 1230.99 995.02 1230.99 995.02 1240.19 996.02 1240.19"/><polygon class="cls-1" points="996.02 1190.7 996.02 1181.49 1005.22 1181.49 1005.22 1180.49 996.02 1180.49 996.02 1171.29 995.02 1171.29 995.02 1180.49 985.82 1180.49 985.82 1181.49 995.02 1181.49 995.02 1190.7 996.02 1190.7"/><polygon class="cls-1" points="1119.76 1264.94 1119.76 1255.74 1128.97 1255.74 1128.97 1254.74 1119.76 1254.74 1119.76 1245.54 1118.76 1245.54 1118.76 1254.74 1109.56 1254.74 1109.56 1255.74 1118.76 1255.74 1118.76 1264.94 1119.76 1264.94"/><polygon class="cls-1" points="1169.26 1264.94 1169.26 1255.74 1178.47 1255.74 1178.47 1254.74 1169.26 1254.74 1169.26 1245.54 1168.26 1245.54 1168.26 1254.74 1159.06 1254.74 1159.06 1255.74 1168.26 1255.74 1168.26 1264.94 1169.26 1264.94"/><polygon class="cls-1" points="1144.51 1289.69 1144.51 1280.49 1153.72 1280.49 1153.72 1279.49 1144.51 1279.49 1144.51 1270.29 1143.51 1270.29 1143.51 1279.49 1134.31 1279.49 1134.31 1280.49 1143.51 1280.49 1143.51 1289.69 1144.51 1289.69"/><polygon class="cls-1" points="1144.51 1240.19 1144.51 1230.99 1153.72 1230.99 1153.72 1229.99 1144.51 1229.99 1144.51 1220.79 1143.51 1220.79 1143.51 1229.99 1134.31 1229.99 1134.31 1230.99 1143.51 1230.99 1143.51 1240.19 1144.51 1240.19"/><polygon class="cls-1" points="1194.01 1289.69 1194.01 1280.49 1203.21 1280.49 1203.21 1279.49 1194.01 1279.49 1194.01 1270.29 1193.01 1270.29 1193.01 1279.49 1183.81 1279.49 1183.81 1280.49 1193.01 1280.49 1193.01 1289.69 1194.01 1289.69"/><polygon class="cls-1" points="1095.02 1289.69 1095.02 1280.49 1104.22 1280.49 1104.22 1279.49 1095.02 1279.49 1095.02 1270.29 1094.02 1270.29 1094.02 1279.49 1084.81 1279.49 1084.81 1280.49 1094.02 1280.49 1094.02 1289.69 1095.02 1289.69"/><polygon class="cls-1" points="921.77 1264.94 921.77 1255.74 930.98 1255.74 930.98 1254.74 921.77 1254.74 921.77 1245.54 920.77 1245.54 920.77 1254.74 911.57 1254.74 911.57 1255.74 920.77 1255.74 920.77 1264.94 921.77 1264.94"/><polygon class="cls-1" points="971.27 1264.94 971.27 1255.74 980.48 1255.74 980.48 1254.74 971.27 1254.74 971.27 1245.54 970.27 1245.54 970.27 1254.74 961.07 1254.74 961.07 1255.74 970.27 1255.74 970.27 1264.94 971.27 1264.94"/><polygon class="cls-1" points="946.52 1289.69 946.52 1280.49 955.73 1280.49 955.73 1279.49 946.52 1279.49 946.52 1270.29 945.52 1270.29 945.52 1279.49 936.32 1279.49 936.32 1280.49 945.52 1280.49 945.52 1289.69 946.52 1289.69"/><polygon class="cls-1" points="946.52 1240.19 946.52 1230.99 955.73 1230.99 955.73 1229.99 946.52 1229.99 946.52 1220.79 945.52 1220.79 945.52 1229.99 936.32 1229.99 936.32 1230.99 945.52 1230.99 945.52 1240.19 946.52 1240.19"/><polygon class="cls-1" points="996.02 1289.69 996.02 1280.49 1005.22 1280.49 1005.22 1279.49 996.02 1279.49 996.02 1270.29 995.02 1270.29 995.02 1279.49 985.82 1279.49 985.82 1280.49 995.02 1280.49 995.02 1289.69 996.02 1289.69"/><polygon class="cls-1" points="897.03 1289.69 897.03 1280.49 906.23 1280.49 906.23 1279.49 897.03 1279.49 897.03 1270.29 896.03 1270.29 896.03 1279.49 886.83 1279.49 886.83 1280.49 896.03 1280.49 896.03 1289.69 897.03 1289.69"/></g><path class="cls-2" d="M300,1340.52a279.72,279.72,0,0,1-27.94-76.67c-25.45-124.39-33.92-257.32,50.56-342.07,43.92-44.06,93.93-65.2,183.4-95.81,202.74-69.36,293.09-204.78,457.55-283.6,117-56.07,386.17-126,548.84-35.2,148.9,83.09,162.43,356,88.62,675.55a570.92,570.92,0,0,1-89.78,200.33h0A608.17,608.17,0,0,1,1270.89,1584h0a608.07,608.07,0,0,1-235.12,56.46l-23.22.82a927.71,927.71,0,0,1-276.69-32h0a927.57,927.57,0,0,1-238.71-102.73l-55.64-33.88-43.23-27.14a282.06,282.06,0,0,1-98.29-105Z"/><path class="cls-2" d="M538,855.64c190.92-67.88,269.86-190.76,424.16-264.22,118.2-55.8,378.46-111.77,531.34-19.72,131.79,79.35,142.47,321.06,80.39,608.5-15.56,72-47,139.56-90.43,198.81-6.36,8.68-14.44,18.78-21.2,27.1-42.61,52.39-95.62,94.75-153.42,128.85h0a531.4,531.4,0,0,1-57.76,29h0c-70.77,30.86-147,50.62-224.48,50.37-.5,0-21.62.67-22.12.67-82.53-.69-165-5.88-245.1-25.58-5.78-1.42-12.79-3.13-18.53-4.69h0c-4-1.08-8.8-2.32-12.74-3.46-61.18-17.64-133.26-44.59-189.13-75-9-4.88-18-9.69-26.8-14.78-1.37-.21-52.18-30.6-53.52-30.94-1-.27-40.56-24.57-41.55-25-41-19.08-70-57.19-91.57-96.8h0c-13.22-21.62-21-46.14-26.16-70.94-15.59-74.91-23.49-153.41-4.75-220.6,9.84-35.66,26.92-68.29,54.27-95.54C395,905.61,446.22,888.26,538,855.64Z"/><path class="cls-2" d="M570,885.3c179.17-66.11,246.41-177.17,390.76-244.83,119.21-55.89,370.52-97.88,513.83-4.25,114.86,75,123.37,286.34,72.16,541.45-14.47,72.11-46.72,139.1-91.08,197.31-5.7,7.49-14.67,18-20.66,25.22-40.9,49.26-93.2,86.66-148.33,118h0c-17.64,10-35.46,21.18-55.42,25.69h0c-71.24,16.09-140.22,44.71-213.84,44.27-1,0-20,.53-21,.52-78.38-.89-156.8-5.76-232.95-24.21-5.05-1.22-12.61-3-17.63-4.32h0c-3.47-.94-8.67-2.18-12.13-3.17-53.53-15.44-131.48-41.47-180.75-67.41-8.53-4.49-16.59-10.15-25.75-13.24-2.61-.88-48.71-27.34-51.39-28-2.09-.53-37.89-22-39.86-22.92-37.93-17.47-64.85-52.29-84.86-88.6h0a237,237,0,0,1-24.38-65.23c-14.58-68.74-20.83-141-2.42-202.78,9.68-32.5,25.62-62.41,50.91-87.42C423.51,933.5,475.91,920,570,885.3Z"/><path class="cls-2" d="M602,915c167.5-64.1,223.13-163.26,357.37-225.45,120.33-55.74,362.37-84.39,496.33,11.24,98.14,70.07,105.12,251.84,63.92,474.4-13.37,72.23-46.39,138.58-91.72,195.8-5,6.32-14.92,17.21-20.12,23.33-39.22,46.16-90.74,78.55-143.25,107.06h0c-16.8,9.12-34.17,18.47-53.08,22.44h0c-67.46,14.15-133.47,38.8-203.19,38.17-1.48,0-18.43.39-19.91.36-74.24-1.09-148.59-5.64-220.79-22.83-4.34-1-12.43-2.78-16.74-4h0c-3-.81-8.55-2-11.51-2.89-45.88-13.23-129.79-38.23-172.38-59.77-8.12-4.11-16-8.93-24.69-11.71-3.94-1.26-45.24-24.06-49.26-25.08-3.15-.79-35.22-19.45-38.18-20.8-34.84-15.85-58.25-48.26-78.15-80.41h0a216,216,0,0,1-22.6-59.5c-13.57-62.58-18.29-128.6-.09-185,9.48-29.35,24.34-56.52,47.54-79.3C452,961.4,505.62,951.84,602,915Z"/><path class="cls-2" d="M633.94,944.63c155.92-61.87,199.87-149.3,324-206.07C1079.38,683,1312,667.13,1436.74,765.28c81.76,64.33,87.75,217.54,55.7,407.34-12.23,72.41-46,138-92.38,194.3-4.27,5.19-15.18,16.41-19.58,21.45-37.54,43.07-88.21,70.4-138.17,96.16h0c-16,8.24-32.86,15.75-50.73,19.18h0c-63.74,12.23-126.71,32.89-192.54,32.08-2,0-16.84.24-18.81.21-70.1-1.29-140.38-5.53-208.63-21.47-3.62-.85-12.26-2.61-15.84-3.58h0c-2.48-.68-8.44-1.9-10.91-2.61-38.23-11-128.19-34.84-164-52.14-7.72-3.72-15.41-7.7-23.63-10.17-5.29-1.59-41.78-20.8-47.14-22.15-4.2-1.06-32.54-16.91-36.5-18.69C441.84,1391,420.24,1362,402.15,1333h0c-10.24-16.41-16.61-34.94-20.82-53.78-12.56-56.41-15.75-116.2,2.24-167.15,9.26-26.21,23.08-50.61,44.17-71.18C480.55,989.32,535.35,983.75,633.94,944.63Z"/><path class="cls-2" d="M665.93,974.29C810.33,914.87,842.57,839,956.51,787.6c122.62-55.34,345.81-59.16,461.32,42.2,65.81,57.76,71.26,183.46,47.46,340.3-11,72.63-45.6,137.36-93,192.79-3.5,4.08-15.47,15.59-19,19.57-35.88,40-85.6,62.21-133.08,85.26h0a181.83,181.83,0,0,1-48.39,15.92h0c-60.07,10.32-120,27-181.9,26-2.46,0-15.24.12-17.7.06-66-1.49-132.16-5.4-196.48-20.1-2.9-.67-12.07-2.43-14.94-3.21h0c-2-.54-8.32-1.76-10.29-2.33-30.59-8.82-126.7-31.26-155.63-44.49a153.26,153.26,0,0,0-22.57-8.64c-6.65-1.86-38.32-17.54-45-19.22-5.24-1.32-29.85-14.39-34.81-16.57-28.65-12.64-48.44-38.2-64.71-64h0c-9.26-14.68-15.16-31.21-19.05-48.07-11.56-50.24-13.24-103.8,4.57-149.33,9-23.06,21.83-44.69,40.8-63.06C509.09,1017.26,565.13,1015.78,665.93,974.29Z"/><path class="cls-2" d="M697.91,1004c133-56.8,153.44-121.18,257.19-167.31,123.81-55.06,337.89-47.88,443.81,57.68,50.45,50.28,55.67,149.53,39.24,273.25-9.69,72.89-45.14,136.65-93.68,191.28-2.68,3-15.77,14.75-18.5,17.69-34.26,37-82.91,54-128,74.36h0c-14.43,6.53-30.21,10.31-46,12.67h0c-56.5,8.41-113.21,21.06-171.26,19.88-3-.06-13.64,0-16.6-.09-61.83-1.7-123.93-5.29-184.32-18.74-2.18-.49-11.9-2.25-14-2.84h0c-1.49-.41-8.2-1.62-9.68-2-22.94-6.62-125.33-27.45-147.25-36.86a144.88,144.88,0,0,0-21.51-7.11c-8-2-34.86-14.26-42.89-16.28-6.3-1.59-27.16-11.89-33.13-14.46-25.57-11-43.55-33.16-58-55.84h0c-8.26-12.94-13.69-27.47-17.27-42.34-10.55-44.08-10.76-91.42,6.91-131.52,8.77-19.92,20.58-38.76,37.42-54.94C537.67,1045.23,595,1047.93,697.91,1004Z"/><path class="cls-2" d="M729.89,1033.62c121.62-54,130.27-107,223.8-147.93,125-54.69,331.16-38.08,426.31,73.17,35.84,41.91,41,115.75,31,206.19-8.07,73.22-44.61,135.9-94.32,189.77-1.83,2-16.11,13.89-18,15.82-32.66,33.95-80.09,45.68-122.92,63.46h0c-13.69,5.69-28.83,7.58-43.69,9.41h0c-53,6.53-106.45,15.15-160.61,13.79-3.45-.09-12-.14-15.5-.25-57.7-1.9-115.7-5.16-172.17-17.37-1.45-.32-11.71-2.08-13.15-2.47h0c-1-.27-8.08-1.47-9.06-1.76-15.3-4.41-124.1-23.34-138.88-29.22-6.57-2.61-13.56-4-20.45-5.57-9.43-2.14-31.39-11-40.77-13.36-7.34-1.85-24.45-9.41-31.44-12.34-22.49-9.43-38.65-28.12-51.29-47.64h0a122.08,122.08,0,0,1-15.49-36.63c-9.54-37.92-8.33-79,9.24-113.7,8.5-16.79,19.35-32.81,34.05-46.82C566.29,1073.25,624.86,1080.25,729.89,1033.62Z"/><path class="cls-2" d="M761.88,1063.28c110.34-51,107.12-92.8,190.4-128.54,126.31-54.21,327.81-30.76,408.8,88.65,22.25,32.81,27.16,82.06,22.77,139.14-5.66,73.63-44,135.08-95,188.26-.93,1-16.47,13-17.42,13.94-31.11,31-75,45.29-117.84,52.57h0c-13.7,2.32-27.44,4.84-41.35,6.14h0c-49.64,4.66-99.68,9.25-150,7.7-3.94-.12-10.45-.25-14.39-.41-53.58-2.1-107.46-5-160-16-.73-.15-11.54-1.9-12.25-2.1h0c-.5-.13-8-1.33-8.46-1.47-7.64-2.21-123-18.88-130.51-21.59-6.2-2.25-12.9-2.78-19.38-4-10.85-2.11-27.93-7.72-38.64-10.42-8.4-2.11-21.73-7-29.77-10.23-19.41-7.83-33.73-23.07-44.57-39.45h0a105.59,105.59,0,0,1-13.71-30.91c-8.53-31.75-5.95-66.71,11.57-95.88a179.94,179.94,0,0,1,30.68-38.7C595,1101.33,654.87,1112.78,761.88,1063.28Z"/><path class="cls-2" d="M567.72,1354.8a420,420,0,0,0,82.92,18.11l122.14,13.95,19.19,2.92a1428.57,1428.57,0,0,0,339.48,10.71h0a228.35,228.35,0,0,0,112.75-41.67l16.88-12.06c60.28-43.06,96.52-112.68,95.63-186.76-.29-23.83-4.41-48.37-14.54-72.09-56.29-131.75-263.65-157.68-391.3-104.12-73,30.63-57.85,61.21-157,109.16-108.84,52.63-170.1,36.58-234.72,96.75a226.34,226.34,0,0,0-27.31,30.58c-34.13,45.9-16.53,111.64,35.89,134.52Z"/><polygon class="cls-1" points="1143.52 1320.6 1143.52 1329.8 1134.31 1329.8 1134.31 1330.8 1143.52 1330.8 1143.52 1340 1144.52 1340 1144.52 1330.8 1153.72 1330.8 1153.72 1329.8 1144.52 1329.8 1144.52 1320.6 1143.52 1320.6"/><polygon class="cls-1" points="1094.02 1320.6 1094.02 1329.8 1084.82 1329.8 1084.82 1330.8 1094.02 1330.8 1094.02 1340 1095.02 1340 1095.02 1330.8 1104.22 1330.8 1104.22 1329.8 1095.02 1329.8 1095.02 1320.6 1094.02 1320.6"/><polygon class="cls-1" points="1118.77 1295.85 1118.77 1305.05 1109.56 1305.05 1109.56 1306.05 1118.77 1306.05 1118.77 1315.25 1119.77 1315.25 1119.77 1306.05 1128.97 1306.05 1128.97 1305.05 1119.77 1305.05 1119.77 1295.85 1118.77 1295.85"/><polygon class="cls-1" points="1118.77 1345.35 1118.77 1354.55 1109.56 1354.55 1109.56 1355.55 1118.77 1355.55 1118.77 1364.75 1119.77 1364.75 1119.77 1355.55 1128.97 1355.55 1128.97 1354.55 1119.77 1354.55 1119.77 1345.35 1118.77 1345.35"/><polygon class="cls-1" points="1069.27 1295.85 1069.27 1305.05 1060.07 1305.05 1060.07 1306.05 1069.27 1306.05 1069.27 1315.25 1070.27 1315.25 1070.27 1306.05 1079.47 1306.05 1079.47 1305.05 1070.27 1305.05 1070.27 1295.85 1069.27 1295.85"/><polygon class="cls-1" points="1168.26 1295.85 1168.26 1305.05 1159.06 1305.05 1159.06 1306.05 1168.26 1306.05 1168.26 1315.25 1169.26 1315.25 1169.26 1306.05 1178.47 1306.05 1178.47 1305.05 1169.26 1305.05 1169.26 1295.85 1168.26 1295.85"/><polygon class="cls-1" points="1267.26 1295.85 1267.26 1305.05 1258.06 1305.05 1258.06 1306.05 1267.26 1306.05 1267.26 1315.25 1268.26 1315.25 1268.26 1306.05 1277.46 1306.05 1277.46 1305.05 1268.26 1305.05 1268.26 1295.85 1267.26 1295.85"/><polygon class="cls-1" points="1217.76 1295.85 1217.76 1305.05 1208.56 1305.05 1208.56 1306.05 1217.76 1306.05 1217.76 1315.25 1218.76 1315.25 1218.76 1306.05 1227.96 1306.05 1227.96 1305.05 1218.76 1305.05 1218.76 1295.85 1217.76 1295.85"/><polygon class="cls-1" points="1242.51 1320.6 1242.51 1329.8 1233.31 1329.8 1233.31 1330.8 1242.51 1330.8 1242.51 1340 1243.51 1340 1243.51 1330.8 1252.71 1330.8 1252.71 1329.8 1243.51 1329.8 1243.51 1320.6 1242.51 1320.6"/><polygon class="cls-1" points="1143.51 1370.1 1143.51 1379.3 1134.31 1379.3 1134.31 1380.3 1143.51 1380.3 1143.51 1389.5 1144.51 1389.5 1144.51 1380.3 1153.72 1380.3 1153.72 1379.3 1144.51 1379.3 1144.51 1370.1 1143.51 1370.1"/><polygon class="cls-1" points="1217.76 1345.35 1217.76 1354.55 1208.56 1354.55 1208.56 1355.55 1217.76 1355.55 1217.76 1364.75 1218.76 1364.75 1218.76 1355.55 1227.96 1355.55 1227.96 1354.55 1218.76 1354.55 1218.76 1345.35 1217.76 1345.35"/><polygon class="cls-1" points="1168.26 1345.35 1168.26 1354.55 1159.06 1354.55 1159.06 1355.55 1168.26 1355.55 1168.26 1364.75 1169.26 1364.75 1169.26 1355.55 1178.46 1355.55 1178.46 1354.55 1169.26 1354.55 1169.26 1345.35 1168.26 1345.35"/><polygon class="cls-1" points="1193.01 1320.6 1193.01 1329.8 1183.81 1329.8 1183.81 1330.8 1193.01 1330.8 1193.01 1340 1194.01 1340 1194.01 1330.8 1203.21 1330.8 1203.21 1329.8 1194.01 1329.8 1194.01 1320.6 1193.01 1320.6"/><polygon class="cls-1" points="995.02 1370.1 995.02 1379.3 985.82 1379.3 985.82 1380.3 995.02 1380.3 995.02 1389.5 996.02 1389.5 996.02 1380.3 1005.22 1380.3 1005.22 1379.3 996.02 1379.3 996.02 1370.1 995.02 1370.1"/><polygon class="cls-1" points="945.53 1370.1 945.53 1379.3 936.32 1379.3 936.32 1380.3 945.53 1380.3 945.53 1389.5 946.53 1389.5 946.53 1380.3 955.73 1380.3 955.73 1379.3 946.53 1379.3 946.53 1370.1 945.53 1370.1"/><polygon class="cls-1" points="970.27 1345.35 970.27 1354.55 961.07 1354.55 961.07 1355.55 970.27 1355.55 970.27 1364.75 971.27 1364.75 971.27 1355.55 980.47 1355.55 980.47 1354.55 971.27 1354.55 971.27 1345.35 970.27 1345.35"/><polygon class="cls-1" points="1044.52 1320.6 1044.52 1329.8 1035.32 1329.8 1035.32 1330.8 1044.52 1330.8 1044.52 1340 1045.52 1340 1045.52 1330.8 1054.72 1330.8 1054.72 1329.8 1045.52 1329.8 1045.52 1320.6 1044.52 1320.6"/><polygon class="cls-1" points="995.02 1320.6 995.02 1329.8 985.82 1329.8 985.82 1330.8 995.02 1330.8 995.02 1340 996.02 1340 996.02 1330.8 1005.22 1330.8 1005.22 1329.8 996.02 1329.8 996.02 1320.6 995.02 1320.6"/><polygon class="cls-1" points="1019.77 1295.85 1019.77 1305.05 1010.57 1305.05 1010.57 1306.05 1019.77 1306.05 1019.77 1315.25 1020.77 1315.25 1020.77 1306.05 1029.97 1306.05 1029.97 1305.05 1020.77 1305.05 1020.77 1295.85 1019.77 1295.85"/><polygon class="cls-1" points="1019.77 1345.35 1019.77 1354.55 1010.57 1354.55 1010.57 1355.55 1019.77 1355.55 1019.77 1364.75 1020.77 1364.75 1020.77 1355.55 1029.97 1355.55 1029.97 1354.55 1020.77 1354.55 1020.77 1345.35 1019.77 1345.35"/><polygon class="cls-1" points="1094.02 1370.1 1094.02 1379.3 1084.82 1379.3 1084.82 1380.3 1094.02 1380.3 1094.02 1389.5 1095.02 1389.5 1095.02 1380.3 1104.22 1380.3 1104.22 1379.3 1095.02 1379.3 1095.02 1370.1 1094.02 1370.1"/><polygon class="cls-1" points="1044.52 1370.1 1044.52 1379.3 1035.32 1379.3 1035.32 1380.3 1044.52 1380.3 1044.52 1389.5 1045.52 1389.5 1045.52 1380.3 1054.72 1380.3 1054.72 1379.3 1045.52 1379.3 1045.52 1370.1 1044.52 1370.1"/><polygon class="cls-1" points="1069.27 1345.35 1069.27 1354.55 1060.07 1354.55 1060.07 1355.55 1069.27 1355.55 1069.27 1364.75 1070.27 1364.75 1070.27 1355.55 1079.47 1355.55 1079.47 1354.55 1070.27 1354.55 1070.27 1345.35 1069.27 1345.35"/><polygon class="cls-1" points="648.54 1320.6 648.54 1329.8 639.34 1329.8 639.34 1330.8 648.54 1330.8 648.54 1340 649.54 1340 649.54 1330.8 658.74 1330.8 658.74 1329.8 649.54 1329.8 649.54 1320.6 648.54 1320.6"/><polygon class="cls-1" points="599.04 1320.6 599.04 1329.8 589.84 1329.8 589.84 1330.8 599.04 1330.8 599.04 1340 600.04 1340 600.04 1330.8 609.24 1330.8 609.24 1329.8 600.04 1329.8 600.04 1320.6 599.04 1320.6"/><polygon class="cls-1" points="623.79 1295.85 623.79 1305.05 614.59 1305.05 614.59 1306.05 623.79 1306.05 623.79 1315.25 624.79 1315.25 624.79 1306.05 633.99 1306.05 633.99 1305.05 624.79 1305.05 624.79 1295.85 623.79 1295.85"/><polygon class="cls-1" points="623.79 1345.35 623.79 1354.55 614.59 1354.55 614.59 1355.55 623.79 1355.55 623.79 1364.75 624.79 1364.75 624.79 1355.55 633.99 1355.55 633.99 1354.55 624.79 1354.55 624.79 1345.35 623.79 1345.35"/><polygon class="cls-1" points="673.29 1345.35 673.29 1354.55 664.09 1354.55 664.09 1355.55 673.29 1355.55 673.29 1364.75 674.29 1364.75 674.29 1355.55 683.49 1355.55 683.49 1354.55 674.29 1354.55 674.29 1345.35 673.29 1345.35"/><polygon class="cls-1" points="574.29 1295.85 574.29 1305.05 565.09 1305.05 565.09 1306.05 574.29 1306.05 574.29 1315.25 575.29 1315.25 575.29 1306.05 584.5 1306.05 584.5 1305.05 575.29 1305.05 575.29 1295.85 574.29 1295.85"/><polygon class="cls-1" points="772.28 1345.35 772.28 1354.55 763.08 1354.55 763.08 1355.55 772.28 1355.55 772.28 1364.75 773.28 1364.75 773.28 1355.55 782.49 1355.55 782.49 1354.55 773.28 1354.55 773.28 1345.35 772.28 1345.35"/><polygon class="cls-1" points="846.53 1320.6 846.53 1329.8 837.33 1329.8 837.33 1330.8 846.53 1330.8 846.53 1340 847.53 1340 847.53 1330.8 856.73 1330.8 856.73 1329.8 847.53 1329.8 847.53 1320.6 846.53 1320.6"/><polygon class="cls-1" points="797.03 1320.6 797.03 1329.8 787.83 1329.8 787.83 1330.8 797.03 1330.8 797.03 1340 798.03 1340 798.03 1330.8 807.23 1330.8 807.23 1329.8 798.03 1329.8 798.03 1320.6 797.03 1320.6"/><polygon class="cls-1" points="821.78 1295.85 821.78 1305.05 812.58 1305.05 812.58 1306.05 821.78 1306.05 821.78 1315.25 822.78 1315.25 822.78 1306.05 831.98 1306.05 831.98 1305.05 822.78 1305.05 822.78 1295.85 821.78 1295.85"/><polygon class="cls-1" points="821.78 1345.35 821.78 1354.55 812.58 1354.55 812.58 1355.55 821.78 1355.55 821.78 1364.75 822.78 1364.75 822.78 1355.55 831.98 1355.55 831.98 1354.55 822.78 1354.55 822.78 1345.35 821.78 1345.35"/><polygon class="cls-1" points="896.03 1370.1 896.03 1379.3 886.82 1379.3 886.82 1380.3 896.03 1380.3 896.03 1389.5 897.03 1389.5 897.03 1380.3 906.23 1380.3 906.23 1379.3 897.03 1379.3 897.03 1370.1 896.03 1370.1"/><polygon class="cls-1" points="846.53 1370.1 846.53 1379.3 837.33 1379.3 837.33 1380.3 846.53 1380.3 846.53 1389.5 847.53 1389.5 847.53 1380.3 856.73 1380.3 856.73 1379.3 847.53 1379.3 847.53 1370.1 846.53 1370.1"/><polygon class="cls-1" points="871.28 1345.35 871.28 1354.55 862.08 1354.55 862.08 1355.55 871.28 1355.55 871.28 1364.75 872.28 1364.75 872.28 1355.55 881.48 1355.55 881.48 1354.55 872.28 1354.55 872.28 1345.35 871.28 1345.35"/><polygon class="cls-1" points="747.54 1320.6 747.54 1329.8 738.33 1329.8 738.33 1330.8 747.54 1330.8 747.54 1340 748.54 1340 748.54 1330.8 757.74 1330.8 757.74 1329.8 748.54 1329.8 748.54 1320.6 747.54 1320.6"/><polygon class="cls-1" points="698.04 1320.6 698.04 1329.8 688.83 1329.8 688.83 1330.8 698.04 1330.8 698.04 1340 699.04 1340 699.04 1330.8 708.24 1330.8 708.24 1329.8 699.04 1329.8 699.04 1320.6 698.04 1320.6"/><polygon class="cls-1" points="722.79 1295.85 722.79 1305.05 713.58 1305.05 713.58 1306.05 722.79 1306.05 722.79 1315.25 723.79 1315.25 723.79 1306.05 732.99 1306.05 732.99 1305.05 723.79 1305.05 723.79 1295.85 722.79 1295.85"/><polygon class="cls-1" points="722.79 1345.35 722.79 1354.55 713.58 1354.55 713.58 1355.55 722.79 1355.55 722.79 1364.75 723.79 1364.75 723.79 1355.55 732.99 1355.55 732.99 1354.55 723.79 1354.55 723.79 1345.35 722.79 1345.35"/><polygon class="cls-1" points="673.29 1295.85 673.29 1305.05 664.09 1305.05 664.09 1306.05 673.29 1306.05 673.29 1315.25 674.29 1315.25 674.29 1306.05 683.49 1306.05 683.49 1305.05 674.29 1305.05 674.29 1295.85 673.29 1295.85"/><polygon class="cls-1" points="772.28 1295.85 772.28 1305.05 763.08 1305.05 763.08 1306.05 772.28 1306.05 772.28 1315.25 773.28 1315.25 773.28 1306.05 782.49 1306.05 782.49 1305.05 773.28 1305.05 773.28 1295.85 772.28 1295.85"/><polygon class="cls-1" points="945.53 1320.6 945.53 1329.8 936.32 1329.8 936.32 1330.8 945.53 1330.8 945.53 1340 946.53 1340 946.53 1330.8 955.73 1330.8 955.73 1329.8 946.53 1329.8 946.53 1320.6 945.53 1320.6"/><polygon class="cls-1" points="896.03 1320.6 896.03 1329.8 886.82 1329.8 886.82 1330.8 896.03 1330.8 896.03 1340 897.03 1340 897.03 1330.8 906.23 1330.8 906.23 1329.8 897.03 1329.8 897.03 1320.6 896.03 1320.6"/><polygon class="cls-1" points="920.78 1295.85 920.78 1305.05 911.57 1305.05 911.57 1306.05 920.78 1306.05 920.78 1315.25 921.78 1315.25 921.78 1306.05 930.98 1306.05 930.98 1305.05 921.78 1305.05 921.78 1295.85 920.78 1295.85"/><polygon class="cls-1" points="920.78 1345.35 920.78 1354.55 911.57 1354.55 911.57 1355.55 920.78 1355.55 920.78 1364.75 921.78 1364.75 921.78 1355.55 930.98 1355.55 930.98 1354.55 921.78 1354.55 921.78 1345.35 920.78 1345.35"/><polygon class="cls-1" points="871.28 1295.85 871.28 1305.05 862.08 1305.05 862.08 1306.05 871.28 1306.05 871.28 1315.25 872.28 1315.25 872.28 1306.05 881.48 1306.05 881.48 1305.05 872.28 1305.05 872.28 1295.85 871.28 1295.85"/><polygon class="cls-1" points="970.27 1295.85 970.27 1305.05 961.07 1305.05 961.07 1306.05 970.27 1306.05 970.27 1315.25 971.27 1315.25 971.27 1306.05 980.47 1306.05 980.47 1305.05 971.27 1305.05 971.27 1295.85 970.27 1295.85"/></svg>