<svg id="Layer_1" data-name="Layer 1" xmlns="http://www.w3.org/2000/svg" viewBox="0 0 849.91 1434.07"><defs><style>.cls-1{fill:#ff5733;}.cls-2{fill:none;stroke:#ff5733;stroke-miterlimit:10;stroke-width:2px;}</style></defs><g id="Layer_4" data-name="Layer 4"><polygon class="cls-1" points="816.82 944.58 807.62 944.58 807.62 935.37 806.62 935.37 806.62 944.58 797.42 944.58 797.42 945.58 806.62 945.58 806.62 954.78 807.62 954.78 807.62 945.58 816.82 945.58 816.82 944.58"/><polygon class="cls-1" points="816.82 895.08 807.62 895.08 807.62 885.88 806.62 885.88 806.62 895.08 797.42 895.08 797.42 896.08 806.62 896.08 806.62 905.28 807.62 905.28 807.62 896.08 816.82 896.08 816.82 895.08"/><polygon class="cls-1" points="841.57 919.83 832.37 919.83 832.37 910.62 831.37 910.62 831.37 919.83 822.17 919.83 822.17 920.83 831.37 920.83 831.37 930.03 832.37 930.03 832.37 920.83 841.57 920.83 841.57 919.83"/><polygon class="cls-1" points="792.07 919.83 782.87 919.83 782.87 910.62 781.87 910.62 781.87 919.83 772.67 919.83 772.67 920.83 781.87 920.83 781.87 930.03 782.87 930.03 782.87 920.83 792.07 920.83 792.07 919.83"/><polygon class="cls-1" points="841.57 870.33 832.37 870.33 832.37 861.13 831.37 861.13 831.37 870.33 822.17 870.33 822.17 871.33 831.37 871.33 831.37 880.53 832.37 880.53 832.37 871.33 841.57 871.33 841.57 870.33"/><polygon class="cls-1" points="841.57 969.32 832.37 969.32 832.37 960.12 831.37 960.12 831.37 969.32 822.17 969.32 822.17 970.32 831.37 970.32 831.37 979.53 832.37 979.53 832.37 970.32 841.57 970.32 841.57 969.32"/><polygon class="cls-1" points="792.07 1117.82 782.87 1117.82 782.87 1108.61 781.87 1108.61 781.87 1117.82 772.67 1117.82 772.67 1118.82 781.87 1118.82 781.87 1128.02 782.87 1128.02 782.87 1118.82 792.07 1118.82 792.07 1117.82"/><polygon class="cls-1" points="792.07 1068.32 782.87 1068.32 782.87 1059.12 781.87 1059.12 781.87 1068.32 772.67 1068.32 772.67 1069.32 781.87 1069.32 781.87 1078.52 782.87 1078.52 782.87 1069.32 792.07 1069.32 792.07 1068.32"/><polygon class="cls-1" points="816.82 1093.07 807.62 1093.07 807.62 1083.86 806.62 1083.86 806.62 1093.07 797.42 1093.07 797.42 1094.07 806.62 1094.07 806.62 1103.27 807.62 1103.27 807.62 1094.07 816.82 1094.07 816.82 1093.07"/><polygon class="cls-1" points="767.32 1093.07 758.12 1093.07 758.12 1083.86 757.12 1083.86 757.12 1093.07 747.92 1093.07 747.92 1094.07 757.12 1094.07 757.12 1103.27 758.12 1103.27 758.12 1094.07 767.32 1094.07 767.32 1093.07"/><polygon class="cls-1" points="841.57 1068.32 832.37 1068.32 832.37 1059.12 831.37 1059.12 831.37 1068.32 822.17 1068.32 822.17 1069.32 831.37 1069.32 831.37 1078.52 832.37 1078.52 832.37 1069.32 841.57 1069.32 841.57 1068.32"/><polygon class="cls-1" points="841.57 1018.82 832.37 1018.82 832.37 1009.62 831.37 1009.62 831.37 1018.82 822.17 1018.82 822.17 1019.82 831.37 1019.82 831.37 1029.02 832.37 1029.02 832.37 1019.82 841.57 1019.82 841.57 1018.82"/><polygon class="cls-1" points="816.82 1043.57 807.62 1043.57 807.62 1034.37 806.62 1034.37 806.62 1043.57 797.42 1043.57 797.42 1044.57 806.62 1044.57 806.62 1053.77 807.62 1053.77 807.62 1044.57 816.82 1044.57 816.82 1043.57"/><polygon class="cls-1" points="841.57 1117.82 832.37 1117.82 832.37 1108.61 831.37 1108.61 831.37 1117.82 822.17 1117.82 822.17 1118.82 831.37 1118.82 831.37 1128.02 832.37 1128.02 832.37 1118.82 841.57 1118.82 841.57 1117.82"/><polygon class="cls-1" points="742.58 969.32 733.37 969.32 733.37 960.12 732.37 960.12 732.37 969.32 723.17 969.32 723.17 970.32 732.37 970.32 732.37 979.52 733.37 979.52 733.37 970.32 742.58 970.32 742.58 969.32"/><polygon class="cls-1" points="742.58 919.83 733.37 919.83 733.37 910.62 732.37 910.62 732.37 919.83 723.17 919.83 723.17 920.83 732.37 920.83 732.37 930.03 733.37 930.03 733.37 920.83 742.58 920.83 742.58 919.83"/><polygon class="cls-1" points="767.32 944.57 758.12 944.57 758.12 935.37 757.12 935.37 757.12 944.57 747.92 944.57 747.92 945.57 757.12 945.57 757.12 954.78 758.12 954.78 758.12 945.57 767.32 945.57 767.32 944.57"/><polygon class="cls-1" points="717.83 944.57 708.63 944.57 708.63 935.37 707.63 935.37 707.63 944.57 698.42 944.57 698.42 945.57 707.63 945.57 707.63 954.78 708.63 954.78 708.63 945.57 717.83 945.57 717.83 944.57"/><polygon class="cls-1" points="792.07 1018.82 782.87 1018.82 782.87 1009.62 781.87 1009.62 781.87 1018.82 772.67 1018.82 772.67 1019.82 781.87 1019.82 781.87 1029.02 782.87 1029.02 782.87 1019.82 792.07 1019.82 792.07 1018.82"/><polygon class="cls-1" points="792.07 969.32 782.87 969.32 782.87 960.12 781.87 960.12 781.87 969.32 772.67 969.32 772.67 970.32 781.87 970.32 781.87 979.52 782.87 979.52 782.87 970.32 792.07 970.32 792.07 969.32"/><polygon class="cls-1" points="816.82 994.07 807.62 994.07 807.62 984.87 806.62 984.87 806.62 994.07 797.42 994.07 797.42 995.07 806.62 995.07 806.62 1004.27 807.62 1004.27 807.62 995.07 816.82 995.07 816.82 994.07"/><polygon class="cls-1" points="767.32 994.07 758.12 994.07 758.12 984.87 757.12 984.87 757.12 994.07 747.92 994.07 747.92 995.07 757.12 995.07 757.12 1004.27 758.12 1004.27 758.12 995.07 767.32 995.07 767.32 994.07"/><polygon class="cls-1" points="742.58 1018.82 733.37 1018.82 733.37 1009.62 732.37 1009.62 732.37 1018.82 723.17 1018.82 723.17 1019.82 732.37 1019.82 732.37 1029.02 733.37 1029.02 733.37 1019.82 742.58 1019.82 742.58 1018.82"/><polygon class="cls-1" points="767.32 1043.57 758.12 1043.57 758.12 1034.37 757.12 1034.37 757.12 1043.57 747.92 1043.57 747.92 1044.57 757.12 1044.57 757.12 1053.77 758.12 1053.77 758.12 1044.57 767.32 1044.57 767.32 1043.57"/><polygon class="cls-1" points="717.83 845.58 708.63 845.58 708.63 836.38 707.63 836.38 707.63 845.58 698.42 845.58 698.42 846.58 707.63 846.58 707.63 855.78 708.63 855.78 708.63 846.58 717.83 846.58 717.83 845.58"/><polygon class="cls-1" points="717.83 796.08 708.63 796.08 708.63 786.88 707.63 786.88 707.63 796.08 698.42 796.08 698.42 797.08 707.63 797.08 707.63 806.28 708.63 806.28 708.63 797.08 717.83 797.08 717.83 796.08"/><polygon class="cls-1" points="742.58 820.83 733.37 820.83 733.37 811.63 732.37 811.63 732.37 820.83 723.17 820.83 723.17 821.83 732.37 821.83 732.37 831.03 733.37 831.03 733.37 821.83 742.58 821.83 742.58 820.83"/><polygon class="cls-1" points="693.08 820.83 683.88 820.83 683.88 811.63 682.88 811.63 682.88 820.83 673.67 820.83 673.67 821.83 682.88 821.83 682.88 831.03 683.88 831.03 683.88 821.83 693.08 821.83 693.08 820.83"/><polygon class="cls-1" points="767.32 796.08 758.12 796.08 758.12 786.88 757.12 786.88 757.12 796.08 747.92 796.08 747.92 797.08 757.12 797.08 757.12 806.28 758.12 806.28 758.12 797.08 767.32 797.08 767.32 796.08"/><polygon class="cls-1" points="767.32 746.59 758.12 746.59 758.12 737.38 757.12 737.38 757.12 746.59 747.92 746.59 747.92 747.59 757.12 747.59 757.12 756.79 758.12 756.79 758.12 747.59 767.32 747.59 767.32 746.59"/><polygon class="cls-1" points="792.07 771.33 782.87 771.33 782.87 762.13 781.87 762.13 781.87 771.33 772.67 771.33 772.67 772.33 781.87 772.33 781.87 781.53 782.87 781.53 782.87 772.33 792.07 772.33 792.07 771.33"/><polygon class="cls-1" points="742.58 771.33 733.37 771.33 733.37 762.13 732.37 762.13 732.37 771.33 723.17 771.33 723.17 772.33 732.37 772.33 732.37 781.53 733.37 781.53 733.37 772.33 742.58 772.33 742.58 771.33"/><polygon class="cls-1" points="816.82 845.58 807.62 845.58 807.62 836.38 806.62 836.38 806.62 845.58 797.42 845.58 797.42 846.58 806.62 846.58 806.62 855.78 807.62 855.78 807.62 846.58 816.82 846.58 816.82 845.58"/><polygon class="cls-1" points="816.82 796.08 807.62 796.08 807.62 786.88 806.62 786.88 806.62 796.08 797.42 796.08 797.42 797.08 806.62 797.08 806.62 806.28 807.62 806.28 807.62 797.08 816.82 797.08 816.82 796.08"/><polygon class="cls-1" points="841.57 820.83 832.37 820.83 832.37 811.63 831.37 811.63 831.37 820.83 822.17 820.83 822.17 821.83 831.37 821.83 831.37 831.03 832.37 831.03 832.37 821.83 841.57 821.83 841.57 820.83"/><polygon class="cls-1" points="792.07 820.83 782.87 820.83 782.87 811.63 781.87 811.63 781.87 820.83 772.67 820.83 772.67 821.83 781.87 821.83 781.87 831.03 782.87 831.03 782.87 821.83 792.07 821.83 792.07 820.83"/><polygon class="cls-1" points="767.32 895.08 758.12 895.08 758.12 885.88 757.12 885.88 757.12 895.08 747.92 895.08 747.92 896.08 757.12 896.08 757.12 905.28 758.12 905.28 758.12 896.08 767.32 896.08 767.32 895.08"/><polygon class="cls-1" points="767.32 845.58 758.12 845.58 758.12 836.38 757.12 836.38 757.12 845.58 747.92 845.58 747.92 846.58 757.12 846.58 757.12 855.78 758.12 855.78 758.12 846.58 767.32 846.58 767.32 845.58"/><polygon class="cls-1" points="792.07 870.33 782.87 870.33 782.87 861.13 781.87 861.13 781.87 870.33 772.67 870.33 772.67 871.33 781.87 871.33 781.87 880.53 782.87 880.53 782.87 871.33 792.07 871.33 792.07 870.33"/><polygon class="cls-1" points="742.58 870.33 733.37 870.33 733.37 861.13 732.37 861.13 732.37 870.33 723.17 870.33 723.17 871.33 732.37 871.33 732.37 880.53 733.37 880.53 733.37 871.33 742.58 871.33 742.58 870.33"/><polygon class="cls-1" points="643.58 820.83 634.38 820.83 634.38 811.63 633.38 811.63 633.38 820.83 624.18 820.83 624.18 821.83 633.38 821.83 633.38 831.03 634.38 831.03 634.38 821.83 643.58 821.83 643.58 820.83"/><polygon class="cls-1" points="668.33 845.58 659.13 845.58 659.13 836.38 658.13 836.38 658.13 845.58 648.92 845.58 648.92 846.58 658.13 846.58 658.13 855.78 659.13 855.78 659.13 846.58 668.33 846.58 668.33 845.58"/><polygon class="cls-1" points="693.08 870.33 683.88 870.33 683.88 861.13 682.88 861.13 682.88 870.33 673.67 870.33 673.67 871.33 682.88 871.33 682.88 880.53 683.88 880.53 683.88 871.33 693.08 871.33 693.08 870.33"/><polygon class="cls-1" points="717.83 895.08 708.63 895.08 708.63 885.88 707.63 885.88 707.63 895.08 698.42 895.08 698.42 896.08 707.63 896.08 707.63 905.28 708.63 905.28 708.63 896.08 717.83 896.08 717.83 895.08"/><polygon class="cls-1" points="618.83 746.59 609.63 746.59 609.63 737.38 608.63 737.38 608.63 746.59 599.43 746.59 599.43 747.59 608.63 747.59 608.63 756.79 609.63 756.79 609.63 747.59 618.83 747.59 618.83 746.59"/><polygon class="cls-1" points="618.83 697.09 609.63 697.09 609.63 687.88 608.63 687.88 608.63 697.09 599.43 697.09 599.43 698.09 608.63 698.09 608.63 707.29 609.63 707.29 609.63 698.09 618.83 698.09 618.83 697.09"/><polygon class="cls-1" points="643.58 721.84 634.38 721.84 634.38 712.63 633.38 712.63 633.38 721.84 624.18 721.84 624.18 722.84 633.38 722.84 633.38 732.04 634.38 732.04 634.38 722.84 643.58 722.84 643.58 721.84"/><polygon class="cls-1" points="594.08 721.84 584.88 721.84 584.88 712.63 583.88 712.63 583.88 721.84 574.68 721.84 574.68 722.84 583.88 722.84 583.88 732.04 584.88 732.04 584.88 722.84 594.08 722.84 594.08 721.84"/><polygon class="cls-1" points="668.33 697.09 659.13 697.09 659.13 687.88 658.13 687.88 658.13 697.09 648.92 697.09 648.92 698.09 658.13 698.09 658.13 707.29 659.13 707.29 659.13 698.09 668.33 698.09 668.33 697.09"/><polygon class="cls-1" points="668.33 647.59 659.13 647.59 659.13 638.39 658.13 638.39 658.13 647.59 648.92 647.59 648.92 648.59 658.13 648.59 658.13 657.79 659.13 657.79 659.13 648.59 668.33 648.59 668.33 647.59"/><polygon class="cls-1" points="693.08 672.34 683.88 672.34 683.88 663.14 682.88 663.14 682.88 672.34 673.67 672.34 673.67 673.34 682.88 673.34 682.88 682.54 683.88 682.54 683.88 673.34 693.08 673.34 693.08 672.34"/><polygon class="cls-1" points="643.58 672.34 634.38 672.34 634.38 663.14 633.38 663.14 633.38 672.34 624.18 672.34 624.18 673.34 633.38 673.34 633.38 682.54 634.38 682.54 634.38 673.34 643.58 673.34 643.58 672.34"/><polygon class="cls-1" points="717.83 746.59 708.63 746.59 708.63 737.38 707.63 737.38 707.63 746.59 698.42 746.59 698.42 747.59 707.63 747.59 707.63 756.79 708.63 756.79 708.63 747.59 717.83 747.59 717.83 746.59"/><polygon class="cls-1" points="717.83 697.09 708.63 697.09 708.63 687.88 707.63 687.88 707.63 697.09 698.42 697.09 698.42 698.09 707.63 698.09 707.63 707.29 708.63 707.29 708.63 698.09 717.83 698.09 717.83 697.09"/><polygon class="cls-1" points="742.58 721.84 733.37 721.84 733.37 712.63 732.37 712.63 732.37 721.84 723.17 721.84 723.17 722.84 732.37 722.84 732.37 732.04 733.37 732.04 733.37 722.84 742.58 722.84 742.58 721.84"/><polygon class="cls-1" points="693.08 721.84 683.88 721.84 683.88 712.63 682.88 712.63 682.88 721.84 673.67 721.84 673.67 722.84 682.88 722.84 682.88 732.04 683.88 732.04 683.88 722.84 693.08 722.84 693.08 721.84"/><polygon class="cls-1" points="668.33 796.08 659.13 796.08 659.13 786.88 658.13 786.88 658.13 796.08 648.92 796.08 648.92 797.08 658.13 797.08 658.13 806.28 659.13 806.28 659.13 797.08 668.33 797.08 668.33 796.08"/><polygon class="cls-1" points="668.33 746.59 659.13 746.59 659.13 737.38 658.13 737.38 658.13 746.59 648.92 746.59 648.92 747.59 658.13 747.59 658.13 756.79 659.13 756.79 659.13 747.59 668.33 747.59 668.33 746.59"/><polygon class="cls-1" points="693.08 771.33 683.88 771.33 683.88 762.13 682.88 762.13 682.88 771.33 673.67 771.33 673.67 772.33 682.88 772.33 682.88 781.53 683.88 781.53 683.88 772.33 693.08 772.33 693.08 771.33"/><polygon class="cls-1" points="643.58 771.33 634.38 771.33 634.38 762.13 633.38 762.13 633.38 771.33 624.18 771.33 624.18 772.33 633.38 772.33 633.38 781.53 634.38 781.53 634.38 772.33 643.58 772.33 643.58 771.33"/><polygon class="cls-1" points="544.59 622.84 535.38 622.84 535.38 613.64 534.38 613.64 534.38 622.84 525.18 622.84 525.18 623.84 534.38 623.84 534.38 633.04 535.38 633.04 535.38 623.84 544.59 623.84 544.59 622.84"/><polygon class="cls-1" points="569.33 598.09 560.13 598.09 560.13 588.89 559.13 588.89 559.13 598.09 549.93 598.09 549.93 599.09 559.13 599.09 559.13 608.29 560.13 608.29 560.13 599.09 569.33 599.09 569.33 598.09"/><polygon class="cls-1" points="569.33 548.6 560.13 548.6 560.13 539.39 559.13 539.39 559.13 548.6 549.93 548.6 549.93 549.6 559.13 549.6 559.13 558.8 560.13 558.8 560.13 549.6 569.33 549.6 569.33 548.6"/><polygon class="cls-1" points="594.08 573.34 584.88 573.34 584.88 564.14 583.88 564.14 583.88 573.34 574.68 573.34 574.68 574.34 583.88 574.34 583.88 583.55 584.88 583.55 584.88 574.34 594.08 574.34 594.08 573.34"/><polygon class="cls-1" points="544.59 573.34 535.38 573.34 535.38 564.14 534.38 564.14 534.38 573.34 525.18 573.34 525.18 574.34 534.38 574.34 534.38 583.55 535.38 583.55 535.38 574.34 544.59 574.34 544.59 573.34"/><polygon class="cls-1" points="618.83 647.59 609.63 647.59 609.63 638.39 608.63 638.39 608.63 647.59 599.43 647.59 599.43 648.59 608.63 648.59 608.63 657.79 609.63 657.79 609.63 648.59 618.83 648.59 618.83 647.59"/><polygon class="cls-1" points="618.83 598.09 609.63 598.09 609.63 588.89 608.63 588.89 608.63 598.09 599.43 598.09 599.43 599.09 608.63 599.09 608.63 608.29 609.63 608.29 609.63 599.09 618.83 599.09 618.83 598.09"/><polygon class="cls-1" points="643.58 622.84 634.38 622.84 634.38 613.64 633.38 613.64 633.38 622.84 624.18 622.84 624.18 623.84 633.38 623.84 633.38 633.04 634.38 633.04 634.38 623.84 643.58 623.84 643.58 622.84"/><polygon class="cls-1" points="594.08 622.84 584.88 622.84 584.88 613.64 583.88 613.64 583.88 622.84 574.68 622.84 574.68 623.84 583.88 623.84 583.88 633.04 584.88 633.04 584.88 623.84 594.08 623.84 594.08 622.84"/><polygon class="cls-1" points="569.33 697.09 560.13 697.09 560.13 687.88 559.13 687.88 559.13 697.09 549.93 697.09 549.93 698.09 559.13 698.09 559.13 707.29 560.13 707.29 560.13 698.09 569.33 698.09 569.33 697.09"/><polygon class="cls-1" points="569.33 647.59 560.13 647.59 560.13 638.39 559.13 638.39 559.13 647.59 549.93 647.59 549.93 648.59 559.13 648.59 559.13 657.79 560.13 657.79 560.13 648.59 569.33 648.59 569.33 647.59"/><polygon class="cls-1" points="594.08 672.34 584.88 672.34 584.88 663.14 583.88 663.14 583.88 672.34 574.68 672.34 574.68 673.34 583.88 673.34 583.88 682.54 584.88 682.54 584.88 673.34 594.08 673.34 594.08 672.34"/><polygon class="cls-1" points="594.08 474.35 584.88 474.35 584.88 465.15 583.88 465.15 583.88 474.35 574.68 474.35 574.68 475.35 583.88 475.35 583.88 484.55 584.88 484.55 584.88 475.35 594.08 475.35 594.08 474.35"/><polygon class="cls-1" points="594.08 424.85 584.88 424.85 584.88 415.65 583.88 415.65 583.88 424.85 574.68 424.85 574.68 425.85 583.88 425.85 583.88 435.05 584.88 435.05 584.88 425.85 594.08 425.85 594.08 424.85"/><polygon class="cls-1" points="618.83 449.6 609.63 449.6 609.63 440.4 608.63 440.4 608.63 449.6 599.43 449.6 599.43 450.6 608.63 450.6 608.63 459.8 609.63 459.8 609.63 450.6 618.83 450.6 618.83 449.6"/><polygon class="cls-1" points="569.33 449.6 560.13 449.6 560.13 440.4 559.13 440.4 559.13 449.6 549.93 449.6 549.93 450.6 559.13 450.6 559.13 459.8 560.13 459.8 560.13 450.6 569.33 450.6 569.33 449.6"/><polygon class="cls-1" points="544.59 523.85 535.38 523.85 535.38 514.64 534.38 514.64 534.38 523.85 525.18 523.85 525.18 524.85 534.38 524.85 534.38 534.05 535.38 534.05 535.38 524.85 544.59 524.85 544.59 523.85"/><polygon class="cls-1" points="569.33 499.1 560.13 499.1 560.13 489.89 559.13 489.89 559.13 499.1 549.93 499.1 549.93 500.1 559.13 500.1 559.13 509.3 560.13 509.3 560.13 500.1 569.33 500.1 569.33 499.1"/><polygon class="cls-1" points="693.08 375.35 683.88 375.35 683.88 366.15 682.88 366.15 682.88 375.35 673.67 375.35 673.67 376.35 682.88 376.35 682.88 385.56 683.88 385.56 683.88 376.35 693.08 376.35 693.08 375.35"/><polygon class="cls-1" points="717.83 350.61 708.63 350.61 708.63 341.4 707.63 341.4 707.63 350.61 698.42 350.61 698.42 351.61 707.63 351.61 707.63 360.81 708.63 360.81 708.63 351.61 717.83 351.61 717.83 350.61"/><polygon class="cls-1" points="668.33 350.61 659.13 350.61 659.13 341.4 658.13 341.4 658.13 350.61 648.92 350.61 648.92 351.61 658.13 351.61 658.13 360.81 659.13 360.81 659.13 351.61 668.33 351.61 668.33 350.61"/><polygon class="cls-1" points="643.58 424.85 634.38 424.85 634.38 415.65 633.38 415.65 633.38 424.85 624.18 424.85 624.18 425.85 633.38 425.85 633.38 435.05 634.38 435.05 634.38 425.85 643.58 425.85 643.58 424.85"/><polygon class="cls-1" points="643.58 375.35 634.38 375.35 634.38 366.15 633.38 366.15 633.38 375.35 624.18 375.35 624.18 376.35 633.38 376.35 633.38 385.56 634.38 385.56 634.38 376.35 643.58 376.35 643.58 375.35"/><polygon class="cls-1" points="668.33 400.1 659.13 400.1 659.13 390.9 658.13 390.9 658.13 400.1 648.92 400.1 648.92 401.1 658.13 401.1 658.13 410.3 659.13 410.3 659.13 401.1 668.33 401.1 668.33 400.1"/><polygon class="cls-1" points="618.83 400.1 609.63 400.1 609.63 390.9 608.63 390.9 608.63 400.1 599.43 400.1 599.43 401.1 608.63 401.1 608.63 410.3 609.63 410.3 609.63 401.1 618.83 401.1 618.83 400.1"/><polygon class="cls-1" points="618.83 548.6 609.63 548.6 609.63 539.39 608.63 539.39 608.63 548.6 599.43 548.6 599.43 549.6 608.63 549.6 608.63 558.8 609.63 558.8 609.63 549.6 618.83 549.6 618.83 548.6"/><polygon class="cls-1" points="618.83 499.1 609.63 499.1 609.63 489.89 608.63 489.89 608.63 499.1 599.43 499.1 599.43 500.1 608.63 500.1 608.63 509.3 609.63 509.3 609.63 500.1 618.83 500.1 618.83 499.1"/><polygon class="cls-1" points="643.58 523.85 634.38 523.85 634.38 514.64 633.38 514.64 633.38 523.85 624.18 523.85 624.18 524.85 633.38 524.85 633.38 534.05 634.38 534.05 634.38 524.85 643.58 524.85 643.58 523.85"/><polygon class="cls-1" points="594.08 523.85 584.88 523.85 584.88 514.64 583.88 514.64 583.88 523.85 574.68 523.85 574.68 524.85 583.88 524.85 583.88 534.05 584.88 534.05 584.88 524.85 594.08 524.85 594.08 523.85"/><polygon class="cls-1" points="668.33 499.1 659.13 499.1 659.13 489.89 658.13 489.89 658.13 499.1 648.92 499.1 648.92 500.1 658.13 500.1 658.13 509.3 659.13 509.3 659.13 500.1 668.33 500.1 668.33 499.1"/><polygon class="cls-1" points="668.33 449.6 659.13 449.6 659.13 440.4 658.13 440.4 658.13 449.6 648.92 449.6 648.92 450.6 658.13 450.6 658.13 459.8 659.13 459.8 659.13 450.6 668.33 450.6 668.33 449.6"/><polygon class="cls-1" points="693.08 474.35 683.88 474.35 683.88 465.15 682.88 465.15 682.88 474.35 673.67 474.35 673.67 475.35 682.88 475.35 682.88 484.55 683.88 484.55 683.88 475.35 693.08 475.35 693.08 474.35"/><polygon class="cls-1" points="643.58 474.35 634.38 474.35 634.38 465.15 633.38 465.15 633.38 474.35 624.18 474.35 624.18 475.35 633.38 475.35 633.38 484.55 634.38 484.55 634.38 475.35 643.58 475.35 643.58 474.35"/><polygon class="cls-1" points="717.83 548.6 708.63 548.6 708.63 539.39 707.63 539.39 707.63 548.6 698.42 548.6 698.42 549.6 707.63 549.6 707.63 558.8 708.63 558.8 708.63 549.6 717.83 549.6 717.83 548.6"/><polygon class="cls-1" points="717.83 499.1 708.63 499.1 708.63 489.89 707.63 489.89 707.63 499.1 698.42 499.1 698.42 500.1 707.63 500.1 707.63 509.3 708.63 509.3 708.63 500.1 717.83 500.1 717.83 499.1"/><polygon class="cls-1" points="742.58 523.85 733.37 523.85 733.37 514.64 732.37 514.64 732.37 523.85 723.17 523.85 723.17 524.85 732.37 524.85 732.37 534.05 733.37 534.05 733.37 524.85 742.58 524.85 742.58 523.85"/><polygon class="cls-1" points="693.08 523.85 683.88 523.85 683.88 514.64 682.88 514.64 682.88 523.85 673.67 523.85 673.67 524.85 682.88 524.85 682.88 534.05 683.88 534.05 683.88 524.85 693.08 524.85 693.08 523.85"/><polygon class="cls-1" points="668.33 598.09 659.13 598.09 659.13 588.89 658.13 588.89 658.13 598.09 648.92 598.09 648.92 599.09 658.13 599.09 658.13 608.29 659.13 608.29 659.13 599.09 668.33 599.09 668.33 598.09"/><polygon class="cls-1" points="668.33 548.6 659.13 548.6 659.13 539.39 658.13 539.39 658.13 548.6 648.92 548.6 648.92 549.6 658.13 549.6 658.13 558.8 659.13 558.8 659.13 549.6 668.33 549.6 668.33 548.6"/><polygon class="cls-1" points="693.08 573.34 683.88 573.34 683.88 564.14 682.88 564.14 682.88 573.34 673.67 573.34 673.67 574.34 682.88 574.34 682.88 583.55 683.88 583.55 683.88 574.34 693.08 574.34 693.08 573.34"/><polygon class="cls-1" points="643.58 573.34 634.38 573.34 634.38 564.14 633.38 564.14 633.38 573.34 624.18 573.34 624.18 574.34 633.38 574.34 633.38 583.55 634.38 583.55 634.38 574.34 643.58 574.34 643.58 573.34"/><polygon class="cls-1" points="717.83 449.6 708.63 449.6 708.63 440.4 707.63 440.4 707.63 449.6 698.42 449.6 698.42 450.6 707.63 450.6 707.63 459.8 708.63 459.8 708.63 450.6 717.83 450.6 717.83 449.6"/><polygon class="cls-1" points="717.83 400.1 708.63 400.1 708.63 390.9 707.63 390.9 707.63 400.1 698.42 400.1 698.42 401.1 707.63 401.1 707.63 410.3 708.63 410.3 708.63 401.1 717.83 401.1 717.83 400.1"/><polygon class="cls-1" points="742.58 424.85 733.37 424.85 733.37 415.65 732.37 415.65 732.37 424.85 723.17 424.85 723.17 425.85 732.37 425.85 732.37 435.05 733.37 435.05 733.37 425.85 742.58 425.85 742.58 424.85"/><polygon class="cls-1" points="693.08 424.85 683.88 424.85 683.88 415.65 682.88 415.65 682.88 424.85 673.67 424.85 673.67 425.85 682.88 425.85 682.88 435.05 683.88 435.05 683.88 425.85 693.08 425.85 693.08 424.85"/><polygon class="cls-1" points="767.32 400.1 758.12 400.1 758.12 390.9 757.12 390.9 757.12 400.1 747.92 400.1 747.92 401.1 757.12 401.1 757.12 410.3 758.12 410.3 758.12 401.1 767.32 401.1 767.32 400.1"/><polygon class="cls-1" points="767.32 350.61 758.12 350.61 758.12 341.4 757.12 341.4 757.12 350.61 747.92 350.61 747.92 351.61 757.12 351.61 757.12 360.81 758.12 360.81 758.12 351.61 767.32 351.61 767.32 350.61"/><polygon class="cls-1" points="792.07 375.35 782.87 375.35 782.87 366.15 781.87 366.15 781.87 375.35 772.67 375.35 772.67 376.35 781.87 376.35 781.87 385.56 782.87 385.56 782.87 376.35 792.07 376.35 792.07 375.35"/><polygon class="cls-1" points="742.58 375.35 733.37 375.35 733.37 366.15 732.37 366.15 732.37 375.35 723.17 375.35 723.17 376.35 732.37 376.35 732.37 385.56 733.37 385.56 733.37 376.35 742.58 376.35 742.58 375.35"/><polygon class="cls-1" points="816.82 449.6 807.62 449.6 807.62 440.4 806.62 440.4 806.62 449.6 797.42 449.6 797.42 450.6 806.62 450.6 806.62 459.8 807.62 459.8 807.62 450.6 816.82 450.6 816.82 449.6"/><polygon class="cls-1" points="816.82 400.1 807.62 400.1 807.62 390.9 806.62 390.9 806.62 400.1 797.42 400.1 797.42 401.1 806.62 401.1 806.62 410.3 807.62 410.3 807.62 401.1 816.82 401.1 816.82 400.1"/><polygon class="cls-1" points="841.57 424.85 832.37 424.85 832.37 415.65 831.37 415.65 831.37 424.85 822.17 424.85 822.17 425.85 831.37 425.85 831.37 435.05 832.37 435.05 832.37 425.85 841.57 425.85 841.57 424.85"/><polygon class="cls-1" points="792.07 424.85 782.87 424.85 782.87 415.65 781.87 415.65 781.87 424.85 772.67 424.85 772.67 425.85 781.87 425.85 781.87 435.05 782.87 435.05 782.87 425.85 792.07 425.85 792.07 424.85"/><polygon class="cls-1" points="767.32 499.1 758.12 499.1 758.12 489.89 757.12 489.89 757.12 499.1 747.92 499.1 747.92 500.1 757.12 500.1 757.12 509.3 758.12 509.3 758.12 500.1 767.32 500.1 767.32 499.1"/><polygon class="cls-1" points="767.32 449.6 758.12 449.6 758.12 440.4 757.12 440.4 757.12 449.6 747.92 449.6 747.92 450.6 757.12 450.6 757.12 459.8 758.12 459.8 758.12 450.6 767.32 450.6 767.32 449.6"/><polygon class="cls-1" points="792.07 474.35 782.87 474.35 782.87 465.15 781.87 465.15 781.87 474.35 772.67 474.35 772.67 475.35 781.87 475.35 781.87 484.55 782.87 484.55 782.87 475.35 792.07 475.35 792.07 474.35"/><polygon class="cls-1" points="742.58 474.35 733.37 474.35 733.37 465.15 732.37 465.15 732.37 474.35 723.17 474.35 723.17 475.35 732.37 475.35 732.37 484.55 733.37 484.55 733.37 475.35 742.58 475.35 742.58 474.35"/><polygon class="cls-1" points="816.82 350.61 807.62 350.61 807.62 341.4 806.62 341.4 806.62 350.61 797.42 350.61 797.42 351.61 806.62 351.61 806.62 360.81 807.62 360.81 807.62 351.61 816.82 351.61 816.82 350.61"/><polygon class="cls-1" points="841.57 375.35 832.37 375.35 832.37 366.15 831.37 366.15 831.37 375.35 822.17 375.35 822.17 376.35 831.37 376.35 831.37 385.56 832.37 385.56 832.37 376.35 841.57 376.35 841.57 375.35"/><polygon class="cls-1" points="717.83 647.59 708.63 647.59 708.63 638.39 707.63 638.39 707.63 647.59 698.42 647.59 698.42 648.59 707.63 648.59 707.63 657.79 708.63 657.79 708.63 648.59 717.83 648.59 717.83 647.59"/><polygon class="cls-1" points="717.83 598.09 708.63 598.09 708.63 588.89 707.63 588.89 707.63 598.09 698.42 598.09 698.42 599.09 707.63 599.09 707.63 608.29 708.63 608.29 708.63 599.09 717.83 599.09 717.83 598.09"/><polygon class="cls-1" points="742.58 622.84 733.37 622.84 733.37 613.64 732.37 613.64 732.37 622.84 723.17 622.84 723.17 623.84 732.37 623.84 732.37 633.04 733.37 633.04 733.37 623.84 742.58 623.84 742.58 622.84"/><polygon class="cls-1" points="693.08 622.84 683.88 622.84 683.88 613.64 682.88 613.64 682.88 622.84 673.67 622.84 673.67 623.84 682.88 623.84 682.88 633.04 683.88 633.04 683.88 623.84 693.08 623.84 693.08 622.84"/><polygon class="cls-1" points="767.32 598.09 758.12 598.09 758.12 588.89 757.12 588.89 757.12 598.09 747.92 598.09 747.92 599.09 757.12 599.09 757.12 608.29 758.12 608.29 758.12 599.09 767.32 599.09 767.32 598.09"/><polygon class="cls-1" points="767.32 548.6 758.12 548.6 758.12 539.39 757.12 539.39 757.12 548.6 747.92 548.6 747.92 549.6 757.12 549.6 757.12 558.8 758.12 558.8 758.12 549.6 767.32 549.6 767.32 548.6"/><polygon class="cls-1" points="792.07 573.34 782.87 573.34 782.87 564.14 781.87 564.14 781.87 573.34 772.67 573.34 772.67 574.34 781.87 574.34 781.87 583.55 782.87 583.55 782.87 574.34 792.07 574.34 792.07 573.34"/><polygon class="cls-1" points="742.58 573.34 733.37 573.34 733.37 564.14 732.37 564.14 732.37 573.34 723.17 573.34 723.17 574.34 732.37 574.34 732.37 583.55 733.37 583.55 733.37 574.34 742.58 574.34 742.58 573.34"/><polygon class="cls-1" points="816.82 647.59 807.62 647.59 807.62 638.39 806.62 638.39 806.62 647.59 797.42 647.59 797.42 648.59 806.62 648.59 806.62 657.79 807.62 657.79 807.62 648.59 816.82 648.59 816.82 647.59"/><polygon class="cls-1" points="816.82 598.09 807.62 598.09 807.62 588.89 806.62 588.89 806.62 598.09 797.42 598.09 797.42 599.09 806.62 599.09 806.62 608.29 807.62 608.29 807.62 599.09 816.82 599.09 816.82 598.09"/><polygon class="cls-1" points="841.57 622.84 832.37 622.84 832.37 613.64 831.37 613.64 831.37 622.84 822.17 622.84 822.17 623.84 831.37 623.84 831.37 633.04 832.37 633.04 832.37 623.84 841.57 623.84 841.57 622.84"/><polygon class="cls-1" points="792.07 622.84 782.87 622.84 782.87 613.64 781.87 613.64 781.87 622.84 772.67 622.84 772.67 623.84 781.87 623.84 781.87 633.04 782.87 633.04 782.87 623.84 792.07 623.84 792.07 622.84"/><polygon class="cls-1" points="767.32 697.09 758.12 697.09 758.12 687.88 757.12 687.88 757.12 697.09 747.92 697.09 747.92 698.09 757.12 698.09 757.12 707.29 758.12 707.29 758.12 698.09 767.32 698.09 767.32 697.09"/><polygon class="cls-1" points="767.32 647.59 758.12 647.59 758.12 638.39 757.12 638.39 757.12 647.59 747.92 647.59 747.92 648.59 757.12 648.59 757.12 657.79 758.12 657.79 758.12 648.59 767.32 648.59 767.32 647.59"/><polygon class="cls-1" points="792.07 672.34 782.87 672.34 782.87 663.14 781.87 663.14 781.87 672.34 772.67 672.34 772.67 673.34 781.87 673.34 781.87 682.54 782.87 682.54 782.87 673.34 792.07 673.34 792.07 672.34"/><polygon class="cls-1" points="742.58 672.34 733.37 672.34 733.37 663.14 732.37 663.14 732.37 672.34 723.17 672.34 723.17 673.34 732.37 673.34 732.37 682.54 733.37 682.54 733.37 673.34 742.58 673.34 742.58 672.34"/><polygon class="cls-1" points="816.82 548.6 807.62 548.6 807.62 539.39 806.62 539.39 806.62 548.6 797.42 548.6 797.42 549.6 806.62 549.6 806.62 558.8 807.62 558.8 807.62 549.6 816.82 549.6 816.82 548.6"/><polygon class="cls-1" points="816.82 499.1 807.62 499.1 807.62 489.89 806.62 489.89 806.62 499.1 797.42 499.1 797.42 500.1 806.62 500.1 806.62 509.3 807.62 509.3 807.62 500.1 816.82 500.1 816.82 499.1"/><polygon class="cls-1" points="841.57 523.85 832.37 523.85 832.37 514.64 831.37 514.64 831.37 523.85 822.17 523.85 822.17 524.85 831.37 524.85 831.37 534.05 832.37 534.05 832.37 524.85 841.57 524.85 841.57 523.85"/><polygon class="cls-1" points="792.07 523.85 782.87 523.85 782.87 514.64 781.87 514.64 781.87 523.85 772.67 523.85 772.67 524.85 781.87 524.85 781.87 534.05 782.87 534.05 782.87 524.85 792.07 524.85 792.07 523.85"/><polygon class="cls-1" points="841.57 474.35 832.37 474.35 832.37 465.15 831.37 465.15 831.37 474.35 822.17 474.35 822.17 475.35 831.37 475.35 831.37 484.55 832.37 484.55 832.37 475.35 841.57 475.35 841.57 474.35"/><polygon class="cls-1" points="841.57 573.34 832.37 573.34 832.37 564.14 831.37 564.14 831.37 573.34 822.17 573.34 822.17 574.34 831.37 574.34 831.37 583.55 832.37 583.55 832.37 574.34 841.57 574.34 841.57 573.34"/><polygon class="cls-1" points="816.82 746.59 807.62 746.59 807.62 737.38 806.62 737.38 806.62 746.59 797.42 746.59 797.42 747.59 806.62 747.59 806.62 756.79 807.62 756.79 807.62 747.59 816.82 747.59 816.82 746.59"/><polygon class="cls-1" points="816.82 697.09 807.62 697.09 807.62 687.88 806.62 687.88 806.62 697.09 797.42 697.09 797.42 698.09 806.62 698.09 806.62 707.29 807.62 707.29 807.62 698.09 816.82 698.09 816.82 697.09"/><polygon class="cls-1" points="841.57 721.84 832.37 721.84 832.37 712.63 831.37 712.63 831.37 721.84 822.17 721.84 822.17 722.84 831.37 722.84 831.37 732.04 832.37 732.04 832.37 722.84 841.57 722.84 841.57 721.84"/><polygon class="cls-1" points="792.07 721.84 782.87 721.84 782.87 712.63 781.87 712.63 781.87 721.84 772.67 721.84 772.67 722.84 781.87 722.84 781.87 732.04 782.87 732.04 782.87 722.84 792.07 722.84 792.07 721.84"/><polygon class="cls-1" points="841.57 672.34 832.37 672.34 832.37 663.14 831.37 663.14 831.37 672.34 822.17 672.34 822.17 673.34 831.37 673.34 831.37 682.54 832.37 682.54 832.37 673.34 841.57 673.34 841.57 672.34"/><polygon class="cls-1" points="841.57 771.33 832.37 771.33 832.37 762.13 831.37 762.13 831.37 771.33 822.17 771.33 822.17 772.33 831.37 772.33 831.37 781.53 832.37 781.53 832.37 772.33 841.57 772.33 841.57 771.33"/></g><path class="cls-2" d="M849.87,97.16C482.42-7.78,152-10.58,59.05,156-31.72,318.63,38.18,587.78,94.26,704.8c78.81,164.46,214.23,254.81,283.59,457.55,30.61,89.47,51.75,139.48,95.81,183.39,94.37,94.07,248.47,72.91,384,41.37"/><path class="cls-2" d="M850.65,125.13C520.06,29.88,217.12,23.67,123.58,174.87,29.7,326.62,87.5,588,143.3,706.21c73.46,154.3,196.34,233.24,264.22,424.16,32.62,91.77,50.06,142.88,95.91,189.09,88.42,88.48,231.17,71.86,355.7,44.92"/><path class="cls-2" d="M851.44,153.1C557.7,67.54,281.92,57.89,188.1,193.79c-97.25,140.87-51.64,394.62,4.25,513.83C260,852,371.07,919.21,437.18,1098.38c34.71,94.07,48.22,146.44,96,194.8,82.19,83.16,213.87,70.82,327.41,48.47"/><path class="cls-2" d="M852.22,181.07C595.34,105.2,346.35,92,252.63,212.7c-100.94,130-67,376-11.24,496.33,62.19,134.24,161.35,189.86,225.46,357.37,36.87,96.34,46.47,149.9,96.12,200.5,76.18,77.64,196.56,69.78,299.12,52"/><path class="cls-2" d="M853,209C633,142.86,410.37,126,317.16,231.62c-105,119-82.29,357.35-26.72,478.82,56.77,124.1,144.2,168.06,206.07,324,39.12,98.59,44.74,153.34,96.23,206.2,70.2,72.08,179.26,68.74,270.82,55.57"/><path class="cls-2" d="M853.79,237C670.61,180.52,474,159.7,381.69,250.53c-109.51,107.82-97.55,338.69-42.21,461.32C390.91,825.79,466.75,858,526.17,1002.43c41.49,100.8,43,156.77,96.34,211.91,64.26,66.48,162,67.7,242.53,59.11"/><path class="cls-2" d="M854.58,265c-146.33-46.8-317.47-71.93-408.37,4.47-114.48,96.21-112.74,320-57.68,443.81C434.67,817,499,837.48,555.84,970.45c44,103,41.35,160.17,96.44,217.61,58.35,60.85,144.66,66.65,214.23,62.66"/><path class="cls-2" d="M855.36,293c-109.47-37.12-255.43-67-344.62-4.59-119.92,84-127.85,301.27-73.16,426.31,40.9,93.52,93.93,102.18,147.92,223.79,46.63,105,39.7,163.54,96.55,223.32C734.52,1217,809.41,1227.39,868,1228"/><path class="cls-2" d="M856.15,320.91c-72.63-27.42-193.61-62.74-280.88-13.63C449.53,378,432.42,589.77,486.62,716.08c35.74,83.28,77.51,80.06,128.55,190.4,49.49,107,38.1,166.85,96.65,229,46.62,49.5,110.06,64.57,157.64,69.76"/><path class="cls-2" d="M856.93,348.88c-35.77-17.73-131.75-59.17-217.13-22.69-131.75,56.29-157.68,263.65-104.13,391.3,30.63,73,61.21,57.85,109.16,157,52.63,108.84,36.58,170.1,96.76,234.72,40.79,43.8,92.76,63.53,129.35,73.31"/></svg>