<svg xmlns="http://www.w3.org/2000/svg" viewBox="0 0 849.91 1434.07"><defs><style>.cls-1{fill:#ebebeb;}.cls-2{fill:none;stroke:#ebebeb;stroke-miterlimit:10;stroke-width:2px;}</style></defs><g id="Layer_1" data-name="Layer 1"><polygon class="cls-1" points="813.63 343.89 807.12 350.4 800.61 343.89 799.91 344.6 806.41 351.11 799.91 357.61 800.61 358.32 807.12 351.81 813.63 358.32 814.33 357.61 807.83 351.11 814.33 344.6 813.63 343.89"/><polygon class="cls-1" points="838.38 368.64 831.87 375.15 825.36 368.64 824.65 369.35 831.16 375.85 824.65 382.36 825.36 383.07 831.87 376.56 838.38 383.07 839.08 382.36 832.58 375.85 839.08 369.35 838.38 368.64"/><polygon class="cls-1" points="764.13 343.89 757.62 350.4 751.12 343.89 750.41 344.6 756.91 351.11 750.41 357.61 751.12 358.32 757.62 351.81 764.13 358.32 764.84 357.61 758.33 351.11 764.84 344.6 764.13 343.89"/><polygon class="cls-1" points="788.88 368.64 782.37 375.15 775.86 368.64 775.16 369.35 781.66 375.85 775.16 382.36 775.86 383.07 782.37 376.56 788.88 383.07 789.59 382.36 783.08 375.85 789.59 369.35 788.88 368.64"/><polygon class="cls-1" points="813.63 393.39 807.12 399.89 800.61 393.39 799.91 394.1 806.41 400.6 799.91 407.11 800.61 407.82 807.12 401.31 813.63 407.82 814.33 407.11 807.83 400.6 814.33 394.1 813.63 393.39"/><polygon class="cls-1" points="838.38 418.14 831.87 424.64 825.36 418.14 824.65 418.84 831.16 425.35 824.65 431.86 825.36 432.56 831.87 426.06 838.38 432.56 839.08 431.86 832.58 425.35 839.08 418.84 838.38 418.14"/><polygon class="cls-1" points="714.63 343.89 708.13 350.4 701.62 343.89 700.91 344.6 707.42 351.11 700.91 357.61 701.62 358.32 708.13 351.81 714.63 358.32 715.34 357.61 708.83 351.11 715.34 344.6 714.63 343.89"/><polygon class="cls-1" points="739.38 368.64 732.87 375.15 726.37 368.64 725.66 369.35 732.17 375.85 725.66 382.36 726.37 383.07 732.87 376.56 739.38 383.07 740.09 382.36 733.58 375.85 740.09 369.35 739.38 368.64"/><polygon class="cls-1" points="764.13 393.39 757.62 399.89 751.12 393.39 750.41 394.1 756.91 400.6 750.41 407.11 751.12 407.82 757.62 401.31 764.13 407.82 764.84 407.11 758.33 400.6 764.84 394.1 764.13 393.39"/><polygon class="cls-1" points="788.88 418.14 782.37 424.64 775.86 418.14 775.16 418.84 781.66 425.35 775.16 431.86 775.86 432.56 782.37 426.06 788.88 432.56 789.59 431.86 783.08 425.35 789.59 418.84 788.88 418.14"/><polygon class="cls-1" points="813.63 442.89 807.12 449.39 800.61 442.89 799.91 443.59 806.41 450.1 799.91 456.61 800.61 457.31 807.12 450.81 813.63 457.31 814.33 456.61 807.83 450.1 814.33 443.59 813.63 442.89"/><polygon class="cls-1" points="838.38 467.63 831.87 474.14 825.36 467.63 824.65 468.34 831.16 474.85 824.65 481.36 825.36 482.06 831.87 475.56 838.38 482.06 839.08 481.36 832.58 474.85 839.08 468.34 838.38 467.63"/><polygon class="cls-1" points="665.13 343.89 658.63 350.4 652.12 343.89 651.41 344.6 657.92 351.11 651.41 357.61 652.12 358.32 658.63 351.81 665.13 358.32 665.84 357.61 659.33 351.11 665.84 344.6 665.13 343.89"/><polygon class="cls-1" points="689.88 368.64 683.38 375.15 676.87 368.64 676.16 369.35 682.67 375.85 676.16 382.36 676.87 383.07 683.38 376.56 689.88 383.07 690.59 382.36 684.08 375.85 690.59 369.35 689.88 368.64"/><polygon class="cls-1" points="714.63 393.39 708.13 399.89 701.62 393.39 700.91 394.1 707.42 400.6 700.91 407.11 701.62 407.82 708.13 401.31 714.63 407.82 715.34 407.11 708.83 400.6 715.34 394.1 714.63 393.39"/><polygon class="cls-1" points="739.38 418.14 732.87 424.64 726.37 418.14 725.66 418.84 732.17 425.35 725.66 431.86 726.37 432.56 732.87 426.06 739.38 432.56 740.09 431.86 733.58 425.35 740.09 418.84 739.38 418.14"/><polygon class="cls-1" points="764.13 442.89 757.62 449.39 751.12 442.89 750.41 443.59 756.91 450.1 750.41 456.61 751.12 457.31 757.62 450.81 764.13 457.31 764.84 456.61 758.33 450.1 764.84 443.59 764.13 442.89"/><polygon class="cls-1" points="788.88 467.63 782.37 474.14 775.86 467.63 775.16 468.34 781.66 474.85 775.16 481.36 775.86 482.06 782.37 475.56 788.88 482.06 789.59 481.36 783.08 474.85 789.59 468.34 788.88 467.63"/><polygon class="cls-1" points="813.63 492.38 807.12 498.89 800.61 492.38 799.91 493.09 806.41 499.6 799.91 506.1 800.61 506.81 807.12 500.3 813.63 506.81 814.33 506.1 807.83 499.6 814.33 493.09 813.63 492.38"/><polygon class="cls-1" points="838.38 517.13 831.87 523.64 825.36 517.13 824.65 517.84 831.16 524.35 824.65 530.85 825.36 531.56 831.87 525.05 838.38 531.56 839.08 530.85 832.58 524.35 839.08 517.84 838.38 517.13"/><polygon class="cls-1" points="640.38 368.64 633.88 375.15 627.37 368.64 626.66 369.35 633.17 375.85 626.66 382.36 627.37 383.07 633.88 376.56 640.38 383.07 641.09 382.36 634.59 375.85 641.09 369.35 640.38 368.64"/><polygon class="cls-1" points="665.13 393.39 658.63 399.89 652.12 393.39 651.41 394.1 657.92 400.6 651.41 407.11 652.12 407.82 658.63 401.31 665.13 407.82 665.84 407.11 659.33 400.6 665.84 394.1 665.13 393.39"/><polygon class="cls-1" points="689.88 418.14 683.38 424.64 676.87 418.14 676.16 418.84 682.67 425.35 676.16 431.86 676.87 432.56 683.38 426.06 689.88 432.56 690.59 431.86 684.08 425.35 690.59 418.84 689.88 418.14"/><polygon class="cls-1" points="714.63 442.89 708.13 449.39 701.62 442.89 700.91 443.59 707.42 450.1 700.91 456.61 701.62 457.31 708.13 450.81 714.63 457.31 715.34 456.61 708.83 450.1 715.34 443.59 714.63 442.89"/><polygon class="cls-1" points="739.38 467.63 732.87 474.14 726.37 467.63 725.66 468.34 732.17 474.85 725.66 481.36 726.37 482.06 732.87 475.56 739.38 482.06 740.09 481.36 733.58 474.85 740.09 468.34 739.38 467.63"/><polygon class="cls-1" points="764.13 492.38 757.62 498.89 751.12 492.38 750.41 493.09 756.91 499.6 750.41 506.1 751.12 506.81 757.62 500.3 764.13 506.81 764.84 506.1 758.33 499.6 764.84 493.09 764.13 492.38"/><polygon class="cls-1" points="788.88 517.13 782.37 523.64 775.86 517.13 775.16 517.84 781.66 524.35 775.16 530.85 775.86 531.56 782.37 525.05 788.88 531.56 789.59 530.85 783.08 524.35 789.59 517.84 788.88 517.13"/><polygon class="cls-1" points="813.63 541.88 807.12 548.39 800.61 541.88 799.91 542.59 806.41 549.1 799.91 555.6 800.61 556.31 807.12 549.8 813.63 556.31 814.33 555.6 807.83 549.1 814.33 542.59 813.63 541.88"/><polygon class="cls-1" points="838.38 566.63 831.87 573.14 825.36 566.63 824.65 567.34 831.16 573.84 824.65 580.35 825.36 581.06 831.87 574.55 838.38 581.06 839.08 580.35 832.58 573.84 839.08 567.34 838.38 566.63"/><polygon class="cls-1" points="615.64 393.39 609.13 399.89 602.62 393.39 601.92 394.1 608.42 400.6 601.92 407.11 602.62 407.82 609.13 401.31 615.64 407.82 616.34 407.11 609.84 400.6 616.34 394.1 615.64 393.39"/><polygon class="cls-1" points="640.38 418.14 633.88 424.64 627.37 418.14 626.66 418.84 633.17 425.35 626.66 431.86 627.37 432.56 633.88 426.06 640.38 432.56 641.09 431.86 634.59 425.35 641.09 418.84 640.38 418.14"/><polygon class="cls-1" points="665.13 442.89 658.63 449.39 652.12 442.89 651.41 443.59 657.92 450.1 651.41 456.61 652.12 457.31 658.63 450.81 665.13 457.31 665.84 456.61 659.33 450.1 665.84 443.59 665.13 442.89"/><polygon class="cls-1" points="689.88 467.63 683.38 474.14 676.87 467.63 676.16 468.34 682.67 474.85 676.16 481.36 676.87 482.06 683.38 475.56 689.88 482.06 690.59 481.36 684.08 474.85 690.59 468.34 689.88 467.63"/><polygon class="cls-1" points="714.63 492.38 708.13 498.89 701.62 492.38 700.91 493.09 707.42 499.6 700.91 506.1 701.62 506.81 708.13 500.3 714.63 506.81 715.34 506.1 708.83 499.6 715.34 493.09 714.63 492.38"/><polygon class="cls-1" points="739.38 517.13 732.87 523.64 726.37 517.13 725.66 517.84 732.17 524.35 725.66 530.85 726.37 531.56 732.87 525.05 739.38 531.56 740.09 530.85 733.58 524.35 740.09 517.84 739.38 517.13"/><polygon class="cls-1" points="764.13 541.88 757.62 548.39 751.12 541.88 750.41 542.59 756.91 549.1 750.41 555.6 751.12 556.31 757.62 549.8 764.13 556.31 764.84 555.6 758.33 549.1 764.84 542.59 764.13 541.88"/><polygon class="cls-1" points="788.88 566.63 782.37 573.14 775.86 566.63 775.16 567.34 781.66 573.84 775.16 580.35 775.86 581.06 782.37 574.55 788.88 581.06 789.59 580.35 783.08 573.84 789.59 567.34 788.88 566.63"/><polygon class="cls-1" points="813.63 591.38 807.12 597.88 800.61 591.38 799.91 592.09 806.41 598.59 799.91 605.1 800.61 605.81 807.12 599.3 813.63 605.81 814.33 605.1 807.83 598.59 814.33 592.09 813.63 591.38"/><polygon class="cls-1" points="838.38 616.13 831.87 622.63 825.36 616.13 824.65 616.83 831.16 623.34 824.65 629.85 825.36 630.55 831.87 624.05 838.38 630.55 839.08 629.85 832.58 623.34 839.08 616.83 838.38 616.13"/><polygon class="cls-1" points="590.89 418.14 584.38 424.64 577.87 418.14 577.17 418.84 583.67 425.35 577.17 431.86 577.87 432.56 584.38 426.06 590.89 432.56 591.6 431.86 585.09 425.35 591.6 418.84 590.89 418.14"/><polygon class="cls-1" points="615.64 442.89 609.13 449.39 602.62 442.89 601.92 443.59 608.42 450.1 601.92 456.61 602.62 457.31 609.13 450.81 615.64 457.31 616.34 456.61 609.84 450.1 616.34 443.59 615.64 442.89"/><polygon class="cls-1" points="640.38 467.63 633.88 474.14 627.37 467.63 626.66 468.34 633.17 474.85 626.66 481.36 627.37 482.06 633.88 475.56 640.38 482.06 641.09 481.36 634.59 474.85 641.09 468.34 640.38 467.63"/><polygon class="cls-1" points="665.13 492.38 658.63 498.89 652.12 492.38 651.41 493.09 657.92 499.6 651.41 506.1 652.12 506.81 658.63 500.3 665.13 506.81 665.84 506.1 659.33 499.6 665.84 493.09 665.13 492.38"/><polygon class="cls-1" points="689.88 517.13 683.38 523.64 676.87 517.13 676.16 517.84 682.67 524.35 676.16 530.85 676.87 531.56 683.38 525.05 689.88 531.56 690.59 530.85 684.08 524.35 690.59 517.84 689.88 517.13"/><polygon class="cls-1" points="714.63 541.88 708.13 548.39 701.62 541.88 700.91 542.59 707.42 549.1 700.91 555.6 701.62 556.31 708.13 549.8 714.63 556.31 715.34 555.6 708.83 549.1 715.34 542.59 714.63 541.88"/><polygon class="cls-1" points="739.38 566.63 732.87 573.14 726.37 566.63 725.66 567.34 732.17 573.84 725.66 580.35 726.37 581.06 732.87 574.55 739.38 581.06 740.09 580.35 733.58 573.84 740.09 567.34 739.38 566.63"/><polygon class="cls-1" points="764.13 591.38 757.62 597.88 751.12 591.38 750.41 592.09 756.91 598.59 750.41 605.1 751.12 605.81 757.62 599.3 764.13 605.81 764.84 605.1 758.33 598.59 764.84 592.09 764.13 591.38"/><polygon class="cls-1" points="788.88 616.13 782.37 622.63 775.86 616.13 775.16 616.83 781.66 623.34 775.16 629.85 775.86 630.55 782.37 624.05 788.88 630.55 789.59 629.85 783.08 623.34 789.59 616.83 788.88 616.13"/><polygon class="cls-1" points="813.63 640.88 807.12 647.38 800.61 640.88 799.91 641.58 806.41 648.09 799.91 654.6 800.61 655.3 807.12 648.8 813.63 655.3 814.33 654.6 807.83 648.09 814.33 641.58 813.63 640.88"/><polygon class="cls-1" points="838.38 665.62 831.87 672.13 825.36 665.62 824.65 666.33 831.16 672.84 824.65 679.35 825.36 680.05 831.87 673.54 838.38 680.05 839.08 679.35 832.58 672.84 839.08 666.33 838.38 665.62"/><polygon class="cls-1" points="566.14 442.89 559.63 449.39 553.13 442.89 552.42 443.59 558.92 450.1 552.42 456.61 553.13 457.31 559.63 450.81 566.14 457.31 566.85 456.61 560.34 450.1 566.85 443.59 566.14 442.89"/><polygon class="cls-1" points="590.89 467.63 584.38 474.14 577.87 467.63 577.17 468.34 583.67 474.85 577.17 481.36 577.87 482.06 584.38 475.56 590.89 482.06 591.6 481.36 585.09 474.85 591.6 468.34 590.89 467.63"/><polygon class="cls-1" points="615.64 492.38 609.13 498.89 602.62 492.38 601.92 493.09 608.42 499.6 601.92 506.1 602.62 506.81 609.13 500.3 615.64 506.81 616.34 506.1 609.84 499.6 616.34 493.09 615.64 492.38"/><polygon class="cls-1" points="640.38 517.13 633.88 523.64 627.37 517.13 626.66 517.84 633.17 524.35 626.66 530.85 627.37 531.56 633.88 525.05 640.38 531.56 641.09 530.85 634.59 524.35 641.09 517.84 640.38 517.13"/><polygon class="cls-1" points="665.13 541.88 658.63 548.39 652.12 541.88 651.41 542.59 657.92 549.1 651.41 555.6 652.12 556.31 658.63 549.8 665.13 556.31 665.84 555.6 659.33 549.1 665.84 542.59 665.13 541.88"/><polygon class="cls-1" points="689.88 566.63 683.38 573.14 676.87 566.63 676.16 567.34 682.67 573.84 676.16 580.35 676.87 581.06 683.38 574.55 689.88 581.06 690.59 580.35 684.08 573.84 690.59 567.34 689.88 566.63"/><polygon class="cls-1" points="714.63 591.38 708.13 597.88 701.62 591.38 700.91 592.09 707.42 598.59 700.91 605.1 701.62 605.81 708.13 599.3 714.63 605.81 715.34 605.1 708.83 598.59 715.34 592.09 714.63 591.38"/><polygon class="cls-1" points="739.38 616.13 732.87 622.63 726.37 616.13 725.66 616.83 732.17 623.34 725.66 629.85 726.37 630.55 732.87 624.05 739.38 630.55 740.09 629.85 733.58 623.34 740.09 616.83 739.38 616.13"/><polygon class="cls-1" points="764.13 640.88 757.62 647.38 751.12 640.88 750.41 641.58 756.91 648.09 750.41 654.6 751.12 655.3 757.62 648.8 764.13 655.3 764.84 654.6 758.33 648.09 764.84 641.58 764.13 640.88"/><polygon class="cls-1" points="788.88 665.62 782.37 672.13 775.86 665.62 775.16 666.33 781.66 672.84 775.16 679.35 775.86 680.05 782.37 673.54 788.88 680.05 789.59 679.35 783.08 672.84 789.59 666.33 788.88 665.62"/><polygon class="cls-1" points="813.63 690.37 807.12 696.88 800.61 690.37 799.91 691.08 806.41 697.59 799.91 704.09 800.61 704.8 807.12 698.29 813.63 704.8 814.33 704.09 807.83 697.59 814.33 691.08 813.63 690.37"/><polygon class="cls-1" points="838.38 715.12 831.87 721.63 825.36 715.12 824.65 715.83 831.16 722.34 824.65 728.84 825.36 729.55 831.87 723.04 838.38 729.55 839.08 728.84 832.58 722.34 839.08 715.83 838.38 715.12"/><polygon class="cls-1" points="566.14 492.38 559.63 498.89 553.13 492.38 552.42 493.09 558.92 499.6 552.42 506.1 553.13 506.81 559.63 500.3 566.14 506.81 566.85 506.1 560.34 499.6 566.85 493.09 566.14 492.38"/><polygon class="cls-1" points="590.89 517.13 584.38 523.64 577.87 517.13 577.17 517.84 583.67 524.35 577.17 530.85 577.87 531.56 584.38 525.05 590.89 531.56 591.6 530.85 585.09 524.35 591.6 517.84 590.89 517.13"/><polygon class="cls-1" points="615.64 541.88 609.13 548.39 602.62 541.88 601.92 542.59 608.42 549.1 601.92 555.6 602.62 556.31 609.13 549.8 615.64 556.31 616.34 555.6 609.84 549.1 616.34 542.59 615.64 541.88"/><polygon class="cls-1" points="640.38 566.63 633.88 573.14 627.37 566.63 626.66 567.34 633.17 573.84 626.66 580.35 627.37 581.06 633.88 574.55 640.38 581.06 641.09 580.35 634.59 573.84 641.09 567.34 640.38 566.63"/><polygon class="cls-1" points="665.13 591.38 658.63 597.88 652.12 591.38 651.41 592.09 657.92 598.59 651.41 605.1 652.12 605.81 658.63 599.3 665.13 605.81 665.84 605.1 659.33 598.59 665.84 592.09 665.13 591.38"/><polygon class="cls-1" points="689.88 616.13 683.38 622.63 676.87 616.13 676.16 616.83 682.67 623.34 676.16 629.85 676.87 630.55 683.38 624.05 689.88 630.55 690.59 629.85 684.08 623.34 690.59 616.83 689.88 616.13"/><polygon class="cls-1" points="714.63 640.88 708.13 647.38 701.62 640.88 700.91 641.58 707.42 648.09 700.91 654.6 701.62 655.3 708.13 648.8 714.63 655.3 715.34 654.6 708.83 648.09 715.34 641.58 714.63 640.88"/><polygon class="cls-1" points="739.38 665.62 732.87 672.13 726.37 665.62 725.66 666.33 732.17 672.84 725.66 679.35 726.37 680.05 732.87 673.54 739.38 680.05 740.09 679.35 733.58 672.84 740.09 666.33 739.38 665.62"/><polygon class="cls-1" points="764.13 690.37 757.62 696.88 751.12 690.37 750.41 691.08 756.91 697.59 750.41 704.09 751.12 704.8 757.62 698.29 764.13 704.8 764.84 704.09 758.33 697.59 764.84 691.08 764.13 690.37"/><polygon class="cls-1" points="788.88 715.12 782.37 721.63 775.86 715.12 775.16 715.83 781.66 722.34 775.16 728.84 775.86 729.55 782.37 723.04 788.88 729.55 789.59 728.84 783.08 722.34 789.59 715.83 788.88 715.12"/><polygon class="cls-1" points="813.63 739.87 807.12 746.38 800.61 739.87 799.91 740.58 806.41 747.09 799.91 753.59 800.61 754.3 807.12 747.79 813.63 754.3 814.33 753.59 807.83 747.09 814.33 740.58 813.63 739.87"/><polygon class="cls-1" points="838.38 764.62 831.87 771.13 825.36 764.62 824.65 765.33 831.16 771.83 824.65 778.34 825.36 779.05 831.87 772.54 838.38 779.05 839.08 778.34 832.58 771.83 839.08 765.33 838.38 764.62"/><polygon class="cls-1" points="541.39 517.13 534.88 523.64 528.38 517.13 527.67 517.84 534.18 524.35 527.67 530.85 528.38 531.56 534.88 525.05 541.39 531.56 542.1 530.85 535.59 524.35 542.1 517.84 541.39 517.13"/><polygon class="cls-1" points="566.14 541.88 559.63 548.39 553.13 541.88 552.42 542.59 558.92 549.1 552.42 555.6 553.13 556.31 559.63 549.8 566.14 556.31 566.85 555.6 560.34 549.1 566.85 542.59 566.14 541.88"/><polygon class="cls-1" points="590.89 566.63 584.38 573.14 577.87 566.63 577.17 567.34 583.67 573.84 577.17 580.35 577.87 581.06 584.38 574.55 590.89 581.06 591.6 580.35 585.09 573.84 591.6 567.34 590.89 566.63"/><polygon class="cls-1" points="615.64 591.38 609.13 597.88 602.62 591.38 601.92 592.09 608.42 598.59 601.92 605.1 602.62 605.81 609.13 599.3 615.64 605.81 616.34 605.1 609.84 598.59 616.34 592.09 615.64 591.38"/><polygon class="cls-1" points="640.38 616.13 633.88 622.63 627.37 616.13 626.66 616.83 633.17 623.34 626.66 629.85 627.37 630.55 633.88 624.05 640.38 630.55 641.09 629.85 634.59 623.34 641.09 616.83 640.38 616.13"/><polygon class="cls-1" points="665.13 640.88 658.63 647.38 652.12 640.88 651.41 641.58 657.92 648.09 651.41 654.6 652.12 655.3 658.63 648.8 665.13 655.3 665.84 654.6 659.33 648.09 665.84 641.58 665.13 640.88"/><polygon class="cls-1" points="689.88 665.62 683.38 672.13 676.87 665.62 676.16 666.33 682.67 672.84 676.16 679.35 676.87 680.05 683.38 673.54 689.88 680.05 690.59 679.35 684.08 672.84 690.59 666.33 689.88 665.62"/><polygon class="cls-1" points="714.63 690.37 708.13 696.88 701.62 690.37 700.91 691.08 707.42 697.59 700.91 704.09 701.62 704.8 708.13 698.29 714.63 704.8 715.34 704.09 708.83 697.59 715.34 691.08 714.63 690.37"/><polygon class="cls-1" points="739.38 715.12 732.87 721.63 726.37 715.12 725.66 715.83 732.17 722.34 725.66 728.84 726.37 729.55 732.87 723.04 739.38 729.55 740.09 728.84 733.58 722.34 740.09 715.83 739.38 715.12"/><polygon class="cls-1" points="764.13 739.87 757.62 746.38 751.12 739.87 750.41 740.58 756.91 747.09 750.41 753.59 751.12 754.3 757.62 747.79 764.13 754.3 764.84 753.59 758.33 747.09 764.84 740.58 764.13 739.87"/><polygon class="cls-1" points="788.88 764.62 782.37 771.13 775.86 764.62 775.16 765.33 781.66 771.83 775.16 778.34 775.86 779.05 782.37 772.54 788.88 779.05 789.59 778.34 783.08 771.83 789.59 765.33 788.88 764.62"/><polygon class="cls-1" points="813.63 789.37 807.12 795.88 800.61 789.37 799.91 790.08 806.41 796.58 799.91 803.09 800.61 803.8 807.12 797.29 813.63 803.8 814.33 803.09 807.83 796.58 814.33 790.08 813.63 789.37"/><polygon class="cls-1" points="838.38 814.12 831.87 820.62 825.36 814.12 824.65 814.82 831.16 821.33 824.65 827.84 825.36 828.54 831.87 822.04 838.38 828.54 839.08 827.84 832.58 821.33 839.08 814.82 838.38 814.12"/><polygon class="cls-1" points="541.39 566.63 534.88 573.14 528.38 566.63 527.67 567.34 534.18 573.84 527.67 580.35 528.38 581.06 534.88 574.55 541.39 581.06 542.1 580.35 535.59 573.84 542.1 567.34 541.39 566.63"/><polygon class="cls-1" points="566.14 591.38 559.63 597.88 553.13 591.38 552.42 592.09 558.92 598.59 552.42 605.1 553.13 605.81 559.63 599.3 566.14 605.81 566.85 605.1 560.34 598.59 566.85 592.09 566.14 591.38"/><polygon class="cls-1" points="590.89 616.13 584.38 622.63 577.87 616.13 577.17 616.83 583.67 623.34 577.17 629.85 577.87 630.55 584.38 624.05 590.89 630.55 591.6 629.85 585.09 623.34 591.6 616.83 590.89 616.13"/><polygon class="cls-1" points="615.64 640.88 609.13 647.38 602.62 640.88 601.92 641.58 608.42 648.09 601.92 654.6 602.62 655.3 609.13 648.8 615.64 655.3 616.34 654.6 609.84 648.09 616.34 641.58 615.64 640.88"/><polygon class="cls-1" points="640.38 665.62 633.88 672.13 627.37 665.62 626.66 666.33 633.17 672.84 626.66 679.35 627.37 680.05 633.88 673.54 640.38 680.05 641.09 679.35 634.59 672.84 641.09 666.33 640.38 665.62"/><polygon class="cls-1" points="665.13 690.37 658.63 696.88 652.12 690.37 651.41 691.08 657.92 697.59 651.41 704.09 652.12 704.8 658.63 698.29 665.13 704.8 665.84 704.09 659.33 697.59 665.84 691.08 665.13 690.37"/><polygon class="cls-1" points="689.88 715.12 683.38 721.63 676.87 715.12 676.16 715.83 682.67 722.34 676.16 728.84 676.87 729.55 683.38 723.04 689.88 729.55 690.59 728.84 684.08 722.34 690.59 715.83 689.88 715.12"/><polygon class="cls-1" points="714.63 739.87 708.13 746.38 701.62 739.87 700.91 740.58 707.42 747.09 700.91 753.59 701.62 754.3 708.13 747.79 714.63 754.3 715.34 753.59 708.83 747.09 715.34 740.58 714.63 739.87"/><polygon class="cls-1" points="739.38 764.62 732.87 771.13 726.37 764.62 725.66 765.33 732.17 771.83 725.66 778.34 726.37 779.05 732.87 772.54 739.38 779.05 740.09 778.34 733.58 771.83 740.09 765.33 739.38 764.62"/><polygon class="cls-1" points="764.13 789.37 757.62 795.88 751.12 789.37 750.41 790.08 756.91 796.58 750.41 803.09 751.12 803.8 757.62 797.29 764.13 803.8 764.84 803.09 758.33 796.58 764.84 790.08 764.13 789.37"/><polygon class="cls-1" points="788.88 814.12 782.37 820.62 775.86 814.12 775.16 814.82 781.66 821.33 775.16 827.84 775.86 828.54 782.37 822.04 788.88 828.54 789.59 827.84 783.08 821.33 789.59 814.82 788.88 814.12"/><polygon class="cls-1" points="813.63 838.87 807.12 845.37 800.61 838.87 799.91 839.57 806.41 846.08 799.91 852.59 800.61 853.29 807.12 846.79 813.63 853.29 814.33 852.59 807.83 846.08 814.33 839.57 813.63 838.87"/><polygon class="cls-1" points="838.38 863.61 831.87 870.12 825.36 863.61 824.65 864.32 831.16 870.83 824.65 877.34 825.36 878.04 831.87 871.53 838.38 878.04 839.08 877.34 832.58 870.83 839.08 864.32 838.38 863.61"/><polygon class="cls-1" points="541.39 616.13 534.88 622.63 528.38 616.13 527.67 616.83 534.18 623.34 527.67 629.85 528.38 630.55 534.88 624.05 541.39 630.55 542.1 629.85 535.59 623.34 542.1 616.83 541.39 616.13"/><polygon class="cls-1" points="566.14 640.88 559.63 647.38 553.13 640.88 552.42 641.58 558.92 648.09 552.42 654.6 553.13 655.3 559.63 648.8 566.14 655.3 566.85 654.6 560.34 648.09 566.85 641.58 566.14 640.88"/><polygon class="cls-1" points="590.89 665.62 584.38 672.13 577.87 665.62 577.17 666.33 583.67 672.84 577.17 679.35 577.87 680.05 584.38 673.54 590.89 680.05 591.6 679.35 585.09 672.84 591.6 666.33 590.89 665.62"/><polygon class="cls-1" points="615.64 690.37 609.13 696.88 602.62 690.37 601.92 691.08 608.42 697.59 601.92 704.09 602.62 704.8 609.13 698.29 615.64 704.8 616.34 704.09 609.84 697.59 616.34 691.08 615.64 690.37"/><polygon class="cls-1" points="640.38 715.12 633.88 721.63 627.37 715.12 626.66 715.83 633.17 722.34 626.66 728.84 627.37 729.55 633.88 723.04 640.38 729.55 641.09 728.84 634.59 722.34 641.09 715.83 640.38 715.12"/><polygon class="cls-1" points="665.13 739.87 658.63 746.38 652.12 739.87 651.41 740.58 657.92 747.09 651.41 753.59 652.12 754.3 658.63 747.79 665.13 754.3 665.84 753.59 659.33 747.09 665.84 740.58 665.13 739.87"/><polygon class="cls-1" points="689.88 764.62 683.38 771.13 676.87 764.62 676.16 765.33 682.67 771.83 676.16 778.34 676.87 779.05 683.38 772.54 689.88 779.05 690.59 778.34 684.08 771.83 690.59 765.33 689.88 764.62"/><polygon class="cls-1" points="714.63 789.37 708.13 795.88 701.62 789.37 700.91 790.08 707.42 796.58 700.91 803.09 701.62 803.8 708.13 797.29 714.63 803.8 715.34 803.09 708.83 796.58 715.34 790.08 714.63 789.37"/><polygon class="cls-1" points="739.38 814.12 732.87 820.62 726.37 814.12 725.66 814.82 732.17 821.33 725.66 827.84 726.37 828.54 732.87 822.04 739.38 828.54 740.09 827.84 733.58 821.33 740.09 814.82 739.38 814.12"/><polygon class="cls-1" points="764.13 838.87 757.62 845.37 751.12 838.87 750.41 839.57 756.91 846.08 750.41 852.59 751.12 853.29 757.62 846.79 764.13 853.29 764.84 852.59 758.33 846.08 764.84 839.57 764.13 838.87"/><polygon class="cls-1" points="788.88 863.61 782.37 870.12 775.86 863.61 775.16 864.32 781.66 870.83 775.16 877.34 775.86 878.04 782.37 871.53 788.88 878.04 789.59 877.34 783.08 870.83 789.59 864.32 788.88 863.61"/><polygon class="cls-1" points="813.63 888.36 807.12 894.87 800.61 888.36 799.91 889.07 806.41 895.58 799.91 902.08 800.61 902.79 807.12 896.28 813.63 902.79 814.33 902.08 807.83 895.58 814.33 889.07 813.63 888.36"/><polygon class="cls-1" points="838.38 913.11 831.87 919.62 825.36 913.11 824.65 913.82 831.16 920.33 824.65 926.83 825.36 927.54 831.87 921.03 838.38 927.54 839.08 926.83 832.58 920.33 839.08 913.82 838.38 913.11"/><polygon class="cls-1" points="566.14 690.37 559.63 696.88 553.13 690.37 552.42 691.08 558.92 697.59 552.42 704.09 553.13 704.8 559.63 698.29 566.14 704.8 566.85 704.09 560.34 697.59 566.85 691.08 566.14 690.37"/><polygon class="cls-1" points="590.89 715.12 584.38 721.63 577.87 715.12 577.17 715.83 583.67 722.34 577.17 728.84 577.87 729.55 584.38 723.04 590.89 729.55 591.6 728.84 585.09 722.34 591.6 715.83 590.89 715.12"/><polygon class="cls-1" points="615.64 739.87 609.13 746.38 602.62 739.87 601.92 740.58 608.42 747.09 601.92 753.59 602.62 754.3 609.13 747.79 615.64 754.3 616.34 753.59 609.84 747.09 616.34 740.58 615.64 739.87"/><polygon class="cls-1" points="640.38 764.62 633.88 771.13 627.37 764.62 626.66 765.33 633.17 771.83 626.66 778.34 627.37 779.05 633.88 772.54 640.38 779.05 641.09 778.34 634.59 771.83 641.09 765.33 640.38 764.62"/><polygon class="cls-1" points="665.13 789.37 658.63 795.88 652.12 789.37 651.41 790.08 657.92 796.58 651.41 803.09 652.12 803.8 658.63 797.29 665.13 803.8 665.84 803.09 659.33 796.58 665.84 790.08 665.13 789.37"/><polygon class="cls-1" points="689.88 814.12 683.38 820.62 676.87 814.12 676.16 814.82 682.67 821.33 676.16 827.84 676.87 828.54 683.38 822.04 689.88 828.54 690.59 827.84 684.08 821.33 690.59 814.82 689.88 814.12"/><polygon class="cls-1" points="714.63 838.87 708.13 845.37 701.62 838.87 700.91 839.57 707.42 846.08 700.91 852.59 701.62 853.29 708.13 846.79 714.63 853.29 715.34 852.59 708.83 846.08 715.34 839.57 714.63 838.87"/><polygon class="cls-1" points="739.38 863.61 732.87 870.12 726.37 863.61 725.66 864.32 732.17 870.83 725.66 877.34 726.37 878.04 732.87 871.53 739.38 878.04 740.09 877.34 733.58 870.83 740.09 864.32 739.38 863.61"/><polygon class="cls-1" points="764.13 888.36 757.62 894.87 751.12 888.36 750.41 889.07 756.91 895.58 750.41 902.08 751.12 902.79 757.62 896.28 764.13 902.79 764.84 902.08 758.33 895.58 764.84 889.07 764.13 888.36"/><polygon class="cls-1" points="788.88 913.11 782.37 919.62 775.86 913.11 775.16 913.82 781.66 920.33 775.16 926.83 775.86 927.54 782.37 921.03 788.88 927.54 789.59 926.83 783.08 920.33 789.59 913.82 788.88 913.11"/><polygon class="cls-1" points="813.63 937.86 807.12 944.37 800.61 937.86 799.91 938.57 806.41 945.07 799.91 951.58 800.61 952.29 807.12 945.78 813.63 952.29 814.33 951.58 807.83 945.07 814.33 938.57 813.63 937.86"/><polygon class="cls-1" points="838.38 962.61 831.87 969.12 825.36 962.61 824.65 963.32 831.16 969.82 824.65 976.33 825.36 977.04 831.87 970.53 838.38 977.04 839.08 976.33 832.58 969.82 839.08 963.32 838.38 962.61"/><polygon class="cls-1" points="640.38 814.12 633.88 820.62 627.37 814.12 626.66 814.82 633.17 821.33 626.66 827.84 627.37 828.54 633.88 822.04 640.38 828.54 641.09 827.84 634.59 821.33 641.09 814.82 640.38 814.12"/><polygon class="cls-1" points="665.13 838.87 658.63 845.37 652.12 838.87 651.41 839.57 657.92 846.08 651.41 852.59 652.12 853.29 658.63 846.79 665.13 853.29 665.84 852.59 659.33 846.08 665.84 839.57 665.13 838.87"/><polygon class="cls-1" points="689.88 863.61 683.38 870.12 676.87 863.61 676.16 864.32 682.67 870.83 676.16 877.34 676.87 878.04 683.38 871.53 689.88 878.04 690.59 877.34 684.08 870.83 690.59 864.32 689.88 863.61"/><polygon class="cls-1" points="714.63 888.36 708.13 894.87 701.62 888.36 700.91 889.07 707.42 895.58 700.91 902.08 701.62 902.79 708.13 896.28 714.63 902.79 715.34 902.08 708.83 895.58 715.34 889.07 714.63 888.36"/><polygon class="cls-1" points="739.38 913.11 732.87 919.62 726.37 913.11 725.66 913.82 732.17 920.33 725.66 926.83 726.37 927.54 732.87 921.03 739.38 927.54 740.09 926.83 733.58 920.33 740.09 913.82 739.38 913.11"/><polygon class="cls-1" points="764.13 937.86 757.62 944.37 751.12 937.86 750.41 938.57 756.91 945.07 750.41 951.58 751.12 952.29 757.62 945.78 764.13 952.29 764.84 951.58 758.33 945.07 764.84 938.57 764.13 937.86"/><polygon class="cls-1" points="788.88 962.61 782.37 969.12 775.86 962.61 775.16 963.32 781.66 969.82 775.16 976.33 775.86 977.04 782.37 970.53 788.88 977.04 789.59 976.33 783.08 969.82 789.59 963.32 788.88 962.61"/><polygon class="cls-1" points="813.63 987.36 807.12 993.87 800.61 987.36 799.91 988.07 806.41 994.57 799.91 1001.08 800.61 1001.79 807.12 995.28 813.63 1001.79 814.33 1001.08 807.83 994.57 814.33 988.07 813.63 987.36"/><polygon class="cls-1" points="838.38 1012.11 831.87 1018.61 825.36 1012.11 824.65 1012.81 831.16 1019.32 824.65 1025.83 825.36 1026.54 831.87 1020.03 838.38 1026.54 839.08 1025.83 832.58 1019.32 839.08 1012.81 838.38 1012.11"/><polygon class="cls-1" points="714.63 937.86 708.13 944.37 701.62 937.86 700.91 938.57 707.42 945.07 700.91 951.58 701.62 952.29 708.13 945.78 714.63 952.29 715.34 951.58 708.83 945.07 715.34 938.57 714.63 937.86"/><polygon class="cls-1" points="739.38 962.61 732.87 969.12 726.37 962.61 725.66 963.32 732.17 969.82 725.66 976.33 726.37 977.04 732.87 970.53 739.38 977.04 740.09 976.33 733.58 969.82 740.09 963.32 739.38 962.61"/><polygon class="cls-1" points="764.13 987.36 757.62 993.87 751.12 987.36 750.41 988.07 756.91 994.57 750.41 1001.08 751.12 1001.79 757.62 995.28 764.13 1001.79 764.84 1001.08 758.33 994.57 764.84 988.07 764.13 987.36"/><polygon class="cls-1" points="788.88 1012.11 782.37 1018.61 775.86 1012.11 775.16 1012.81 781.66 1019.32 775.16 1025.83 775.86 1026.54 782.37 1020.03 788.88 1026.54 789.59 1025.83 783.08 1019.32 789.59 1012.81 788.88 1012.11"/><polygon class="cls-1" points="813.63 1036.86 807.12 1043.36 800.61 1036.86 799.91 1037.56 806.41 1044.07 799.91 1050.58 800.61 1051.28 807.12 1044.78 813.63 1051.28 814.33 1050.58 807.83 1044.07 814.33 1037.56 813.63 1036.86"/><polygon class="cls-1" points="838.38 1061.6 831.87 1068.11 825.36 1061.6 824.65 1062.31 831.16 1068.82 824.65 1075.33 825.36 1076.03 831.87 1069.53 838.38 1076.03 839.08 1075.33 832.58 1068.82 839.08 1062.31 838.38 1061.6"/><polygon class="cls-1" points="739.38 1012.11 732.87 1018.61 726.37 1012.11 725.66 1012.81 732.17 1019.32 725.66 1025.83 726.37 1026.54 732.87 1020.03 739.38 1026.54 740.09 1025.83 733.58 1019.32 740.09 1012.81 739.38 1012.11"/><polygon class="cls-1" points="764.13 1036.86 757.62 1043.36 751.12 1036.86 750.41 1037.56 756.91 1044.07 750.41 1050.58 751.12 1051.28 757.62 1044.78 764.13 1051.28 764.84 1050.58 758.33 1044.07 764.84 1037.56 764.13 1036.86"/><polygon class="cls-1" points="788.88 1061.6 782.37 1068.11 775.86 1061.6 775.16 1062.31 781.66 1068.82 775.16 1075.33 775.86 1076.03 782.37 1069.53 788.88 1076.03 789.59 1075.33 783.08 1068.82 789.59 1062.31 788.88 1061.6"/><polygon class="cls-1" points="813.63 1086.35 807.12 1092.86 800.61 1086.35 799.91 1087.06 806.41 1093.57 799.91 1100.07 800.61 1100.78 807.12 1094.27 813.63 1100.78 814.33 1100.07 807.83 1093.57 814.33 1087.06 813.63 1086.35"/><polygon class="cls-1" points="838.38 1111.1 831.87 1117.61 825.36 1111.1 824.65 1111.81 831.16 1118.32 824.65 1124.82 825.36 1125.53 831.87 1119.02 838.38 1125.53 839.08 1124.82 832.58 1118.32 839.08 1111.81 838.38 1111.1"/><polygon class="cls-1" points="764.13 1086.35 757.62 1092.86 751.12 1086.35 750.41 1087.06 756.91 1093.57 750.41 1100.07 751.12 1100.78 757.62 1094.27 764.13 1100.78 764.84 1100.07 758.33 1093.57 764.84 1087.06 764.13 1086.35"/><polygon class="cls-1" points="788.88 1111.1 782.37 1117.61 775.86 1111.1 775.16 1111.81 781.66 1118.32 775.16 1124.82 775.86 1125.53 782.37 1119.02 788.88 1125.53 789.59 1124.82 783.08 1118.32 789.59 1111.81 788.88 1111.1"/></g><g id="Layer_4" data-name="Layer 4"><path class="cls-2" d="M849.87,97.16C482.42-7.78,152-10.58,59.05,156-31.72,318.63,38.18,587.78,94.26,704.8c78.81,164.46,214.23,254.81,283.59,457.55,30.61,89.47,51.75,139.48,95.81,183.39,94.37,94.07,248.47,72.91,384,41.37"/><path class="cls-2" d="M850.65,125.13C520.06,29.88,217.12,23.67,123.58,174.87,29.7,326.62,87.5,588,143.3,706.21c73.46,154.3,196.34,233.24,264.22,424.16,32.62,91.77,50.06,142.88,95.91,189.09,88.42,88.48,231.17,71.86,355.7,44.92"/><path class="cls-2" d="M851.44,153.1C557.7,67.54,281.92,57.89,188.1,193.79c-97.25,140.87-51.64,394.62,4.25,513.83C260,852,371.07,919.21,437.18,1098.38c34.71,94.07,48.22,146.44,96,194.8,82.19,83.16,213.87,70.82,327.41,48.47"/><path class="cls-2" d="M852.22,181.07C595.34,105.2,346.35,92,252.63,212.7c-100.94,130-67,376-11.24,496.33,62.19,134.24,161.35,189.86,225.46,357.37,36.87,96.34,46.47,149.9,96.12,200.5,76.18,77.64,196.56,69.78,299.12,52"/><path class="cls-2" d="M853,209C633,142.86,410.37,126,317.16,231.62c-105,119-82.29,357.35-26.72,478.82,56.77,124.1,144.2,168.06,206.07,324,39.12,98.59,44.74,153.34,96.23,206.2,70.2,72.08,179.26,68.74,270.82,55.57"/><path class="cls-2" d="M853.79,237C670.61,180.52,474,159.7,381.69,250.53c-109.51,107.82-97.55,338.69-42.21,461.32C390.91,825.79,466.75,858,526.17,1002.43c41.49,100.8,43,156.77,96.34,211.91,64.26,66.48,162,67.7,242.53,59.11"/><path class="cls-2" d="M854.58,265c-146.33-46.8-317.47-71.93-408.37,4.47-114.48,96.21-112.74,320-57.68,443.81C434.67,817,499,837.48,555.84,970.45c44,103,41.35,160.17,96.44,217.61,58.35,60.85,144.66,66.65,214.23,62.66"/><path class="cls-2" d="M855.36,293c-109.47-37.12-255.43-67-344.62-4.59-119.92,84-127.85,301.27-73.16,426.31,40.9,93.52,93.93,102.18,147.92,223.79,46.63,105,39.7,163.54,96.55,223.32C734.52,1217,809.41,1227.39,868,1228"/><path class="cls-2" d="M856.15,320.91c-72.63-27.42-193.61-62.74-280.88-13.63C449.53,378,432.42,589.77,486.62,716.08c35.74,83.28,77.51,80.06,128.55,190.4,49.49,107,38.1,166.85,96.65,229,46.62,49.5,110.06,64.57,157.64,69.76"/><path class="cls-2" d="M856.93,348.88c-35.77-17.73-131.75-59.17-217.13-22.69-131.75,56.29-157.68,263.65-104.13,391.3,30.63,73,61.21,57.85,109.16,157,52.63,108.84,36.58,170.1,96.76,234.72,40.79,43.8,92.76,63.53,129.35,73.31"/></g></svg>