<svg id="Layer_1" data-name="Layer 1" xmlns="http://www.w3.org/2000/svg" viewBox="0 0 73.71 74.14"><defs><style>.cls-1{fill:#ebebeb;}</style></defs><g id="Layer_2" data-name="Layer 2"><g id="Layer_1-2" data-name="Layer 1-2"><path class="cls-1" d="M0,21.5H12.46v5.68a11.28,11.28,0,0,1,4.91-4.83A13.61,13.61,0,0,1,23.83,21c.31,0,.86.08,2.49.16V32.87A11,11,0,0,0,21,31.62a8.16,8.16,0,0,0-5.69,1.87c-2.64,2.41-2.8,6.07-2.8,7.94V56.31H0Z"/><path class="cls-1" d="M38.09,0a7,7,0,1,1-7,7A7,7,0,0,1,38.09,0Zm6.23,21.5V74.14H31.86V21.5Z"/><path class="cls-1" d="M50.16,31.7V21.5h7.09V10.05H69.71V21.5h4V31.7h-4V56.31H57.25V31.7Z"/></g></g></svg>