<?xml version="1.0" encoding="utf-8"?>
<!-- Generator: Adobe Illustrator 25.0.1, SVG Export Plug-In . SVG Version: 6.00 Build 0)  -->
<svg version="1.1" id="Layer_1" xmlns="http://www.w3.org/2000/svg" xmlns:xlink="http://www.w3.org/1999/xlink" x="0px" y="0px"
	 viewBox="0 0 73.7 74.1" style="enable-background:new 0 0 73.7 74.1;" xml:space="preserve">
<style type="text/css">
	.st0{fill:#2B3037;}
</style>
<g id="Layer_2_1_">
	<g id="Layer_1-2">
		<path class="st0" d="M0,21.5h12.5v5.7c1.1-2.1,2.8-3.8,4.9-4.8c2-1,4.2-1.4,6.5-1.4c0.3,0,0.9,0.1,2.5,0.2v11.7
			c-1.6-0.9-3.5-1.3-5.3-1.2c-2.1-0.1-4.1,0.5-5.7,1.9c-2.6,2.4-2.8,6.1-2.8,7.9v14.9H0V21.5z"/>
		<path class="st0" d="M38.1,0c3.9,0,7,3.1,7,7s-3.1,7-7,7s-7-3.1-7-7S34.2,0,38.1,0z M44.3,21.5v52.6H31.9V21.5H44.3z"/>
		<path class="st0" d="M50.2,31.7V21.5h7.1V10.1h12.5v11.4h4v10.2h-4v24.6H57.3V31.7H50.2z"/>
	</g>
</g>
</svg>
